<!--Generated by kepler builder - Material rounded--><svg xmlns="http://www.w3.org/2000/svg"><symbol viewBox="0 0 24 24" fill="currentColor" id="kp_icon_alert_circle"><path d="M12 2a10 10 0 1 0 0 20 10 10 0 0 0 0-20zm1 15h-2v-2h2v2zm0-4h-2V7h2v6z"/></symbol><symbol viewBox="0 0 24 24" fill="currentColor" id="kp_icon_alert_triangle"><path d="M4.47 21h15.06a2 2 0 0 0 1.73-3L13.73 4.99a2 2 0 0 0-3.46 0L2.74 18a2 2 0 0 0 1.73 3zM12 14a1 1 0 0 1-1-1v-2c0-.55.45-1 1-1s1 .45 1 1v2a1 1 0 0 1-1 1zm1 4h-2v-2h2v2z"/></symbol><symbol viewBox="0 0 24 24" fill="currentColor" id="kp_icon_archive"><path d="M20.54 5.23l-1.39-1.68A1.45 1.45 0 0 0 18 3H6c-.47 0-.88.21-1.16.55L3.46 5.23C3.17 5.57 3 6.02 3 6.5V19c0 1.1.9 2 2 2h14a2 2 0 0 0 2-2V6.5c0-.48-.17-.93-.46-1.27zm-8.89 11.92L6.5 12H10v-2h4v2h3.5l-5.15 5.15a.5.5 0 0 1-.7 0zM5.12 5l.81-1h12l.94 1z"/></symbol><symbol viewBox="0 0 24 24" fill="currentColor" id="kp_icon_arrow_down_circle"><path d="M12 2a10 10 0 1 0 0 20 10 10 0 0 0 0-20zm-.35 12.65l-2.79-2.79a.5.5 0 0 1 .35-.86h5.59a.5.5 0 0 1 .35.85l-2.79 2.79a.5.5 0 0 1-.71.01z"/></symbol><symbol viewBox="0 0 24 24" fill="currentColor" id="kp_icon_arrow_down_left"><path d="M16.2 6.3l-7.9 7.9V7.3c0-.6-.5-1-1-1-.6 0-1 .4-1 1v9.3c0 .6.4 1 1 1h9.3c.6 0 1-.4 1-1s-.4-1-1-1H9.8l7.9-7.9c.4-.4.4-1 0-1.4s-1.1-.3-1.5 0z"/></symbol><symbol viewBox="0 0 24 24" fill="currentColor" id="kp_icon_arrow_down_right"><path d="M6.3 7.8l7.9 7.9H7.3a1 1 0 0 0-1 1c0 .6.4 1 1 1h9.3c.6 0 1-.4 1-1V7.3c0-.6-.4-1-1-1s-1 .4-1 1v6.9L7.8 6.3c-.4-.3-1.1-.3-1.5 0s-.3 1.1 0 1.5z"/></symbol><symbol viewBox="0 0 24 24" fill="currentColor" id="kp_icon_arrow_down"><path d="M11 5v11.17l-4.88-4.88c-.39-.39-1.03-.39-1.42 0s-.39 1.02 0 1.41l6.59 6.59a1 1 0 0 0 1.41 0l6.59-6.59a1 1 0 1 0-1.41-1.41L13 16.17V5c0-.55-.45-1-1-1s-1 .45-1 1z"/></symbol><symbol viewBox="0 0 24 24" fill="currentColor" id="kp_icon_arrow_left_circle"><path d="M22 12c0-5.5-4.5-10-10-10S2 6.5 2 12s4.5 10 10 10 10-4.5 10-10zm-12.6-.4l2.8-2.8c.3-.3.8 0 .8.4v5.6c0 .4-.5.7-.9.4l-2.8-2.8c-.1-.2-.1-.6.1-.8z"/></symbol><symbol viewBox="0 0 24 24" fill="currentColor" id="kp_icon_arrow_left"><path d="M19 11H7.83l4.88-4.88c.39-.39.39-1.03 0-1.42s-1.02-.39-1.41 0l-6.59 6.59a1 1 0 0 0 0 1.41l6.59 6.59a1 1 0 1 0 1.41-1.41L7.83 13H19c.55 0 1-.45 1-1s-.45-1-1-1z"/></symbol><symbol viewBox="0 0 24 24" fill="currentColor" id="kp_icon_arrow_right_circle"><path d="M2 12c0 5.5 4.5 10 10 10s10-4.5 10-10S17.5 2 12 2 2 6.5 2 12zm12.6.4l-2.8 2.8c-.3.3-.9.1-.9-.4V9.2c0-.4.5-.7.9-.4l2.8 2.8c.2.2.2.6 0 .8z"/></symbol><symbol viewBox="0 0 24 24" fill="currentColor" id="kp_icon_arrow_right"><path d="M5 13h11.17l-4.88 4.88c-.39.39-.39 1.03 0 1.42s1.02.39 1.41 0l6.59-6.59a1 1 0 0 0 0-1.41l-6.58-6.6a1 1 0 1 0-1.41 1.41L16.17 11H5c-.55 0-1 .45-1 1s.45 1 1 1z"/></symbol><symbol viewBox="0 0 24 24" fill="currentColor" id="kp_icon_arrow_up_circle"><path d="M12 22c5.5 0 10-4.5 10-10S17.5 2 12 2 2 6.5 2 12s4.5 10 10 10zm.4-12.6l2.8 2.8c.3.3.1.9-.4.9H9.2c-.4 0-.7-.5-.4-.9l2.8-2.8c.2-.2.6-.2.8 0z"/></symbol><symbol viewBox="0 0 24 24" fill="currentColor" id="kp_icon_arrow_up_left"><path d="M17.7 16.2L9.8 8.3h6.9a1 1 0 0 0 0-2H7.4c-.6 0-1 .4-1 1v9.3c0 .6.4 1 1 1s1-.4 1-1V9.8l7.9 7.9c.4.4 1 .4 1.4 0s.3-1.1 0-1.5z"/></symbol><symbol viewBox="0 0 24 24" fill="currentColor" id="kp_icon_arrow_up_right"><path d="M7.8 17.7l7.9-7.9v6.9a1 1 0 0 0 2 0V7.3c0-.6-.4-1-1-1H7.3c-.6 0-1 .4-1 1s.4 1 1 1h6.9l-7.9 7.9c-.4.4-.4 1 0 1.4s1.1.4 1.5.1z"/></symbol><symbol viewBox="0 0 24 24" fill="currentColor" id="kp_icon_arrow_up"><path d="M13 19V7.83l4.88 4.88c.39.39 1.03.39 1.42 0s.39-1.02 0-1.41l-6.59-6.59a1 1 0 0 0-1.41 0l-6.6 6.58a1 1 0 1 0 1.41 1.41L11 7.83V19c0 .55.45 1 1 1s1-.45 1-1z"/></symbol><symbol viewBox="0 0 24 24" fill="currentColor" id="kp_icon_at_sign"><path d="M12.72 2.03A10 10 0 0 0 2.03 12.72C2.39 18.01 7.01 22 12.31 22H16c.55 0 1-.45 1-1s-.45-1-1-1h-3.67a8.27 8.27 0 0 1-8.08-6.03 8.03 8.03 0 0 1 9.71-9.71A8.25 8.25 0 0 1 20 12.33v1.1c0 .79-.71 1.57-1.5 1.57s-1.5-.78-1.5-1.57v-1.25a5.11 5.11 0 0 0-4.26-5.12 5 5 0 1 0 2.8 8.48 3.7 3.7 0 0 0 4.3 1.21A3.56 3.56 0 0 0 22 13.41v-1.09c0-5.31-3.99-9.93-9.28-10.29zM12 15a3 3 0 1 1 0-6 3 3 0 0 1 0 6z"/></symbol><symbol viewBox="0 0 24 24" fill="currentColor" id="kp_icon_bar_chart"><path d="M6.4 9.2h.2c.77 0 1.4.63 1.4 1.4v7c0 .77-.63 1.4-1.4 1.4h-.2A1.4 1.4 0 0 1 5 17.6v-7c0-.77.63-1.4 1.4-1.4zM12 5c.77 0 1.4.63 1.4 1.4v11.2c0 .77-.63 1.4-1.4 1.4s-1.4-.63-1.4-1.4V6.4c0-.77.63-1.4 1.4-1.4zm5.6 8c.77 0 1.4.63 1.4 1.4v3.2c0 .77-.63 1.4-1.4 1.4s-1.4-.63-1.4-1.4v-3.2c0-.77.63-1.4 1.4-1.4z"/></symbol><symbol viewBox="0 0 24 24" fill="currentColor" id="kp_icon_battery_charging"><path d="M15.67 4H14V3a1 1 0 0 0-1-1h-2a1 1 0 0 0-1 1v1H8.33C7.6 4 7 4.6 7 5.33v15.33C7 21.4 7.6 22 8.34 22h7.32c.74 0 1.34-.6 1.34-1.33V5.33C17 4.6 16.4 4 15.67 4zm-1.06 9.24l-2.67 5c-.24.45-.94.28-.94-.24v-3.5H9.83a.5.5 0 0 1-.44-.74l2.67-5c.24-.45.94-.28.94.24v3.5h1.17c.37 0 .62.4.44.74z"/></symbol><symbol viewBox="0 0 24 24" fill="currentColor" id="kp_icon_battery"><path d="M15.67 4H14V3a1 1 0 0 0-1-1h-2a1 1 0 0 0-1 1v1H8.33C7.6 4 7 4.6 7 5.33v15.33C7 21.4 7.6 22 8.34 22h7.32c.74 0 1.34-.6 1.34-1.33V5.33C17 4.6 16.4 4 15.67 4z"/></symbol><symbol viewBox="0 0 24 24" fill="currentColor" id="kp_icon_bell_off"><path d="M12 22a2 2 0 0 0 2-2h-4a2 2 0 0 0 2 2zm6-11c0-3.07-1.64-5.64-4.5-6.32V4a1.5 1.5 0 1 0-3 0v.68c-.24.06-.47.15-.69.23L18 13.1zM5.41 3.35L4 4.76l2.81 2.81C6.29 8.57 6 9.73 6 11v5l-1.29 1.29a1 1 0 0 0 .7 1.71h12.83l1.74 1.74 1.41-1.41z"/></symbol><symbol viewBox="0 0 24 24" fill="currentColor" id="kp_icon_bell"><path d="M18 16v-5c0-3.07-1.64-5.64-4.5-6.32V4c0-.83-.68-1.5-1.51-1.5S10.5 3.17 10.5 4v.68C7.63 5.36 6 7.92 6 11v5l-1.3 1.29A1 1 0 0 0 5.4 19h13.17a1 1 0 0 0 .71-1.71zm-6.01 6a2 2 0 0 0 2-2h-4a2 2 0 0 0 2 2zM6.77 4.73A.99.99 0 0 0 6.8 3.3a1 1 0 0 0-1.39-.02 10.42 10.42 0 0 0-3.27 6.06c-.09.61.38 1.16 1 1.16a1 1 0 0 0 .98-.83 8.44 8.44 0 0 1 2.65-4.94zM18.6 3.28a1.01 1.01 0 0 0-1.4.02.98.98 0 0 0 .03 1.42 8.5 8.5 0 0 1 2.65 4.94c.07.48.49.83.98.83a1 1 0 0 0 .99-1.16 10.49 10.49 0 0 0-3.25-6.05z"/></symbol><symbol viewBox="0 0 24 24" fill="currentColor" id="kp_icon_bluetooth"><path d="M17 7l-4.29-4.29a1 1 0 0 0-1.71.7v6.18L7.11 5.7A1 1 0 1 0 5.7 7.11L10.59 12 5.7 16.89a1 1 0 1 0 1.41 1.41L11 14.41v6.18a1 1 0 0 0 1.71.71L17 17a1 1 0 0 0 0-1.41L13.41 12 17 8.42A1 1 0 0 0 17 7zm-4-1.17l1.88 1.88L13 9.59zm1.88 10.46L13 18.17v-3.76z"/></symbol><symbol viewBox="0 0 24 24" fill="currentColor" id="kp_icon_book_open"><path d="M17.5 4.5c-1.95 0-4.05.4-5.5 1.5-1.45-1.1-3.55-1.5-5.5-1.5-1.45 0-2.99.22-4.28.79A2.04 2.04 0 0 0 1 7.14v11.28a2 2 0 0 0 2.48 1.94C4.46 20.11 5.5 20 6.5 20c1.56 0 3.22.26 4.56.92.6.3 1.28.3 1.87 0 1.34-.67 3-.92 4.56-.92 1 0 2.04.11 3.02.36a1.99 1.99 0 0 0 2.48-1.94V7.14c0-.81-.49-1.52-1.22-1.85a10.74 10.74 0 0 0-4.27-.79zM21 17.23c0 .63-.58 1.09-1.2.98a12.6 12.6 0 0 0-2.3-.2c-1.7 0-4.15.65-5.5 1.5V8c1.35-.85 3.8-1.5 5.5-1.5.92 0 1.83.09 2.7.28.46.1.8.51.8.98z"/></symbol><symbol viewBox="0 0 24 24" fill="currentColor" id="kp_icon_book"><path d="M18 2H6a2 2 0 0 0-2 2v16c0 1.1.9 2 2 2h12a2 2 0 0 0 2-2V4a2 2 0 0 0-2-2zM6 4h5v8l-2.5-1.5L6 12z"/></symbol><symbol viewBox="0 0 24 24" fill="currentColor" id="kp_icon_bookmark"><path d="M17 3H7a2 2 0 0 0-2 2v16l7-3 7 3V5a2 2 0 0 0-2-2z"/></symbol><symbol viewBox="0 0 24 24" fill="currentColor" id="kp_icon_briefcase"><path d="M13 16h-2a1 1 0 0 1-1-1H3.01v4c0 1.1.9 2 2 2H19a2 2 0 0 0 2-2v-4h-7a1 1 0 0 1-1 1zm7-9h-4a4 4 0 1 0-8 0H4a2 2 0 0 0-2 2v3a2 2 0 0 0 2 2h6v-1a1 1 0 0 1 1-1h2a1 1 0 0 1 1 1v1h6a2 2 0 0 0 2-2V9a2 2 0 0 0-2-2zM10 7c0-1.1.9-2 2-2s2 .9 2 2H9.99z"/></symbol><symbol viewBox="0 0 24 24" fill="currentColor" id="kp_icon_brush"><path d="M7 14a3 3 0 0 0-3 3c0 1.31-1.16 2-2 2 .92 1.22 2.49 2 4 2a4 4 0 0 0 4-4 3 3 0 0 0-3-3zm13.71-9.37l-1.34-1.34a1 1 0 0 0-1.41 0L9 12.25 11.75 15l8.96-8.96a1 1 0 0 0 0-1.41z"/></symbol><symbol viewBox="0 0 24 24" fill="currentColor" id="kp_icon_calendar"><path d="M19 3h-1V2c0-.55-.45-1-1-1s-1 .45-1 1v1H8V2c0-.55-.45-1-1-1s-1 .45-1 1v1H5a2 2 0 0 0-1.99 2L3 19a2 2 0 0 0 2 2h14a2 2 0 0 0 2-2V5a2 2 0 0 0-2-2zm-1 16H6a1 1 0 0 1-1-1V8h14v10a1 1 0 0 1-1 1zM8 10h3a1 1 0 0 1 1 1v3a1 1 0 0 1-1 1H8a1 1 0 0 1-1-1v-3a1 1 0 0 1 1-1z"/></symbol><symbol viewBox="0 0 24 24" fill="currentColor" id="kp_icon_camera"><circle cx="12" cy="12" r="3"/><path d="M20 4h-3.17l-1.24-1.35A2 2 0 0 0 14.12 2H9.88c-.56 0-1.1.24-1.48.65L7.17 4H4a2 2 0 0 0-2 2v12c0 1.1.9 2 2 2h16a2 2 0 0 0 2-2V6a2 2 0 0 0-2-2zm-8 13a5 5 0 1 1 0-10 5 5 0 0 1 0 10z"/></symbol><symbol viewBox="0 0 24 24" fill="currentColor" id="kp_icon_cast"><path d="M1 10v2a9 9 0 0 1 9 9h2A11 11 0 0 0 1 10m0 4v2a5 5 0 0 1 5 5h2a7 7 0 0 0-7-7m0 4v3h3a3 3 0 0 0-3-3M21 3H3a2 2 0 0 0-2 2v3h2V5h18v14h-7v2h7a2 2 0 0 0 2-2V5a2 2 0 0 0-2-2z"/></symbol><symbol viewBox="0 0 24 24" fill="currentColor" id="kp_icon_check_circle"><path d="M12 2a10 10 0 1 0 0 20 10 10 0 0 0 0-20zM9.29 16.29L5.7 12.7a1 1 0 1 1 1.41-1.41L10 14.17l6.88-6.88a1 1 0 1 1 1.41 1.41l-7.59 7.59a1 1 0 0 1-1.41 0z"/></symbol><symbol viewBox="0 0 24 24" fill="currentColor" id="kp_icon_check_square"><path d="M19 3H5a2 2 0 0 0-2 2v14c0 1.1.9 2 2 2h14a2 2 0 0 0 2-2V5a2 2 0 0 0-2-2zm-8.29 13.29a1 1 0 0 1-1.41 0L5.71 12.7a1 1 0 1 1 1.41-1.41L10 14.17l6.88-6.88a1 1 0 1 1 1.41 1.41z"/></symbol><symbol viewBox="0 0 24 24" fill="currentColor" id="kp_icon_check"><path d="M9 16.17L5.53 12.7a1 1 0 1 0-1.41 1.41l4.18 4.18a1 1 0 0 0 1.41 0L20.29 7.71a1 1 0 1 0-1.41-1.41z"/></symbol><symbol viewBox="0 0 24 24" fill="currentColor" id="kp_icon_chevron_down"><path d="M8.12 9.29L12 13.17l3.88-3.88a1 1 0 1 1 1.41 1.41l-4.59 4.59a1 1 0 0 1-1.41 0L6.7 10.7a1 1 0 0 1 0-1.41 1.02 1.02 0 0 1 1.42 0z"/></symbol><symbol viewBox="0 0 24 24" fill="currentColor" id="kp_icon_chevron_left"><path d="M14.71 15.88L10.83 12l3.88-3.88a1 1 0 1 0-1.41-1.41L8.71 11.3a1 1 0 0 0 0 1.41l4.59 4.59a1 1 0 0 0 1.41 0c.38-.39.39-1.03 0-1.42z"/></symbol><symbol viewBox="0 0 24 24" fill="currentColor" id="kp_icon_chevron_right"><path d="M9.29 15.88L13.17 12 9.29 8.12a1 1 0 1 1 1.41-1.41l4.59 4.59a1 1 0 0 1 0 1.41L10.7 17.3a1 1 0 0 1-1.41 0 1.02 1.02 0 0 1 0-1.42z"/></symbol><symbol viewBox="0 0 24 24" fill="currentColor" id="kp_icon_chevron_up"><path d="M8.12 14.71L12 10.83l3.88 3.88a1 1 0 1 0 1.41-1.41L12.7 8.71a1 1 0 0 0-1.41 0L6.7 13.3a1 1 0 0 0 0 1.41c.39.38 1.03.39 1.42 0z"/></symbol><symbol viewBox="0 0 24 24" fill="currentColor" id="kp_icon_circle"><path d="M12 2a10 10 0 1 0 0 20 10 10 0 0 0 0-20zm0 18a8 8 0 1 1 0-16 8 8 0 0 1 0 16z"/></symbol><symbol viewBox="0 0 24 24" fill="currentColor" id="kp_icon_clipboard"><path d="M19 3h-4.18C14.4 1.84 13.3 1 12 1s-2.4.84-2.82 2H5a2 2 0 0 0-2 2v14c0 1.1.9 2 2 2h14a2 2 0 0 0 2-2V5a2 2 0 0 0-2-2zm-7 0c.55 0 1 .45 1 1s-.45 1-1 1-1-.45-1-1 .45-1 1-1zm1 14H8c-.55 0-1-.45-1-1s.45-1 1-1h5c.55 0 1 .45 1 1s-.45 1-1 1zm3-4H8c-.55 0-1-.45-1-1s.45-1 1-1h8c.55 0 1 .45 1 1s-.45 1-1 1zm0-4H8c-.55 0-1-.45-1-1s.45-1 1-1h8c.55 0 1 .45 1 1s-.45 1-1 1z"/></symbol><symbol viewBox="0 0 24 24" fill="currentColor" id="kp_icon_clock"><path d="M11.99 2A10 10 0 1 0 12 21.99 10 10 0 0 0 11.99 2zM12 20a8 8 0 1 1 0-16 8 8 0 0 1 0 16zm-.22-13h-.06c-.4 0-.72.32-.72.72v4.72c0 .35.18.68.49.86l4.15 2.49c.34.2.78.1.98-.24a.71.71 0 0 0-.25-.99l-3.87-2.3V7.72c0-.4-.32-.72-.72-.72z"/></symbol><symbol viewBox="0 0 24 24" fill="currentColor" id="kp_icon_close_circle"><path d="M12 2a10 10 0 1 0 0 20 10 10 0 1 0 0-20zm4.3 14.3a1 1 0 0 1-1.41 0L12 13.41 9.11 16.3a1 1 0 1 1-1.41-1.41L10.59 12 7.7 9.11A1 1 0 1 1 9.11 7.7L12 10.59l2.89-2.89a1 1 0 1 1 1.41 1.41L13.41 12l2.89 2.89c.38.38.38 1.02 0 1.41z"/></symbol><symbol viewBox="0 0 24 24" fill="currentColor" id="kp_icon_close_square"><path d="M22 3H7c-.69 0-1.23.35-1.59.88L.37 11.45c-.22.34-.22.77 0 1.11l5.04 7.56c.36.52.9.88 1.59.88h15a2 2 0 0 0 2-2V5a2 2 0 0 0-2-2zm-3.7 13.3a1 1 0 0 1-1.41 0L14 13.41l-2.89 2.89a1 1 0 1 1-1.41-1.41L12.59 12 9.7 9.11a1 1 0 1 1 1.41-1.41L14 10.59l2.89-2.89a1 1 0 1 1 1.41 1.41L15.41 12l2.89 2.89c.38.38.38 1.02 0 1.41z"/></symbol><symbol viewBox="0 0 24 24" fill="currentColor" id="kp_icon_close"><path d="M18.3 5.71a1 1 0 0 0-1.41 0L12 10.59 7.11 5.7A1 1 0 1 0 5.7 7.11L10.59 12 5.7 16.89a1 1 0 1 0 1.41 1.41L12 13.41l4.89 4.89a1 1 0 1 0 1.41-1.41L13.41 12l4.89-4.89a1 1 0 0 0 0-1.4z"/></symbol><symbol viewBox="0 0 24 24" fill="currentColor" id="kp_icon_code"><path d="M8.7 15.9L4.8 12l3.9-3.9c.39-.39.39-1.01 0-1.4s-1.01-.39-1.4 0l-4.59 4.59a1 1 0 0 0 0 1.41l4.59 4.6c.39.39 1.01.39 1.4 0s.39-1.01 0-1.4zm6.6 0l3.9-3.9-3.9-3.9c-.39-.39-.39-1.01 0-1.4s1.01-.39 1.4 0l4.59 4.59a1 1 0 0 1 0 1.41l-4.59 4.6c-.39.39-1.01.39-1.4 0s-.39-1.01 0-1.4z"/></symbol><symbol viewBox="0 0 24 24" fill="currentColor" id="kp_icon_compass"><path d="M12 10.9c-.61 0-1.1.49-1.1 1.1s.49 1.1 1.1 1.1 1.1-.49 1.1-1.1-.49-1.1-1.1-1.1zM12 2a10 10 0 1 0 0 20 10 10 0 0 0 0-20zm2.19 12.19L6 18l3.81-8.19L18 6z"/></symbol><symbol viewBox="0 0 24 24" fill="currentColor" id="kp_icon_copy"><path d="M15 1H4a2 2 0 0 0-2 2v13c0 .55.45 1 1 1s1-.45 1-1V4a1 1 0 0 1 1-1h10c.55 0 1-.45 1-1s-.45-1-1-1zm.59 4.59l4.83 4.83a2 2 0 0 1 .58 1.41V21a2 2 0 0 1-2 2H7.99A2 2 0 0 1 6 21l.01-14A2 2 0 0 1 8 5h6.17a2 2 0 0 1 1.42.59zM15 12h4.5L14 6.5V11a1 1 0 0 0 1 1z"/></symbol><symbol viewBox="0 0 24 24" fill="currentColor" id="kp_icon_corner_down_left"><path d="M5.71 15.71l4.58 4.58c.39.39 1.03.39 1.42 0s.39-1.03 0-1.42L8.83 16H19a1 1 0 0 0 1-1V5c0-.55-.45-1-1-1s-1 .45-1 1v9H8.83l2.88-2.87c.39-.39.39-1.03 0-1.42s-1.03-.39-1.42 0l-4.58 4.58a1 1 0 0 0 0 1.42z"/></symbol><symbol viewBox="0 0 24 24" fill="currentColor" id="kp_icon_corner_down_right"><path d="M18.29 15.71l-4.58 4.58c-.39.39-1.03.39-1.42 0s-.39-1.03 0-1.42L15.17 16H5a1 1 0 0 1-1-1V5c0-.55.45-1 1-1s1 .45 1 1v9h9.17l-2.88-2.87c-.39-.39-.39-1.03 0-1.42s1.03-.39 1.42 0l4.58 4.58a1 1 0 0 1 0 1.42z"/></symbol><symbol viewBox="0 0 24 24" fill="currentColor" id="kp_icon_credit_card"><path d="M20 4H4c-1.11 0-1.99.89-1.99 2L2 18a2 2 0 0 0 2 2h16a2 2 0 0 0 2-2V6a2 2 0 0 0-2-2zm-1 14H5a1 1 0 0 1-1-1v-5h16v5a1 1 0 0 1-1 1zm1-10H4V6h16z"/></symbol><symbol viewBox="0 0 24 24" fill="currentColor" id="kp_icon_crop"><path d="M17 15h2V7a2 2 0 0 0-2-2H9v2h7a1 1 0 0 1 1 1zm-9 2a1 1 0 0 1-1-1V2c0-.55-.45-1-1-1s-1 .45-1 1v3H2c-.55 0-1 .45-1 1s.45 1 1 1h3v10c0 1.1.9 2 2 2h10v3c0 .55.45 1 1 1s1-.45 1-1v-3h3c.55 0 1-.45 1-1s-.45-1-1-1z"/></symbol><symbol viewBox="0 0 24 24" fill="currentColor" id="kp_icon_cube"><path d="M21 16.5a1 1 0 0 1-.53.88l-7.9 4.44c-.16.12-.36.18-.57.18s-.41-.06-.57-.18l-7.9-4.44A1 1 0 0 1 3 16.5v-9a1 1 0 0 1 .53-.88l7.9-4.44c.16-.12.36-.18.57-.18s.41.06.57.18l7.9 4.44a1 1 0 0 1 .53.88zM12 4.15L6.04 7.5 12 10.85l5.96-3.35z"/></symbol><symbol viewBox="0 0 24 24" fill="currentColor" id="kp_icon_delete"><path d="M22 3H7c-.69 0-1.23.35-1.59.88L.37 11.45c-.22.34-.22.77 0 1.11l5.04 7.56c.36.52.9.88 1.59.88h15a2 2 0 0 0 2-2V5a2 2 0 0 0-2-2zm-3.7 13.3a1 1 0 0 1-1.41 0L14 13.41l-2.89 2.89a1 1 0 1 1-1.41-1.41L12.59 12 9.7 9.11a1 1 0 1 1 1.41-1.41L14 10.59l2.89-2.89a1 1 0 1 1 1.41 1.41L15.41 12l2.89 2.89c.38.38.38 1.02 0 1.41z"/></symbol><symbol viewBox="0 0 24 24" fill="currentColor" id="kp_icon_download_cloud"><path d="M19.35 10.04a7.49 7.49 0 0 0-14-2A6 6 0 0 0 6 20h13a4.98 4.98 0 1 0 .35-9.96zM17 13l-4.65 4.65a.5.5 0 0 1-.71 0L7 13h3V9h4v4z"/></symbol><symbol viewBox="0 0 24 24" fill="currentColor" id="kp_icon_download"><path d="M16.59 9H15V4a1 1 0 0 0-1-1h-4a1 1 0 0 0-1 1v5H7.41a1 1 0 0 0-.71 1.71l4.59 4.59a1 1 0 0 0 1.41 0l4.59-4.59a1 1 0 0 0-.7-1.71zM5 19a1 1 0 0 0 1 1h12c.55 0 1-.45 1-1s-.45-1-1-1H6a1 1 0 0 0-1 1z"/></symbol><symbol viewBox="0 0 24 24" fill="currentColor" id="kp_icon_droplet"><path d="M17.66 8l-4.95-4.94a1 1 0 0 0-1.41 0L6.34 8A8.02 8.02 0 0 0 12 21.66 7.99 7.99 0 0 0 17.66 8zM6 14a5.7 5.7 0 0 1 1.76-4.4L12 5.27l4.24 4.38A5.57 5.57 0 0 1 18 14z"/></symbol><symbol viewBox="0 0 24 24" fill="currentColor" id="kp_icon_edit_2"><path d="M17.75 7L14 3.25 4.15 13.1a.5.5 0 0 0-.15.36v3.04c0 .28.22.5.5.5h3.04c.13 0 .26-.05.35-.15zm2.96-2.96a1 1 0 0 0 0-1.41L18.37.29a1 1 0 0 0-1.41 0L15 2.25 18.75 6zM2 20h20c1.1 0 2 .9 2 2s-.9 2-2 2H2c-1.1 0-2-.9-2-2s.9-2 2-2z"/></symbol><symbol viewBox="0 0 24 24" fill="currentColor" id="kp_icon_edit"><path d="M3 17.46v3.04c0 .28.22.5.5.5h3.04c.13 0 .26-.05.35-.15L17.81 9.94l-3.75-3.75L3.15 17.1a.5.5 0 0 0-.15.36zM20.71 7.04a1 1 0 0 0 0-1.41l-2.34-2.34a1 1 0 0 0-1.41 0l-1.83 1.83 3.75 3.75z"/></symbol><symbol viewBox="0 0 24 24" fill="currentColor" id="kp_icon_external_link"><path d="M18 19H6a1 1 0 0 1-1-1V6a1 1 0 0 1 1-1h5c.55 0 1-.45 1-1s-.45-1-1-1H5a2 2 0 0 0-2 2v14c0 1.1.9 2 2 2h14a2 2 0 0 0 2-2v-6c0-.55-.45-1-1-1s-1 .45-1 1v5a1 1 0 0 1-1 1zM14 4a1 1 0 0 0 1 1h2.59l-9.13 9.13a1 1 0 1 0 1.41 1.41L19 6.41V9c0 .55.45 1 1 1s1-.45 1-1V4a1 1 0 0 0-1-1h-5a1 1 0 0 0-1 1z"/></symbol><symbol viewBox="0 0 24 24" fill="currentColor" id="kp_icon_eye_off"><path d="M12 6.5a5 5 0 0 1 4.76 6.46l3.06 3.06A11.8 11.8 0 0 0 23 11.49 11.83 11.83 0 0 0 8.36 4.57l2.17 2.17c.47-.14.96-.24 1.47-.24zM2.71 3.16a1 1 0 0 0 0 1.41l1.97 1.97A11.9 11.9 0 0 0 1 11.5a11.83 11.83 0 0 0 15.31 6.68l2.72 2.72a1 1 0 1 0 1.41-1.41L4.13 3.16a1 1 0 0 0-1.42 0zM12 16.5a5 5 0 0 1-4.51-7.14l1.57 1.57a3 3 0 0 0 3.51 3.5L14.14 16c-.65.32-1.37.5-2.14.5zm2.97-5.33a2.97 2.97 0 0 0-2.64-2.64z"/></symbol><symbol viewBox="0 0 24 24" fill="currentColor" id="kp_icon_eye"><path d="M12 4C7 4 2.73 7.11 1 11.5a11.83 11.83 0 0 0 22 0C21.27 7.11 17 4 12 4zm0 12.5a5 5 0 1 1 0-10 5 5 0 0 1 0 10zm0-8a3 3 0 1 0 0 6 3 3 0 0 0 0-6z"/></symbol><symbol viewBox="0 0 24 24" fill="currentColor" id="kp_icon_fast_forward"><path d="M5.58 16.89l5.77-4.07a1 1 0 0 0 0-1.63L5.58 7.11A1 1 0 0 0 4 7.93v8.14a1 1 0 0 0 1.58.82zM13 7.93v8.14a1 1 0 0 0 1.58.82l5.77-4.07a1 1 0 0 0 0-1.63l-5.77-4.07a1 1 0 0 0-1.58.81z"/></symbol><symbol viewBox="0 0 24 24" fill="currentColor" id="kp_icon_file_text"><path d="M14.59 2.59A2 2 0 0 0 13.17 2H6a2 2 0 0 0-2 2v16a2 2 0 0 0 1.99 2H18a2 2 0 0 0 2-2V8.83c0-.53-.21-1.04-.59-1.41zM15 18H9c-.55 0-1-.45-1-1s.45-1 1-1h6c.55 0 1 .45 1 1s-.45 1-1 1zm0-4H9c-.55 0-1-.45-1-1s.45-1 1-1h6c.55 0 1 .45 1 1s-.45 1-1 1zm-2-6V3.5L18.5 9H14a1 1 0 0 1-1-1z"/></symbol><symbol viewBox="0 0 24 24" fill="currentColor" id="kp_icon_file"><path d="M6 2a2 2 0 0 0-1.99 2L4 20a2 2 0 0 0 1.99 2H18a2 2 0 0 0 2-2V8.83c0-.53-.21-1.04-.59-1.41l-4.83-4.83A1.97 1.97 0 0 0 13.17 2zm7 6V3.5L18.5 9H14a1 1 0 0 1-1-1z"/></symbol><symbol viewBox="0 0 24 24" fill="currentColor" id="kp_icon_film"><path d="M18 4v1h-2V4a1 1 0 0 0-1-1H9a1 1 0 0 0-1 1v1H6V4c0-.55-.45-1-1-1s-1 .45-1 1v16c0 .55.45 1 1 1s1-.45 1-1v-1h2v1a1 1 0 0 0 1 1h6a1 1 0 0 0 1-1v-1h2v1c0 .55.45 1 1 1s1-.45 1-1V4c0-.55-.45-1-1-1s-1 .45-1 1zM8 17H6v-2h2v2zm0-4H6v-2h2v2zm0-4H6V7h2v2zm10 8h-2v-2h2v2zm0-4h-2v-2h2v2zm0-4h-2V7h2v2z"/></symbol><symbol viewBox="0 0 24 24" fill="currentColor" id="kp_icon_filter"><path d="M11 18h2c.55 0 1-.45 1-1s-.45-1-1-1h-2c-.55 0-1 .45-1 1s.45 1 1 1zM3 7a1 1 0 0 0 1 1h16c.55 0 1-.45 1-1s-.45-1-1-1H4a1 1 0 0 0-1 1zm4 6h10c.55 0 1-.45 1-1s-.45-1-1-1H7c-.55 0-1 .45-1 1s.45 1 1 1z"/></symbol><symbol viewBox="0 0 24 24" fill="currentColor" id="kp_icon_flag"><path d="M14.4 6l-.24-1.2a1 1 0 0 0-.98-.8H6a1 1 0 0 0-1 1v15c0 .55.45 1 1 1s1-.45 1-1v-6h5.6l.24 1.2c.09.47.5.8.98.8H19a1 1 0 0 0 1-1V7a1 1 0 0 0-1-1h-4.6z"/></symbol><symbol viewBox="0 0 24 24" fill="currentColor" id="kp_icon_folder_plus"><path d="M20 6h-8l-1.41-1.41A2 2 0 0 0 9.17 4H4c-1.11 0-1.99.89-1.99 2L2 18a2 2 0 0 0 2 2h16a2 2 0 0 0 2-2V8a2 2 0 0 0-2-2zm-2 8h-2v2c0 .55-.45 1-1 1s-1-.45-1-1v-2h-2c-.55 0-1-.45-1-1s.45-1 1-1h2v-2c0-.55.45-1 1-1s1 .45 1 1v2h2c.55 0 1 .45 1 1s-.45 1-1 1z"/></symbol><symbol viewBox="0 0 24 24" fill="currentColor" id="kp_icon_folder"><path d="M10.59 4.59A2 2 0 0 0 9.17 4H4a2 2 0 0 0-1.99 2L2 18c0 1.1.9 2 2 2h16a2 2 0 0 0 2-2V8a2 2 0 0 0-2-2h-8z"/></symbol><symbol viewBox="0 0 24 24" fill="currentColor" id="kp_icon_gift"><path d="M20 6h-2.18a3 3 0 0 0-5.32-2.65l-.5.67-.5-.68A3 3 0 0 0 6.18 6H4c-1.11 0-1.99.89-1.99 2L2 19a2 2 0 0 0 2 2h16a2 2 0 0 0 2-2V8a2 2 0 0 0-2-2zm-5-2c.55 0 1 .45 1 1s-.45 1-1 1-1-.45-1-1 .45-1 1-1zM9 4c.55 0 1 .45 1 1s-.45 1-1 1-1-.45-1-1 .45-1 1-1zm10 15H5a1 1 0 0 1-1-1v-1h16v1a1 1 0 0 1-1 1zm1-5H4V9a1 1 0 0 1 1-1h4.08L7.6 10.02a1 1 0 0 0 .22 1.4 1 1 0 0 0 1.39-.22L12 7.4l2.79 3.8a1 1 0 0 0 1.39.22 1 1 0 0 0 .22-1.4L14.92 8H19a1 1 0 0 1 1 1z"/></symbol><symbol viewBox="0 0 24 24" fill="currentColor" id="kp_icon_globe"><path d="M12 2a10 10 0 1 0 0 20 10 10 0 0 0 0-20zm-1 17.93a7.99 7.99 0 0 1-6.79-9.72L9 15v1c0 1.1.9 2 2 2zm6.9-2.54c-.26-.81-1-1.39-1.9-1.39h-1v-3a1 1 0 0 0-1-1H8v-2h2a1 1 0 0 0 1-1V7h2a2 2 0 0 0 2-2v-.41a8 8 0 0 1 2.9 12.8z"/></symbol><symbol viewBox="0 0 24 24" fill="currentColor" id="kp_icon_grid"><path d="M20 2H4a2 2 0 0 0-2 2v16c0 1.1.9 2 2 2h16a2 2 0 0 0 2-2V4a2 2 0 0 0-2-2zM8 20H5a1 1 0 0 1-1-1v-3h4zm0-6H4v-4h4zm0-6H4V5a1 1 0 0 1 1-1h3zm6 12h-4v-4h4zm0-6h-4v-4h4zm0-6h-4V4h4zm5 12h-3v-4h4v3a1 1 0 0 1-1 1zm1-6h-4v-4h4zm0-6h-4V4h3a1 1 0 0 1 1 1z"/></symbol><symbol viewBox="0 0 24 24" fill="currentColor" id="kp_icon_hard_drive"><path d="M19 13H5a2 2 0 0 0-2 2v4c0 1.1.9 2 2 2h14a2 2 0 0 0 2-2v-4a2 2 0 0 0-2-2zM7 19c-1.1 0-2-.9-2-2s.9-2 2-2 2 .9 2 2-.9 2-2 2zM19 3H5a2 2 0 0 0-2 2v4c0 1.1.9 2 2 2h14a2 2 0 0 0 2-2V5a2 2 0 0 0-2-2zM7 9c-1.1 0-2-.9-2-2s.9-2 2-2 2 .9 2 2-.9 2-2 2z"/></symbol><symbol viewBox="0 0 24 24" fill="currentColor" id="kp_icon_headphones"><path d="M11.4 1.02C6.62 1.33 3 5.52 3 10.31V17a3 3 0 0 0 3 3h1a2 2 0 0 0 2-2v-4a2 2 0 0 0-2-2H5v-1.71C5 6.45 7.96 3.11 11.79 3A7 7 0 0 1 19 10v2h-2a2 2 0 0 0-2 2v4c0 1.1.9 2 2 2h2v1h-6c-.55 0-1 .45-1 1s.45 1 1 1h5a3 3 0 0 0 3-3V10a9 9 0 0 0-9.6-8.98z"/></symbol><symbol viewBox="0 0 24 24" fill="currentColor" id="kp_icon_heart"><path d="M13.35 20.13a2 2 0 0 1-2.69-.01l-.11-.1C5.3 15.27 1.87 12.16 2 8.28c.06-1.7.93-3.33 2.34-4.29A5.8 5.8 0 0 1 12 5.09a5.78 5.78 0 0 1 7.66-1.1A5.46 5.46 0 0 1 22 8.28c.14 3.88-3.3 6.99-8.55 11.76z"/></symbol><symbol viewBox="0 0 24 24" fill="currentColor" id="kp_icon_home"><path d="M10 19v-5h4v5a1 1 0 0 0 1 1h3a1 1 0 0 0 1-1v-7h1.7c.46 0 .68-.57.33-.87L12.67 3.6a1 1 0 0 0-1.34 0l-8.36 7.53a.5.5 0 0 0 .33.87H5v7a1 1 0 0 0 1 1h3a1 1 0 0 0 1-1z"/></symbol><symbol viewBox="0 0 24 24" fill="currentColor" id="kp_icon_image"><path d="M21 19V5a2 2 0 0 0-2-2H5a2 2 0 0 0-2 2v14c0 1.1.9 2 2 2h14a2 2 0 0 0 2-2zM8.9 13.98l2.1 2.53 3.1-3.99a.5.5 0 0 1 .8.01l3.51 4.68a.5.5 0 0 1-.4.8H6.02a.5.5 0 0 1-.39-.81L8.12 14a.5.5 0 0 1 .78-.02z"/></symbol><symbol viewBox="0 0 24 24" fill="currentColor" id="kp_icon_inbox"><path d="M19 3H4.99c-1.11 0-1.98.89-1.98 2L3 19a2 2 0 0 0 1.99 2H19a2 2 0 0 0 2-2V5a2 2 0 0 0-2-2zm0 12h-3.13c-.47 0-.85.34-.98.8a3 3 0 0 1-5.78 0c-.13-.46-.51-.8-.98-.8H5V6a1 1 0 0 1 1-1h12a1 1 0 0 1 1 1z"/></symbol><symbol viewBox="0 0 24 24" fill="currentColor" id="kp_icon_info"><path d="M12 2a10 10 0 1 0 0 20 10 10 0 0 0 0-20zm0 15a1 1 0 0 1-1-1v-4c0-.55.45-1 1-1s1 .45 1 1v4a1 1 0 0 1-1 1zm1-8h-2V7h2z"/></symbol><symbol viewBox="0 0 24 24" fill="currentColor" id="kp_icon_layers"><path d="M12.6 18.06a1 1 0 0 1-1.23 0l-6.15-4.78a1 1 0 0 0-1.22 0 1 1 0 0 0 0 1.57l6.76 5.26c.72.56 1.73.56 2.46 0l6.76-5.26a1 1 0 0 0 0-1.57l-.01-.01a1 1 0 0 0-1.22 0zm.63-3.02l6.76-5.26a1 1 0 0 0 0-1.58l-6.76-5.26a2.01 2.01 0 0 0-2.46 0L4.01 8.21a1 1 0 0 0 0 1.58l6.76 5.26a2 2 0 0 0 2.46-.01z"/></symbol><symbol viewBox="0 0 24 24" fill="currentColor" id="kp_icon_layout"><path d="M4 13h6a1 1 0 0 0 1-1V4a1 1 0 0 0-1-1H4a1 1 0 0 0-1 1v8a1 1 0 0 0 1 1zm0 8h6a1 1 0 0 0 1-1v-4a1 1 0 0 0-1-1H4a1 1 0 0 0-1 1v4a1 1 0 0 0 1 1zm10 0h6a1 1 0 0 0 1-1v-8a1 1 0 0 0-1-1h-6a1 1 0 0 0-1 1v8a1 1 0 0 0 1 1zM13 4v4a1 1 0 0 0 1 1h6a1 1 0 0 0 1-1V4a1 1 0 0 0-1-1h-6a1 1 0 0 0-1 1z"/></symbol><symbol viewBox="0 0 24 24" fill="currentColor" id="kp_icon_link"><path d="M17 7h-3c-.55 0-1 .45-1 1s.45 1 1 1h3c1.65 0 3 1.35 3 3s-1.35 3-3 3h-3c-.55 0-1 .45-1 1s.45 1 1 1h3a5 5 0 0 0 0-10zm-9 5a1 1 0 0 0 1 1h6c.55 0 1-.45 1-1s-.45-1-1-1H9a1 1 0 0 0-1 1zm2 3H7c-1.65 0-3-1.35-3-3s1.35-3 3-3h3c.55 0 1-.45 1-1s-.45-1-1-1H7a5 5 0 0 0 0 10h3c.55 0 1-.45 1-1s-.45-1-1-1z"/></symbol><symbol viewBox="0 0 24 24" fill="currentColor" id="kp_icon_list"><path d="M4 13c.55 0 1-.45 1-1s-.45-1-1-1-1 .45-1 1 .45 1 1 1zm0 4c.55 0 1-.45 1-1s-.45-1-1-1-1 .45-1 1 .45 1 1 1zm0-8c.55 0 1-.45 1-1s-.45-1-1-1-1 .45-1 1 .45 1 1 1zm4 4h12c.55 0 1-.45 1-1s-.45-1-1-1H8c-.55 0-1 .45-1 1s.45 1 1 1zm0 4h12c.55 0 1-.45 1-1s-.45-1-1-1H8c-.55 0-1 .45-1 1s.45 1 1 1zM7 8a1 1 0 0 0 1 1h12c.55 0 1-.45 1-1s-.45-1-1-1H8a1 1 0 0 0-1 1z"/></symbol><symbol viewBox="0 0 24 24" fill="currentColor" id="kp_icon_lock"><path d="M18 8h-1V6A5 5 0 0 0 7 6v2H6a2 2 0 0 0-2 2v10c0 1.1.9 2 2 2h12a2 2 0 0 0 2-2V10a2 2 0 0 0-2-2zm-6 9c-1.1 0-2-.9-2-2s.9-2 2-2 2 .9 2 2-.9 2-2 2zM9 8V6a3 3 0 1 1 6 0v2z"/></symbol><symbol viewBox="0 0 24 24" fill="currentColor" id="kp_icon_log_in"><path d="M10.79 16.29a1 1 0 0 0 1.41 0l3.59-3.59a1 1 0 0 0 0-1.41L12.2 7.7a1 1 0 1 0-1.41 1.41L12.67 11H4c-.55 0-1 .45-1 1s.45 1 1 1h8.67l-1.88 1.88a1 1 0 0 0 0 1.41zM19 3H5a2 2 0 0 0-2 2v3c0 .55.45 1 1 1s1-.45 1-1V6a1 1 0 0 1 1-1h12a1 1 0 0 1 1 1v12a1 1 0 0 1-1 1H6a1 1 0 0 1-1-1v-2c0-.55-.45-1-1-1s-1 .45-1 1v3c0 1.1.9 2 2 2h14a2 2 0 0 0 2-2V5a2 2 0 0 0-2-2z"/></symbol><symbol viewBox="0 0 24 24" fill="currentColor" id="kp_icon_log_out"><path d="M14.7 16.3c.4.4 1 .4 1.4 0l3.6-3.6c.4-.4.4-1 0-1.4l-3.6-3.6c-.4-.4-1-.4-1.4 0-.4.4-.4 1 0 1.4l1.9 1.9H7.9c-.5 0-1 .4-1 1s.5 1 1 1h8.7l-1.9 1.9c-.4.4-.4 1 0 1.4zM5 21h14a2 2 0 0 0 2-2v-2c0-.5-.5-1-1-1s-1 .5-1 1v1c0 .5-.5 1-1 1H6c-.5 0-1-.5-1-1V6c0-.5.5-1 1-1h12c.5 0 1 .5 1 1v1a1 1 0 0 0 2 0V5a2 2 0 0 0-2-2H5a2 2 0 0 0-2 2v14c0 1.1.9 2 2 2z"/></symbol><symbol viewBox="0 0 24 24" fill="currentColor" id="kp_icon_mail"><path d="M20 4H4a2 2 0 0 0-2 2v12c0 1.1.9 2 2 2h16a2 2 0 0 0 2-2V6a2 2 0 0 0-2-2zm-.4 4.25l-6.54 4.09c-.65.41-1.47.41-2.12 0L4.4 8.25a.85.85 0 1 1 .9-1.44L12 11l6.7-4.19a.85.85 0 1 1 .9 1.44z"/></symbol><symbol viewBox="0 0 24 24" fill="currentColor" id="kp_icon_map_pin"><path d="M12 2a7 7 0 0 0-7 7c0 4.17 4.42 9.92 6.24 12.11a1 1 0 0 0 1.53 0C14.58 18.92 19 13.17 19 9a7 7 0 0 0-7-7zm0 9.5a2.5 2.5 0 1 1 0-5 2.5 2.5 0 0 1 0 5z"/></symbol><symbol viewBox="0 0 24 24" fill="currentColor" id="kp_icon_map"><path d="M14.65 4.98l-5-1.75a2 2 0 0 0-1.3-.01L4.36 4.56A2.01 2.01 0 0 0 3 6.46v11.85a2 2 0 0 0 2.72 1.86l2.93-1.14a.97.97 0 0 1 .69-.01l5 1.75a2 2 0 0 0 1.3.01l3.99-1.34a2 2 0 0 0 1.36-1.9V5.69a2 2 0 0 0-2.72-1.86l-2.93 1.14c-.22.08-.46.09-.69.01zM15 18.89l-6-2.11V5.11l6 2.11z"/></symbol><symbol viewBox="0 0 24 24" fill="currentColor" id="kp_icon_maximize"><path d="M4 3h16c.55 0 1 .45 1 1s-.45 1-1 1H4c-.55 0-1-.45-1-1s.45-1 1-1z"/></symbol><symbol viewBox="0 0 24 24" fill="currentColor" id="kp_icon_menu"><path d="M4 18h16c.55 0 1-.45 1-1s-.45-1-1-1H4c-.55 0-1 .45-1 1s.45 1 1 1zm0-5h16c.55 0 1-.45 1-1s-.45-1-1-1H4c-.55 0-1 .45-1 1s.45 1 1 1zM3 7a1 1 0 0 0 1 1h16c.55 0 1-.45 1-1s-.45-1-1-1H4a1 1 0 0 0-1 1z"/></symbol><symbol viewBox="0 0 24 24" fill="currentColor" id="kp_icon_message_square"><path d="M20 2H4a2 2 0 0 0-1.99 2L2 22l4-4h14a2 2 0 0 0 2-2V4a2 2 0 0 0-2-2zM9 11H7V9h2zm4 0h-2V9h2zm4 0h-2V9h2z"/></symbol><symbol viewBox="0 0 24 24" fill="currentColor" id="kp_icon_mic_off"><path d="M15 11.6V6a3 3 0 0 0-5.96-.35zm3.08.4c-.41 0-.77.3-.83.71-.05.32-.12.64-.22.93l1.27 1.27c.3-.6.52-1.25.63-1.94a.86.86 0 0 0-.85-.97zM3.71 4.56a1 1 0 0 0 0 1.41L9 11.27v.43c0 1.19.6 2.32 1.63 2.91a2.7 2.7 0 0 0 2.02.31l1.66 1.66a5.5 5.5 0 0 1-2.31.52 5.23 5.23 0 0 1-5.25-4.39.84.84 0 0 0-.83-.71.86.86 0 0 0-.85.97A7.07 7.07 0 0 0 11 18.72V21c0 .55.45 1 1 1s1-.45 1-1v-2.28a7.13 7.13 0 0 0 2.55-.9l3.49 3.49a1 1 0 1 0 1.41-1.41L5.12 4.56a1 1 0 0 0-1.41 0z"/></symbol><symbol viewBox="0 0 24 24" fill="currentColor" id="kp_icon_mic"><path d="M12 14a3 3 0 0 0 3-3V5a3 3 0 1 0-6 0v6a3 3 0 0 0 3 3zm5.91-3a1 1 0 0 0-.98.85 5.02 5.02 0 0 1-9.86 0 1 1 0 0 0-.98-.85 1 1 0 0 0-1 1.14A7 7 0 0 0 11 17.92V20c0 .55.45 1 1 1s1-.45 1-1v-2.08a7 7 0 0 0 5.91-5.78 1 1 0 0 0-1-1.14z"/></symbol><symbol viewBox="0 0 24 24" fill="currentColor" id="kp_icon_minimize"><path d="M7 19h10c.55 0 1 .45 1 1s-.45 1-1 1H7c-.55 0-1-.45-1-1s.45-1 1-1z"/></symbol><symbol viewBox="0 0 24 24" fill="currentColor" id="kp_icon_minus_circle"><path d="M12 2a10 10 0 1 0 0 20 10 10 0 0 0 0-20zm4 11H8c-.55 0-1-.45-1-1s.45-1 1-1h8c.55 0 1 .45 1 1s-.45 1-1 1z"/></symbol><symbol viewBox="0 0 24 24" fill="currentColor" id="kp_icon_minus_square"><path d="M19 3H5a2 2 0 0 0-2 2v14c0 1.1.9 2 2 2h14a2 2 0 0 0 2-2V5a2 2 0 0 0-2-2zm-3 10H8c-.55 0-1-.45-1-1s.45-1 1-1h8c.55 0 1 .45 1 1s-.45 1-1 1z"/></symbol><symbol viewBox="0 0 24 24" fill="currentColor" id="kp_icon_minus"><path d="M18 13H6c-.55 0-1-.45-1-1s.45-1 1-1h12c.55 0 1 .45 1 1s-.45 1-1 1z"/></symbol><symbol viewBox="0 0 24 24" fill="currentColor" id="kp_icon_monitor"><path d="M21 2H3a2 2 0 0 0-2 2v12c0 1.1.9 2 2 2h7l-1.63 2.45A1 1 0 0 0 9.2 22h5.6a1 1 0 0 0 .83-1.55L14 18h7a2 2 0 0 0 2-2V4a2 2 0 0 0-2-2zm0 12H3V5a1 1 0 0 1 1-1h16a1 1 0 0 1 1 1z"/></symbol><symbol viewBox="0 0 24 24" fill="currentColor" id="kp_icon_moon"><path d="M12.43 2.3a9.92 9.92 0 0 0-6.63.64c-.35.16-.41.64-.1.86a9.95 9.95 0 0 1 0 16.4c-.32.22-.26.7.09.86A10 10 0 1 0 12.43 2.3z"/></symbol><symbol viewBox="0 0 24 24" fill="currentColor" id="kp_icon_more_horizontal"><path d="M6 10c-1.1 0-2 .9-2 2s.9 2 2 2 2-.9 2-2-.9-2-2-2zm12 0c-1.1 0-2 .9-2 2s.9 2 2 2 2-.9 2-2-.9-2-2-2zm-6 0c-1.1 0-2 .9-2 2s.9 2 2 2 2-.9 2-2-.9-2-2-2z"/></symbol><symbol viewBox="0 0 24 24" fill="currentColor" id="kp_icon_more_vertical"><path d="M12 8c1.1 0 2-.9 2-2s-.9-2-2-2-2 .9-2 2 .9 2 2 2zm0 2c-1.1 0-2 .9-2 2s.9 2 2 2 2-.9 2-2-.9-2-2-2zm0 6c-1.1 0-2 .9-2 2s.9 2 2 2 2-.9 2-2-.9-2-2-2z"/></symbol><symbol viewBox="0 0 24 24" fill="currentColor" id="kp_icon_move"><path d="M10.5 9h3a.5.5 0 0 0 .5-.5V6h1.79a.5.5 0 0 0 .35-.85l-3.79-3.79a.5.5 0 0 0-.71 0L7.85 5.15a.5.5 0 0 0 .36.85H10v2.5c0 .28.22.5.5.5zm-2 1H6V8.21a.5.5 0 0 0-.85-.35l-3.79 3.79a.5.5 0 0 0 0 .71l3.79 3.79a.5.5 0 0 0 .85-.36V14h2.5a.5.5 0 0 0 .5-.5v-3a.5.5 0 0 0-.5-.5zm14.15 1.65l-3.79-3.79a.5.5 0 0 0-.86.35V10h-2.5a.5.5 0 0 0-.5.5v3c0 .28.22.5.5.5H18v1.79c0 .45.54.67.85.35l3.79-3.79a.5.5 0 0 0 .01-.7zM13.5 15h-3a.5.5 0 0 0-.5.5V18H8.21a.5.5 0 0 0-.35.85l3.79 3.79c.2.2.51.2.71 0l3.79-3.79a.5.5 0 0 0-.35-.85H14v-2.5a.5.5 0 0 0-.5-.5z"/></symbol><symbol viewBox="0 0 24 24" fill="currentColor" id="kp_icon_music"><path d="M12 5v8.55a3.94 3.94 0 0 0-3.33-.32 4 4 0 0 0 1.98 7.72 4.1 4.1 0 0 0 3.35-4.1V7h2c1.1 0 2-.9 2-2s-.9-2-2-2h-2a2 2 0 0 0-2 2z"/></symbol><symbol viewBox="0 0 24 24" fill="currentColor" id="kp_icon_navigation"><path d="M12.93 4.26l6.15 14.99a1 1 0 0 1-1.33 1.29l-5.34-2.36a1.04 1.04 0 0 0-.81 0l-5.34 2.36a1 1 0 0 1-1.33-1.29l6.15-14.99a1 1 0 0 1 1.85 0z"/></symbol><symbol viewBox="0 0 24 24" fill="currentColor" id="kp_icon_paperclip"><path d="M16.5 6.75v10.58a4.12 4.12 0 0 1-3.61 4.15A4 4 0 0 1 8.5 17.5V5.14c0-1.31.94-2.5 2.24-2.63A2.5 2.5 0 0 1 13.5 5v10.5c0 .55-.45 1-1 1s-1-.45-1-1V6.75c0-.41-.34-.75-.75-.75s-.75.34-.75.75v8.61c0 1.31.94 2.5 2.24 2.63A2.5 2.5 0 0 0 15 15.5V5.17a4.12 4.12 0 0 0-3.61-4.15A4 4 0 0 0 7 5v12.27c0 2.87 2.1 5.44 4.96 5.71A5.5 5.5 0 0 0 18 17.5V6.75c0-.41-.34-.75-.75-.75s-.75.34-.75.75z"/></symbol><symbol viewBox="0 0 24 24" fill="currentColor" id="kp_icon_pause_circle"><path d="M12 2a10 10 0 1 0 0 20 10 10 0 0 0 0-20zm-2 14a1 1 0 0 1-1-1V9c0-.55.45-1 1-1s1 .45 1 1v6a1 1 0 0 1-1 1zm4 0a1 1 0 0 1-1-1V9c0-.55.45-1 1-1s1 .45 1 1v6a1 1 0 0 1-1 1z"/></symbol><symbol viewBox="0 0 24 24" fill="currentColor" id="kp_icon_phone_call"><path d="M11.98 7h.03c.55 0 .99-.44.99-.98V2.98a.98.98 0 0 0-.98-.98h-.03a.98.98 0 0 0-.99.98v3.03c0 .55.44.99.98.99zm4.92 2.11a.98.98 0 0 0 1.4 0l2.15-2.17a.97.97 0 0 0 0-1.39.99.99 0 0 0-1.39 0L16.89 7.7a.97.97 0 0 0 0 1.39zM5.71 9.1a.98.98 0 0 0 1.4 0 .99.99 0 0 0 0-1.39L4.96 5.54a.97.97 0 0 0-1.39 0l-.02.01a.97.97 0 0 0 0 1.39L5.71 9.1zm17.58 7.13a17 17 0 0 0-22.48 0 1.98 1.98 0 0 0-.05 2.88l1.22 1.22a2 2 0 0 0 2.66.15l2-1.59a2 2 0 0 0 .76-1.57v-2.6c3.02-.98 6.29-.99 9.32 0v2.61a2 2 0 0 0 .76 1.57l1.99 1.58a2 2 0 0 0 2.66-.15l1.22-1.22a2 2 0 0 0-.06-2.88z"/></symbol><symbol viewBox="0 0 24 24" fill="currentColor" id="kp_icon_phone_missed"><path d="M23.09 16.2a16.76 16.76 0 0 0-22.18 0 1.95 1.95 0 0 0-.05 2.84l1.2 1.2c.71.71 1.84.77 2.62.15l1.97-1.57c.47-.37.75-.94.75-1.55V14.7c2.98-.97 6.21-.98 9.2 0v2.58a2 2 0 0 0 .75 1.55l1.96 1.56c.79.62 1.91.56 2.62-.15l1.2-1.2c.8-.79.79-2.1-.04-2.84zM6 9a1 1 0 0 0 1-1V6.43l4.24 4.24a1 1 0 0 0 1.41 0l5.66-5.66A1 1 0 1 0 16.9 3.6l-4.95 4.95L8.4 5H10c.55 0 1-.45 1-1s-.45-1-1-1H6a1 1 0 0 0-1 1v4a1 1 0 0 0 1 1z"/></symbol><symbol viewBox="0 0 24 24" fill="currentColor" id="kp_icon_phone"><path d="M19.23 15.26l-2.54-.29a2 2 0 0 0-1.64.57l-1.84 1.84a15.05 15.05 0 0 1-6.59-6.59l1.85-1.85a2 2 0 0 0 .57-1.64l-.29-2.52a2 2 0 0 0-1.99-1.77H5.03c-1.13 0-2.07.94-2 2.07a17 17 0 0 0 15.89 15.89 1.98 1.98 0 0 0 2.07-2v-1.73a1.98 1.98 0 0 0-1.76-1.98z"/></symbol><symbol viewBox="0 0 24 24" fill="currentColor" id="kp_icon_pie_chart"><path d="M11 3.18v17.64a1 1 0 0 1-1.21.98C5.32 20.8 2 16.79 2 12s3.32-8.8 7.79-9.8a1 1 0 0 1 1.21.98zm2.03 0v6.81a1 1 0 0 0 1 1h6.79a1 1 0 0 0 .98-1.22 10.04 10.04 0 0 0-7.55-7.57 1 1 0 0 0-1.22.98zm0 10.83v6.81a1 1 0 0 0 1.22.98 10.05 10.05 0 0 0 7.56-7.58 1.01 1.01 0 0 0-.98-1.22h-6.79c-.56.01-1.01.46-1.01 1.01z"/></symbol><symbol viewBox="0 0 24 24" fill="currentColor" id="kp_icon_play_circle"><path d="M12 2a10 10 0 1 0 0 20 10 10 0 0 0 0-20zm-2 13.5v-7a.5.5 0 0 1 .8-.4l4.67 3.5c.27.2.27.6 0 .8l-4.67 3.5a.5.5 0 0 1-.8-.4z"/></symbol><symbol viewBox="0 0 24 24" fill="currentColor" id="kp_icon_plus_circle"><path d="M12 2a10 10 0 1 0 0 20 10 10 0 0 0 0-20zm4 11h-3v3c0 .55-.45 1-1 1s-1-.45-1-1v-3H8c-.55 0-1-.45-1-1s.45-1 1-1h3V8c0-.55.45-1 1-1s1 .45 1 1v3h3c.55 0 1 .45 1 1s-.45 1-1 1z"/></symbol><symbol viewBox="0 0 24 24" fill="currentColor" id="kp_icon_plus_square"><path d="M19 3H5a2 2 0 0 0-2 2v14a2 2 0 0 0 2 2h14a2 2 0 0 0 2-2V5a2 2 0 0 0-2-2zm-3 10h-3v3c0 .55-.45 1-1 1s-1-.45-1-1v-3H8c-.55 0-1-.45-1-1s.45-1 1-1h3V8c0-.55.45-1 1-1s1 .45 1 1v3h3c.55 0 1 .45 1 1s-.45 1-1 1z"/></symbol><symbol viewBox="0 0 24 24" fill="currentColor" id="kp_icon_plus"><path d="M18 13h-5v5c0 .55-.45 1-1 1s-1-.45-1-1v-5H6c-.55 0-1-.45-1-1s.45-1 1-1h5V6c0-.55.45-1 1-1s1 .45 1 1v5h5c.55 0 1 .45 1 1s-.45 1-1 1z"/></symbol><symbol viewBox="0 0 24 24" fill="currentColor" id="kp_icon_power"><path d="M16.01 7L16 4c0-.55-.45-1-1-1s-1 .45-1 1v3h-4V4c0-.55-.45-1-1-1s-1 .45-1 1v3h-.01A2 2 0 0 0 6 8.99v4.66a2 2 0 0 0 .58 1.41L9.5 18v2a1 1 0 0 0 1 1h3a1 1 0 0 0 1-1v-2l2.92-2.92c.37-.38.58-.89.58-1.42V8.99C18 7.89 17.11 7 16.01 7z"/></symbol><symbol viewBox="0 0 24 24" fill="currentColor" id="kp_icon_printer"><path d="M19 8H5a3 3 0 0 0-3 3v4c0 1.1.9 2 2 2h2v2c0 1.1.9 2 2 2h8a2 2 0 0 0 2-2v-2h2a2 2 0 0 0 2-2v-4a3 3 0 0 0-3-3zm-4 11H9a1 1 0 0 1-1-1v-4h8v4a1 1 0 0 1-1 1zm4-7c-.55 0-1-.45-1-1s.45-1 1-1 1 .45 1 1-.45 1-1 1zm-2-9H7a1 1 0 0 0-1 1v2a1 1 0 0 0 1 1h10a1 1 0 0 0 1-1V4a1 1 0 0 0-1-1z"/></symbol><symbol viewBox="0 0 24 24" fill="currentColor" id="kp_icon_radio"><path d="M3.24 6.15A1.98 1.98 0 0 0 2 8v12c0 1.1.9 2 2 2h16a2 2 0 0 0 2-2V8a2 2 0 0 0-2-2H8.3l7.43-3c.46-.19.68-.71.49-1.17s-.71-.68-1.17-.49zM7 20a3 3 0 1 1 0-6 3 3 0 0 1 0 6zm13-8h-2v-1c0-.55-.45-1-1-1s-1 .45-1 1v1H4V9a1 1 0 0 1 1-1h14a1 1 0 0 1 1 1z"/></symbol><symbol viewBox="0 0 24 24" fill="currentColor" id="kp_icon_refresh"><path d="M17.65 6.35a7.95 7.95 0 0 0-6.48-2.31 8.03 8.03 0 0 0-7.1 7.02 7.98 7.98 0 0 0 15.14 4.38 1 1 0 0 0-1.78-.91 6 6 0 1 1-1.21-6.75l-1.51 1.51a1 1 0 0 0 .7 1.71H19a1 1 0 0 0 1-1V6.41a1 1 0 0 0-1.71-.71z"/></symbol><symbol viewBox="0 0 24 24" fill="currentColor" id="kp_icon_repeat"><path d="M7 7h10v1.79c0 .45.54.67.85.35l2.79-2.79a.5.5 0 0 0 0-.71l-2.79-2.79a.5.5 0 0 0-.85.36V5H6a1 1 0 0 0-1 1v4c0 .55.45 1 1 1s1-.45 1-1zm10 10H7v-1.79a.5.5 0 0 0-.85-.35l-2.79 2.79a.5.5 0 0 0 0 .71l2.79 2.79a.5.5 0 0 0 .85-.36V19h11a1 1 0 0 0 1-1v-4c0-.55-.45-1-1-1s-1 .45-1 1z"/></symbol><symbol viewBox="0 0 24 24" fill="currentColor" id="kp_icon_rewind"><path d="M11 16.07V7.93a1 1 0 0 0-1.58-.82l-5.77 4.07a1 1 0 0 0 0 1.63l5.77 4.07a1 1 0 0 0 1.58-.81zm1.66-3.25l5.77 4.07a1 1 0 0 0 1.58-.82V7.93a1 1 0 0 0-1.58-.82l-5.77 4.07a1 1 0 0 0 0 1.64z"/></symbol><symbol viewBox="0 0 24 24" fill="currentColor" id="kp_icon_save"><path d="M17.59 3.59A2 2 0 0 0 16.17 3H5a2 2 0 0 0-2 2v14c0 1.1.9 2 2 2h14a2 2 0 0 0 2-2V7.83c0-.53-.21-1.04-.59-1.41zM12 19a3 3 0 1 1 0-6 3 3 0 0 1 0 6zm1-10H7c-1.1 0-2-.9-2-2s.9-2 2-2h6c1.1 0 2 .9 2 2s-.9 2-2 2z"/></symbol><symbol viewBox="0 0 24 24" fill="currentColor" id="kp_icon_scissors"><path d="M19 3l-6 6 2 2 7-7V3m-10 9.5a.5.5 0 0 1-.5-.5.5.5 0 0 1 .5-.5.5.5 0 0 1 .5.5.5.5 0 0 1-.5.5M6 20a2 2 0 0 1-2-2 2 2 0 0 1 2-2 2 2 0 0 1 2 2 2 2 0 0 1-2 2M6 8a2 2 0 0 1-2-2 2 2 0 0 1 2-2 2 2 0 0 1 2 2 2 2 0 0 1-2 2m3.64-.36c.23-.5.36-1.05.36-1.64a4 4 0 0 0-4-4 4 4 0 0 0-4 4 4 4 0 0 0 4 4 3.9 3.9 0 0 0 1.64-.36L10 12l-2.36 2.36A3.9 3.9 0 0 0 6 14a4 4 0 0 0-4 4 4 4 0 0 0 4 4 4 4 0 0 0 4-4 3.9 3.9 0 0 0-.36-1.64L12 14l7 7h3v-1z"/></symbol><symbol viewBox="0 0 24 24" fill="currentColor" id="kp_icon_search"><path d="M15.5 14h-.79l-.28-.27a6.5 6.5 0 1 0-.7.7l.27.28v.79l4.25 4.25a1.06 1.06 0 0 0 1.49-1.49zm-6 0a4.5 4.5 0 1 1-.01-8.99A4.5 4.5 0 0 1 9.5 14z"/></symbol><symbol viewBox="0 0 24 24" fill="currentColor" id="kp_icon_send"><path d="M3.4 20.4l17.45-7.48a1 1 0 0 0 0-1.84L3.4 3.6a1 1 0 0 0-1.39.91L2 9.12c0 .5.37.93.87.99L17 12 2.87 13.88c-.5.07-.87.5-.87 1l.01 4.61a1 1 0 0 0 1.39.91z"/></symbol><symbol viewBox="0 0 24 24" fill="currentColor" id="kp_icon_settings"><path d="M19.43 12.98a7.8 7.8 0 0 0 0-1.96l2.11-1.65a.5.5 0 0 0 .12-.64l-2-3.46c-.12-.22-.39-.3-.61-.22l-2.49 1a7.3 7.3 0 0 0-1.69-.98l-.38-2.65A.49.49 0 0 0 14 2h-4a.49.49 0 0 0-.49.42l-.38 2.65c-.61.25-1.17.59-1.69.98l-2.49-1a.49.49 0 0 0-.61.22l-2 3.46a.5.5 0 0 0 .12.64l2.11 1.65a7.93 7.93 0 0 0 0 1.96l-2.11 1.65a.5.5 0 0 0-.12.64l2 3.46c.12.22.39.3.61.22l2.49-1c.52.4 1.08.73 1.69.98l.38 2.65c.03.24.24.42.49.42h4c.25 0 .46-.18.49-.42l.38-2.65a7.68 7.68 0 0 0 1.69-.98l2.49 1c.23.09.49 0 .61-.22l2-3.46a.5.5 0 0 0-.12-.64zM12 15.5a3.5 3.5 0 1 1 0-7 3.5 3.5 0 0 1 0 7z"/></symbol><symbol viewBox="0 0 24 24" fill="currentColor" id="kp_icon_share"><path d="M18 16.08c-.76 0-1.44.3-1.96.77L8.91 12.7c.05-.23.09-.46.09-.7s-.04-.47-.09-.7l7.05-4.11A2.99 2.99 0 0 0 21 5a3 3 0 1 0-5.91.7L8.04 9.81A2.99 2.99 0 0 0 3 12a3 3 0 0 0 5.04 2.19l7.12 4.16A2.92 2.92 0 1 0 18 16.08z"/></symbol><symbol viewBox="0 0 24 24" fill="currentColor" id="kp_icon_shield"><path d="M11.19.36l-7 3.11A2 2 0 0 0 3 5.3V10c0 5.55 3.84 10.74 9 12 5.16-1.26 9-6.45 9-12V5.3a2 2 0 0 0-1.19-1.83l-7-3.11a1.99 1.99 0 0 0-1.62 0zM12 10.99h7c-.53 4.12-3.28 7.79-7 8.94V11H5V5.3l7-3.11z"/></symbol><symbol viewBox="0 0 24 24" fill="currentColor" id="kp_icon_shopping_bag"><path d="M19 6h-2A5 5 0 0 0 7 6H5a2 2 0 0 0-2 2v12c0 1.1.9 2 2 2h14a2 2 0 0 0 2-2V8a2 2 0 0 0-2-2zm-7-3a3 3 0 0 1 3 3H9a3 3 0 0 1 3-3zm0 10a5 5 0 0 1-4.84-3.75A1 1 0 0 1 8.13 8c.47 0 .85.34.98.8a3 3 0 0 0 5.78 0c.13-.46.51-.8.98-.8a1 1 0 0 1 .97 1.25A5 5 0 0 1 12 13z"/></symbol><symbol viewBox="0 0 24 24" fill="currentColor" id="kp_icon_shopping_cart"><path d="M7 18a2 2 0 1 0 .01 4A2 2 0 0 0 7 18zM1 3a1 1 0 0 0 1 1h1l3.6 7.59-1.35 2.44A2 2 0 0 0 7 17h11c.55 0 1-.45 1-1s-.45-1-1-1H7l1.1-2h7.45a2 2 0 0 0 1.75-1.03l3.58-6.49A1 1 0 0 0 20.01 4H5.21l-.67-1.43a1 1 0 0 0-.9-.57H2a1 1 0 0 0-1 1zm16 15a2 2 0 1 0 .01 4 2 2 0 0 0-.01-4z"/></symbol><symbol viewBox="0 0 24 24" fill="currentColor" id="kp_icon_shuffle"><path d="M10.59 9.17L6.12 4.7a1 1 0 1 0-1.41 1.41l4.46 4.46zm4.76-4.32l1.19 1.19L4.7 17.88a1 1 0 1 0 1.41 1.41L17.96 7.46l1.19 1.19a.5.5 0 0 0 .85-.36V4.5a.5.5 0 0 0-.5-.5h-3.79a.5.5 0 0 0-.36.85zm-.52 8.56l-1.41 1.41 3.13 3.13-1.2 1.2a.5.5 0 0 0 .36.85h3.79a.5.5 0 0 0 .5-.5v-3.79a.5.5 0 0 0-.85-.35l-1.19 1.19z"/></symbol><symbol viewBox="0 0 24 24" fill="currentColor" id="kp_icon_skip_back"><path d="M7 6a1 1 0 0 1 1 1v10c0 .55-.45 1-1 1s-1-.45-1-1V7a1 1 0 0 1 1-1zm3.66 6.82l5.77 4.07a1 1 0 0 0 1.58-.82V7.93a1 1 0 0 0-1.58-.82l-5.77 4.07a1 1 0 0 0 0 1.64z"/></symbol><symbol viewBox="0 0 24 24" fill="currentColor" id="kp_icon_skip_forward"><path d="M7.58 16.89l5.77-4.07a1 1 0 0 0 0-1.63L7.58 7.11A1 1 0 0 0 6 7.93v8.14a1 1 0 0 0 1.58.82zM16 7v10c0 .55.45 1 1 1s1-.45 1-1V7c0-.55-.45-1-1-1s-1 .45-1 1z"/></symbol><symbol viewBox="0 0 24 24" fill="currentColor" id="kp_icon_slash"><path d="M12 2a10 10 0 1 0 0 20 10 10 0 0 0 0-20zM4 12a8 8 0 0 1 12.9-6.31L5.69 16.9A7.9 7.9 0 0 1 4 12zm8 8a7.9 7.9 0 0 1-4.9-1.69L18.31 7.1A8 8 0 0 1 12 20z"/></symbol><symbol viewBox="0 0 24 24" fill="currentColor" id="kp_icon_sliders"><path d="M3 18a1 1 0 0 0 1 1h5v-2H4a1 1 0 0 0-1 1zM3 6a1 1 0 0 0 1 1h9V5H4a1 1 0 0 0-1 1zm10 14v-1h7c.55 0 1-.45 1-1s-.45-1-1-1h-7v-1c0-.55-.45-1-1-1s-1 .45-1 1v4c0 .55.45 1 1 1s1-.45 1-1zM7 10v1H4c-.55 0-1 .45-1 1s.45 1 1 1h3v1c0 .55.45 1 1 1s1-.45 1-1v-4c0-.55-.45-1-1-1s-1 .45-1 1zm14 2a1 1 0 0 0-1-1h-9v2h9a1 1 0 0 0 1-1zm-5-3a1 1 0 0 0 1-1V7h3c.55 0 1-.45 1-1s-.45-1-1-1h-3V4c0-.55-.45-1-1-1s-1 .45-1 1v4a1 1 0 0 0 1 1z"/></symbol><symbol viewBox="0 0 24 24" fill="currentColor" id="kp_icon_smartphone"><path d="M15.5 1h-8A2.5 2.5 0 0 0 5 3.5v17A2.5 2.5 0 0 0 7.5 23h8a2.5 2.5 0 0 0 2.5-2.5v-17A2.5 2.5 0 0 0 15.5 1zm-4 21a1.5 1.5 0 1 1 0-3 1.5 1.5 0 0 1 0 3zm4.5-4H7V4h9v14z"/></symbol><symbol viewBox="0 0 24 24" fill="currentColor" id="kp_icon_speaker"><path d="M17 2H7a2 2 0 0 0-2 2v16a2 2 0 0 0 2 1.99L17 22a2 2 0 0 0 2-2V4a2 2 0 0 0-2-2zm-5 2c1.1 0 2 .9 2 2s-.9 2-2 2a2 2 0 1 1 0-4zm0 16a5 5 0 1 1 0-10 5 5 0 0 1 0 10zm0-8a3 3 0 1 0 0 6 3 3 0 0 0 0-6z"/></symbol><symbol viewBox="0 0 24 24" fill="currentColor" id="kp_icon_square"><path d="M18 4H6a2 2 0 0 0-2 2v12c0 1.1.9 2 2 2h12a2 2 0 0 0 2-2V6a2 2 0 0 0-2-2zm-1 14H7a1 1 0 0 1-1-1V7a1 1 0 0 1 1-1h10a1 1 0 0 1 1 1v10a1 1 0 0 1-1 1z"/></symbol><symbol viewBox="0 0 24 24" fill="currentColor" id="kp_icon_star"><path d="M12 17.27l4.15 2.51a1 1 0 0 0 1.49-1.08l-1.1-4.72 3.67-3.18a1 1 0 0 0-.57-1.75l-4.83-.41-1.89-4.46a1 1 0 0 0-1.84 0L9.19 8.63l-4.83.41a1 1 0 0 0-.57 1.75l3.67 3.18-1.1 4.72a1 1 0 0 0 1.49 1.08z"/></symbol><symbol viewBox="0 0 24 24" fill="currentColor" id="kp_icon_sun"><path d="M6.05 4.14l-.39-.39a1 1 0 0 0-1.4 0l-.01.01a.98.98 0 0 0 0 1.4l.39.39a.98.98 0 0 0 1.4 0l.01-.01a.98.98 0 0 0 0-1.4zM3.01 10.5H1.99a.99.99 0 0 0-.99.99v.01c0 .55.44.99.99.99H3c.56.01 1-.43 1-.98v-.01c0-.56-.44-1-.99-1zm9-9.95H12c-.56 0-1 .44-1 .99v.96c0 .55.44.99.99.99H12c.56.01 1-.43 1-.98v-.97a.99.99 0 0 0-.99-.99zm7.74 3.21a1 1 0 0 0-1.41-.01l-.39.39a.98.98 0 0 0 0 1.4l.01.01a.98.98 0 0 0 1.4 0l.39-.39a.98.98 0 0 0 0-1.4zm-1.81 15.1l.39.39a1 1 0 1 0 1.41-1.41l-.39-.39a1 1 0 0 0-1.4 0 .99.99 0 0 0-.01 1.41zM20 11.49v.01c0 .55.44.99.99.99H22c.55 0 .99-.44.99-.99v-.01a.99.99 0 0 0-.99-.99h-1.01a.99.99 0 0 0-.99.99zM12 5.5a6 6 0 1 0 .01 12.01A6 6 0 0 0 12 5.5zm-.01 16.95H12c.55 0 .99-.44.99-.99v-.96a.99.99 0 0 0-.99-.99h-.01a.99.99 0 0 0-.99.99v.96c0 .55.44.99.99.99zm-7.74-3.21a1 1 0 0 0 1.41 0l.39-.39a1 1 0 0 0 0-1.4l-.01-.01a1 1 0 0 0-1.41 0l-.39.39a1 1 0 0 0 .01 1.41z"/></symbol><symbol viewBox="0 0 24 24" fill="currentColor" id="kp_icon_sync"><path d="M11.52 4V2.21c0-.45-.52-.67-.82-.35L8.02 4.65c-.2.2-.2.51 0 .71l2.67 2.79c.31.31.83.09.83-.36V6a5.89 5.89 0 0 1 5.76 6c0 .79-.14 1.56-.42 2.25a.99.99 0 0 0 .22 1.04.94.94 0 0 0 1.57-.34c.36-.91.55-1.91.55-2.95 0-4.42-3.44-8-7.68-8zm0 14a5.89 5.89 0 0 1-5.76-6c0-.79.14-1.56.42-2.25a.99.99 0 0 0-.22-1.04.94.94 0 0 0-1.57.34A8.11 8.11 0 0 0 3.84 12c0 4.42 3.44 8 7.68 8v1.79c0 .45.52.67.82.35L15 19.35c.2-.2.2-.51 0-.71l-2.67-2.79c-.3-.31-.82-.09-.82.36z"/></symbol><symbol viewBox="0 0 24 24" fill="currentColor" id="kp_icon_tag"><path d="M21.41 11.58l-9-9A1.99 1.99 0 0 0 11 2H4a2 2 0 0 0-2 2v7a2 2 0 0 0 .59 1.42l9 9a1.99 1.99 0 0 0 2.82-.01l7-7c.37-.36.59-.86.59-1.41s-.23-1.06-.59-1.42zM5.5 7a1.5 1.5 0 1 1 0-3 1.5 1.5 0 0 1 0 3z"/></symbol><symbol viewBox="0 0 24 24" fill="currentColor" id="kp_icon_toggle_right"><path d="M17 7H7a5 5 0 0 0 0 10h10a5 5 0 0 0 0-10zm0 8a3 3 0 1 1 0-6 3 3 0 0 1 0 6z"/></symbol><symbol viewBox="0 0 24 24" fill="currentColor" id="kp_icon_trash"><path d="M6 19c0 1.1.9 2 2 2h8a2 2 0 0 0 2-2V9a2 2 0 0 0-2-2H8a2 2 0 0 0-2 2zM18 4h-2.5l-.71-.71a1 1 0 0 0-.7-.29H9.91a1 1 0 0 0-.7.29L8.5 4H6c-.55 0-1 .45-1 1s.45 1 1 1h12c.55 0 1-.45 1-1s-.45-1-1-1z"/></symbol><symbol viewBox="0 0 24 24" fill="currentColor" id="kp_icon_trending_down"><path d="M16.85 17.15l1.44-1.44-4.88-4.88-3.29 3.29a1 1 0 0 1-1.41 0l-6-6.01A1 1 0 1 1 4.12 6.7L9.41 12l3.29-3.29a1 1 0 0 1 1.41 0l5.59 5.58 1.44-1.44a.5.5 0 0 1 .85.35v4.29a.5.5 0 0 1-.5.5H17.2c-.44.01-.66-.53-.35-.84z"/></symbol><symbol viewBox="0 0 24 24" fill="currentColor" id="kp_icon_trending_up"><path d="M16.85 6.85l1.44 1.44-4.88 4.88-3.29-3.29a1 1 0 0 0-1.41 0l-6 6.01a1 1 0 1 0 1.41 1.41L9.41 12l3.29 3.29a1 1 0 0 0 1.41 0l5.59-5.58 1.44 1.44a.5.5 0 0 0 .85-.35V6.5a.48.48 0 0 0-.49-.5h-4.29a.5.5 0 0 0-.36.85z"/></symbol><symbol viewBox="0 0 24 24" fill="currentColor" id="kp_icon_truck"><path d="M19.5 8H17V6a2 2 0 0 0-2-2H3a2 2 0 0 0-2 2v9c0 1.1.9 2 2 2a3 3 0 1 0 6 0h6a3 3 0 1 0 6 0h1a1 1 0 0 0 1-1v-3.33c0-.43-.14-.85-.4-1.2L20.3 8.4c-.19-.25-.49-.4-.8-.4zM6 18c-.55 0-1-.45-1-1s.45-1 1-1 1 .45 1 1-.45 1-1 1zm13.5-8.5l1.96 2.5H17V9.5zM18 18c-.55 0-1-.45-1-1s.45-1 1-1 1 .45 1 1-.45 1-1 1z"/></symbol><symbol viewBox="0 0 24 24" fill="currentColor" id="kp_icon_tv"><path d="M21 3H3a2 2 0 0 0-2 2v12c0 1.1.9 2 2 2h5v1a1 1 0 0 0 1 1h6a1 1 0 0 0 1-1v-1h5a2 2 0 0 0 1.99-2L23 5a2 2 0 0 0-2-2zm-1 14H4a1 1 0 0 1-1-1V6a1 1 0 0 1 1-1h16a1 1 0 0 1 1 1v10a1 1 0 0 1-1 1z"/></symbol><symbol viewBox="0 0 24 24" fill="currentColor" id="kp_icon_unlock"><path d="M12 13c-1.1 0-2 .9-2 2s.9 2 2 2 2-.9 2-2-.9-2-2-2zm6-5h-1V6a5 5 0 0 0-9.84-1.25 1 1 0 1 0 1.94.5A3 3 0 0 1 15 6v2H6a2 2 0 0 0-2 2v10c0 1.1.9 2 2 2h12a2 2 0 0 0 2-2V10a2 2 0 0 0-2-2zm0 11a1 1 0 0 1-1 1H7a1 1 0 0 1-1-1v-8a1 1 0 0 1 1-1h10a1 1 0 0 1 1 1z"/></symbol><symbol viewBox="0 0 24 24" fill="currentColor" id="kp_icon_upload_cloud"><path d="M19.35 10.04a7.49 7.49 0 0 0-14-2A6 6 0 0 0 6 20h13a4.98 4.98 0 1 0 .35-9.96zM14 13v4h-4v-4H7l4.65-4.65c.2-.2.51-.2.71 0L17 13z"/></symbol><symbol viewBox="0 0 24 24" fill="currentColor" id="kp_icon_upload"><path d="M5 5a1 1 0 0 0 1 1h12c.55 0 1-.45 1-1s-.45-1-1-1H6a1 1 0 0 0-1 1zm2.41 9H9v5a1 1 0 0 0 1 1h4a1 1 0 0 0 1-1v-5h1.59a1 1 0 0 0 .71-1.71L12.71 7.7a1 1 0 0 0-1.41 0l-4.59 4.59a1 1 0 0 0 .7 1.71z"/></symbol><symbol viewBox="0 0 24 24" fill="currentColor" id="kp_icon_user_check"><path d="M12 20H3v-2c0-2.66 5.33-4 8-4 .32 0 .61.02 1 .06l-.84.82a3 3 0 0 0-.02 4.26zm-1-8a4 4 0 1 1 0-8 4 4 0 0 1 0 8zm5.18 7.78a1 1 0 0 1-1.42 0l-2.07-2.09a.99.99 0 0 1 0-1.39l.01-.01a.98.98 0 0 1 1.4 0l1.37 1.37 4.43-4.46a1 1 0 0 1 1.41 0l.01.01a.99.99 0 0 1 0 1.39z"/></symbol><symbol viewBox="0 0 24 24" fill="currentColor" id="kp_icon_user_plus"><path d="M15 12a4 4 0 1 0 0-8 4 4 0 0 0 0 8zm-9-2V8c0-.55-.45-1-1-1s-1 .45-1 1v2H2c-.55 0-1 .45-1 1s.45 1 1 1h2v2c0 .55.45 1 1 1s1-.45 1-1v-2h2c.55 0 1-.45 1-1s-.45-1-1-1zm9 4c-2.67 0-8 1.34-8 4v1a1 1 0 0 0 1 1h14a1 1 0 0 0 1-1v-1c0-2.66-5.33-4-8-4z"/></symbol><symbol viewBox="0 0 24 24" fill="currentColor" id="kp_icon_user"><path d="M12 12a4 4 0 1 0 0-8 4 4 0 0 0 0 8zm0 2c-2.67 0-8 1.34-8 4v1a1 1 0 0 0 1 1h14a1 1 0 0 0 1-1v-1c0-2.66-5.33-4-8-4z"/></symbol><symbol viewBox="0 0 24 24" fill="currentColor" id="kp_icon_users"><path d="M16.5 12c1.38 0 2.49-1.12 2.49-2.5a2.5 2.5 0 1 0-4.99 0 2.5 2.5 0 0 0 2.5 2.5zM9 11c1.66 0 2.99-1.34 2.99-3S10.66 5 9 5a3 3 0 1 0 0 6zm7.5 3c-1.83 0-5.5.92-5.5 2.75V18a1 1 0 0 0 1 1h9a1 1 0 0 0 1-1v-1.25c0-1.83-3.67-2.75-5.5-2.75zM9 13c-2.33 0-7 1.17-7 3.5V18a1 1 0 0 0 1 1h6v-2.25c0-.85.33-2.34 2.37-3.47C10.5 13.1 9.66 13 9 13z"/></symbol><symbol viewBox="0 0 24 24" fill="currentColor" id="kp_icon_video_off"><path d="M21 14.2V8.91a1 1 0 0 0-1.71-.71L17 10.5V7a1 1 0 0 0-1-1h-5.61l8.91 8.91c.62.63 1.7.18 1.7-.71zM2.71 2.56a1 1 0 0 0 0 1.41L4.73 6H4a1 1 0 0 0-1 1v10a1 1 0 0 0 1 1h12c.21 0 .39-.08.55-.18l2.48 2.48a1 1 0 1 0 1.41-1.41L4.12 2.56a1 1 0 0 0-1.41 0z"/></symbol><symbol viewBox="0 0 24 24" fill="currentColor" id="kp_icon_video"><path d="M17 10.5V7a1 1 0 0 0-1-1H4a1 1 0 0 0-1 1v10a1 1 0 0 0 1 1h12a1 1 0 0 0 1-1v-3.5l2.29 2.29a1 1 0 0 0 1.71-.71V8.91a1 1 0 0 0-1.71-.71z"/></symbol><symbol viewBox="0 0 24 24" fill="currentColor" id="kp_icon_voicemail"><path d="M18.5 6a5.5 5.5 0 0 0-4.24 9H9.74a5.5 5.5 0 1 0-4.24 2h13a5.5 5.5 0 1 0 0-11zm-13 9a3.5 3.5 0 1 1 0-7 3.5 3.5 0 0 1 0 7zm13 0a3.5 3.5 0 1 1 0-7 3.5 3.5 0 0 1 0 7z"/></symbol><symbol viewBox="0 0 24 24" fill="currentColor" id="kp_icon_volume_down"><path d="M18.5 12A4.5 4.5 0 0 0 16 7.97v8.05A4.47 4.47 0 0 0 18.5 12zM5 10v4a1 1 0 0 0 1 1h3l3.29 3.29a1 1 0 0 0 1.71-.71V6.41a1 1 0 0 0-1.71-.71L9 9H6a1 1 0 0 0-1 1z"/></symbol><symbol viewBox="0 0 24 24" fill="currentColor" id="kp_icon_volume_mute"><path d="M3.63 3.63a1 1 0 0 0 0 1.41L7.29 8.7 7 9H4a1 1 0 0 0-1 1v4a1 1 0 0 0 1 1h3l3.29 3.29a1 1 0 0 0 1.71-.71v-4.17l4.18 4.18c-.49.37-1.02.68-1.6.91a1 1 0 0 0-.58.92 1 1 0 0 0 1.39.91c.8-.33 1.55-.77 2.22-1.31l1.34 1.34a1 1 0 1 0 1.41-1.41L5.05 3.63a1 1 0 0 0-1.42 0zM19 12c0 .82-.15 1.61-.41 2.34l1.53 1.53a9 9 0 0 0-4.9-12.27c-.59-.23-1.22.23-1.22.86v.19c0 .38.25.71.61.85A7.02 7.02 0 0 1 19 12zm-8.71-6.29l-.17.17L12 7.76V6.41a1 1 0 0 0-1.71-.7zM16.5 12A4.5 4.5 0 0 0 14 7.97v1.79l2.48 2.48.02-.24z"/></symbol><symbol viewBox="0 0 24 24" fill="currentColor" id="kp_icon_volume_up"><path d="M3 10v4a1 1 0 0 0 1 1h3l3.29 3.29a1 1 0 0 0 1.71-.71V6.41a1 1 0 0 0-1.71-.71L7 9H4a1 1 0 0 0-1 1zm13.5 2A4.5 4.5 0 0 0 14 7.97v8.05A4.47 4.47 0 0 0 16.5 12zM14 4.45v.2c0 .38.25.71.6.85a7 7 0 0 1 0 13 .92.92 0 0 0-.6.85v.2a.9.9 0 0 0 1.21.85 8.98 8.98 0 0 0 0-16.8c-.58-.23-1.21.22-1.21.85z"/></symbol><symbol viewBox="0 0 24 24" fill="currentColor" id="kp_icon_volume"><path d="M7 10v4a1 1 0 0 0 1 1h3l3.29 3.29a1 1 0 0 0 1.71-.71V6.41a1 1 0 0 0-1.71-.71L11 9H8a1 1 0 0 0-1 1z"/></symbol><symbol viewBox="0 0 24 24" fill="currentColor" id="kp_icon_wifi_off"><path d="M20.06 10.14a1.41 1.41 0 1 0 1.79-2.19A15.53 15.53 0 0 0 9.3 4.69l2.59 2.59c2.89-.03 5.8.92 8.17 2.86zm-2.27 1.83c-.78-.57-1.63-1-2.52-1.3l2.95 2.95c.24-.58.1-1.27-.43-1.65zm-3.84 4.26a4.28 4.28 0 0 0-3.91 0 1 1 0 0 0-.23 1.59l1.47 1.47a1 1 0 0 0 1.41 0l1.47-1.47a.98.98 0 0 0-.21-1.59zm5.73 1.67L4.12 2.34a1 1 0 1 0-1.41 1.41L5.05 6.1c-1.01.5-1.99 1.11-2.89 1.85a1.42 1.42 0 0 0-.1 2.1c.51.51 1.32.56 1.87.1 1-.82 2.1-1.46 3.25-1.93l2.23 2.23c-1.13.3-2.21.8-3.19 1.51a1.4 1.4 0 0 0-.13 2.11l.01.01c.49.49 1.26.54 1.83.13a7.14 7.14 0 0 1 3.97-1.29l6.37 6.37a1 1 0 0 0 1.41 0c.39-.37.39-1 0-1.39z"/></symbol><symbol viewBox="0 0 24 24" fill="currentColor" id="kp_icon_wifi"><path d="M2.06 10.06c.51.51 1.32.56 1.87.1a12.75 12.75 0 0 1 16.13-.01 1.41 1.41 0 1 0 1.79-2.19 15.59 15.59 0 0 0-19.69 0c-.65.52-.7 1.5-.1 2.1zm7.76 7.76l1.47 1.47a1 1 0 0 0 1.41 0l1.47-1.47a1 1 0 0 0-.23-1.59 4.28 4.28 0 0 0-3.91 0 1.01 1.01 0 0 0-.21 1.59zm-3.73-3.73c.49.49 1.26.54 1.83.13a7.06 7.06 0 0 1 8.16 0c.57.4 1.34.36 1.83-.13l.01-.01c.6-.6.56-1.62-.13-2.11a9.9 9.9 0 0 0-11.58 0c-.69.5-.73 1.51-.12 2.12z"/></symbol><symbol viewBox="0 0 24 24" fill="currentColor" id="kp_icon_zap_off"><path d="M16.12 11.5a1 1 0 0 0-.86-1.5h-1.87l2.28 2.28zm.16-8.05a1 1 0 0 0-.9-1.45H8a1 1 0 0 0-1 1v.61l6.13 6.13zm2.16 14.43L4.12 3.56a1 1 0 1 0-1.41 1.41L7 9.27V12a1 1 0 0 0 1 1h2v7.15c0 .51.67.69.93.25l2.65-4.55 3.44 3.44a1 1 0 0 0 1.41 0c.4-.39.4-1.02.01-1.41z"/></symbol><symbol viewBox="0 0 24 24" fill="currentColor" id="kp_icon_zap"><path d="M7 3v9a1 1 0 0 0 1 1h2v7.15c0 .51.67.69.93.25l5.19-8.9a1 1 0 0 0-.86-1.5H13l2.49-6.65A1 1 0 0 0 14.56 2H8a1 1 0 0 0-1 1z"/></symbol><symbol viewBox="0 0 24 24" fill="currentColor" id="kp_icon_reply"><path d="M10 9V7.41a1 1 0 0 0-1.71-.71L3.7 11.29a1 1 0 0 0 0 1.41l4.59 4.59a1 1 0 0 0 1.71-.7V14.9c5 0 8.5 1.6 11 5.1-1-5-4-10-11-11z"/></symbol><symbol viewBox="0 0 24 24" fill="currentColor" id="kp_icon_message_cirlce"><path d="M11.5 2a8.5 8.5 0 1 0 0 17h.5v3c4.9-2.3 8-7 8-11.5C20 5.8 16.2 2 11.5 2z"/></symbol><symbol viewBox="0 0 24 24" fill="currentColor" id="kp_icon_image_gallery"><path d="M2 5a1 1 0 0 1 1 1v12c0 .55-.45 1-1 1s-1-.45-1-1V6a1 1 0 0 1 1-1zm4 0a1 1 0 0 1 1 1v12c0 .55-.45 1-1 1s-1-.45-1-1V6a1 1 0 0 1 1-1zm16 0H10a1 1 0 0 0-1 1v12a1 1 0 0 0 1 1h12a1 1 0 0 0 1-1V6a1 1 0 0 0-1-1zM11.64 16.19l1.47-1.86a.5.5 0 0 1 .78-.01l1.4 1.68 2.1-2.71a.5.5 0 0 1 .79 0l2.21 2.9a.5.5 0 0 1-.4.8h-7.96a.5.5 0 0 1-.39-.8z"/></symbol><symbol viewBox="0 0 24 24" fill="currentColor" id="kp_icon_facebook"><path d="M14 14h2.5l1-4H14V7.5c0-1 0-2 2-2h1.5V2.1c-.3 0-1.6-.1-2.9-.1C11.9 2 10 3.7 10 6.7V10H7v4h3v8h4v-8z"/></symbol><symbol viewBox="0 0 24 24" fill="currentColor" id="kp_icon_twitter"><path d="M22.16 5.66a8.38 8.38 0 0 1-2.4.65A4.2 4.2 0 0 0 21.6 4c-.82.49-1.72.83-2.66 1.01a4.18 4.18 0 0 0-7.12 3.82A11.87 11.87 0 0 1 3.2 4.46a4.17 4.17 0 0 0-.57 2.1c0 1.45.74 2.73 1.86 3.48a4.17 4.17 0 0 1-1.9-.52v.05a4.18 4.18 0 0 0 3.36 4.1 4.21 4.21 0 0 1-1.89.08 4.18 4.18 0 0 0 3.91 2.9 8.4 8.4 0 0 1-6.2 1.73 11.83 11.83 0 0 0 6.42 1.88c7.7 0 11.9-6.37 11.9-11.9l-.01-.54a8.5 8.5 0 0 0 2.08-2.16z"/></symbol><symbol viewBox="0 0 24 24" fill="currentColor" id="kp_icon_whatsapp"><path d="M18.7 4.8a9.48 9.48 0 0 0-13.4 0 9.6 9.6 0 0 0 0 13.5l.4.4L3.4 21c5.7 2 11.8.8 15.4-2.8 3.5-3.7 3.5-9.6-.1-13.4zm-2.6 10.1c-.2.5-1 .9-1.4 1-.6.1-1.2.1-2.5-.5-2.1-.9-3.5-3.1-3.6-3.2-.1-.2-.9-1.2-.9-2.2s.5-1.5.7-1.7c.2-.2.4-.3.5-.3h.4c.2 0 .3 0 .5.4.1.5.5 1.5.6 1.6 0 .1.1.3 0 .4-.4.8-.8.7-.6 1.1.9 1.4 1.7 1.9 2.9 2.5.3.1.4 0 .5-.1.2-.1.6-.6.7-.8.2-.2.3-.2.5-.1l1.4.7c.2.1.4.1.4.2.1.1.1.5-.1 1z"/></symbol><symbol viewBox="0 0 24 24" fill="currentColor" id="kp_icon_youtube"><path d="M21.5 6.5c-.2-1-1-1.8-1.9-2C17.9 4 12 4 12 4s-5.9 0-7.6.5c-.9.2-1.6 1-1.9 2C2 8.3 2 12 2 12s0 3.7.5 5.5c.2 1 1 1.7 1.9 2 1.7.5 7.6.5 7.6.5s5.9 0 7.6-.5c.9-.2 1.6-1 1.9-2 .5-1.8.5-5.5.5-5.5s0-3.7-.5-5.5zm-6.6 6.1l-3.8 2.2c-.5.3-1.1-.1-1.1-.6V9.8c0-.6.6-.9 1.1-.6l3.8 2.2c.5.2.5 1 0 1.2z"/></symbol><symbol viewBox="0 0 24 24" fill="currentColor" id="kp_icon_instagram"><circle cx="12" cy="12" r="3"/><path d="M21.5 5.6a5.67 5.67 0 0 0-5.4-3.5C15.1 2 14.7 2 12 2H8c-1 .1-1.8.3-2.4.5-.7.3-1.3.7-1.8 1.2-.6.5-.9 1.1-1.2 1.8-.3.6-.4 1.4-.5 2.4C2 8.9 2 9.3 2 12v4c.1 1 .3 1.8.5 2.4.3.7.7 1.3 1.2 1.8.5.6 1.1.9 1.8 1.2.6.3 1.3.5 2.4.5 1 .1 1.4.1 4.1.1h4c1-.1 1.8-.3 2.4-.5.7-.3 1.3-.7 1.8-1.2.6-.5.9-1.1 1.2-1.8.3-.6.5-1.3.5-2.4.1-1 .1-1.4.1-4.1V8c-.1-1-.3-1.8-.5-2.4zM12 17c-2.8 0-5-2.2-5-5s2.2-5 5-5 5 2.2 5 5-2.2 5-5 5zm5.3-9c-.6 0-1.3-.5-1.3-1.2s.6-1.2 1.2-1.2 1.3.5 1.3 1.2S17.9 8 17.3 8z"/></symbol></svg>