<svg xmlns="http://www.w3.org/2000/svg" width="400" height="120" fill="#696969"><path class="st0" d="M132.8 14a3 3 0 0 1-2.3-1.1c-1.1-1.4-1.1-3.8.1-5.1.6-.6 2.2-1.8 5 .1.3.2.4.7.2 1-.2.3-.7.4-1 .2-.8-.5-2.2-1.3-3-.3-.7.8-.7 2.3-.1 3.1.8 1 2.3.3 3.2-.2.4-.2.8-.1 1 .3.2.4.1.8-.3 1-1.1.8-2 1-2.8 1zm-6.5 0a3 3 0 0 1-2.3-1.1c-1.1-1.4-1.1-3.8.1-5.1.6-.6 2.2-1.8 5 .1.3.2.4.7.2 1-.2.3-.7.4-1 .2-.8-.5-2.2-1.3-3-.3-.7.8-.7 2.3-.1 3.1.8 1 2.3.3 3.2-.2.4-.2.8-.1 1 .3.2.4.1.8-.3 1-1.1.8-2 1-2.8 1z"/><path class="st0" d="M122.2 3.4h15.7v13.1h-15.7V3.4zM120.8 2v15.7h18.3V2h-18.3zM157.2 3h-14a2 2 0 0 0-2 2v10c0 1.1.9 2 2 2h14a2 2 0 0 0 2-2V5a2 2 0 0 0-2-2zM145 12.2c.7.9 1.9.8 3.4-.1l.5.9c-.7.5-1.6.7-2.5.8-.8 0-1.6-.4-2.1-1a4 4 0 0 1 .1-4.8c.5-.6 2-1.7 4.6.2l-.6.8c-1.4-1-2.6-1.1-3.3-.3a3 3 0 0 0-.1 3.5zm7.6 0c.7.9 1.9.8 3.4-.1l.5.9a6 6 0 0 1-2.6.8c-.8 0-1.6-.4-2.1-1a4 4 0 0 1 .1-4.8c.5-.6 2-1.7 4.6.2l-.5.8c-1.4-1-2.6-1.1-3.3-.3a3 3 0 0 0-.1 3.5zM5.3 3.8v10.4c0 .8.9 1.3 1.5.8L15 9.8a1 1 0 0 0 0-1.7L6.8 3c-.6-.5-1.5 0-1.5.8zM61 8.2v4c0 .6.5 1 1 1h3l3.3 3.3c.6.6 1.7.2 1.7-.7V4.6c0-.9-1.1-1.3-1.7-.7L65 7.2h-3a1 1 0 0 0-1 1zm13.5 2c0-1.8-1-3.3-2.5-4v8.1a4.6 4.6 0 0 0 2.5-4.1zM72 2.7v.2c0 .4.2.7.6.8a7 7 0 0 1 0 13c-.4.1-.6.5-.6.9v.2c0 .6.6 1.1 1.2.9 3.4-1.3 5.8-4.6 5.8-8.4s-2.4-7.1-5.8-8.4c-.6-.3-1.2.1-1.2.8zM41.6 1.8a1 1 0 0 0 0 1.4l3.7 3.7-.3.3h-3a1 1 0 0 0-1 1v4c0 .6.5 1 1 1h3l3.3 3.3c.6.6 1.7.2 1.7-.7v-4.2l4.2 4.2a5 5 0 0 1-1.6.9c-.4.1-.6.5-.6.9a1 1 0 0 0 1.4.9 8 8 0 0 0 2.2-1.3l1.3 1.3c.4.4 1 .4 1.4 0s.4-1 0-1.4L43 1.8c-.3-.4-1-.4-1.4 0zM57 10.2c0 .8-.2 1.6-.4 2.3l1.5 1.5a9 9 0 0 0-4.9-12.3c-.6-.1-1.2.3-1.2 1v.2c0 .4.2.7.6.8a7 7 0 0 1 4.4 6.5zm-8.7-6.3l-.2.2L50 6V4.6c0-.9-1.1-1.3-1.7-.7zm6.2 6.3c0-1.8-1-3.3-2.5-4V8l2.5 2.5v-.3zM35.3 94.2l18.2-13.7a1.9 1.9 0 0 0 0-3.1L35.3 63.8c-1.3-1-3.1 0-3.1 1.6v27.3c0 1.5 1.8 2.5 3.1 1.5zM40 40a39 39 0 1 0 .1 78.1A39 39 0 0 0 40 40zm0 70.2a31.2 31.2 0 1 1 0-62.5 31.2 31.2 0 0 1 0 62.5z"/><path class="st0" d="M119.8 40a39 39 0 1 0 .1 78.1 39 39 0 0 0-.1-78.1zM112 92.7V65.3c0-1.6 1.8-2.5 3.1-1.6l18.2 13.7c1.1.8 1.1 2.3 0 3.1l-18.2 13.6a1.9 1.9 0 0 1-3.1-1.4zM174.8 4.3a7.8 7.8 0 0 0-6.5-2.3 8 8 0 0 0-7.1 7 7.9 7.9 0 0 0 7.9 8.9 8 8 0 0 0 7.2-4.6 1 1 0 0 0-.9-1.4 1 1 0 0 0-.9.5 6 6 0 0 1-6.8 3.3 6 6 0 0 1-4.5-4.5 6 6 0 0 1 5.9-7.3c1.7 0 3.1.7 4.2 1.8l-1.5 1.5c-.6.6-.2 1.7.7 1.7h3.6c.6 0 1-.4 1-1V4.4c0-.9-1.1-1.3-1.7-.7l-.6.6zM83 12h-2v6h6v-2h-4zM81 7h2V3h4V1h-6zM92 1v2h4v4h2V1zM96 16h-4v2h6v-6h-2zM183.5 8.2c-.7 0-1.3.6-1.3 1.3 0 .7.6 1.3 1.3 1.3.7 0 1.3-.6 1.3-1.3 0-.7-.6-1.3-1.3-1.3zm0-5.1c-.7 0-1.3.6-1.3 1.3s.6 1.3 1.3 1.3c.7 0 1.3-.6 1.3-1.3s-.6-1.3-1.3-1.3zm0 10.2c-.7 0-1.3.6-1.3 1.3 0 .7.6 1.3 1.3 1.3.7 0 1.3-.6 1.3-1.3 0-.7-.6-1.3-1.3-1.3zm4.3 1.9h8.5c.4 0 .7-.3.7-.6s-.3-.6-.7-.6h-8.5c-.4 0-.7.3-.7.6s.3.6.7.6zm0-5.3h8.5c.4 0 .7-.2.7-.5s-.3-.5-.7-.5h-8.5c-.4 0-.7.2-.7.5s.3.5.7.5zm-.7-5.4c0 .3.3.5.7.5h8.5c.4 0 .7-.2.7-.5s-.3-.5-.7-.5h-8.5c-.4 0-.7.2-.7.5z"/><path fill="#fff" d="M200.1 39a39 39 0 1 0 .1 78.1 39 39 0 0 0-.1-78.1zm0 70.2a31.2 31.2 0 1 1 0-62.5 31.2 31.2 0 0 1 0 62.5z" opacity=".2"/> <circle fill="#fff" cx="200.1" cy="42.9" r="3.1"/><path class="st0" d="M105 5h-4v2h6V1h-2zM114 5V1h-2v6h6V5zM112 18h2v-4h4v-2h-6zM101 14h4v4h2v-6h-6z"/> <path d="M25 16a2 2 0 0 0 2-2V4c0-1.1-.9-2-2-2s-2 .9-2 2v10c0 1.1.9 2 2 2zm6-12v10c0 1.1.9 2 2 2a2 2 0 0 0 2-2V4a2 2 0 0 0-2-2 2 2 0 0 0-2 2z"/>
</svg>