<!--Generated by kepler builder - Material outline--><svg xmlns="http://www.w3.org/2000/svg"><symbol viewBox="0 0 24 24" fill="currentColor" id="kp_icon_alert_circle"><path d="M11 15h2v2h-2v-2zm0-8h2v6h-2V7zm.99-5A10 10 0 1 0 12 21.99 10 10 0 0 0 11.99 2zM12 20a8 8 0 1 1 0-16 8 8 0 0 1 0 16z"/></symbol><symbol viewBox="0 0 24 24" fill="currentColor" id="kp_icon_alert_triangle"><path d="M1 21h22L12 2zm12-3h-2v-2h2zm0-4h-2v-4h2z"/></symbol><symbol viewBox="0 0 24 24" fill="currentColor" id="kp_icon_archive"><path d="M20.54 5.23l-1.39-1.68A1.45 1.45 0 0 0 18 3H6c-.47 0-.88.21-1.16.55L3.46 5.23C3.17 5.57 3 6.02 3 6.5V19c0 1.1.9 2 2 2h14a2 2 0 0 0 2-2V6.5c0-.48-.17-.93-.46-1.27zM6.24 5h11.52l.81.97H5.44zM5 19V8h14v11zm8.45-9h-2.9v3H8l4 4 4-4h-2.55z"/></symbol><symbol viewBox="0 0 24 24" fill="currentColor" id="kp_icon_arrow_down_circle"><path d="M12 4a8.01 8.01 0 0 1 0 16 8.01 8.01 0 0 1 0-16m0-2a10 10 0 1 0 0 20 10 10 0 0 0 0-20zm0 13l-4-4h8z"/></symbol><symbol viewBox="0 0 24 24" fill="currentColor" id="kp_icon_arrow_down_left"><path d="M17.7 17.7v-2H9.8l8.6-8.6-1.5-1.5-8.6 8.6.1-7.9H6.3v11.4z"/></symbol><symbol viewBox="0 0 24 24" fill="currentColor" id="kp_icon_arrow_down_right"><path d="M17.7 6.3h-2v7.9L7.1 5.6 5.6 7.1l8.6 8.6-7.9-.1v2.1h11.4z"/></symbol><symbol viewBox="0 0 24 24" fill="currentColor" id="kp_icon_arrow_down"><path d="M20 12l-1.41-1.41L13 16.17V4h-2v12.17l-5.58-5.59L4 12l8 8z"/></symbol><symbol viewBox="0 0 24 24" fill="currentColor" id="kp_icon_arrow_left_circle"><path d="M20 12c0 4.4-3.6 8-8 8s-8-3.6-8-8 3.6-8 8-8 8 3.6 8 8m2 0c0-5.5-4.5-10-10-10S2 6.5 2 12s4.5 10 10 10 10-4.5 10-10zM9 12l4-4v8z"/></symbol><symbol viewBox="0 0 24 24" fill="currentColor" id="kp_icon_arrow_left"><path d="M20 11H7.83l5.59-5.59L12 4l-8 8 8 8 1.41-1.41L7.83 13H20z"/></symbol><symbol viewBox="0 0 24 24" fill="currentColor" id="kp_icon_arrow_right_circle"><path d="M4 12c0-4.4 3.6-8 8-8s8 3.6 8 8-3.6 8-8 8-8-3.6-8-8m-2 0c0 5.5 4.5 10 10 10s10-4.5 10-10S17.5 2 12 2 2 6.5 2 12zm13 0l-4 4V8z"/></symbol><symbol viewBox="0 0 24 24" fill="currentColor" id="kp_icon_arrow_right"><path d="M12 4l-1.41 1.41L16.17 11H4v2h12.17l-5.58 5.59L12 20l8-8z"/></symbol><symbol viewBox="0 0 24 24" fill="currentColor" id="kp_icon_arrow_up_circle"><path d="M12 20c-4.4 0-8-3.6-8-8s3.6-8 8-8 8 3.6 8 8-3.6 8-8 8m0 2c5.5 0 10-4.5 10-10S17.5 2 12 2 2 6.5 2 12s4.5 10 10 10zm0-13l4 4H8z"/></symbol><symbol viewBox="0 0 24 24" fill="currentColor" id="kp_icon_arrow_up_left"><path d="M6.3 17.7h2V9.8l8.6 8.6 1.5-1.5-8.6-8.6 7.9.1V6.3H6.3z"/></symbol><symbol viewBox="0 0 24 24" fill="currentColor" id="kp_icon_arrow_up_right"><path d="M6.3 6.3v2h7.9l-8.6 8.6 1.5 1.5 8.6-8.6-.1 7.9h2.1V6.3z"/></symbol><symbol viewBox="0 0 24 24" fill="currentColor" id="kp_icon_arrow_up"><path d="M4 12l1.41 1.41L11 7.83V20h2V7.83l5.58 5.59L20 12l-8-8z"/></symbol><symbol viewBox="0 0 24 24" fill="currentColor" id="kp_icon_at_sign"><path d="M12 1.95a10 10 0 0 0 0 20h5v-2h-5c-4.34 0-8-3.66-8-8s3.66-8 8-8 8 3.66 8 8v1.43c0 .79-.71 1.57-1.5 1.57s-1.5-.78-1.5-1.57v-1.43a5 5 0 1 0-1.46 3.53 3.7 3.7 0 0 0 2.96 1.47c1.97 0 3.5-1.6 3.5-3.57v-1.43a10 10 0 0 0-10-10zm0 13a3 3 0 1 1 0-6 3 3 0 0 1 0 6z"/></symbol><symbol viewBox="0 0 24 24" fill="currentColor" id="kp_icon_bar_chart"><path d="M5 9.2h3V19H5zM10.6 5h2.8v14h-2.8zm5.6 8H19v6h-2.8z"/></symbol><symbol viewBox="0 0 24 24" fill="currentColor" id="kp_icon_battery_charging"><path d="M15.67 4H14V2h-4v2H8.33C7.6 4 7 4.6 7 5.33v15.33C7 21.4 7.6 22 8.33 22h7.33c.74 0 1.34-.6 1.34-1.33V5.33C17 4.6 16.4 4 15.67 4zM11 20v-5.5H9L13 7v5.5h2z"/></symbol><symbol viewBox="0 0 24 24" fill="currentColor" id="kp_icon_battery"><path d="M15.67 4H14V2h-4v2H8.33C7.6 4 7 4.6 7 5.33v15.33C7 21.4 7.6 22 8.33 22h7.33c.74 0 1.34-.6 1.34-1.33V5.33C17 4.6 16.4 4 15.67 4z"/></symbol><symbol viewBox="0 0 24 24" fill="currentColor" id="kp_icon_bell_off"><path d="M12 22a2 2 0 0 0 2-2h-4c0 1.1.9 2 2 2zm0-15.5c2.49 0 4 2.02 4 4.5v.1l2 2V11c0-3.07-1.63-5.64-4.5-6.32V4a1.5 1.5 0 1 0-3 0v.68c-.24.06-.47.15-.69.23l1.64 1.64c.18-.02.36-.05.55-.05zM5.41 3.35L4 4.76l2.81 2.81C6.29 8.57 6 9.74 6 11v5l-2 2v1h14.24l1.74 1.74 1.41-1.41zM16 17H8v-6c0-.68.12-1.32.34-1.9L16 16.76z"/></symbol><symbol viewBox="0 0 24 24" fill="currentColor" id="kp_icon_bell"><path d="M12 22a2 2 0 0 0 2-2h-4c0 1.1.9 2 2 2zm6-6v-5c0-3.07-1.63-5.64-4.5-6.32V4a1.5 1.5 0 1 0-3 0v.68C7.64 5.36 6 7.92 6 11v5l-2 2v1h16v-1zm-2 1H8v-6c0-2.48 1.51-4.5 4-4.5s4 2.02 4 4.5zM7.58 4.08L6.15 2.65a10.43 10.43 0 0 0-4.12 7.85h2a8.45 8.45 0 0 1 3.55-6.42zm12.39 6.42h2a10.49 10.49 0 0 0-4.12-7.85l-1.42 1.43a8.5 8.5 0 0 1 3.54 6.42z"/></symbol><symbol viewBox="0 0 24 24" fill="currentColor" id="kp_icon_bluetooth"><path d="M17.71 7.71L12 2h-1v7.59L6.41 5 5 6.41 10.59 12 5 17.59 6.41 19 11 14.41V22h1l5.71-5.71-4.3-4.29zM13 5.83l1.88 1.88L13 9.59zm1.88 10.46L13 18.17v-3.76z"/></symbol><symbol viewBox="0 0 24 24" fill="currentColor" id="kp_icon_book_open"><path d="M21 5a11.8 11.8 0 0 0-3.5-.5c-1.95 0-4.05.4-5.5 1.5-1.45-1.1-3.55-1.5-5.5-1.5S2.45 4.9 1 6v14.65c0 .25.25.5.5.5.1 0 .15-.05.25-.05A12.2 12.2 0 0 1 6.5 20c1.95 0 4.05.4 5.5 1.5 1.35-.85 3.8-1.5 5.5-1.5 1.65 0 3.35.3 4.75 1.05.1.05.15.05.25.05.25 0 .5-.25.5-.5V6a6.82 6.82 0 0 0-2-1zm0 13.5c-1.1-.35-2.3-.5-3.5-.5-1.7 0-4.15.65-5.5 1.5V8c1.35-.85 3.8-1.5 5.5-1.5 1.2 0 2.4.15 3.5.5z"/></symbol><symbol viewBox="0 0 24 24" fill="currentColor" id="kp_icon_book"><path d="M18 2H6a2 2 0 0 0-2 2v16c0 1.1.9 2 2 2h12a2 2 0 0 0 2-2V4a2 2 0 0 0-2-2zM9 4h2v5l-1-.75L9 9zm9 16H6V4h1v9l3-2.25L13 13V4h5z"/></symbol><symbol viewBox="0 0 24 24" fill="currentColor" id="kp_icon_bookmark"><path d="M17 3H7a2 2 0 0 0-2 2v16l7-3 7 3V5a2 2 0 0 0-2-2z"/></symbol><symbol viewBox="0 0 24 24" fill="currentColor" id="kp_icon_briefcase"><path d="M20 7h-4V5l-2-2h-4L8 5v2H4a2 2 0 0 0-2 2v5c0 .75.4 1.38 1 1.73V19a2 2 0 0 0 2 2h14a2 2 0 0 0 2-2v-3.28c.59-.35 1-.99 1-1.72V9a2 2 0 0 0-2-2zM10 5h4v2h-4zM4 9h16v5h-5v-3H9v3H4zm9 6h-2v-2h2zm6 4H5v-3h4v1h6v-1h4z"/></symbol><symbol viewBox="0 0 24 24" fill="currentColor" id="kp_icon_brush"><path d="M7 16a1 1 0 0 1 1 1 2 2 0 0 1-2 2c-.17 0-.33-.02-.5-.05.31-.55.5-1.21.5-1.95a1 1 0 0 1 1-1zM18.67 3c-.26 0-.51.1-.71.29L9 12.25 11.75 15l8.96-8.96a1 1 0 0 0 0-1.41l-1.34-1.34a.98.98 0 0 0-.7-.29zM7 14a3 3 0 0 0-3 3c0 1.31-1.16 2-2 2 .92 1.22 2.49 2 4 2a4 4 0 0 0 4-4 3 3 0 0 0-3-3z"/></symbol><symbol viewBox="0 0 24 24" fill="currentColor" id="kp_icon_calendar"><path d="M19 3h-1V1h-2v2H8V1H6v2H5a2 2 0 0 0-2 2v14a2 2 0 0 0 2 2h14a2 2 0 0 0 2-2V5a2 2 0 0 0-2-2zm0 16H5V9h14zm0-12H5V5h14zM7 11h5v5H7z"/></symbol><symbol viewBox="0 0 24 24" fill="currentColor" id="kp_icon_camera"><path d="M14.12 4l1.83 2H20v12H4V6h4.05l1.83-2h4.24M15 2H9L7.17 4H4a2 2 0 0 0-2 2v12c0 1.1.9 2 2 2h16a2 2 0 0 0 2-2V6a2 2 0 0 0-2-2h-3.17L15 2zm-3 7c1.65 0 3 1.35 3 3s-1.35 3-3 3-3-1.35-3-3 1.35-3 3-3m0-2a5 5 0 1 0 0 10 5 5 0 0 0 0-10z"/></symbol><symbol viewBox="0 0 24 24" fill="currentColor" id="kp_icon_cast"><path d="M21 3H3a2 2 0 0 0-2 2v3h2V5h18v14h-7v2h7a2 2 0 0 0 2-2V5a2 2 0 0 0-2-2zM1 18v3h3a3 3 0 0 0-3-3zm0-4v2a5 5 0 0 1 5 5h2a7 7 0 0 0-7-7zm0-4v2a9 9 0 0 1 9 9h2A11 11 0 0 0 1 10z"/></symbol><symbol viewBox="0 0 24 24" fill="currentColor" id="kp_icon_check_circle"><path d="M12 2a10 10 0 1 0 0 20 10 10 0 0 0 0-20zm0 18a8.01 8.01 0 0 1 0-16 8.01 8.01 0 0 1 0 16zm4.59-12.42L10 14.17l-2.59-2.58L6 13l4 4 8-8z"/></symbol><symbol viewBox="0 0 24 24" fill="currentColor" id="kp_icon_check_square"><path d="M19 3H5a2 2 0 0 0-2 2v14c0 1.1.9 2 2 2h14a2 2 0 0 0 2-2V5a2 2 0 0 0-2-2zm0 16H5V5h14zM17.99 9l-1.41-1.42-6.59 6.59-2.58-2.57-1.42 1.41 4 3.99z"/></symbol><symbol viewBox="0 0 24 24" fill="currentColor" id="kp_icon_check"><path d="M9 16.17L4.83 12l-1.42 1.41L9 19 21 7l-1.41-1.41z"/></symbol><symbol viewBox="0 0 24 24" fill="currentColor" id="kp_icon_chevron_down"><path d="M7.41 8.59L12 13.17l4.59-4.58L18 10l-6 6-6-6z"/></symbol><symbol viewBox="0 0 24 24" fill="currentColor" id="kp_icon_chevron_left"><path d="M15.41 16.59L10.83 12l4.58-4.59L14 6l-6 6 6 6z"/></symbol><symbol viewBox="0 0 24 24" fill="currentColor" id="kp_icon_chevron_right"><path d="M8.59 16.59L13.17 12 8.59 7.41 10 6l6 6-6 6z"/></symbol><symbol viewBox="0 0 24 24" fill="currentColor" id="kp_icon_chevron_up"><path d="M7.41 15.41L12 10.83l4.59 4.58L18 14l-6-6-6 6z"/></symbol><symbol viewBox="0 0 24 24" fill="currentColor" id="kp_icon_circle"><path d="M12 2a10 10 0 1 0 0 20 10 10 0 0 0 0-20zm0 18a8 8 0 1 1 0-16 8 8 0 0 1 0 16z"/></symbol><symbol viewBox="0 0 24 24" fill="currentColor" id="kp_icon_clipboard"><path d="M7 15h7v2H7zm0-4h10v2H7zm0-4h10v2H7zm12-4h-4.18C14.4 1.84 13.3 1 12 1s-2.4.84-2.82 2H5a2 2 0 0 0-2 2v14c0 .27.06.54.16.78s.25.45.43.64a2 2 0 0 0 1.01.55c.13.02.26.03.4.03h14a2 2 0 0 0 2-2V5a2 2 0 0 0-2-2zm-7-.25c.41 0 .75.34.75.75s-.34.75-.75.75-.75-.34-.75-.75.34-.75.75-.75zM19 19H5V5h14z"/></symbol><symbol viewBox="0 0 24 24" fill="currentColor" id="kp_icon_clock"><path d="M11.99 2A10 10 0 1 0 12 21.99 10 10 0 0 0 11.99 2zM12 20a8 8 0 1 1 0-16 8 8 0 0 1 0 16zm.5-13H11v6l5.25 3.15.75-1.23-4.5-2.67z"/></symbol><symbol viewBox="0 0 24 24" fill="currentColor" id="kp_icon_close_circle"><path d="M12 2a10 10 0 1 0 0 20 10 10 0 1 0 0-20zm0 18a8.01 8.01 0 0 1 0-16 8.01 8.01 0 0 1 0 16zm3.59-13L12 10.59 8.41 7 7 8.41 10.59 12 7 15.59 8.41 17 12 13.41 15.59 17 17 15.59 13.41 12 17 8.41z"/></symbol><symbol viewBox="0 0 24 24" fill="currentColor" id="kp_icon_close_square"><path d="M22 3H7c-.69 0-1.23.35-1.59.88L0 12l5.41 8.11c.36.53.9.89 1.59.89h15a2 2 0 0 0 2-2V5a2 2 0 0 0-2-2zm0 16H7.07L2.4 12l4.66-7H22zm-11.59-2L14 13.41 17.59 17 19 15.59 15.41 12 19 8.41 17.59 7 14 10.59 10.41 7 9 8.41 12.59 12 9 15.59z"/></symbol><symbol viewBox="0 0 24 24" fill="currentColor" id="kp_icon_close"><path d="M19 6.41L17.59 5 12 10.59 6.41 5 5 6.41 10.59 12 5 17.59 6.41 19 12 13.41 17.59 19 19 17.59 13.41 12z"/></symbol><symbol viewBox="0 0 24 24" fill="currentColor" id="kp_icon_code"><path d="M9.4 16.6L4.8 12l4.6-4.6L8 6l-6 6 6 6zm5.2 0l4.6-4.6-4.6-4.6L16 6l6 6-6 6z"/></symbol><symbol viewBox="0 0 24 24" fill="currentColor" id="kp_icon_compass"><path d="M12 2a10 10 0 1 0 0 20 10 10 0 0 0 0-20zm0 18a8.01 8.01 0 0 1 0-16 8.01 8.01 0 0 1 0 16zm-5.5-2.5l7.51-3.49L17.5 6.5 9.99 9.99zm5.5-6.6c.61 0 1.1.49 1.1 1.1s-.49 1.1-1.1 1.1-1.1-.49-1.1-1.1.49-1.1 1.1-1.1z"/></symbol><symbol viewBox="0 0 24 24" fill="currentColor" id="kp_icon_copy"><path d="M16 1H4a2 2 0 0 0-2 2v14h2V3h12zm-1 4H8a2 2 0 0 0-1.99 2L6 21a2 2 0 0 0 1.99 2H19a2 2 0 0 0 2-2V11zM8 21V7h6v5h5v9z"/></symbol><symbol viewBox="0 0 24 24" fill="currentColor" id="kp_icon_corner_down_left"><path d="M11 9l1.42 1.42L8.83 14H18V4h2v12H8.83l3.59 3.58L11 21l-6-6z"/></symbol><symbol viewBox="0 0 24 24" fill="currentColor" id="kp_icon_corner_down_right"><path d="M19 15l-6 6-1.42-1.42L15.17 16H4V4h2v10h9.17l-3.59-3.58L13 9z"/></symbol><symbol viewBox="0 0 24 24" fill="currentColor" id="kp_icon_credit_card"><path d="M20 4H4c-1.11 0-1.99.89-1.99 2L2 18a2 2 0 0 0 2 2h16a2 2 0 0 0 2-2V6a2 2 0 0 0-2-2zm0 14H4v-6h16zm0-10H4V6h16z"/></symbol><symbol viewBox="0 0 24 24" fill="currentColor" id="kp_icon_crop"><path d="M17 15h2V7a2 2 0 0 0-2-2H9v2h8zM7 17V1H5v4H1v2h4v10c0 1.1.9 2 2 2h10v4h2v-4h4v-2z"/></symbol><symbol viewBox="0 0 24 24" fill="currentColor" id="kp_icon_cube"><path d="M21 16.5a1 1 0 0 1-.53.88l-7.9 4.44c-.16.12-.36.18-.57.18s-.41-.06-.57-.18l-7.9-4.44A1 1 0 0 1 3 16.5v-9a1 1 0 0 1 .53-.88l7.9-4.44c.16-.12.36-.18.57-.18s.41.06.57.18l7.9 4.44a1 1 0 0 1 .53.88zM12 4.15L6.04 7.5 12 10.85l5.96-3.35zM5 15.91l6 3.38v-6.71L5 9.21zm14 0v-6.7l-6 3.37v6.71z"/></symbol><symbol viewBox="0 0 24 24" fill="currentColor" id="kp_icon_delete"><path d="M22 3H7c-.69 0-1.23.35-1.59.88L0 12l5.41 8.11c.36.53.9.89 1.59.89h15a2 2 0 0 0 2-2V5a2 2 0 0 0-2-2zm0 16H7.07L2.4 12l4.66-7H22v14zm-11.59-2L14 13.41 17.59 17 19 15.59 15.41 12 19 8.41 17.59 7 14 10.59 10.41 7 9 8.41 12.59 12 9 15.59z"/></symbol><symbol viewBox="0 0 24 24" fill="currentColor" id="kp_icon_download_cloud"><path d="M19.35 10.04a7.49 7.49 0 0 0-14-2A6 6 0 0 0 6 20h13a4.98 4.98 0 1 0 .35-9.96zM19 18H6a4 4 0 0 1-.44-7.97l1.07-.11.5-.95a5.5 5.5 0 0 1 10.26 1.46l.3 1.5 1.53.11A2.98 2.98 0 0 1 19 18zm-5.55-8h-2.9v3H8l4 4 4-4h-2.55z"/></symbol><symbol viewBox="0 0 24 24" fill="currentColor" id="kp_icon_download"><path d="M13 5v6h1.17L12 13.17 9.83 11H11V5zm2-2H9v6H5l7 7 7-7h-4zm4 15H5v2h14z"/></symbol><symbol viewBox="0 0 24 24" fill="currentColor" id="kp_icon_droplet"><path d="M17.66 8L12 2.35 6.34 8A8.02 8.02 0 0 0 12 21.66 7.99 7.99 0 0 0 17.66 8zM6 14a5.7 5.7 0 0 1 1.76-4.4L12 5.27l4.24 4.38A5.57 5.57 0 0 1 18 14z"/></symbol><symbol viewBox="0 0 24 24" fill="currentColor" id="kp_icon_edit_2"><path d="M14 3.25l-10 10V17h3.75l10-10zM6.92 15H6v-.92l8-8 .92.92zM20.71 4.04a1 1 0 0 0 0-1.41L18.37.29a1 1 0 0 0-1.41 0L15 2.25 18.75 6zM0 20h24v4H0z"/></symbol><symbol viewBox="0 0 24 24" fill="currentColor" id="kp_icon_edit"><path d="M14.06 9.02l.92.92L5.92 19H5v-.92zM17.66 3a1 1 0 0 0-.7.29l-1.83 1.83 3.75 3.75 1.83-1.83a1 1 0 0 0 0-1.41l-2.34-2.34a.98.98 0 0 0-.71-.29zm-3.6 3.19L3 17.25V21h3.75L17.81 9.94z"/></symbol><symbol viewBox="0 0 24 24" fill="currentColor" id="kp_icon_external_link"><path d="M19 19H5V5h7V3H5a2 2 0 0 0-2 2v14a2 2 0 0 0 2 2h14a2 2 0 0 0 2-2v-7h-2zM14 3v2h3.59l-9.83 9.83 1.41 1.41L19 6.41V10h2V3z"/></symbol><symbol viewBox="0 0 24 24" fill="currentColor" id="kp_icon_eye_off"><path d="M12 6a9.77 9.77 0 0 1 8.82 5.5 9.65 9.65 0 0 1-2.41 3.12l1.41 1.41A11.8 11.8 0 0 0 23 11.5 11.83 11.83 0 0 0 8.36 4.57l1.65 1.65A10.1 10.1 0 0 1 12 6zm-1.07 1.14L13 9.21a2.5 2.5 0 0 1 1.28 1.28l2.07 2.07a4.48 4.48 0 0 0-5.42-5.42zM2.01 3.87l2.68 2.68A11.74 11.74 0 0 0 1 11.5a11.83 11.83 0 0 0 15.32 6.68l3.42 3.42 1.41-1.41L3.42 2.45 2.01 3.87zm7.5 7.5l2.61 2.61L12 14a2.5 2.5 0 0 1-2.5-2.5l.01-.13zm-3.4-3.4l1.75 1.75a4.5 4.5 0 0 0 5.91 5.92l.98.98A9.77 9.77 0 0 1 3.18 11.5a9.9 9.9 0 0 1 2.93-3.53z"/></symbol><symbol viewBox="0 0 24 24" fill="currentColor" id="kp_icon_eye"><path d="M12 6a9.77 9.77 0 0 1 8.82 5.5C19.17 14.87 15.79 17 12 17s-7.17-2.13-8.82-5.5A9.77 9.77 0 0 1 12 6zm0-2C7 4 2.73 7.11 1 11.5a11.83 11.83 0 0 0 22 0C21.27 7.11 17 4 12 4zm0 5a2.5 2.5 0 1 1 0 5 2.5 2.5 0 0 1 0-5zm0-2a4.5 4.5 0 1 0 .01 9.01A4.5 4.5 0 0 0 12 7z"/></symbol><symbol viewBox="0 0 24 24" fill="currentColor" id="kp_icon_fast_forward"><path d="M15 9.9l3 2.1-3 2.1V9.9m-9 0L9 12l-3 2.1V9.9M13 6v12l8.5-6L13 6M4 6v12l8.5-6L4 6z"/></symbol><symbol viewBox="0 0 24 24" fill="currentColor" id="kp_icon_file_text"><path d="M8 16h8v2H8zm0-4h8v2H8zm6-10H6a2 2 0 0 0-2 2v16a2 2 0 0 0 1.99 2H18a2 2 0 0 0 2-2V8zm4 18H6V4h7v5h5z"/></symbol><symbol viewBox="0 0 24 24" fill="currentColor" id="kp_icon_file"><path d="M14 2H6a2 2 0 0 0-1.99 2L4 20a2 2 0 0 0 1.99 2H18a2 2 0 0 0 2-2V8zM6 20V4h7v5h5v11z"/></symbol><symbol viewBox="0 0 24 24" fill="currentColor" id="kp_icon_film"><path d="M14 5v14h-4V5zm6-2h-2v2h-2V3H8v2H6V3H4v18h2v-2h2v2h8v-2h2v2h2zm-4 6V7h2v2zM6 9V7h2v2zm10 4v-2h2v2zM6 13v-2h2v2zm10 4v-2h2v2zM6 17v-2h2v2z"/></symbol><symbol viewBox="0 0 24 24" fill="currentColor" id="kp_icon_filter"><path d="M10 18h4v-2h-4v2zM3 6v2h18V6H3zm3 7h12v-2H6v2z"/></symbol><symbol viewBox="0 0 24 24" fill="currentColor" id="kp_icon_flag"><path d="M12.36 6l.4 2H18v6h-3.36l-.4-2H7V6h5.36M14 4H5v17h2v-7h5.6l.4 2h7V6h-5.6L14 4z"/></symbol><symbol viewBox="0 0 24 24" fill="currentColor" id="kp_icon_folder_plus"><path d="M20 6h-8l-2-2H4c-1.11 0-1.99.89-1.99 2L2 18a2 2 0 0 0 2 2h16a2 2 0 0 0 2-2V8a2 2 0 0 0-2-2zm0 12H4V6h5.17l2 2H20zm-8-4h2v2h2v-2h2v-2h-2v-2h-2v2h-2z"/></symbol><symbol viewBox="0 0 24 24" fill="currentColor" id="kp_icon_folder"><path d="M9.17 6l2 2H20v10H4V6zM10 4H4a2 2 0 0 0-1.99 2L2 18c0 1.1.9 2 2 2h16a2 2 0 0 0 2-2V8a2 2 0 0 0-2-2h-8z"/></symbol><symbol viewBox="0 0 24 24" fill="currentColor" id="kp_icon_gift"><path d="M20 6h-2.18a3 3 0 0 0-5.32-2.65l-.5.67-.5-.68A3 3 0 0 0 6.18 6H4c-1.11 0-1.99.89-1.99 2L2 19a2 2 0 0 0 2 2h16a2 2 0 0 0 2-2V8a2 2 0 0 0-2-2zm-5-2c.55 0 1 .45 1 1s-.45 1-1 1-1-.45-1-1 .45-1 1-1zM9 4c.55 0 1 .45 1 1s-.45 1-1 1-1-.45-1-1 .45-1 1-1zm11 15H4v-2h16zm0-5H4V8h5.08L7 10.83 8.62 12 11 8.76l1-1.36 1 1.36L15.38 12 17 10.83 14.92 8H20z"/></symbol><symbol viewBox="0 0 24 24" fill="currentColor" id="kp_icon_globe"><path d="M12 2a10 10 0 1 0 0 20 10 10 0 0 0 0-20zM4 12c0-.61.08-1.21.21-1.78L8.99 15v1c0 1.1.9 2 2 2v1.93A8.01 8.01 0 0 1 4 12zm13.89 5.4a2 2 0 0 0-1.9-1.4h-1v-3a1 1 0 0 0-1-1h-6v-2h2a1 1 0 0 0 1-1V7h2a2 2 0 0 0 2-2v-.41a8 8 0 0 1 2.9 12.81z"/></symbol><symbol viewBox="0 0 24 24" fill="currentColor" id="kp_icon_grid"><path d="M20 2H4a2 2 0 0 0-2 2v16c0 1.1.9 2 2 2h16a2 2 0 0 0 2-2V4a2 2 0 0 0-2-2zM8 20H4v-4h4zm0-6H4v-4h4zm0-6H4V4h4zm6 12h-4v-4h4zm0-6h-4v-4h4zm0-6h-4V4h4zm6 12h-4v-4h4zm0-6h-4v-4h4zm0-6h-4V4h4z"/></symbol><symbol viewBox="0 0 24 24" fill="currentColor" id="kp_icon_hard_drive"><path d="M19 15v4H5v-4zm1-2H4a1 1 0 0 0-1 1v6a1 1 0 0 0 1 1h16a1 1 0 0 0 1-1v-6a1 1 0 0 0-1-1zM7 18.5c-.82 0-1.5-.67-1.5-1.5s.68-1.5 1.5-1.5 1.5.67 1.5 1.5-.67 1.5-1.5 1.5zM19 5v4H5V5zm1-2H4a1 1 0 0 0-1 1v6a1 1 0 0 0 1 1h16a1 1 0 0 0 1-1V4a1 1 0 0 0-1-1zM7 8.5c-.82 0-1.5-.67-1.5-1.5S6.18 5.5 7 5.5s1.5.68 1.5 1.5S7.83 8.5 7 8.5z"/></symbol><symbol viewBox="0 0 24 24" fill="currentColor" id="kp_icon_headphones"><path d="M19 14v4h-2v-4h2M7 14v4H6a1 1 0 0 1-1-1v-3h2m5-13a9 9 0 0 0-9 9v7a3 3 0 0 0 3 3h3v-8H5v-2a7 7 0 1 1 14 0v2h-4v8h4v1h-7v2h6a3 3 0 0 0 3-3V10a9 9 0 0 0-9-9z"/></symbol><symbol viewBox="0 0 24 24" fill="currentColor" id="kp_icon_heart"><path d="M12 21.35l-1.45-1.32C5.4 15.36 2 12.28 2 8.5 2 5.42 4.42 3 7.5 3c1.74 0 3.41.81 4.5 2.09A5.99 5.99 0 0 1 16.5 3C19.58 3 22 5.42 22 8.5c0 3.78-3.4 6.86-8.55 11.54z"/></symbol><symbol viewBox="0 0 24 24" fill="currentColor" id="kp_icon_home"><path d="M12 5.69l5 4.5V18h-2v-6H9v6H7v-7.81zM12 3L2 12h3v8h6v-6h2v6h6v-8h3z"/></symbol><symbol viewBox="0 0 24 24" fill="currentColor" id="kp_icon_image"><path d="M19 5v14H5V5zm0-2H5a2 2 0 0 0-2 2v14c0 1.1.9 2 2 2h14a2 2 0 0 0 2-2V5a2 2 0 0 0-2-2zm-4.86 8.86l-3 3.87L9 13.14 6 17h12z"/></symbol><symbol viewBox="0 0 24 24" fill="currentColor" id="kp_icon_inbox"><path d="M19 3H5a2 2 0 0 0-2 2v14a2 2 0 0 0 2 2h14a2 2 0 0 0 2-2V5a2 2 0 0 0-2-2zm0 16H5v-3h3.56a3.98 3.98 0 0 0 6.9 0H19zm0-5h-4.99c0 1.1-.9 2-2 2s-2-.9-2-2H5V5h14z"/></symbol><symbol viewBox="0 0 24 24" fill="currentColor" id="kp_icon_info"><path d="M11 7h2v2h-2zm0 4h2v6h-2zm1-9a10 10 0 1 0 0 20 10 10 0 0 0 0-20zm0 18a8.01 8.01 0 0 1 0-16 8.01 8.01 0 0 1 0 16z"/></symbol><symbol viewBox="0 0 24 24" fill="currentColor" id="kp_icon_layers"><path d="M11.99 18.54l-7.37-5.73L3 14.07l9 7 9-7-1.63-1.27zM12 16l7.36-5.73L21 9l-9-7-9 7 1.63 1.27zm0-11.47L17.74 9 12 13.47 6.26 9z"/></symbol><symbol viewBox="0 0 24 24" fill="currentColor" id="kp_icon_layout"><path d="M19 5v2h-4V5zM9 5v6H5V5zm10 8v6h-4v-6zM9 17v2H5v-2zM21 3h-8v6h8zM11 3H3v10h8zm10 8h-8v10h8zm-10 4H3v6h8z"/></symbol><symbol viewBox="0 0 24 24" fill="currentColor" id="kp_icon_link"><path d="M17 7h-4v2h4c1.65 0 3 1.35 3 3s-1.35 3-3 3h-4v2h4a5 5 0 0 0 0-10zm-6 8H7c-1.65 0-3-1.35-3-3s1.35-3 3-3h4V7H7a5 5 0 0 0 0 10h4zm-3-4h8v2H8z"/></symbol><symbol viewBox="0 0 24 24" fill="currentColor" id="kp_icon_list"><path d="M3 13h2v-2H3zm0 4h2v-2H3zm0-8h2V7H3zm4 4h14v-2H7zm0 4h14v-2H7zM7 7v2h14V7z"/></symbol><symbol viewBox="0 0 24 24" fill="currentColor" id="kp_icon_lock"><path d="M18 8h-1V6A5 5 0 0 0 7 6v2H6a2 2 0 0 0-2 2v10c0 1.1.9 2 2 2h12a2 2 0 0 0 2-2V10a2 2 0 0 0-2-2zM9 6a3 3 0 1 1 6 0v2H9zm9 14H6V10h12zm-6-3c1.1 0 2-.9 2-2s-.9-2-2-2-2 .9-2 2 .9 2 2 2z"/></symbol><symbol viewBox="0 0 24 24" fill="currentColor" id="kp_icon_log_in"><path d="M10.09 15.59L11.5 17l5-5-5-5-1.41 1.41L12.67 11H3v2h9.67l-2.58 2.59zM19 3H5a2 2 0 0 0-2 2v4h2V5h14v14H5v-4H3v4a2 2 0 0 0 2 2h14a2 2 0 0 0 2-2V5a2 2 0 0 0-2-2z"/></symbol><symbol viewBox="0 0 24 24" fill="currentColor" id="kp_icon_log_out"><path d="M14.5 15.6l1.4 1.4 5-5-5-5-1.4 1.4 2.6 2.6H7.4v2h9.7l-2.6 2.6zM5 21h14a2 2 0 0 0 2-2v-3h-2v3H5V5h14v3h2V5a2 2 0 0 0-2-2H5a2 2 0 0 0-2 2v14c0 1.1.9 2 2 2z"/></symbol><symbol viewBox="0 0 24 24" fill="currentColor" id="kp_icon_mail"><path d="M22 6a2 2 0 0 0-2-2H4a2 2 0 0 0-2 2v12c0 1.1.9 2 2 2h16a2 2 0 0 0 2-2zm-2 0l-8 4.99L4 6zm0 12H4V8l8 5 8-5z"/></symbol><symbol viewBox="0 0 24 24" fill="currentColor" id="kp_icon_map_pin"><path d="M12 2a7 7 0 0 0-7 7c0 5.25 7 13 7 13s7-7.75 7-13a7 7 0 0 0-7-7zM7 9a5 5 0 0 1 10 0c0 2.88-2.88 7.19-5 9.88C9.92 16.21 7 11.85 7 9z"/><circle cx="12" cy="9" r="2.5"/></symbol><symbol viewBox="0 0 24 24" fill="currentColor" id="kp_icon_map"><path d="M20.5 3l-.16.03L15 5.1 9 3 3.36 4.9a.5.5 0 0 0-.36.48V20.5c0 .28.22.5.5.5l.16-.03L9 18.9l6 2.1 5.64-1.9a.5.5 0 0 0 .36-.48V3.5a.5.5 0 0 0-.5-.5zM10 5.47l4 1.4v11.66l-4-1.4zm-5 .99l3-1.01v11.7l-3 1.16zm14 11.08l-3 1.01V6.86l3-1.16z"/></symbol><symbol viewBox="0 0 24 24" fill="currentColor" id="kp_icon_maximize"><path d="M3 3h18v2H3z"/></symbol><symbol viewBox="0 0 24 24" fill="currentColor" id="kp_icon_menu"><path d="M3 18h18v-2H3zm0-5h18v-2H3zm0-7v2h18V6z"/></symbol><symbol viewBox="0 0 24 24" fill="currentColor" id="kp_icon_message_square"><path d="M20 2H4a2 2 0 0 0-2 2v18l4-4h14a2 2 0 0 0 2-2V4a2 2 0 0 0-2-2zm0 14H6l-2 2V4h16zM7 9h2v2H7zm4 0h2v2h-2zm4 0h2v2h-2z"/></symbol><symbol viewBox="0 0 24 24" fill="currentColor" id="kp_icon_mic_off"><path d="M10.8 4.9c0-.66.54-1.2 1.2-1.2s1.2.54 1.2 1.2l-.01 3.91L15 10.6V5a3 3 0 0 0-5.96-.35l1.76 1.76zM19 11h-1.7c0 .58-.1 1.13-.27 1.64l1.27 1.27c.44-.88.7-1.87.7-2.91zM4.41 2.86L3 4.27l6 6V11a3 3 0 0 0 3.65 2.92l1.66 1.66a5.5 5.5 0 0 1-2.31.52c-2.76 0-5.3-2.1-5.3-5.1H5c0 3.41 2.72 6.23 6 6.72V21h2v-3.28a7.13 7.13 0 0 0 2.55-.9l4.2 4.2 1.41-1.41z"/></symbol><symbol viewBox="0 0 24 24" fill="currentColor" id="kp_icon_mic"><path d="M12 14a3 3 0 0 0 3-3V5a3 3 0 1 0-6 0v6a3 3 0 0 0 3 3zm5-3a5 5 0 0 1-10 0H5a7 7 0 0 0 6 6.92V21h2v-3.08A7 7 0 0 0 19 11z"/></symbol><symbol viewBox="0 0 24 24" fill="currentColor" id="kp_icon_minimize"><path d="M6 19h12v2H6z"/></symbol><symbol viewBox="0 0 24 24" fill="currentColor" id="kp_icon_minus_circle"><path d="M7 11v2h10v-2H7zm5-9a10 10 0 1 0 0 20 10 10 0 0 0 0-20zm0 18a8.01 8.01 0 0 1 0-16 8.01 8.01 0 0 1 0 16z"/></symbol><symbol viewBox="0 0 24 24" fill="currentColor" id="kp_icon_minus_square"><path d="M19 3H5a2 2 0 0 0-2 2v14c0 1.1.9 2 2 2h14a2 2 0 0 0 2-2V5a2 2 0 0 0-2-2zm0 16H5V5h14v14zM7 11h10v2H7z"/></symbol><symbol viewBox="0 0 24 24" fill="currentColor" id="kp_icon_minus"><path d="M19 13H5v-2h14z"/></symbol><symbol viewBox="0 0 24 24" fill="currentColor" id="kp_icon_monitor"><path d="M21 2H3a2 2 0 0 0-2 2v12c0 1.1.9 2 2 2h7l-2 3v1h8v-1l-2-3h7a2 2 0 0 0 2-2V4a2 2 0 0 0-2-2zm0 12H3V4h18z"/></symbol><symbol viewBox="0 0 24 24" fill="currentColor" id="kp_icon_moon"><path d="M10 4a8.01 8.01 0 0 1 0 16c-.34 0-.68-.02-1.01-.07a12 12 0 0 0 0-15.86C9.32 4.02 9.66 4 10 4zm0-2c-1.82 0-3.53.5-5 1.35a9.98 9.98 0 0 1 0 17.3A9.97 9.97 0 0 0 20 12 10 10 0 0 0 10 2z"/></symbol><symbol viewBox="0 0 24 24" fill="currentColor" id="kp_icon_more_horizontal"><path d="M6 10c-1.1 0-2 .9-2 2s.9 2 2 2 2-.9 2-2-.9-2-2-2zm12 0c-1.1 0-2 .9-2 2s.9 2 2 2 2-.9 2-2-.9-2-2-2zm-6 0c-1.1 0-2 .9-2 2s.9 2 2 2 2-.9 2-2-.9-2-2-2z"/></symbol><symbol viewBox="0 0 24 24" fill="currentColor" id="kp_icon_more_vertical"><path d="M12 8c1.1 0 2-.9 2-2s-.9-2-2-2-2 .9-2 2 .9 2 2 2zm0 2c-1.1 0-2 .9-2 2s.9 2 2 2 2-.9 2-2-.9-2-2-2zm0 6c-1.1 0-2 .9-2 2s.9 2 2 2 2-.9 2-2-.9-2-2-2z"/></symbol><symbol viewBox="0 0 24 24" fill="currentColor" id="kp_icon_move"><path d="M10 9h4V6h3l-5-5-5 5h3zm-1 1H6V7l-5 5 5 5v-3h3zm14 2l-5-5v3h-3v4h3v3zm-9 3h-4v3H7l5 5 5-5h-3z"/></symbol><symbol viewBox="0 0 24 24" fill="currentColor" id="kp_icon_music"><path d="M12 3l.01 10.55a4 4 0 1 0-2 7.45A3.98 3.98 0 0 0 14 17V7h4V3zm-1.99 16c-1.1 0-2-.9-2-2s.9-2 2-2 2 .9 2 2-.9 2-2 2z"/></symbol><symbol viewBox="0 0 24 24" fill="currentColor" id="kp_icon_navigation"><path d="M12 7.27l4.28 10.43-3.47-1.53-.81-.36-.81.36-3.47 1.53zM12 2L4.5 20.29l.71.71L12 18l6.79 3 .71-.71z"/></symbol><symbol viewBox="0 0 24 24" fill="currentColor" id="kp_icon_paperclip"><path d="M16.5 6v11.5a4 4 0 1 1-8 0V5a2.5 2.5 0 0 1 5 0v10.5c0 .55-.45 1-1 1s-1-.45-1-1V6H10v9.5a2.5 2.5 0 0 0 5 0V5a4 4 0 1 0-8 0v12.5a5.5 5.5 0 1 0 11 0V6z"/></symbol><symbol viewBox="0 0 24 24" fill="currentColor" id="kp_icon_pause_circle"><path d="M12 2a10 10 0 1 0 0 20 10 10 0 0 0 0-20zm-1 14H9V8h2zm4 0h-2V8h2z"/></symbol><symbol viewBox="0 0 24 24" fill="currentColor" id="kp_icon_phone_call"><path d="M23.71 16.67a16.97 16.97 0 0 0-23.42 0c-.18.18-.29.43-.29.71s.11.53.29.71l2.48 2.48a1 1 0 0 0 .71.29c.27 0 .52-.11.7-.28.79-.74 1.69-1.36 2.66-1.85a1 1 0 0 0 .56-.9v-3.1a14.91 14.91 0 0 1 9.2-.01v3.1a1 1 0 0 0 .56.9c.98.49 1.87 1.12 2.66 1.85.18.18.43.28.7.28a1 1 0 0 0 .71-.29l2.48-2.48a1 1 0 0 0 0-1.41zm-18.31.56c-.66.37-1.29.8-1.87 1.27l-1.07-1.07c.91-.75 1.9-1.39 2.95-1.9v1.7zm15.07 1.26a13.1 13.1 0 0 0-1.87-1.27v-1.7c1.04.51 2.03 1.15 2.94 1.9zm.69-12.23l-1.41-1.41-3.56 3.55 1.41 1.41s3.45-3.52 3.56-3.55zM11 2h2v5h-2zM6.4 9.81L7.81 8.4 4.26 4.84 2.84 6.26c.11.03 3.56 3.55 3.56 3.55z"/></symbol><symbol viewBox="0 0 24 24" fill="currentColor" id="kp_icon_phone_missed"><path d="M23.71 16.67a16.97 16.97 0 0 0-23.42 0c-.18.18-.29.43-.29.71s.11.53.29.71l2.48 2.48a1 1 0 0 0 .71.29c.27 0 .52-.11.7-.28.79-.74 1.69-1.36 2.66-1.85a1 1 0 0 0 .56-.9v-3.1a14.91 14.91 0 0 1 9.2-.01v3.1a1 1 0 0 0 .56.9c.98.49 1.87 1.12 2.67 1.85.18.18.43.28.7.28a1 1 0 0 0 .71-.29l2.48-2.48a1 1 0 0 0-.01-1.41zm-18.31.56c-.66.37-1.29.8-1.87 1.27l-1.07-1.07c.91-.75 1.9-1.39 2.95-1.9v1.7zm15.08 1.26c-.6-.48-1.22-.9-1.88-1.27v-1.7c1.05.51 2.03 1.15 2.95 1.9zM7 6.43l4.94 4.94 7.07-7.07-1.41-1.42-5.66 5.66L8.4 5H11V3H5v6h2z"/></symbol><symbol viewBox="0 0 24 24" fill="currentColor" id="kp_icon_phone"><path d="M6.54 5c.06.89.21 1.76.45 2.59l-1.2 1.2c-.41-1.2-.67-2.47-.76-3.79zm9.86 12.02c.85.24 1.72.39 2.6.45v1.49a15.43 15.43 0 0 1-3.8-.75zM7.5 3H4a1 1 0 0 0-1 1 17 17 0 0 0 17 17 1 1 0 0 0 1-1v-3.49a1 1 0 0 0-1-1c-1.24 0-2.45-.2-3.57-.57a1.02 1.02 0 0 0-1.02.24l-2.2 2.2a15.15 15.15 0 0 1-6.59-6.59l2.2-2.2a1 1 0 0 0 .25-1.02A11.36 11.36 0 0 1 8.5 4a1 1 0 0 0-1-1z"/></symbol><symbol viewBox="0 0 24 24" fill="currentColor" id="kp_icon_pie_chart"><path d="M12 2a10 10 0 1 0 0 20 10 10 0 0 0 0-20zm7.93 9H13V4.07A8 8 0 0 1 19.93 11zM4 12a8 8 0 0 1 7-7.93v15.86A8 8 0 0 1 4 12zm9 7.93V13h6.93A8 8 0 0 1 13 19.93z"/></symbol><symbol viewBox="0 0 24 24" fill="currentColor" id="kp_icon_play_circle"><path d="M12 2a10 10 0 1 0 0 20 10 10 0 0 0 0-20zm-2 14.5v-9l6 4.5z"/></symbol><symbol viewBox="0 0 24 24" fill="currentColor" id="kp_icon_plus_circle"><path d="M13 7h-2v4H7v2h4v4h2v-4h4v-2h-4V7zm-1-5a10 10 0 1 0 0 20 10 10 0 0 0 0-20zm0 18a8.01 8.01 0 0 1 0-16 8.01 8.01 0 0 1 0 16z"/></symbol><symbol viewBox="0 0 24 24" fill="currentColor" id="kp_icon_plus_square"><path d="M19 3H5a2 2 0 0 0-2 2v14a2 2 0 0 0 2 2h14a2 2 0 0 0 2-2V5a2 2 0 0 0-2-2zm0 16H5V5h14v14zm-8-2h2v-4h4v-2h-4V7h-2v4H7v2h4z"/></symbol><symbol viewBox="0 0 24 24" fill="currentColor" id="kp_icon_plus"><path d="M19 13h-6v6h-2v-6H5v-2h6V5h2v6h6z"/></symbol><symbol viewBox="0 0 24 24" fill="currentColor" id="kp_icon_power"><path d="M16 9v4.66l-3.5 3.51V19h-1v-1.83L8 13.65V9zm0-6h-2v4h-4V3H8v4h-.01A1.99 1.99 0 0 0 6 8.98v5.52L9.5 18v3h5v-3l3.5-3.51V9a2 2 0 0 0-2-2z"/></symbol><symbol viewBox="0 0 24 24" fill="currentColor" id="kp_icon_printer"><path d="M19 8a3 3 0 0 1 3 3v6h-4v4H6v-4H2v-6a3 3 0 0 1 3-3h1V3h12v5zM8 5v3h8V5zm8 14v-4H8v4zm2-4h2v-4a1 1 0 0 0-1-1H5a1 1 0 0 0-1 1v4h2v-2h12zm0-2.5a1 1 0 1 1 0-2 1 1 0 0 1 0 2z"/></symbol><symbol viewBox="0 0 24 24" fill="currentColor" id="kp_icon_radio"><path d="M20 6a2 2 0 0 1 2 2v12a2 2 0 0 1-2 2H4a2 2 0 0 1-2-2V8c0-.83.51-1.57 1.24-1.85L15.88 1l.68 1.66L8.3 6zm0 2H4v3h12V9h2v2h2zM4 20h16v-7H4zm4-1.02a2.5 2.5 0 1 1 0-5 2.5 2.5 0 0 1 0 5z"/></symbol><symbol viewBox="0 0 24 24" fill="currentColor" id="kp_icon_refresh"><path d="M17.65 6.35A7.99 7.99 0 1 0 19.73 14h-2.08a6 6 0 1 1-1.43-6.22L13 11h7V4z"/></symbol><symbol viewBox="0 0 24 24" fill="currentColor" id="kp_icon_repeat"><path d="M7 7h10v3l4-4-4-4v3H5v6h2zm10 10H7v-3l-4 4 4 4v-3h12v-6h-2z"/></symbol><symbol viewBox="0 0 24 24" fill="currentColor" id="kp_icon_rewind"><path d="M18 9.86v4.28L14.97 12zm-9 0v4.28L5.97 12zM20 6l-8.5 6 8.5 6zm-9 0l-8.5 6 8.5 6z"/></symbol><symbol viewBox="0 0 24 24" fill="currentColor" id="kp_icon_save"><path d="M17 3H5a2 2 0 0 0-2 2v14a2 2 0 0 0 2 2h14a2 2 0 0 0 2-2V7zm2 16H5V5h11.17L19 7.83zm-7-7a3 3 0 1 0 0 6 3 3 0 0 0 0-6zM6 6h9v4H6z"/></symbol><symbol viewBox="0 0 24 24" fill="currentColor" id="kp_icon_scissors"><path d="M19 3l-6 6 2 2 7-7V3m-10 9.5a.5.5 0 0 1-.5-.5.5.5 0 0 1 .5-.5.5.5 0 0 1 .5.5.5.5 0 0 1-.5.5M6 20a2 2 0 0 1-2-2 2 2 0 0 1 2-2 2 2 0 0 1 2 2 2 2 0 0 1-2 2M6 8a2 2 0 0 1-2-2 2 2 0 0 1 2-2 2 2 0 0 1 2 2 2 2 0 0 1-2 2m3.64-.36c.23-.5.36-1.05.36-1.64a4 4 0 0 0-4-4 4 4 0 0 0-4 4 4 4 0 0 0 4 4 3.9 3.9 0 0 0 1.64-.36L10 12l-2.36 2.36A3.9 3.9 0 0 0 6 14a4 4 0 0 0-4 4 4 4 0 0 0 4 4 4 4 0 0 0 4-4 3.9 3.9 0 0 0-.36-1.64L12 14l7 7h3v-1z"/></symbol><symbol viewBox="0 0 24 24" fill="currentColor" id="kp_icon_search"><path d="M15.5 14h-.79l-.28-.27a6.5 6.5 0 1 0-.7.7l.27.28v.79l5 4.99L20.49 19zm-6 0a4.5 4.5 0 1 1-.01-8.99A4.5 4.5 0 0 1 9.5 14z"/></symbol><symbol viewBox="0 0 24 24" fill="currentColor" id="kp_icon_send"><path d="M4.01 6.03l7.51 3.22-7.52-1zm7.5 8.72L4 17.97v-2.22zM2.01 3L2 10l15 2-15 2 .01 7L23 12z"/></symbol><symbol viewBox="0 0 24 24" fill="currentColor" id="kp_icon_settings"><path d="M19.43 12.98a7.8 7.8 0 0 0 0-1.96l2.11-1.65a.5.5 0 0 0 .12-.64l-2-3.46a.5.5 0 0 0-.61-.22l-2.49 1a7.3 7.3 0 0 0-1.69-.98l-.38-2.65A.49.49 0 0 0 14 2h-4a.49.49 0 0 0-.49.42l-.38 2.65c-.61.25-1.17.59-1.69.98l-2.49-1a.57.57 0 0 0-.18-.03.5.5 0 0 0-.43.25l-2 3.46a.5.5 0 0 0 .12.64l2.11 1.65a7.93 7.93 0 0 0 0 1.96l-2.11 1.65a.5.5 0 0 0-.12.64l2 3.46a.5.5 0 0 0 .61.22l2.49-1c.52.4 1.08.73 1.69.98l.38 2.65c.03.24.24.42.49.42h4c.25 0 .46-.18.49-.42l.38-2.65a7.68 7.68 0 0 0 1.69-.98l2.49 1 .18.03a.5.5 0 0 0 .43-.25l2-3.46a.5.5 0 0 0-.12-.64zm-1.98-1.71a5.34 5.34 0 0 1 0 1.46l-.14 1.13.89.7 1.08.84-.7 1.21-1.27-.51-1.04-.42-.9.68c-.43.32-.84.56-1.25.73l-1.06.43-.16 1.13-.2 1.35h-1.4l-.19-1.35-.16-1.13-1.06-.43a5.67 5.67 0 0 1-1.23-.71l-.91-.7-1.06.43-1.27.51-.7-1.21 1.08-.84.89-.7-.14-1.13c-.03-.31-.05-.54-.05-.74s.02-.43.05-.73l.14-1.13-.89-.7-1.08-.84.7-1.21 1.27.51 1.04.42.9-.68c.43-.32.84-.56 1.25-.73l1.06-.43.16-1.13.2-1.35h1.39l.19 1.35.16 1.13 1.06.43c.43.18.83.41 1.23.71l.91.7 1.06-.43 1.27-.51.7 1.21-1.07.85-.89.7zM12 8a4 4 0 1 0 0 8 4 4 0 0 0 0-8zm0 6c-1.1 0-2-.9-2-2s.9-2 2-2 2 .9 2 2-.9 2-2 2z"/></symbol><symbol viewBox="0 0 24 24" fill="currentColor" id="kp_icon_share"><path d="M18 16.08c-.76 0-1.44.3-1.96.77L8.91 12.7c.05-.23.09-.46.09-.7s-.04-.47-.09-.7l7.05-4.11A2.99 2.99 0 0 0 21 5a3 3 0 1 0-5.91.7L8.04 9.81A2.99 2.99 0 0 0 3 12a3 3 0 0 0 5.04 2.19l7.12 4.16A2.92 2.92 0 1 0 18 16.08zM18 4c.55 0 1 .45 1 1s-.45 1-1 1-1-.45-1-1 .45-1 1-1zM6 13c-.55 0-1-.45-1-1s.45-1 1-1 1 .45 1 1-.45 1-1 1zm12 7.02c-.55 0-1-.45-1-1s.45-1 1-1 1 .45 1 1-.45 1-1 1z"/></symbol><symbol viewBox="0 0 24 24" fill="currentColor" id="kp_icon_shield"><path d="M12 1L3 5v6c0 5.55 3.84 10.74 9 12 5.16-1.26 9-6.45 9-12V5zm0 10.99h7c-.53 4.12-3.28 7.79-7 8.94V12H5V6.3l7-3.11z"/></symbol><symbol viewBox="0 0 24 24" fill="currentColor" id="kp_icon_shopping_bag"><path d="M19 6h-2A5 5 0 0 0 7 6H5a2 2 0 0 0-2 2v12c0 1.1.9 2 2 2h14a2 2 0 0 0 2-2V8a2 2 0 0 0-2-2zm-7-3a3 3 0 0 1 3 3H9a3 3 0 0 1 3-3zm7 17H5V8h14v12zm-7-8a3 3 0 0 1-3-3H7a5 5 0 0 0 10 0h-2a3 3 0 0 1-3 3z"/></symbol><symbol viewBox="0 0 24 24" fill="currentColor" id="kp_icon_shopping_cart"><path d="M15.55 13a2 2 0 0 0 1.75-1.03l3.58-6.49A1 1 0 0 0 20.01 4H5.21l-.94-2H1v2h2l3.6 7.59-1.35 2.44A2 2 0 0 0 7 17h12v-2H7l1.1-2zM6.16 6h12.15l-2.76 5H8.53zM7 18a2 2 0 1 0 .01 4A2 2 0 0 0 7 18zm10 0a2 2 0 1 0 .01 4 2 2 0 0 0-.01-4z"/></symbol><symbol viewBox="0 0 24 24" fill="currentColor" id="kp_icon_shuffle"><path d="M10.59 9.17L5.41 4 4 5.41l5.17 5.17zM14.5 4l2.04 2.04L4 18.59 5.41 20 17.96 7.46 20 9.5V4zm.33 9.41l-1.41 1.41 3.13 3.13L14.5 20H20v-5.5l-2.04 2.04z"/></symbol><symbol viewBox="0 0 24 24" fill="currentColor" id="kp_icon_skip_back"><path d="M6 6h2v12H6zm3.5 6l8.5 6V6zm6.5 2.14L12.97 12 16 9.86z"/></symbol><symbol viewBox="0 0 24 24" fill="currentColor" id="kp_icon_skip_forward"><path d="M6 18l8.5-6L6 6zm2-8.14L11.03 12 8 14.14zM16 6h2v12h-2z"/></symbol><symbol viewBox="0 0 24 24" fill="currentColor" id="kp_icon_slash"><path d="M12 2a10 10 0 1 0 0 20 10 10 0 0 0 0-20zM4 12a8 8 0 0 1 12.9-6.31L5.69 16.9A7.9 7.9 0 0 1 4 12zm8 8a7.9 7.9 0 0 1-4.9-1.69L18.31 7.1A8 8 0 0 1 12 20z"/></symbol><symbol viewBox="0 0 24 24" fill="currentColor" id="kp_icon_sliders"><path d="M3 17v2h6v-2zM3 5v2h10V5zm10 16v-2h8v-2h-8v-2h-2v6zM7 9v2H3v2h4v2h2V9zm14 4v-2H11v2zm-6-4h2V7h4V5h-4V3h-2z"/></symbol><symbol viewBox="0 0 24 24" fill="currentColor" id="kp_icon_smartphone"><path d="M15.5 1h-8A2.5 2.5 0 0 0 5 3.5v17A2.5 2.5 0 0 0 7.5 23h8a2.5 2.5 0 0 0 2.5-2.5v-17A2.5 2.5 0 0 0 15.5 1zm-4 21a1.5 1.5 0 1 1 0-3 1.5 1.5 0 0 1 0 3zm4.5-4H7V4h9v14z"/></symbol><symbol viewBox="0 0 24 24" fill="currentColor" id="kp_icon_speaker"><path d="M17 2H7a2 2 0 0 0-2 2v16a2 2 0 0 0 2 1.99L17 22a2 2 0 0 0 2-2V4a2 2 0 0 0-2-2zM7 20V4h10v16zm5-11c1.1 0 2-.9 2-2s-.9-2-2-2a2 2 0 1 0 0 4zm0 2a4 4 0 1 0 0 8 4 4 0 0 0 0-8zm0 6c-1.1 0-2-.9-2-2s.9-2 2-2 2 .9 2 2-.9 2-2 2z"/></symbol><symbol viewBox="0 0 24 24" fill="currentColor" id="kp_icon_square"><path d="M18 4H6a2 2 0 0 0-2 2v12c0 1.1.9 2 2 2h12a2 2 0 0 0 2-2V6a2 2 0 0 0-2-2zm0 14H6V6h12z"/></symbol><symbol viewBox="0 0 24 24" fill="currentColor" id="kp_icon_star"><path d="M12 17.27L18.18 21l-1.64-7.03L22 9.24l-7.19-.61L12 2 9.19 8.63 2 9.24l5.46 4.73L5.82 21z"/></symbol><symbol viewBox="0 0 24 24" fill="currentColor" id="kp_icon_sun"><path d="M6.76 4.84l-1.8-1.79-1.41 1.41 1.79 1.79zM1 10.5h3v2H1zM11 .55h2V3.5h-2zm8.04 2.5l1.4 1.4-1.78 1.8-1.4-1.42zm-1.8 15.11l1.79 1.8 1.41-1.41-1.8-1.79zM20 10.5h3v2h-3zm-8-5a6 6 0 1 0 .01 12.01A6 6 0 0 0 12 5.5zm0 10a4 4 0 1 1 0-8 4 4 0 0 1 0 8zm-1 4h2v2.95h-2zm-7.45-.96l1.41 1.41 1.79-1.8-1.41-1.41z"/></symbol><symbol viewBox="0 0 24 24" fill="currentColor" id="kp_icon_sync"><path d="M11.52 4V1L7.68 5l3.84 4V6a5.89 5.89 0 0 1 5.76 6c0 1.01-.24 1.97-.67 2.8l1.4 1.46A8.17 8.17 0 0 0 19.2 12c0-4.42-3.44-8-7.68-8zm0 14a5.89 5.89 0 0 1-5.76-6c0-1.01.24-1.97.67-2.8l-1.4-1.46A8.17 8.17 0 0 0 3.84 12c0 4.42 3.44 8 7.68 8v3l3.84-4-3.84-4z"/></symbol><symbol viewBox="0 0 24 24" fill="currentColor" id="kp_icon_tag"><path d="M21.41 11.58l-9-9A1.99 1.99 0 0 0 11 2H4a2 2 0 0 0-2 2v7a2 2 0 0 0 .59 1.42l9 9a1.99 1.99 0 0 0 2.82-.01l7-7c.37-.36.59-.86.59-1.41s-.23-1.06-.59-1.42zM13 20.01L4 11V4h7v-.01l9 9z"/><circle cx="6.5" cy="6.5" r="1.5"/></symbol><symbol viewBox="0 0 24 24" fill="currentColor" id="kp_icon_toggle_right"><path d="M17 6H7a6 6 0 0 0 0 12h10a6 6 0 0 0 0-12zm0 10H7a4 4 0 1 1 0-8h10a4 4 0 1 1 0 8zm0-7a3 3 0 1 0 0 6 3 3 0 0 0 0-6z"/></symbol><symbol viewBox="0 0 24 24" fill="currentColor" id="kp_icon_trash"><path d="M16 9v10H8V9zm-1.5-6h-5l-1 1H5v2h14V4h-3.5zM18 7H6v12c0 1.1.9 2 2 2h8a2 2 0 0 0 2-2z"/></symbol><symbol viewBox="0 0 24 24" fill="currentColor" id="kp_icon_trending_down"><path d="M16 18l2.29-2.29-4.88-4.88-4 4L2 7.41 3.41 6l6 6 4-4 6.3 6.29L22 12v6z"/></symbol><symbol viewBox="0 0 24 24" fill="currentColor" id="kp_icon_trending_up"><path d="M16 6l2.29 2.29-4.88 4.88-4-4L2 16.59 3.41 18l6-6 4 4 6.3-6.29L22 12V6z"/></symbol><symbol viewBox="0 0 24 24" fill="currentColor" id="kp_icon_truck"><path d="M20 8h-3V4H3a2 2 0 0 0-2 2v11h2a3 3 0 1 0 6 0h6a3 3 0 1 0 6 0h2v-5zm-.5 1.5l1.96 2.5H17V9.5zM6 18c-.55 0-1-.45-1-1s.45-1 1-1 1 .45 1 1-.45 1-1 1zm2.22-3a2.97 2.97 0 0 0-4.44 0H3V6h12v9zM18 18c-.55 0-1-.45-1-1s.45-1 1-1 1 .45 1 1-.45 1-1 1z"/></symbol><symbol viewBox="0 0 24 24" fill="currentColor" id="kp_icon_tv"><path d="M21 3H3a2 2 0 0 0-2 2v12c0 1.1.9 2 2 2h5v2h8v-2h5a2 2 0 0 0 1.99-2L23 5a2 2 0 0 0-2-2zm0 14H3V5h18z"/></symbol><symbol viewBox="0 0 24 24" fill="currentColor" id="kp_icon_unlock"><path d="M18 8h-1V6A5 5 0 0 0 7 6h2a3 3 0 1 1 6 0v2H6a2 2 0 0 0-2 2v10c0 1.1.9 2 2 2h12a2 2 0 0 0 2-2V10a2 2 0 0 0-2-2zm0 12H6V10h12zm-6-3c1.1 0 2-.9 2-2s-.9-2-2-2-2 .9-2 2 .9 2 2 2z"/></symbol><symbol viewBox="0 0 24 24" fill="currentColor" id="kp_icon_upload_cloud"><path d="M19.35 10.04a7.49 7.49 0 0 0-14-2A6 6 0 0 0 6 20h13a4.98 4.98 0 1 0 .35-9.96zM19 18H6a4 4 0 0 1-.44-7.97l1.07-.11.5-.95a5.5 5.5 0 0 1 10.26 1.46l.3 1.5 1.53.11A2.98 2.98 0 0 1 19 18zM8 13h2.55v3h2.9v-3H16l-4-4z"/></symbol><symbol viewBox="0 0 24 24" fill="currentColor" id="kp_icon_upload"><path d="M5 4h14v2H5zm0 10h4v6h6v-6h4l-7-7zm8-2v6h-2v-6H9.83L12 9.83 14.17 12z"/></symbol><symbol viewBox="0 0 24 24" fill="currentColor" id="kp_icon_user_check"><path d="M11 12a4 4 0 1 0 0-8 4 4 0 0 0 0 8zm0-6c1.1 0 2 .9 2 2s-.9 2-2 2-2-.9-2-2 .9-2 2-2zM5 18c.2-.63 2.57-1.68 4.96-1.94l2.04-2a9.34 9.34 0 0 0-1-.06c-2.67 0-8 1.34-8 4v2h9l-2-2zm15.6-5.5l-5.13 5.17-2.07-2.08L12 17l3.47 3.5L22 13.91z"/></symbol><symbol viewBox="0 0 24 24" fill="currentColor" id="kp_icon_user_plus"><path d="M15 12a4 4 0 1 0 0-8 4 4 0 0 0 0 8zm0-6c1.1 0 2 .9 2 2s-.9 2-2 2-2-.9-2-2 .9-2 2-2zm0 8c-2.67 0-8 1.34-8 4v2h16v-2c0-2.66-5.33-4-8-4zm-6 4c.22-.72 3.31-2 6-2 2.7 0 5.8 1.29 6 2H9zm-3-3v-3h3v-2H6V7H4v3H1v2h3v3z"/></symbol><symbol viewBox="0 0 24 24" fill="currentColor" id="kp_icon_user"><path d="M12 6c1.1 0 2 .9 2 2s-.9 2-2 2-2-.9-2-2 .9-2 2-2zm0 10c2.7 0 5.8 1.29 6 2H6c.23-.72 3.31-2 6-2zm0-12a4 4 0 1 0 0 8 4 4 0 0 0 0-8zm0 10c-2.67 0-8 1.34-8 4v2h16v-2c0-2.66-5.33-4-8-4z"/></symbol><symbol viewBox="0 0 24 24" fill="currentColor" id="kp_icon_users"><path d="M9 12a3.5 3.5 0 1 0 0-7 3.5 3.5 0 0 0 0 7zm0-5a1.5 1.5 0 1 1 0 3 1.5 1.5 0 0 1 0-3zm.05 10H4.77c.99-.5 2.7-1 4.23-1l.34.01c.34-.73.93-1.33 1.64-1.81-.73-.13-1.42-.2-1.98-.2-2.34 0-7 1.17-7 3.5V19h7v-1.5c0-.17.02-.34.05-.5zm7.45-2.5c-1.84 0-5.5 1.01-5.5 3V19h11v-1.5c0-1.99-3.66-3-5.5-3zm1.21-1.82a2.5 2.5 0 1 0-1.21.32c.44 0 .85-.12 1.21-.32z"/></symbol><symbol viewBox="0 0 24 24" fill="currentColor" id="kp_icon_video_off"><path d="M9.56 8l-2-2-4.15-4.14L2 3.27 4.73 6H4a1 1 0 0 0-1 1v10a1 1 0 0 0 1 1h12c.21 0 .39-.08.55-.18L19.73 21l1.41-1.41-8.86-8.86L9.56 8zM5 16V8h1.73l8 8H5zm10-8v2.61l6 6V6.5l-4 4V7a1 1 0 0 0-1-1h-5.61l2 2H15z"/></symbol><symbol viewBox="0 0 24 24" fill="currentColor" id="kp_icon_video"><path d="M15 8v8H5V8h10m1-2H4a1 1 0 0 0-1 1v10a1 1 0 0 0 1 1h12a1 1 0 0 0 1-1v-3.5l4 4v-11l-4 4V7a1 1 0 0 0-1-1z"/></symbol><symbol viewBox="0 0 24 24" fill="currentColor" id="kp_icon_voicemail"><path d="M18.5 6a5.5 5.5 0 0 0-4.24 9H9.74a5.5 5.5 0 1 0-4.24 2h13a5.5 5.5 0 1 0 0-11zm-13 9a3.5 3.5 0 1 1 0-7 3.5 3.5 0 0 1 0 7zm13 0a3.5 3.5 0 1 1 0-7 3.5 3.5 0 0 1 0 7z"/></symbol><symbol viewBox="0 0 24 24" fill="currentColor" id="kp_icon_volume_down"><path d="M16 7.97v8.05a4.47 4.47 0 0 0 0-8.05zM5 9v6h4l5 5V4L9 9zm7-.17v6.34L9.83 13H7v-2h2.83z"/></symbol><symbol viewBox="0 0 24 24" fill="currentColor" id="kp_icon_volume_mute"><path d="M4.34 2.93L2.93 4.34 7.29 8.7 7 9H3v6h4l5 5v-6.59l4.18 4.18c-.65.49-1.38.88-2.18 1.11v2.06a8.94 8.94 0 0 0 3.61-1.75l2.05 2.05 1.41-1.41zM10 15.17L7.83 13H5v-2h2.83l.88-.88L10 11.41zM19 12c0 .82-.15 1.61-.41 2.34l1.53 1.53A9 9 0 0 0 14 3.23v2.06A7 7 0 0 1 19 12zm-7-8l-1.88 1.88L12 7.76zm4.5 8A4.5 4.5 0 0 0 14 7.97v1.79l2.48 2.48.02-.24z"/></symbol><symbol viewBox="0 0 24 24" fill="currentColor" id="kp_icon_volume_up"><path d="M3 9v6h4l5 5V4L7 9zm7-.17v6.34L7.83 13H5v-2h2.83zM16.5 12A4.5 4.5 0 0 0 14 7.97v8.05A4.47 4.47 0 0 0 16.5 12zM14 3.23v2.06a7 7 0 0 1 0 13.42v2.06a9 9 0 0 0 0-17.54z"/></symbol><symbol viewBox="0 0 24 24" fill="currentColor" id="kp_icon_volume"><path d="M14 8.83v6.34L11.83 13H9v-2h2.83zM16 4l-5 5H7v6h4l5 5z"/></symbol><symbol viewBox="0 0 24 24" fill="currentColor" id="kp_icon_wifi_off"><path d="M21 11l2-2A15.54 15.54 0 0 0 9.3 4.69l2.58 2.58c3.3-.02 6.61 1.22 9.12 3.73zm-2 2a9.9 9.9 0 0 0-3.72-2.33l3.02 3.02zM9 17l3 3 3-3a4.24 4.24 0 0 0-6 0zM3.41 1.64L2 3.05 5.05 6.1A15.7 15.7 0 0 0 1 9l2 2a12.65 12.65 0 0 1 4.17-2.78l2.24 2.24A9.82 9.82 0 0 0 5 13l2 2a7 7 0 0 1 4.89-2.06l7.08 7.08 1.41-1.41z"/></symbol><symbol viewBox="0 0 24 24" fill="currentColor" id="kp_icon_wifi"><path d="M1 9l2 2a12.73 12.73 0 0 1 18 0l2-2A15.57 15.57 0 0 0 1 9zm8 8l3 3 3-3a4.24 4.24 0 0 0-6 0zm-4-4l2 2a7.07 7.07 0 0 1 10 0l2-2a9.91 9.91 0 0 0-14 0z"/></symbol><symbol viewBox="0 0 24 24" fill="currentColor" id="kp_icon_zap_off"><path d="M17 10h-3.61l2.28 2.28zm0-8H7v1.61l6.13 6.13zm-13.59.86L2 4.27l5 5V13h3v9l3.58-6.15L17.73 20l1.41-1.41z"/></symbol><symbol viewBox="0 0 24 24" fill="currentColor" id="kp_icon_zap"><path d="M7 2v11h3v9l7-12h-4l3-8z"/></symbol><symbol viewBox="0 0 24 24" fill="currentColor" id="kp_icon_reply"><path d="M10 9V5l-7 7 7 7v-4.1c5 0 8.5 1.6 11 5.1-1-5-4-10-11-11z"/></symbol><symbol viewBox="0 0 24 24" fill="currentColor" id="kp_icon_message_cirlce"><path d="M11 23.6V20c-5-.3-9-4.4-9-9.5C2 5.3 6.3 1 11.5 1S21 5.3 21 10.5c0 4.9-3.4 9.9-8.6 12.4l-1.4.7zM11.5 3C7.4 3 4 6.4 4 10.5S7.4 18 11.5 18H13v2.3c3.6-2.3 6-6.1 6-9.8C19 6.4 15.6 3 11.5 3z"/></symbol><symbol viewBox="0 0 24 24" fill="currentColor" id="kp_icon_image_gallery"><path d="M1 5h2v14H1zm4 0h2v14H5zm17 0H10a1 1 0 0 0-1 1v12a1 1 0 0 0 1 1h12a1 1 0 0 0 1-1V6a1 1 0 0 0-1-1zm-1 12H11V7h10v10zm-3.57-4.38l-2 2.57L14 13.47l-2 2.52h8z"/></symbol><symbol viewBox="0 0 24 24" fill="currentColor" id="kp_icon_facebook"><path d="M15 22H9v-7H6V9h3V7.7C9 4.3 11.3 2 14.6 2c1 0 2.1 0 2.8.1H19v5.4h-3c-1 0-1 0-1 1V9h3.8l-1.5 6H15v7zm-4-2h2v-7h2.7l.5-2H13V8.5c0-1 0-3 3-3h1V4.1c-.7-.1-1.6-.1-2.4-.1C12.3 4 11 5.4 11 7.7V11H8v2h3v7z"/></symbol><symbol viewBox="0 0 24 24" fill="currentColor" id="kp_icon_twitter"><path d="M15.3 5.55a2.9 2.9 0 0 0-2.9 2.85l-.03 1.57a.6.6 0 0 1-.68.58l-1.56-.2a11.7 11.7 0 0 1-5.9-2.8c-.6 3.3.56 5.6 3.37 7.37l1.75 1.1a.6.6 0 0 1 .04.99l-1.6 1.16c.95.06 1.85.02 2.6-.13 4.71-.94 7.85-4.5 7.85-10.35 0-.48-1.01-2.14-2.94-2.14zm-4.9 2.81a4.9 4.9 0 0 1 8.38-3.35c.72-.01 1.32.17 2.67-.65-.33 1.64-.5 2.35-1.21 3.33 0 7.64-4.7 11.36-9.46 12.31-3.27.65-8.02-.42-9.38-1.84.69-.06 3.5-.36 5.14-1.55-1.38-.91-6.87-4.14-3.26-12.82 1.7 1.97 3.4 3.32 5.15 4.03 1.16.48 1.44.47 1.97.54z"/></symbol><symbol viewBox="0 0 24 24" fill="currentColor" id="kp_icon_whatsapp"><path d="M3.2 19.9l2.5-2.5c-3.3-3.8-3.3-9.5.4-13.1C9.8.6 15.9.6 19.5 4.3s3.7 9.8 0 13.4c-3.5 3.5-9.4 4.6-14.8 2.7l-1.5-.5zM18.1 5.7c-2.9-2.9-7.7-2.9-10.6 0s-2.9 7.7 0 10.6l1.1 1.1L6.9 19c4.2.9 8.6-.1 11.2-2.7 2.9-2.9 2.9-7.7 0-10.6z"/><path d="M17.1 13.1l-1.6-.8c-.2-.1-.4-.1-.5.1-.2.2-.6.8-.8.9-.1.2-.3.2-.5.1-1.4-.7-2.3-1.3-3.3-2.8-.2-.4.2-.4.7-1.3.1-.2 0-.3 0-.4s-.5-1.3-.7-1.8c-.2-.5-.4-.4-.6-.4h-.5c-.1 0-.3 0-.6.3-.2.2-.8.8-.8 2s.9 2.3 1 2.5c.1.1 1.7 2.5 4.1 3.6 1.5.7 2.1.7 2.9.6.5-.1 1.4-.6 1.6-1.1s.2-1 .1-1.1c-.1-.2-.2-.3-.5-.4z"/></symbol><symbol viewBox="0 0 24 24" fill="currentColor" id="kp_icon_youtube"><path d="M19.6 7c-.1-.3-.3-.5-.5-.6-.5-.1-2.6-.4-7.1-.4s-6.6.3-7.1.4c-.2.1-.4.3-.5.6-.1.4-.4 2.2-.4 5s.3 4.6.4 5c.1.3.3.5.5.6.5.1 2.6.4 7.1.4s6.6-.3 7.1-.4c.2-.1.5-.3.5-.6.1-.4.4-2.2.4-5s-.3-4.6-.4-5zm1.9-.5c.5 1.8.5 5.5.5 5.5s0 3.7-.5 5.5c-.3 1-1 1.8-1.9 2-1.7.5-7.6.5-7.6.5s-5.9 0-7.6-.5c-.9-.3-1.7-1-1.9-2C2 15.7 2 12 2 12s0-3.7.5-5.5c.3-1 1-1.8 1.9-2C6.1 4 12 4 12 4s5.9 0 7.6.5c.9.2 1.7 1 1.9 2zm-11.5 9v-7l6 3.5-6 3.5z"/></symbol><symbol viewBox="0 0 24 24" fill="currentColor" id="kp_icon_instagram"><path d="M12 9c-1.7 0-3 1.3-3 3s1.3 3 3 3 3-1.3 3-3-1.3-3-3-3zm0-2c2.8 0 5 2.2 5 5s-2.2 5-5 5-5-2.2-5-5 2.2-5 5-5zm6.5-.2c0 .7-.6 1.2-1.2 1.2S16 7.5 16 6.8s.6-1.2 1.2-1.2 1.3.5 1.3 1.2zM12 3.9c-2.5 0-2.9 0-4.1.1-.8 0-1.3.1-1.8.3-.4.2-.8.4-1.1.7-.3.3-.6.7-.7 1.1-.2.5-.3 1-.3 1.8-.1 1.1-.1 1.5-.1 4.1 0 2.5 0 2.9.1 4.1 0 .8.1 1.3.3 1.8.2.4.4.8.7 1.1.3.3.7.5 1.1.7.5.2 1 .3 1.8.3 1.1.1 1.5.1 4.1.1 2.5 0 2.9 0 4.1-.1.8 0 1.3-.1 1.8-.3.4-.2.8-.4 1.1-.7.3-.3.5-.7.7-1.1.2-.5.3-1 .3-1.8.1-1.1.1-1.5.1-4.1 0-2.5 0-2.9-.1-4.1 0-.8-.1-1.3-.3-1.8-.1-.4-.4-.8-.7-1.1-.3-.3-.7-.6-1.1-.7-.5-.2-1-.3-1.8-.3-1.1-.1-1.5-.1-4.1-.1zM12 2c2.7 0 3.1 0 4.1.1 1.1 0 1.8.2 2.4.5a5.67 5.67 0 0 1 3 3c.2.6.4 1.4.5 2.4v4c0 2.7 0 3.1-.1 4.1 0 1.1-.2 1.8-.5 2.4-.3.7-.6 1.3-1.2 1.8-.5.5-1.1.9-1.8 1.2-.6.2-1.4.4-2.4.5h-4c-2.7 0-3.1 0-4.1-.1-1.1 0-1.8-.2-2.4-.5-.7-.3-1.3-.6-1.8-1.2-.5-.5-.9-1.1-1.2-1.8-.2-.6-.4-1.4-.5-2.4v-4c0-2.7 0-3.1.1-4.1s.2-1.8.5-2.4c.3-.7.6-1.3 1.2-1.8.5-.5 1.1-.9 1.8-1.2C6.2 2.3 7 2.1 8 2h4z"/></symbol></svg>