<!--Generated by kepler builder - Eva icons--><svg xmlns="http://www.w3.org/2000/svg"><symbol viewBox="0 0 24 24" fill="currentColor" id="kp_icon_alert_circle"><path d="M12 2a10 10 0 1 0 10 10A10 10 0 0 0 12 2zm0 15a1 1 0 1 1 1-1 1 1 0 0 1-1 1zm1-4a1 1 0 0 1-2 0V8a1 1 0 0 1 2 0z"/></symbol><symbol viewBox="0 0 24 24" fill="currentColor" id="kp_icon_alert_triangle"><path d="M22.56 16.3L14.89 3.58a3.43 3.43 0 0 0-5.78 0L1.44 16.3a3 3 0 0 0-.05 3A3.37 3.37 0 0 0 4.33 21h15.34a3.37 3.37 0 0 0 2.94-1.66 3 3 0 0 0-.05-3.04zM12 17a1 1 0 1 1 1-1 1 1 0 0 1-1 1zm1-4a1 1 0 0 1-2 0V9a1 1 0 0 1 2 0z"/></symbol><symbol viewBox="0 0 24 24" fill="currentColor" id="kp_icon_archive"><path d="M18 3H6a3 3 0 0 0-2 5.22V18a3 3 0 0 0 3 3h10a3 3 0 0 0 3-3V8.22A3 3 0 0 0 18 3zm-3 10.13a.87.87 0 0 1-.87.87H9.87a.87.87 0 0 1-.87-.87v-.26a.87.87 0 0 1 .87-.87h4.26a.87.87 0 0 1 .87.87zM18 7H6a1 1 0 0 1 0-2h12a1 1 0 0 1 0 2z"/></symbol><symbol viewBox="0 0 24 24" fill="currentColor" id="kp_icon_arrow_down_circle"><path d="M12 2a10 10 0 1 0 10 10A10 10 0 0 0 12 2zm3.69 11.86l-3 2.86a.49.49 0 0 1-.15.1.54.54 0 0 1-.16.1.94.94 0 0 1-.76 0 1 1 0 0 1-.33-.21l-3-3a1 1 0 0 1 1.42-1.42l1.29 1.3V8a1 1 0 0 1 2 0v5.66l1.31-1.25a1 1 0 0 1 1.38 1.45z"/></symbol><symbol viewBox="0 0 24 24" fill="currentColor" id="kp_icon_arrow_down_left"><path d="M17.71 6.29a1 1 0 0 0-1.42 0L8 14.59V9a1 1 0 0 0-2 0v8a1 1 0 0 0 1 1h8a1 1 0 0 0 0-2H9.41l8.3-8.29a1 1 0 0 0 0-1.42z"/></symbol><symbol viewBox="0 0 24 24" fill="currentColor" id="kp_icon_arrow_down_right"><path d="M17 8a1 1 0 0 0-1 1v5.59l-8.29-8.3a1 1 0 0 0-1.42 1.42l8.3 8.29H9a1 1 0 0 0 0 2h8a1 1 0 0 0 1-1V9a1 1 0 0 0-1-1z"/></symbol><symbol viewBox="0 0 24 24" fill="currentColor" id="kp_icon_arrow_down"><path d="M18.77 13.36a1 1 0 0 0-1.41-.13L13 16.86V5a1 1 0 0 0-2 0v11.86l-4.36-3.63a1 1 0 1 0-1.28 1.54l6 5 .15.09.13.07a1 1 0 0 0 .72 0l.13-.07.15-.09 6-5a1 1 0 0 0 .13-1.41z"/></symbol><symbol viewBox="0 0 24 24" fill="currentColor" id="kp_icon_arrow_left_circle"><path d="M22 12a10 10 0 1 0-10 10 10 10 0 0 0 10-10zm-11.86 3.69l-2.86-3a.49.49 0 0 1-.1-.15.54.54 0 0 1-.1-.16.94.94 0 0 1 0-.76 1 1 0 0 1 .21-.33l3-3a1 1 0 0 1 1.42 1.42L10.41 11H16a1 1 0 0 1 0 2h-5.66l1.25 1.31a1 1 0 0 1-1.45 1.38z"/></symbol><symbol viewBox="0 0 24 24" fill="currentColor" id="kp_icon_arrow_left"><path d="M19 11H7.14l3.63-4.36a1 1 0 1 0-1.54-1.28l-5 6a1.19 1.19 0 0 0-.09.15c0 .05 0 .08-.07.13A1 1 0 0 0 4 12a1 1 0 0 0 .07.36c0 .05 0 .08.07.13a1.19 1.19 0 0 0 .09.15l5 6A1 1 0 0 0 10 19a1 1 0 0 0 .64-.23 1 1 0 0 0 .13-1.41L7.14 13H19a1 1 0 0 0 0-2z"/></symbol><symbol viewBox="0 0 24 24" fill="currentColor" id="kp_icon_arrow_right_circle"><path d="M2 12A10 10 0 1 0 12 2 10 10 0 0 0 2 12zm11.86-3.69l2.86 3a.49.49 0 0 1 .1.15.54.54 0 0 1 .1.16.94.94 0 0 1 0 .76 1 1 0 0 1-.21.33l-3 3a1 1 0 0 1-1.42-1.42l1.3-1.29H8a1 1 0 0 1 0-2h5.66l-1.25-1.31a1 1 0 0 1 1.45-1.38z"/></symbol><symbol viewBox="0 0 24 24" fill="currentColor" id="kp_icon_arrow_right"><path d="M5 13h11.86l-3.63 4.36a1 1 0 0 0 1.54 1.28l5-6a1.19 1.19 0 0 0 .09-.15c0-.05.05-.08.07-.13A1 1 0 0 0 20 12a1 1 0 0 0-.07-.36c0-.05-.05-.08-.07-.13a1.19 1.19 0 0 0-.09-.15l-5-6A1 1 0 0 0 14 5a1 1 0 0 0-.64.23 1 1 0 0 0-.13 1.41L16.86 11H5a1 1 0 0 0 0 2z"/></symbol><symbol viewBox="0 0 24 24" fill="currentColor" id="kp_icon_arrow_up_circle"><path d="M12 22A10 10 0 1 0 2 12a10 10 0 0 0 10 10zM8.31 10.14l3-2.86a.49.49 0 0 1 .15-.1.54.54 0 0 1 .16-.1.94.94 0 0 1 .76 0 1 1 0 0 1 .33.21l3 3a1 1 0 0 1-1.42 1.42L13 10.41V16a1 1 0 0 1-2 0v-5.66l-1.31 1.25a1 1 0 0 1-1.38-1.45z"/></symbol><symbol viewBox="0 0 24 24" fill="currentColor" id="kp_icon_arrow_up_left"><path d="M17.71 16.29L9.42 8H15a1 1 0 0 0 0-2H7.05a1 1 0 0 0-1 1v8a1 1 0 0 0 1 1H7a1 1 0 0 0 1-1V9.45l8.26 8.26a1 1 0 0 0 1.42 0 1 1 0 0 0 .03-1.42z"/></symbol><symbol viewBox="0 0 24 24" fill="currentColor" id="kp_icon_arrow_up_right"><path d="M18 7.05a1 1 0 0 0-1-1L9 6a1 1 0 0 0 0 2h5.56l-8.27 8.29a1 1 0 0 0 0 1.42 1 1 0 0 0 1.42 0L16 9.42V15a1 1 0 0 0 1 1 1 1 0 0 0 1-1z"/></symbol><symbol viewBox="0 0 24 24" fill="currentColor" id="kp_icon_arrow_up"><path d="M5.23 10.64a1 1 0 0 0 1.41.13L11 7.14V19a1 1 0 0 0 2 0V7.14l4.36 3.63a1 1 0 1 0 1.28-1.54l-6-5-.15-.09-.13-.07a1 1 0 0 0-.72 0l-.13.07-.15.09-6 5a1 1 0 0 0-.13 1.41z"/></symbol><symbol viewBox="0 0 24 24" fill="currentColor" id="kp_icon_at_sign"><path d="M13 2a10 10 0 0 0-5 19.1 10.15 10.15 0 0 0 4 .9 10 10 0 0 0 6.08-2.06 1 1 0 0 0 .19-1.4 1 1 0 0 0-1.41-.19A8 8 0 1 1 12.77 4 8.17 8.17 0 0 1 20 12.22v.68a1.71 1.71 0 0 1-1.78 1.7 1.82 1.82 0 0 1-1.62-1.88V8.4a1 1 0 0 0-1-1 1 1 0 0 0-1 .87 5 5 0 0 0-3.44-1.36A5.09 5.09 0 1 0 15.31 15a3.6 3.6 0 0 0 5.55.61A3.67 3.67 0 0 0 22 12.9v-.68A10.2 10.2 0 0 0 13 2zm-1.82 13.09A3.09 3.09 0 1 1 14.27 12a3.1 3.1 0 0 1-3.09 3.09z"/></symbol><symbol viewBox="0 0 24 24" fill="currentColor" id="kp_icon_bar_chart"><path d="M12 4a1 1 0 0 0-1 1v15a1 1 0 0 0 2 0V5a1 1 0 0 0-1-1zM19 12a1 1 0 0 0-1 1v7a1 1 0 0 0 2 0v-7a1 1 0 0 0-1-1zM5 8a1 1 0 0 0-1 1v11a1 1 0 0 0 2 0V9a1 1 0 0 0-1-1z"/></symbol><symbol viewBox="0 0 24 24" fill="currentColor" id="kp_icon_battery_charging"><path d="M11.28 13H7a1 1 0 0 1-.86-.5 1 1 0 0 1 0-1L9.28 6H4.17A2.31 2.31 0 0 0 2 8.43v7.14A2.31 2.31 0 0 0 4.17 18h4.25z"/><path d="M15.83 6h-4.25l-2.86 5H13a1 1 0 0 1 .86.5 1 1 0 0 1 0 1L10.72 18h5.11A2.31 2.31 0 0 0 18 15.57V8.43A2.31 2.31 0 0 0 15.83 6zM21 9a1 1 0 0 0-1 1v4a1 1 0 0 0 2 0v-4a1 1 0 0 0-1-1z"/></symbol><symbol viewBox="0 0 24 24" fill="currentColor" id="kp_icon_battery"><path d="M15.83 6H4.17A2.31 2.31 0 0 0 2 8.43v7.14A2.31 2.31 0 0 0 4.17 18h11.66A2.31 2.31 0 0 0 18 15.57V8.43A2.31 2.31 0 0 0 15.83 6zM21 9a1 1 0 0 0-1 1v4a1 1 0 0 0 2 0v-4a1 1 0 0 0-1-1z"/></symbol><symbol viewBox="0 0 24 24" fill="currentColor" id="kp_icon_bell_off"><path d="M15.88 18.71l-.59-.59L14 16.78l-.07-.07L6.58 9.4 5.31 8.14a5.68 5.68 0 0 0 0 .59v4.67l-1.8 1.81A1.64 1.64 0 0 0 4.64 18H8v.34A3.84 3.84 0 0 0 12 22a3.88 3.88 0 0 0 4-3.22zM14 18.34A1.88 1.88 0 0 1 12 20a1.88 1.88 0 0 1-2-1.66V18h4zM7.13 4.3l1.46 1.46 9.53 9.53 2 2 .31.3a1.58 1.58 0 0 0 .45-.6 1.62 1.62 0 0 0-.35-1.78l-1.8-1.81V8.94a6.86 6.86 0 0 0-5.83-6.88 6.71 6.71 0 0 0-5.32 1.61 6.88 6.88 0 0 0-.58.54zM20.71 19.29L19.41 18l-2-2-9.52-9.53L6.42 5 4.71 3.29a1 1 0 0 0-1.42 1.42L5.53 7l1.75 1.7 7.31 7.3.07.07L16 17.41l.59.59 2.7 2.71a1 1 0 0 0 1.42 0 1 1 0 0 0 0-1.42z"/></symbol><symbol viewBox="0 0 24 24" fill="currentColor" id="kp_icon_bell"><path d="M20.52 15.21l-1.8-1.81V8.94a6.86 6.86 0 0 0-5.82-6.88 6.74 6.74 0 0 0-7.62 6.67v4.67l-1.8 1.81A1.64 1.64 0 0 0 4.64 18H8v.34A3.84 3.84 0 0 0 12 22a3.84 3.84 0 0 0 4-3.66V18h3.36a1.64 1.64 0 0 0 1.16-2.79zM14 18.34A1.88 1.88 0 0 1 12 20a1.88 1.88 0 0 1-2-1.66V18h4z"/></symbol><symbol viewBox="0 0 24 24" fill="currentColor" id="kp_icon_bluetooth"><path d="M13.63 12l4-3.79a1.14 1.14 0 0 0-.13-1.77l-4.67-3.23a1.17 1.17 0 0 0-1.21-.08 1.15 1.15 0 0 0-.62 1v6.2l-3.19-4a1 1 0 0 0-1.56 1.3L9.72 12l-3.5 4.43a1 1 0 0 0 .16 1.4A1 1 0 0 0 7 18a1 1 0 0 0 .78-.38L11 13.56v6.29A1.16 1.16 0 0 0 12.16 21a1.16 1.16 0 0 0 .67-.21l4.64-3.18a1.17 1.17 0 0 0 .49-.85 1.15 1.15 0 0 0-.34-.91zM13 5.76l2.5 1.73L13 9.85zm0 12.49v-4.07l2.47 2.38z"/></symbol><symbol viewBox="0 0 24 24" fill="currentColor" id="kp_icon_book_open"><path d="M21 4.34a1.24 1.24 0 0 0-1.08-.23L13 5.89v14.27l7.56-1.94A1.25 1.25 0 0 0 21.5 17V5.32a1.25 1.25 0 0 0-.5-.98zM11 5.89L4.06 4.11A1.27 1.27 0 0 0 3 4.34a1.25 1.25 0 0 0-.48 1V17a1.25 1.25 0 0 0 .94 1.21L11 20.16z"/></symbol><symbol viewBox="0 0 24 24" fill="currentColor" id="kp_icon_book"><path d="M19 3H7a3 3 0 0 0-3 3v12a3 3 0 0 0 3 3h12a1 1 0 0 0 1-1V4a1 1 0 0 0-1-1zM7 19a1 1 0 0 1 0-2h11v2z"/></symbol><symbol viewBox="0 0 24 24" fill="currentColor" id="kp_icon_bookmark"><path d="M6 21a1 1 0 0 1-.49-.13A1 1 0 0 1 5 20V5.33A2.28 2.28 0 0 1 7.2 3h9.6A2.28 2.28 0 0 1 19 5.33V20a1 1 0 0 1-.5.86 1 1 0 0 1-1 0l-5.67-3.21-5.33 3.2A1 1 0 0 1 6 21z"/></symbol><symbol viewBox="0 0 24 24" fill="currentColor" id="kp_icon_briefcase"><path d="M7 21h10V7h-1V5.5A2.5 2.5 0 0 0 13.5 3h-3A2.5 2.5 0 0 0 8 5.5V7H7zm3-15.5a.5.5 0 0 1 .5-.5h3a.5.5 0 0 1 .5.5V7h-4zM19 7v14a3 3 0 0 0 3-3v-8a3 3 0 0 0-3-3zM5 7a3 3 0 0 0-3 3v8a3 3 0 0 0 3 3z"/></symbol><symbol viewBox="0 0 24 24" fill="currentColor" id="kp_icon_brush"><path d="M7.12 12.55a4 4 0 0 0-3.07 3.86v3.11a.47.47 0 0 0 .48.48l3.24-.06a3.78 3.78 0 0 0 3.44-2.2 3.65 3.65 0 0 0-4.09-5.19zM19.26 4.46a2.14 2.14 0 0 0-2.88.21L10 11.08a.47.47 0 0 0 0 .66L12.25 14a.47.47 0 0 0 .66 0l6.49-6.47a2.06 2.06 0 0 0 .6-1.47 2 2 0 0 0-.74-1.6z"/></symbol><symbol viewBox="0 0 24 24" fill="currentColor" id="kp_icon_calendar"><path d="M18 4h-1V3a1 1 0 0 0-2 0v1H9V3a1 1 0 0 0-2 0v1H6a3 3 0 0 0-3 3v12a3 3 0 0 0 3 3h12a3 3 0 0 0 3-3V7a3 3 0 0 0-3-3zM8 17a1 1 0 1 1 1-1 1 1 0 0 1-1 1zm8 0h-4a1 1 0 0 1 0-2h4a1 1 0 0 1 0 2zm3-6H5V7a1 1 0 0 1 1-1h1v1a1 1 0 0 0 2 0V6h6v1a1 1 0 0 0 2 0V6h1a1 1 0 0 1 1 1z"/></symbol><symbol viewBox="0 0 24 24" fill="currentColor" id="kp_icon_camera"><circle cx="12" cy="14" r="1.5"/><path d="M19 7h-3V5.5A2.5 2.5 0 0 0 13.5 3h-3A2.5 2.5 0 0 0 8 5.5V7H5a3 3 0 0 0-3 3v8a3 3 0 0 0 3 3h14a3 3 0 0 0 3-3v-8a3 3 0 0 0-3-3zm-9-1.5a.5.5 0 0 1 .5-.5h3a.5.5 0 0 1 .5.5V7h-4zm2 12a3.5 3.5 0 1 1 3.5-3.5 3.5 3.5 0 0 1-3.5 3.5z"/></symbol><symbol viewBox="0 0 24 24" fill="currentColor" id="kp_icon_cast"><path d="M18.4 3H5.6A2.7 2.7 0 0 0 3 5.78V7a1 1 0 0 0 2 0V5.78A.72.72 0 0 1 5.6 5h12.8a.72.72 0 0 1 .6.78v12.44a.72.72 0 0 1-.6.78H17a1 1 0 0 0 0 2h1.4a2.7 2.7 0 0 0 2.6-2.78V5.78A2.7 2.7 0 0 0 18.4 3zM3.86 14A1 1 0 0 0 3 15.17a1 1 0 0 0 1.14.83 2.49 2.49 0 0 1 2.12.72 2.52 2.52 0 0 1 .51 2.84 1 1 0 0 0 .48 1.33 1.06 1.06 0 0 0 .42.09 1 1 0 0 0 .91-.58A4.52 4.52 0 0 0 3.86 14z"/><path d="M3.86 10.08a1 1 0 0 0 .28 2 6 6 0 0 1 5.09 1.71 6 6 0 0 1 1.53 5.95 1 1 0 0 0 .68 1.26.9.9 0 0 0 .28 0 1 1 0 0 0 1-.72 8 8 0 0 0-8.82-10.2z"/><circle cx="4" cy="19" r="1"/></symbol><symbol viewBox="0 0 24 24" fill="currentColor" id="kp_icon_check_circle"><path d="M9.71 11.29a1 1 0 0 0-1.42 1.42l3 3A1 1 0 0 0 12 16a1 1 0 0 0 .72-.34l7-8a1 1 0 0 0-1.5-1.32L12 13.54z"/><path d="M21 11a1 1 0 0 0-1 1 8 8 0 0 1-8 8A8 8 0 0 1 6.33 6.36 7.93 7.93 0 0 1 12 4a8.79 8.79 0 0 1 1.9.22 1 1 0 1 0 .47-1.94A10.54 10.54 0 0 0 12 2a10 10 0 0 0-7 17.09A9.93 9.93 0 0 0 12 22a10 10 0 0 0 10-10 1 1 0 0 0-1-1z"/></symbol><symbol viewBox="0 0 24 24" fill="currentColor" id="kp_icon_check_square"><path d="M20 11.83a1 1 0 0 0-1 1v5.57a.6.6 0 0 1-.6.6H5.6a.6.6 0 0 1-.6-.6V5.6a.6.6 0 0 1 .6-.6h9.57a1 1 0 1 0 0-2H5.6A2.61 2.61 0 0 0 3 5.6v12.8A2.61 2.61 0 0 0 5.6 21h12.8a2.61 2.61 0 0 0 2.6-2.6v-5.57a1 1 0 0 0-1-1z"/><path d="M10.72 11a1 1 0 0 0-1.44 1.38l2.22 2.33a1 1 0 0 0 .72.31 1 1 0 0 0 .72-.3l6.78-7a1 1 0 1 0-1.44-1.4l-6.05 6.26z"/></symbol><symbol viewBox="0 0 24 24" fill="currentColor" id="kp_icon_check"><path d="M9.86 18a1 1 0 0 1-.73-.32l-4.86-5.17a1 1 0 1 1 1.46-1.37l4.12 4.39 8.41-9.2a1 1 0 1 1 1.48 1.34l-9.14 10a1 1 0 0 1-.73.33z"/></symbol><symbol viewBox="0 0 24 24" fill="currentColor" id="kp_icon_chevron_down"><path d="M12 15.5a1 1 0 0 1-.71-.29l-4-4a1 1 0 1 1 1.42-1.42L12 13.1l3.3-3.18a1 1 0 1 1 1.38 1.44l-4 3.86a1 1 0 0 1-.68.28z"/></symbol><symbol viewBox="0 0 24 24" fill="currentColor" id="kp_icon_chevron_left"><path d="M13.36 17a1 1 0 0 1-.72-.31l-3.86-4a1 1 0 0 1 0-1.4l4-4a1 1 0 1 1 1.42 1.42L10.9 12l3.18 3.3a1 1 0 0 1 0 1.41 1 1 0 0 1-.72.29z"/></symbol><symbol viewBox="0 0 24 24" fill="currentColor" id="kp_icon_chevron_right"><path d="M10.5 17a1 1 0 0 1-.71-.29 1 1 0 0 1 0-1.42L13.1 12 9.92 8.69a1 1 0 0 1 0-1.41 1 1 0 0 1 1.42 0l3.86 4a1 1 0 0 1 0 1.4l-4 4a1 1 0 0 1-.7.32z"/></symbol><symbol viewBox="0 0 24 24" fill="currentColor" id="kp_icon_chevron_up"><path d="M16 14.5a1 1 0 0 1-.71-.29L12 10.9l-3.3 3.18a1 1 0 0 1-1.41 0 1 1 0 0 1 0-1.42l4-3.86a1 1 0 0 1 1.4 0l4 4a1 1 0 0 1 0 1.42 1 1 0 0 1-.69.28z"/></symbol><symbol viewBox="0 0 24 24" fill="currentColor" id="kp_icon_circle"><path d="M12 22a10 10 0 1 1 10-10 10 10 0 0 1-10 10zm0-18a8 8 0 1 0 8 8 8 8 0 0 0-8-8z"/></symbol><symbol viewBox="0 0 24 24" fill="currentColor" id="kp_icon_clipboard"><path d="M18 4v3a2 2 0 0 1-2 2H8a2 2 0 0 1-2-2V4a3 3 0 0 0-3 3v12a3 3 0 0 0 3 3h12a3 3 0 0 0 3-3V7a3 3 0 0 0-3-3z"/><rect x="7" y="2" width="10" height="6" rx="1" ry="1"/></symbol><symbol viewBox="0 0 24 24" fill="currentColor" id="kp_icon_clock"><path d="M12 2a10 10 0 1 0 10 10A10 10 0 0 0 12 2zm4 11h-4a1 1 0 0 1-1-1V8a1 1 0 0 1 2 0v3h3a1 1 0 0 1 0 2z"/></symbol><symbol viewBox="0 0 24 24" fill="currentColor" id="kp_icon_close_circle"><path d="M12 2a10 10 0 1 0 10 10A10 10 0 0 0 12 2zm2.71 11.29a1 1 0 0 1 0 1.42 1 1 0 0 1-1.42 0L12 13.41l-1.29 1.3a1 1 0 0 1-1.42 0 1 1 0 0 1 0-1.42l1.3-1.29-1.3-1.29a1 1 0 0 1 1.42-1.42l1.29 1.3 1.29-1.3a1 1 0 0 1 1.42 1.42L13.41 12z"/></symbol><symbol viewBox="0 0 24 24" fill="currentColor" id="kp_icon_close_square"><path d="M18 3H6a3 3 0 0 0-3 3v12a3 3 0 0 0 3 3h12a3 3 0 0 0 3-3V6a3 3 0 0 0-3-3zm-3.29 10.29a1 1 0 0 1 0 1.42 1 1 0 0 1-1.42 0L12 13.41l-1.29 1.3a1 1 0 0 1-1.42 0 1 1 0 0 1 0-1.42l1.3-1.29-1.3-1.29a1 1 0 0 1 1.42-1.42l1.29 1.3 1.29-1.3a1 1 0 0 1 1.42 1.42L13.41 12z"/></symbol><symbol viewBox="0 0 24 24" fill="currentColor" id="kp_icon_close"><path d="M13.41 12l4.3-4.29a1 1 0 1 0-1.42-1.42L12 10.59l-4.29-4.3a1 1 0 0 0-1.42 1.42l4.3 4.29-4.3 4.29a1 1 0 0 0 0 1.42 1 1 0 0 0 1.42 0l4.29-4.3 4.29 4.3a1 1 0 0 0 1.42 0 1 1 0 0 0 0-1.42z"/></symbol><symbol viewBox="0 0 24 24" fill="currentColor" id="kp_icon_code"><path d="M8.64 5.23a1 1 0 0 0-1.41.13l-5 6a1 1 0 0 0 0 1.27l4.83 6a1 1 0 0 0 .78.37 1 1 0 0 0 .78-1.63L4.29 12l4.48-5.36a1 1 0 0 0-.13-1.41zM21.78 11.37l-4.78-6a1 1 0 0 0-1.41-.15 1 1 0 0 0-.15 1.41L19.71 12l-4.48 5.37a1 1 0 0 0 .13 1.41A1 1 0 0 0 16 19a1 1 0 0 0 .77-.36l5-6a1 1 0 0 0 .01-1.27z"/></symbol><symbol viewBox="0 0 24 24" fill="currentColor" id="kp_icon_compass"><path d="M10.8 13.21l1.69-.68.71-1.74-1.69.68-.71 1.74z"/><path d="M12 2a10 10 0 1 0 10 10A10 10 0 0 0 12 2zm3.93 7.42l-1.75 4.26a1 1 0 0 1-.55.55l-4.21 1.7A1 1 0 0 1 9 16a1 1 0 0 1-.71-.31h-.05a1 1 0 0 1-.18-1l1.75-4.26a1 1 0 0 1 .55-.55l4.21-1.7a1 1 0 0 1 1.1.25 1 1 0 0 1 .26.99z"/></symbol><symbol viewBox="0 0 24 24" fill="currentColor" id="kp_icon_copy"><path d="M18 9h-3V5.67A2.68 2.68 0 0 0 12.33 3H5.67A2.68 2.68 0 0 0 3 5.67v6.66A2.68 2.68 0 0 0 5.67 15H9v3a3 3 0 0 0 3 3h6a3 3 0 0 0 3-3v-6a3 3 0 0 0-3-3zm-9 3v1H5.67a.67.67 0 0 1-.67-.67V5.67A.67.67 0 0 1 5.67 5h6.66a.67.67 0 0 1 .67.67V9h-1a3 3 0 0 0-3 3z"/></symbol><symbol viewBox="0 0 24.1 24.1" id="kp_icon_corner_down_left"><path d="M20 6a1 1 0 0 0-1-1 1 1 0 0 0-1 1v5a1 1 0 0 1-.29.71A1 1 0 0 1 17 12H8.08l2.69-3.39a1 1 0 0 0-1.52-1.17l-4 5a1 1 0 0 0 0 1.25l4 5a1 1 0 0 0 .78.37 1 1 0 0 0 .62-.22 1 1 0 0 0 .15-1.41l-2.66-3.36h8.92a3 3 0 0 0 3-3z"/></symbol><symbol viewBox="0 0 24 24" fill="currentColor" id="kp_icon_corner_down_right"><path d="M19.78 12.38l-4-5a1 1 0 0 0-1.56 1.24l2.7 3.38H8a1 1 0 0 1-1-1V6a1 1 0 0 0-2 0v5a3 3 0 0 0 3 3h8.92l-2.7 3.38a1 1 0 0 0 .16 1.4A1 1 0 0 0 15 19a1 1 0 0 0 .78-.38l4-5a1 1 0 0 0 0-1.24z"/></symbol><symbol viewBox="0 0 24 24" fill="currentColor" id="kp_icon_credit_card"><path d="M19 5H5a3 3 0 0 0-3 3v8a3 3 0 0 0 3 3h14a3 3 0 0 0 3-3V8a3 3 0 0 0-3-3zm-8 10H7a1 1 0 0 1 0-2h4a1 1 0 0 1 0 2zm6 0h-2a1 1 0 0 1 0-2h2a1 1 0 0 1 0 2zm3-6H4V8a1 1 0 0 1 1-1h14a1 1 0 0 1 1 1z"/></symbol><symbol viewBox="0 0 24 24" fill="currentColor" id="kp_icon_crop"><path d="M21 16h-3V8.56A2.56 2.56 0 0 0 15.44 6H8V3a1 1 0 0 0-2 0v3H3a1 1 0 0 0 0 2h3v7.44A2.56 2.56 0 0 0 8.56 18H16v3a1 1 0 0 0 2 0v-3h3a1 1 0 0 0 0-2zM8.56 16a.56.56 0 0 1-.56-.56V8h7.44a.56.56 0 0 1 .56.56V16z"/></symbol><symbol viewBox="0 0 24 24" fill="currentColor" id="kp_icon_cube"><path d="M11.25 11.83L3 8.36v7.73a1.69 1.69 0 0 0 1 1.52L11.19 21h.06zM12 10.5l8.51-3.57a1.62 1.62 0 0 0-.51-.38l-7.2-3.37a1.87 1.87 0 0 0-1.6 0L4 6.55a1.62 1.62 0 0 0-.51.38zM12.75 11.83V21h.05l7.2-3.39a1.69 1.69 0 0 0 1-1.51V8.36z"/></symbol><symbol viewBox="0 0 24 24" fill="currentColor" id="kp_icon_delete"><path d="M20.14 4h-9.77a3 3 0 0 0-2 .78l-.1.11-6 7.48a1 1 0 0 0 .11 1.37l6 5.48a3 3 0 0 0 2 .78h9.77A1.84 1.84 0 0 0 22 18.18V5.82A1.84 1.84 0 0 0 20.14 4zm-3.43 9.29a1 1 0 0 1 0 1.42 1 1 0 0 1-1.42 0L14 13.41l-1.29 1.3a1 1 0 0 1-1.42 0 1 1 0 0 1 0-1.42l1.3-1.29-1.3-1.29a1 1 0 0 1 1.42-1.42l1.29 1.3 1.29-1.3a1 1 0 0 1 1.42 1.42L15.41 12z"/></symbol><symbol viewBox="0 0 24 24" fill="currentColor" id="kp_icon_download_cloud"><path d="M21.9 11c0-.11-.06-.22-.09-.33a4.17 4.17 0 0 0-.18-.57l-.18-.37c-.06-.13-.15-.3-.24-.44S21 9.08 21 9s-.2-.25-.31-.37-.21-.2-.32-.3L20 8l-.36-.24a3.68 3.68 0 0 0-.44-.23l-.39-.18a4.13 4.13 0 0 0-.5-.15 3 3 0 0 0-.41-.09h-.18A6 6 0 0 0 6.33 7h-.18a3 3 0 0 0-.41.09 4.13 4.13 0 0 0-.5.15l-.39.18a3.68 3.68 0 0 0-.44.23L4.05 8l-.37.31c-.11.1-.22.19-.32.3l-.31.37c-.1.12-.18.23-.26.36l-.24.44-.18.37a4.17 4.17 0 0 0-.18.57c0 .11-.07.22-.09.33A5.23 5.23 0 0 0 2 12a5.5 5.5 0 0 0 .09.91c0 .1.05.19.07.29a5.58 5.58 0 0 0 .18.58l.12.29a5 5 0 0 0 .3.56l.14.22a.56.56 0 0 0 .05.08L3 15a5 5 0 0 0 4 2 2 2 0 0 1 .59-1.41A2 2 0 0 1 9 15a1.92 1.92 0 0 1 1 .27V12a2 2 0 0 1 4 0v3.37a2 2 0 0 1 1-.27 2.05 2.05 0 0 1 1.44.61A2 2 0 0 1 17 17a5 5 0 0 0 4-2l.05-.05a.56.56 0 0 0 .05-.08l.14-.22a5 5 0 0 0 .3-.56l.12-.29a5.58 5.58 0 0 0 .18-.58c0-.1.05-.19.07-.29A5.5 5.5 0 0 0 22 12a5.23 5.23 0 0 0-.1-1z"/><path d="M14.31 16.38L13 17.64V12a1 1 0 0 0-2 0v5.59l-1.29-1.3a1 1 0 0 0-1.42 1.42l3 3A1 1 0 0 0 12 21a1 1 0 0 0 .69-.28l3-2.9a1 1 0 1 0-1.38-1.44z"/><path d="M21.9 11c0-.11-.06-.22-.09-.33a4.17 4.17 0 0 0-.18-.57l-.18-.37c-.06-.13-.15-.3-.24-.44S21 9.08 21 9s-.2-.25-.31-.37-.21-.2-.32-.3L20 8l-.36-.24a3.68 3.68 0 0 0-.44-.23l-.39-.18a4.13 4.13 0 0 0-.5-.15 3 3 0 0 0-.41-.09h-.18A6 6 0 0 0 6.33 7h-.18a3 3 0 0 0-.41.09 4.13 4.13 0 0 0-.5.15l-.39.18a3.68 3.68 0 0 0-.44.23L4.05 8l-.37.31c-.11.1-.22.19-.32.3l-.31.37c-.1.12-.18.23-.26.36l-.24.44-.18.37a4.17 4.17 0 0 0-.18.57c0 .11-.07.22-.09.33A5.23 5.23 0 0 0 2 12a5.5 5.5 0 0 0 .09.91c0 .1.05.19.07.29a5.58 5.58 0 0 0 .18.58l.12.29a5 5 0 0 0 .3.56l.14.22a.56.56 0 0 0 .05.08L3 15a5 5 0 0 0 4 2 2 2 0 0 1 .59-1.41A2 2 0 0 1 9 15a1.92 1.92 0 0 1 1 .27V12a2 2 0 0 1 4 0v3.37a2 2 0 0 1 1-.27 2.05 2.05 0 0 1 1.44.61A2 2 0 0 1 17 17a5 5 0 0 0 4-2l.05-.05a.56.56 0 0 0 .05-.08l.14-.22a5 5 0 0 0 .3-.56l.12-.29a5.58 5.58 0 0 0 .18-.58c0-.1.05-.19.07-.29A5.5 5.5 0 0 0 22 12a5.23 5.23 0 0 0-.1-1z"/><path d="M14.31 16.38L13 17.64V12a1 1 0 0 0-2 0v5.59l-1.29-1.3a1 1 0 0 0-1.42 1.42l3 3A1 1 0 0 0 12 21a1 1 0 0 0 .69-.28l3-2.9a1 1 0 1 0-1.38-1.44z"/></symbol><symbol viewBox="0 0 24 24" fill="currentColor" id="kp_icon_download"><rect x="4" y="18" width="16" height="2" rx="1" ry="1"/><rect x="3" y="17" width="4" height="2" rx="1" ry="1" transform="rotate(-90 5 18)"/><rect x="17" y="17" width="4" height="2" rx="1" ry="1" transform="rotate(-90 19 18)"/><path d="M12 15a1 1 0 0 1-.58-.18l-4-2.82a1 1 0 0 1-.24-1.39 1 1 0 0 1 1.4-.24L12 12.76l3.4-2.56a1 1 0 0 1 1.2 1.6l-4 3a1 1 0 0 1-.6.2z"/><path d="M12 13a1 1 0 0 1-1-1V4a1 1 0 0 1 2 0v8a1 1 0 0 1-1 1z"/></symbol><symbol viewBox="0 0 24.2 24.2" id="kp_icon_droplet"><path d="M12 21.1a7.4 7.4 0 0 1-5.28-2.28 7.73 7.73 0 0 1 .1-10.77l4.64-4.65a.94.94 0 0 1 .71-.3 1 1 0 0 1 .71.31l4.56 4.72a7.73 7.73 0 0 1-.09 10.77A7.33 7.33 0 0 1 12 21.1z"/></symbol><symbol viewBox="0 0 24 24" fill="currentColor" id="kp_icon_edit_2"><path d="M19 20H5a1 1 0 0 0 0 2h14a1 1 0 0 0 0-2zM5 18h.09l4.17-.38a2 2 0 0 0 1.21-.57l9-9a1.92 1.92 0 0 0-.07-2.71L16.66 2.6A2 2 0 0 0 14 2.53l-9 9a2 2 0 0 0-.57 1.21L4 16.91a1 1 0 0 0 .29.8A1 1 0 0 0 5 18zM15.27 4L18 6.73l-2 1.95L13.32 6z"/></symbol><symbol viewBox="0 0 24 24" fill="currentColor" id="kp_icon_edit"><path d="M19.4 7.34L16.66 4.6A2 2 0 0 0 14 4.53l-9 9a2 2 0 0 0-.57 1.21L4 18.91a1 1 0 0 0 .29.8A1 1 0 0 0 5 20h.09l4.17-.38a2 2 0 0 0 1.21-.57l9-9a1.92 1.92 0 0 0-.07-2.71zM16 10.68L13.32 8l1.95-2L18 8.73z"/></symbol><symbol viewBox="0 0 24 24" fill="currentColor" id="kp_icon_external_link"><path d="M20 11a1 1 0 0 0-1 1v6a1 1 0 0 1-1 1H6a1 1 0 0 1-1-1V6a1 1 0 0 1 1-1h6a1 1 0 0 0 0-2H6a3 3 0 0 0-3 3v12a3 3 0 0 0 3 3h12a3 3 0 0 0 3-3v-6a1 1 0 0 0-1-1z"/><path d="M16 5h1.58l-6.29 6.28a1 1 0 0 0 0 1.42 1 1 0 0 0 1.42 0L19 6.42V8a1 1 0 0 0 1 1 1 1 0 0 0 1-1V4a1 1 0 0 0-1-1h-4a1 1 0 0 0 0 2z"/></symbol><symbol viewBox="0 0 24 24" fill="currentColor" id="kp_icon_eye_off"><circle cx="12" cy="12" r="1.5"/><path d="M15.29 18.12L14 16.78l-.07-.07-1.27-1.27a4.07 4.07 0 0 1-.61.06A3.5 3.5 0 0 1 8.5 12a4.07 4.07 0 0 1 .06-.61l-2-2L5 7.87a15.89 15.89 0 0 0-2.87 3.63 1 1 0 0 0 0 1c.63 1.09 4 6.5 9.89 6.5h.25a9.48 9.48 0 0 0 3.23-.67zM8.59 5.76l2.8 2.8A4.07 4.07 0 0 1 12 8.5a3.5 3.5 0 0 1 3.5 3.5 4.07 4.07 0 0 1-.06.61l2.68 2.68.84.84a15.89 15.89 0 0 0 2.91-3.63 1 1 0 0 0 0-1c-.64-1.11-4.16-6.68-10.14-6.5a9.48 9.48 0 0 0-3.23.67zM20.71 19.29L19.41 18l-2-2-9.52-9.53L6.42 5 4.71 3.29a1 1 0 0 0-1.42 1.42L5.53 7l1.75 1.7 7.31 7.3.07.07L16 17.41l.59.59 2.7 2.71a1 1 0 0 0 1.42 0 1 1 0 0 0 0-1.42z"/></symbol><symbol viewBox="0 0 24 24" fill="currentColor" id="kp_icon_eye"><circle cx="12" cy="12" r="1.5"/><path d="M21.87 11.5c-.64-1.11-4.16-6.68-10.14-6.5-5.53.14-8.73 5-9.6 6.5a1 1 0 0 0 0 1c.63 1.09 4 6.5 9.89 6.5h.25c5.53-.14 8.74-5 9.6-6.5a1 1 0 0 0 0-1zm-9.87 4a3.5 3.5 0 1 1 3.5-3.5 3.5 3.5 0 0 1-3.5 3.5z"/></symbol><symbol viewBox="0 0 24 24" fill="currentColor" id="kp_icon_facebook"><path d="M17 3.5a.5.5 0 0 0-.5-.5H14a4.77 4.77 0 0 0-5 4.5v2.7H6.5a.5.5 0 0 0-.5.5v2.6a.5.5 0 0 0 .5.5H9v6.7a.5.5 0 0 0 .5.5h3a.5.5 0 0 0 .5-.5v-6.7h2.62a.5.5 0 0 0 .49-.37l.72-2.6a.5.5 0 0 0-.48-.63H13V7.5a1 1 0 0 1 1-.9h2.5a.5.5 0 0 0 .5-.5z"/></symbol><symbol viewBox="0 0 24 24" fill="currentColor" id="kp_icon_fast_forward"><path d="M20.86 10.67l-5.1-4.21a2.1 2.1 0 0 0-2.21-.26 1.76 1.76 0 0 0-1.05 1.59v2.59L7.76 6.46a2.1 2.1 0 0 0-2.21-.26 1.76 1.76 0 0 0-1 1.59v8.42a1.76 1.76 0 0 0 1 1.59 2.23 2.23 0 0 0 .91.2 2.06 2.06 0 0 0 1.3-.46l4.74-3.92v2.59a1.76 1.76 0 0 0 1.05 1.59 2.23 2.23 0 0 0 .91.2 2.06 2.06 0 0 0 1.3-.46l5.1-4.21a1.7 1.7 0 0 0 0-2.66z"/></symbol><symbol viewBox="0 0 24 24" fill="currentColor" id="kp_icon_file_text"><path d="M19.74 7.33l-4.44-5a1 1 0 0 0-.74-.33h-8A2.53 2.53 0 0 0 4 4.5v15A2.53 2.53 0 0 0 6.56 22h10.88A2.53 2.53 0 0 0 20 19.5V8a1 1 0 0 0-.26-.67zM9 12h3a1 1 0 0 1 0 2H9a1 1 0 0 1 0-2zm6 6H9a1 1 0 0 1 0-2h6a1 1 0 0 1 0 2zm-.29-10a.79.79 0 0 1-.71-.85V4l3.74 4z"/></symbol><symbol viewBox="0 0 24 24" fill="currentColor" id="kp_icon_file"><path d="M19.74 7.33l-4.44-5a1 1 0 0 0-.74-.33h-8A2.53 2.53 0 0 0 4 4.5v15A2.53 2.53 0 0 0 6.56 22h10.88A2.53 2.53 0 0 0 20 19.5V8a1 1 0 0 0-.26-.67zM14 4l3.74 4h-3a.79.79 0 0 1-.74-.85z"/></symbol><symbol viewBox="0 0 24 24" fill="currentColor" id="kp_icon_film"><path d="M18.26 3H5.74A2.74 2.74 0 0 0 3 5.74v12.52A2.74 2.74 0 0 0 5.74 21h12.52A2.74 2.74 0 0 0 21 18.26V5.74A2.74 2.74 0 0 0 18.26 3zM7 11H5V9h2zm-2 2h2v2H5zm14-2h-2V9h2zm-2 2h2v2h-2zm2-7.26V7h-2V5h1.26a.74.74 0 0 1 .74.74zM5.74 5H7v2H5V5.74A.74.74 0 0 1 5.74 5zM5 18.26V17h2v2H5.74a.74.74 0 0 1-.74-.74zm14 0a.74.74 0 0 1-.74.74H17v-2h2z"/></symbol><symbol viewBox="0 0 24 24" fill="currentColor" id="kp_icon_filter"><path d="M13.9 22a1 1 0 0 1-.6-.2l-4-3.05a1 1 0 0 1-.39-.8v-3.27l-4.8-9.22A1 1 0 0 1 5 4h14a1 1 0 0 1 .86.49 1 1 0 0 1 0 1l-5 9.21V21a1 1 0 0 1-.55.9 1 1 0 0 1-.41.1z"/></symbol><symbol viewBox="0 0 24 24" fill="currentColor" id="kp_icon_flag"><path d="M19.27 4.68a1.79 1.79 0 0 0-1.6-.25 7.53 7.53 0 0 1-2.17.28 8.54 8.54 0 0 1-3.13-.78A10.15 10.15 0 0 0 8.5 3c-2.89 0-4 1-4.2 1.14a1 1 0 0 0-.3.72V20a1 1 0 0 0 2 0v-4.3a6.28 6.28 0 0 1 2.5-.41 8.54 8.54 0 0 1 3.13.78 10.15 10.15 0 0 0 3.87.93 7.66 7.66 0 0 0 3.5-.7 1.74 1.74 0 0 0 1-1.55V6.11a1.77 1.77 0 0 0-.73-1.43z"/></symbol><symbol viewBox="0 0 24 24" fill="currentColor" id="kp_icon_folder_plus"><path d="M19.5 7.05h-7L9.87 3.87a1 1 0 0 0-.77-.37H4.5A2.47 2.47 0 0 0 2 5.93v12.14a2.47 2.47 0 0 0 2.5 2.43h15a2.47 2.47 0 0 0 2.5-2.43V9.48a2.47 2.47 0 0 0-2.5-2.43zM14 15h-1v1a1 1 0 0 1-2 0v-1h-1a1 1 0 0 1 0-2h1v-1a1 1 0 0 1 2 0v1h1a1 1 0 0 1 0 2z"/></symbol><symbol viewBox="0 0 24 24" fill="currentColor" id="kp_icon_folder"><path d="M19.5 20.5h-15A2.47 2.47 0 0 1 2 18.07V5.93A2.47 2.47 0 0 1 4.5 3.5h4.6a1 1 0 0 1 .77.37l2.6 3.18h7A2.47 2.47 0 0 1 22 9.48v8.59a2.47 2.47 0 0 1-2.5 2.43z"/></symbol><symbol viewBox="0 0 24 24" fill="currentColor" id="kp_icon_gift"><path d="M4.64 15.27v4.82a.92.92 0 0 0 .92.91h5.62v-5.73zM12.82 21h5.62a.92.92 0 0 0 .92-.91v-4.82h-6.54zM20.1 7.09h-1.84a2.82 2.82 0 0 0 .29-1.23A2.87 2.87 0 0 0 15.68 3 4.21 4.21 0 0 0 12 5.57 4.21 4.21 0 0 0 8.32 3a2.87 2.87 0 0 0-2.87 2.86 2.82 2.82 0 0 0 .29 1.23H3.9c-.5 0-.9.59-.9 1.31v3.93c0 .72.4 1.31.9 1.31h7.28V7.09h1.64v6.55h7.28c.5 0 .9-.59.9-1.31V8.4c0-.72-.4-1.31-.9-1.31zm-11.78 0a1.23 1.23 0 1 1 0-2.45c1.4 0 2.19 1.44 2.58 2.45zm7.36 0H13.1c.39-1 1.18-2.45 2.58-2.45a1.23 1.23 0 1 1 0 2.45z"/></symbol><symbol viewBox="0 0 24 24" fill="currentColor" id="kp_icon_github"><path d="M12 1A10.89 10.89 0 0 0 1 11.77 10.79 10.79 0 0 0 8.52 22c.55.1.75-.23.75-.52v-1.83c-3.06.65-3.71-1.44-3.71-1.44a2.86 2.86 0 0 0-1.22-1.58c-1-.66.08-.65.08-.65a2.31 2.31 0 0 1 1.68 1.11 2.37 2.37 0 0 0 3.2.89 2.33 2.33 0 0 1 .7-1.44c-2.44-.27-5-1.19-5-5.32a4.15 4.15 0 0 1 1.11-2.91 3.78 3.78 0 0 1 .11-2.84s.93-.29 3 1.1a10.68 10.68 0 0 1 5.5 0c2.1-1.39 3-1.1 3-1.1a3.78 3.78 0 0 1 .11 2.84A4.15 4.15 0 0 1 19 11.2c0 4.14-2.58 5.05-5 5.32a2.5 2.5 0 0 1 .75 2v2.95c0 .35.2.63.75.52A10.8 10.8 0 0 0 23 11.77 10.89 10.89 0 0 0 12 1"/></symbol><symbol viewBox="0 0 24 24" fill="currentColor" id="kp_icon_globe"><path d="M12 2a10 10 0 1 0 10 10A10 10 0 0 0 12 2zm0 2a8.19 8.19 0 0 1 1.79.21 2.61 2.61 0 0 1-.78 1c-.22.17-.46.31-.7.46a4.56 4.56 0 0 0-1.85 1.67 6.49 6.49 0 0 0-.62 3.3c0 1.36 0 2.16-.95 2.87-1.37 1.07-3.46.47-4.76-.07A8.33 8.33 0 0 1 4 12a8 8 0 0 1 8-8zm4.89 14.32a6.79 6.79 0 0 0-.63-1.14l-.32-.49c-.39-.68-.25-1 .38-2l.1-.17a4.77 4.77 0 0 0 .58-2.43 5.42 5.42 0 0 1 .09-1c.16-.73 1.71-.93 2.67-1a7.94 7.94 0 0 1-2.86 8.28z"/></symbol><symbol viewBox="0 0 24 24" fill="currentColor" id="kp_icon_grid"><path d="M9 3H5a2 2 0 0 0-2 2v4a2 2 0 0 0 2 2h4a2 2 0 0 0 2-2V5a2 2 0 0 0-2-2zM19 3h-4a2 2 0 0 0-2 2v4a2 2 0 0 0 2 2h4a2 2 0 0 0 2-2V5a2 2 0 0 0-2-2zM9 13H5a2 2 0 0 0-2 2v4a2 2 0 0 0 2 2h4a2 2 0 0 0 2-2v-4a2 2 0 0 0-2-2zM19 13h-4a2 2 0 0 0-2 2v4a2 2 0 0 0 2 2h4a2 2 0 0 0 2-2v-4a2 2 0 0 0-2-2z"/></symbol><symbol viewBox="0 0 24 24" fill="currentColor" id="kp_icon_hard_drive"><path d="M20.79 11.34l-3.34-6.68A3 3 0 0 0 14.76 3H9.24a3 3 0 0 0-2.69 1.66l-3.34 6.68a2 2 0 0 0-.21.9V18a3 3 0 0 0 3 3h12a3 3 0 0 0 3-3v-5.76a2 2 0 0 0-.21-.9zM8 17a1 1 0 1 1 1-1 1 1 0 0 1-1 1zm8 0h-4a1 1 0 0 1 0-2h4a1 1 0 0 1 0 2zM5.62 11l2.72-5.45a1 1 0 0 1 .9-.55h5.52a1 1 0 0 1 .9.55L18.38 11z"/></symbol><symbol viewBox="0 0 24 24" fill="currentColor" id="kp_icon_headphones"><path d="M12 2A10.2 10.2 0 0 0 2 12.37V17a4 4 0 1 0 4-4 3.91 3.91 0 0 0-2 .56v-1.19A8.2 8.2 0 0 1 12 4a8.2 8.2 0 0 1 8 8.37v1.19a3.91 3.91 0 0 0-2-.56 4 4 0 1 0 4 4v-4.63A10.2 10.2 0 0 0 12 2z"/></symbol><symbol viewBox="0 0 24 24" fill="currentColor" id="kp_icon_heart"><path d="M12 21a1 1 0 0 1-.71-.29l-7.77-7.78a5.26 5.26 0 0 1 0-7.4 5.24 5.24 0 0 1 7.4 0L12 6.61l1.08-1.08a5.24 5.24 0 0 1 7.4 0 5.26 5.26 0 0 1 0 7.4l-7.77 7.78A1 1 0 0 1 12 21z"/></symbol><symbol viewBox="0 0 24 24" fill="currentColor" id="kp_icon_home"><path d="M10 14h4v7h-4z"/><path d="M20.42 10.18L12.71 2.3a1 1 0 0 0-1.42 0l-7.71 7.89A2 2 0 0 0 3 11.62V20a2 2 0 0 0 1.89 2H8v-9a1 1 0 0 1 1-1h6a1 1 0 0 1 1 1v9h3.11A2 2 0 0 0 21 20v-8.38a2.07 2.07 0 0 0-.58-1.44z"/></symbol><symbol viewBox="0 0 24 24" fill="currentColor" id="kp_icon_image"><path d="M18 3H6a3 3 0 0 0-3 3v12a3 3 0 0 0 3 3h12a3 3 0 0 0 3-3V6a3 3 0 0 0-3-3zM6 5h12a1 1 0 0 1 1 1v8.36l-3.2-2.73a2.77 2.77 0 0 0-3.52 0L5 17.7V6a1 1 0 0 1 1-1z"/><circle cx="8" cy="8.5" r="1.5"/></symbol><symbol viewBox="0 0 24 24" fill="currentColor" id="kp_icon_inbox"><path d="M20.79 11.34l-3.34-6.68A3 3 0 0 0 14.76 3H9.24a3 3 0 0 0-2.69 1.66l-3.34 6.68a2 2 0 0 0-.21.9V18a3 3 0 0 0 3 3h12a3 3 0 0 0 3-3v-5.76a2 2 0 0 0-.21-.9zM8.34 5.55a1 1 0 0 1 .9-.55h5.52a1 1 0 0 1 .9.55L18.38 11H16a1 1 0 0 0-1 1v2a1 1 0 0 1-1 1h-4a1 1 0 0 1-1-1v-2a1 1 0 0 0-1-1H5.62z"/></symbol><symbol viewBox="0 0 24 24" fill="currentColor" id="kp_icon_info"><path d="M12 2a10 10 0 1 0 10 10A10 10 0 0 0 12 2zm1 14a1 1 0 0 1-2 0v-5a1 1 0 0 1 2 0zm-1-7a1 1 0 1 1 1-1 1 1 0 0 1-1 1z"/></symbol><symbol viewBox="0 0 24 24" fill="currentColor" id="kp_icon_layers"><path d="M3.24 7.29l8.52 4.63a.51.51 0 0 0 .48 0l8.52-4.63a.44.44 0 0 0-.05-.81L12.19 3a.5.5 0 0 0-.38 0L3.29 6.48a.44.44 0 0 0-.05.81z"/><path d="M20.71 10.66l-1.83-.78-6.64 3.61a.51.51 0 0 1-.48 0L5.12 9.88l-1.83.78a.48.48 0 0 0 0 .85l8.52 4.9a.46.46 0 0 0 .48 0l8.52-4.9a.48.48 0 0 0-.1-.85z"/><path d="M20.71 15.1l-1.56-.68-6.91 3.76a.51.51 0 0 1-.48 0l-6.91-3.76-1.56.68a.49.49 0 0 0 0 .87l8.52 5a.51.51 0 0 0 .48 0l8.52-5a.49.49 0 0 0-.1-.87z"/></symbol><symbol viewBox="0 0 24 24" fill="currentColor" id="kp_icon_layout"><path d="M21 8V6a3 3 0 0 0-3-3H6a3 3 0 0 0-3 3v2zM3 10v8a3 3 0 0 0 3 3h5V10zM13 10v11h5a3 3 0 0 0 3-3v-8z"/></symbol><symbol viewBox="0 0 24 24" fill="currentColor" id="kp_icon_link"><path d="M13.29 9.29l-4 4a1 1 0 0 0 0 1.42 1 1 0 0 0 1.42 0l4-4a1 1 0 0 0-1.42-1.42z"/><path d="M12.28 17.4L11 18.67a4.2 4.2 0 0 1-5.58.4 4 4 0 0 1-.27-5.93l1.42-1.43a1 1 0 0 0 0-1.42 1 1 0 0 0-1.42 0l-1.27 1.28a6.15 6.15 0 0 0-.67 8.07 6.06 6.06 0 0 0 9.07.6l1.42-1.42a1 1 0 0 0-1.42-1.42zM19.66 3.22a6.18 6.18 0 0 0-8.13.68L10.45 5a1.09 1.09 0 0 0-.17 1.61 1 1 0 0 0 1.42 0L13 5.3a4.17 4.17 0 0 1 5.57-.4 4 4 0 0 1 .27 5.95l-1.42 1.43a1 1 0 0 0 0 1.42 1 1 0 0 0 1.42 0l1.42-1.42a6.06 6.06 0 0 0-.6-9.06z"/></symbol><symbol viewBox="0 0 24 24" fill="currentColor" id="kp_icon_linkedin"><path d="M15.15 8.4a5.83 5.83 0 0 0-5.85 5.82v5.88a.9.9 0 0 0 .9.9h2.1a.9.9 0 0 0 .9-.9v-5.88a1.94 1.94 0 0 1 2.15-1.93 2 2 0 0 1 1.75 2v5.81a.9.9 0 0 0 .9.9h2.1a.9.9 0 0 0 .9-.9v-5.88a5.83 5.83 0 0 0-5.85-5.82z"/><rect x="3" y="9.3" width="4.5" height="11.7" rx=".9" ry=".9"/><circle cx="5.25" cy="5.25" r="2.25"/></symbol><symbol viewBox="0 0 24 24" fill="currentColor" id="kp_icon_list"><circle cx="4" cy="7" r="1"/><circle cx="4" cy="12" r="1"/><circle cx="4" cy="17" r="1"/><rect x="7" y="11" width="14" height="2" rx=".94" ry=".94"/><rect x="7" y="16" width="14" height="2" rx=".94" ry=".94"/><rect x="7" y="6" width="14" height="2" rx=".94" ry=".94"/></symbol><symbol viewBox="0 0 24 24" fill="currentColor" id="kp_icon_lock"><circle cx="12" cy="15" r="1"/><path d="M17 8h-1V6.11a4 4 0 1 0-8 0V8H7a3 3 0 0 0-3 3v8a3 3 0 0 0 3 3h10a3 3 0 0 0 3-3v-8a3 3 0 0 0-3-3zm-7-1.89A2.06 2.06 0 0 1 12 4a2.06 2.06 0 0 1 2 2.11V8h-4zM12 18a3 3 0 1 1 3-3 3 3 0 0 1-3 3z"/></symbol><symbol viewBox="0 0 24 24" fill="currentColor" id="kp_icon_log_in"><path d="M19 4h-2a1 1 0 0 0 0 2h1v12h-1a1 1 0 0 0 0 2h2a1 1 0 0 0 1-1V5a1 1 0 0 0-1-1zM11.8 7.4a1 1 0 0 0-1.6 1.2L12 11H4a1 1 0 0 0 0 2h8.09l-1.72 2.44a1 1 0 0 0 .24 1.4 1 1 0 0 0 .58.18 1 1 0 0 0 .81-.42l2.82-4a1 1 0 0 0 0-1.18z"/></symbol><symbol viewBox="0 0 24 24" fill="currentColor" id="kp_icon_log_out"><path d="M7 6a1 1 0 0 0 0-2H5a1 1 0 0 0-1 1v14a1 1 0 0 0 1 1h2a1 1 0 0 0 0-2H6V6zM20.82 11.42l-2.82-4a1 1 0 0 0-1.39-.24 1 1 0 0 0-.24 1.4L18.09 11H10a1 1 0 0 0 0 2h8l-1.8 2.4a1 1 0 0 0 .2 1.4 1 1 0 0 0 .6.2 1 1 0 0 0 .8-.4l3-4a1 1 0 0 0 .02-1.18z"/></symbol><symbol viewBox="0 0 24 24" fill="currentColor" id="kp_icon_mail"><path d="M19 4H5a3 3 0 0 0-3 3v10a3 3 0 0 0 3 3h14a3 3 0 0 0 3-3V7a3 3 0 0 0-3-3zm0 2l-6.5 4.47a1 1 0 0 1-1 0L5 6z"/></symbol><symbol viewBox="0 0 24 24" fill="currentColor" id="kp_icon_map_pin"><circle cx="12" cy="9.5" r="1.5"/><path d="M12 2a8 8 0 0 0-8 7.92c0 5.48 7.05 11.58 7.35 11.84a1 1 0 0 0 1.3 0C13 21.5 20 15.4 20 9.92A8 8 0 0 0 12 2zm0 11a3.5 3.5 0 1 1 3.5-3.5A3.5 3.5 0 0 1 12 13z"/></symbol><symbol viewBox="0 0 24 24" fill="currentColor" id="kp_icon_map"><path d="M20.41 5.89l-4-1.8h-.82L12 5.7 8.41 4.09h-.05L8.24 4h-.6l-4 1.8a1 1 0 0 0-.64 1V19a1 1 0 0 0 .46.84A1 1 0 0 0 4 20a1 1 0 0 0 .41-.09L8 18.3l3.59 1.61h.05a.85.85 0 0 0 .72 0h.05L16 18.3l3.59 1.61A1 1 0 0 0 20 20a1 1 0 0 0 .54-.16A1 1 0 0 0 21 19V6.8a1 1 0 0 0-.59-.91zM9 6.55l2 .89v10l-2-.89zm10 10.9l-2-.89v-10l2 .89z"/></symbol><symbol viewBox="0 0 24 24" fill="currentColor" id="kp_icon_maximize"><path d="M20.71 19.29l-3.4-3.39A7.92 7.92 0 0 0 19 11a8 8 0 1 0-8 8 7.92 7.92 0 0 0 4.9-1.69l3.39 3.4a1 1 0 0 0 1.42 0 1 1 0 0 0 0-1.42zM13 12h-1v1a1 1 0 0 1-2 0v-1H9a1 1 0 0 1 0-2h1V9a1 1 0 0 1 2 0v1h1a1 1 0 0 1 0 2z"/></symbol><symbol viewBox="0 0 24 24" fill="currentColor" id="kp_icon_menu"><rect x="3" y="11" width="18" height="2" rx=".95" ry=".95"/><rect x="3" y="16" width="18" height="2" rx=".95" ry=".95"/><rect x="3" y="6" width="18" height="2" rx=".95" ry=".95"/></symbol><symbol viewBox="0 0 24 24" fill="currentColor" id="kp_icon_message_square"><path d="M19 3H5a3 3 0 0 0-3 3v15a1 1 0 0 0 .51.87A1 1 0 0 0 3 22a1 1 0 0 0 .51-.14L8 19.14a1 1 0 0 1 .55-.14H19a3 3 0 0 0 3-3V6a3 3 0 0 0-3-3zM8 12a1 1 0 1 1 1-1 1 1 0 0 1-1 1zm4 0a1 1 0 1 1 1-1 1 1 0 0 1-1 1zm4 0a1 1 0 1 1 1-1 1 1 0 0 1-1 1z"/></symbol><symbol viewBox="0 0 24 24" fill="currentColor" id="kp_icon_mic_off"><path d="M15.58 12.75A4 4 0 0 0 16 11V6a4 4 0 0 0-7.92-.75M19 11a1 1 0 0 0-2 0 4.86 4.86 0 0 1-.69 2.48L17.78 15A7 7 0 0 0 19 11zM12 15h.16L8 10.83V11a4 4 0 0 0 4 4zM20.71 19.29l-16-16a1 1 0 0 0-1.42 1.42l16 16a1 1 0 0 0 1.42 0 1 1 0 0 0 0-1.42z"/><path d="M15 20h-2v-2.08a7 7 0 0 0 1.65-.44l-1.6-1.6A4.57 4.57 0 0 1 12 16a5 5 0 0 1-5-5 1 1 0 0 0-2 0 7 7 0 0 0 6 6.92V20H9a1 1 0 0 0 0 2h6a1 1 0 0 0 0-2z"/></symbol><symbol viewBox="0 0 24 24" fill="currentColor" id="kp_icon_mic"><path d="M12 15a4 4 0 0 0 4-4V6a4 4 0 0 0-8 0v5a4 4 0 0 0 4 4z"/><path d="M19 11a1 1 0 0 0-2 0 5 5 0 0 1-10 0 1 1 0 0 0-2 0 7 7 0 0 0 6 6.92V20H8.89a.89.89 0 0 0-.89.89v.22a.89.89 0 0 0 .89.89h6.22a.89.89 0 0 0 .89-.89v-.22a.89.89 0 0 0-.89-.89H13v-2.08A7 7 0 0 0 19 11z"/></symbol><symbol viewBox="0 0 24 24" fill="currentColor" id="kp_icon_minimize"><path d="M20.71 19.29l-3.4-3.39A7.92 7.92 0 0 0 19 11a8 8 0 1 0-8 8 7.92 7.92 0 0 0 4.9-1.69l3.39 3.4a1 1 0 0 0 1.42 0 1 1 0 0 0 0-1.42zM13 12H9a1 1 0 0 1 0-2h4a1 1 0 0 1 0 2z"/></symbol><symbol viewBox="0 0 24 24" fill="currentColor" id="kp_icon_minus_circle"><path d="M12 2a10 10 0 1 0 10 10A10 10 0 0 0 12 2zm3 11H9a1 1 0 0 1 0-2h6a1 1 0 0 1 0 2z"/></symbol><symbol viewBox="0 0 24 24" fill="currentColor" id="kp_icon_minus_square"><path d="M18 3H6a3 3 0 0 0-3 3v12a3 3 0 0 0 3 3h12a3 3 0 0 0 3-3V6a3 3 0 0 0-3-3zm-3 10H9a1 1 0 0 1 0-2h6a1 1 0 0 1 0 2z"/></symbol><symbol viewBox="0 0 24 24" fill="currentColor" id="kp_icon_minus"><path d="M19 13H5a1 1 0 0 1 0-2h14a1 1 0 0 1 0 2z"/></symbol><symbol viewBox="0 0 24 24" fill="currentColor" id="kp_icon_monitor"><path d="M19 3H5a3 3 0 0 0-3 3v5h20V6a3 3 0 0 0-3-3zM2 14a3 3 0 0 0 3 3h6v2H7a1 1 0 0 0 0 2h10a1 1 0 0 0 0-2h-4v-2h6a3 3 0 0 0 3-3v-1H2z"/></symbol><symbol viewBox="0 0 24 24" fill="currentColor" id="kp_icon_moon"><path d="M12.3 22h-.1a10.31 10.31 0 0 1-7.34-3.15 10.46 10.46 0 0 1-.26-14 10.13 10.13 0 0 1 4-2.74 1 1 0 0 1 1.06.22 1 1 0 0 1 .24 1 8.4 8.4 0 0 0 1.94 8.81 8.47 8.47 0 0 0 8.83 1.94 1 1 0 0 1 1.27 1.29A10.16 10.16 0 0 1 19.6 19a10.28 10.28 0 0 1-7.3 3z"/></symbol><symbol viewBox="0 0 24 24" fill="currentColor" id="kp_icon_more_horizontal"><circle cx="12" cy="12" r="2"/><circle cx="19" cy="12" r="2"/><circle cx="5" cy="12" r="2"/></symbol><symbol viewBox="0 0 24 24" fill="currentColor" id="kp_icon_more_vertical"><circle cx="12" cy="12" r="2"/><circle cx="12" cy="5" r="2"/><circle cx="12" cy="19" r="2"/></symbol><symbol viewBox="0 0 24 24" fill="currentColor" id="kp_icon_move"><path d="M21.71 11.31l-3-3a1 1 0 0 0-1.42 1.42L18.58 11H13V5.41l1.29 1.3A1 1 0 0 0 15 7a1 1 0 0 0 .71-.29 1 1 0 0 0 0-1.42l-3-3A1 1 0 0 0 12 2a1 1 0 0 0-.7.29l-3 3a1 1 0 0 0 1.41 1.42L11 5.42V11H5.41l1.3-1.29a1 1 0 0 0-1.42-1.42l-3 3A1 1 0 0 0 2 12a1 1 0 0 0 .29.71l3 3A1 1 0 0 0 6 16a1 1 0 0 0 .71-.29 1 1 0 0 0 0-1.42L5.42 13H11v5.59l-1.29-1.3a1 1 0 0 0-1.42 1.42l3 3A1 1 0 0 0 12 22a1 1 0 0 0 .7-.29l3-3a1 1 0 0 0-1.42-1.42L13 18.58V13h5.59l-1.3 1.29a1 1 0 0 0 0 1.42A1 1 0 0 0 18 16a1 1 0 0 0 .71-.29l3-3A1 1 0 0 0 22 12a1 1 0 0 0-.29-.69z"/></symbol><symbol viewBox="0 0 24 24" fill="currentColor" id="kp_icon_music"><path d="M19 15V4a1 1 0 0 0-.38-.78 1 1 0 0 0-.84-.2l-9 2A1 1 0 0 0 8 6v8.34a3.49 3.49 0 1 0 2 3.18 4.36 4.36 0 0 0 0-.52V6.8l7-1.55v7.09a3.49 3.49 0 1 0 2 3.17 4.57 4.57 0 0 0 0-.51z"/></symbol><symbol viewBox="0 0 24 24" fill="currentColor" id="kp_icon_navigation"><path d="M13.67 22h-.06a1 1 0 0 1-.92-.8l-1.54-7.57a1 1 0 0 0-.78-.78L2.8 11.31a1 1 0 0 1-.12-1.93l16-5.33A1 1 0 0 1 20 5.32l-5.33 16a1 1 0 0 1-1 .68z"/></symbol><symbol viewBox="0 0 24 24" fill="currentColor" id="kp_icon_paperclip"><path d="M12 22a5.86 5.86 0 0 1-6-5.7V6.13A4.24 4.24 0 0 1 10.33 2a4.24 4.24 0 0 1 4.34 4.13v10.18a2.67 2.67 0 0 1-5.33 0V6.92a1 1 0 0 1 1-1 1 1 0 0 1 1 1v9.39a.67.67 0 0 0 1.33 0V6.13A2.25 2.25 0 0 0 10.33 4 2.25 2.25 0 0 0 8 6.13V16.3a3.86 3.86 0 0 0 4 3.7 3.86 3.86 0 0 0 4-3.7V6.13a1 1 0 1 1 2 0V16.3a5.86 5.86 0 0 1-6 5.7z"/></symbol><symbol viewBox="0 0 24 24" fill="currentColor" id="kp_icon_pause_circle"><path d="M12 2a10 10 0 1 0 10 10A10 10 0 0 0 12 2zm-2 13a1 1 0 0 1-2 0V9a1 1 0 0 1 2 0zm6 0a1 1 0 0 1-2 0V9a1 1 0 0 1 2 0z"/></symbol><symbol viewBox="0 0 24 24" fill="currentColor" id="kp_icon_phone_call"><path d="M13 8a3 3 0 0 1 3 3 1 1 0 0 0 2 0 5 5 0 0 0-5-5 1 1 0 0 0 0 2z"/><path d="M13 4a7 7 0 0 1 7 7 1 1 0 0 0 2 0 9 9 0 0 0-9-9 1 1 0 0 0 0 2zM21.75 15.91a1 1 0 0 0-.72-.65l-6-1.37a1 1 0 0 0-.92.26c-.14.13-.15.14-.8 1.38a9.91 9.91 0 0 1-4.87-4.89C9.71 10 9.72 10 9.85 9.85a1 1 0 0 0 .26-.92L8.74 3a1 1 0 0 0-.65-.72 3.79 3.79 0 0 0-.72-.18A3.94 3.94 0 0 0 6.6 2 4.6 4.6 0 0 0 2 6.6 15.42 15.42 0 0 0 17.4 22a4.6 4.6 0 0 0 4.6-4.6 4.77 4.77 0 0 0-.06-.76 4.34 4.34 0 0 0-.19-.73z"/></symbol><symbol viewBox="0 0 24 24" fill="currentColor" id="kp_icon_phone_missed"><path d="M21.94 16.64a4.34 4.34 0 0 0-.19-.73 1 1 0 0 0-.72-.65l-6-1.37a1 1 0 0 0-.92.26c-.14.13-.15.14-.8 1.38a10 10 0 0 1-4.88-4.89C9.71 10 9.72 10 9.85 9.85a1 1 0 0 0 .26-.92L8.74 3a1 1 0 0 0-.65-.72 3.79 3.79 0 0 0-.72-.18A3.94 3.94 0 0 0 6.6 2 4.6 4.6 0 0 0 2 6.6 15.42 15.42 0 0 0 17.4 22a4.6 4.6 0 0 0 4.6-4.6 4.77 4.77 0 0 0-.06-.76zM15.8 8.7a1.05 1.05 0 0 0 1.47 0L18 8l.73.73a1 1 0 0 0 1.47-1.5l-.73-.73.73-.73a1 1 0 0 0-1.47-1.47L18 5l-.73-.73a1 1 0 0 0-1.47 1.5l.73.73-.73.73a1.05 1.05 0 0 0 0 1.47z"/></symbol><symbol viewBox="0 0 24 24" fill="currentColor" id="kp_icon_phone"><path d="M17.4 22A15.42 15.42 0 0 1 2 6.6 4.6 4.6 0 0 1 6.6 2a3.94 3.94 0 0 1 .77.07 3.79 3.79 0 0 1 .72.18 1 1 0 0 1 .65.75l1.37 6a1 1 0 0 1-.26.92c-.13.14-.14.15-1.37.79a9.91 9.91 0 0 0 4.87 4.89c.65-1.24.66-1.25.8-1.38a1 1 0 0 1 .92-.26l6 1.37a1 1 0 0 1 .72.65 4.34 4.34 0 0 1 .19.73 4.77 4.77 0 0 1 .06.76A4.6 4.6 0 0 1 17.4 22z"/></symbol><symbol viewBox="0 0 24 24" fill="currentColor" id="kp_icon_pie_chart"><path d="M14.5 10.33h6.67A.83.83 0 0 0 22 9.5 7.5 7.5 0 0 0 14.5 2a.83.83 0 0 0-.83.83V9.5a.83.83 0 0 0 .83.83z"/><path d="M21.08 12h-8.15a.91.91 0 0 1-.91-.91V2.92A.92.92 0 0 0 11 2a10 10 0 1 0 11 11 .92.92 0 0 0-.92-1z"/></symbol><symbol viewBox="0 0 24 24" fill="currentColor" id="kp_icon_play_circle"><path d="M11.5 14.6l2.81-2.6-2.81-2.6v5.2z"/><path d="M12 2a10 10 0 1 0 10 10A10 10 0 0 0 12 2zm4 11.18l-3.64 3.37a1.74 1.74 0 0 1-1.16.45 1.68 1.68 0 0 1-.69-.15 1.6 1.6 0 0 1-1-1.48V8.63a1.6 1.6 0 0 1 1-1.48 1.7 1.7 0 0 1 1.85.3L16 10.82a1.6 1.6 0 0 1 0 2.36z"/></symbol><symbol viewBox="0 0 24 24" fill="currentColor" id="kp_icon_plus_circle"><path d="M12 2a10 10 0 1 0 10 10A10 10 0 0 0 12 2zm3 11h-2v2a1 1 0 0 1-2 0v-2H9a1 1 0 0 1 0-2h2V9a1 1 0 0 1 2 0v2h2a1 1 0 0 1 0 2z"/></symbol><symbol viewBox="0 0 24 24" fill="currentColor" id="kp_icon_plus_square"><path d="M18 3H6a3 3 0 0 0-3 3v12a3 3 0 0 0 3 3h12a3 3 0 0 0 3-3V6a3 3 0 0 0-3-3zm-3 10h-2v2a1 1 0 0 1-2 0v-2H9a1 1 0 0 1 0-2h2V9a1 1 0 0 1 2 0v2h2a1 1 0 0 1 0 2z"/></symbol><symbol viewBox="0 0 24 24" fill="currentColor" id="kp_icon_plus"><path d="M19 11h-6V5a1 1 0 0 0-2 0v6H5a1 1 0 0 0 0 2h6v6a1 1 0 0 0 2 0v-6h6a1 1 0 0 0 0-2z"/></symbol><symbol viewBox="0 0 24 24" fill="currentColor" id="kp_icon_power"><path d="M12 13a1 1 0 0 0 1-1V2a1 1 0 0 0-2 0v10a1 1 0 0 0 1 1z"/><path d="M16.59 3.11a1 1 0 0 0-.92 1.78 8 8 0 1 1-7.34 0 1 1 0 1 0-.92-1.78 10 10 0 1 0 9.18 0z"/></symbol><symbol viewBox="0 0 24 24" fill="currentColor" id="kp_icon_printer"><path d="M19.36 7H18V5a1.92 1.92 0 0 0-1.83-2H7.83A1.92 1.92 0 0 0 6 5v2H4.64A2.66 2.66 0 0 0 2 9.67v6.66A2.66 2.66 0 0 0 4.64 19h.86a2 2 0 0 0 2 2h9a2 2 0 0 0 2-2h.86A2.66 2.66 0 0 0 22 16.33V9.67A2.66 2.66 0 0 0 19.36 7zM8 5h8v2H8zm-.5 14v-4h9v4z"/></symbol><symbol viewBox="0 0 24 24" fill="currentColor" id="kp_icon_radio"><path d="M12 8a3 3 0 0 0-1 5.83 1 1 0 0 0 0 .17v6a1 1 0 0 0 2 0v-6a1 1 0 0 0 0-.17A3 3 0 0 0 12 8zM3.5 11a6.87 6.87 0 0 1 2.64-5.23 1 1 0 1 0-1.28-1.54A8.84 8.84 0 0 0 1.5 11a8.84 8.84 0 0 0 3.36 6.77 1 1 0 1 0 1.28-1.54A6.87 6.87 0 0 1 3.5 11z"/><path d="M16.64 6.24a1 1 0 0 0-1.28 1.52A4.28 4.28 0 0 1 17 11a4.28 4.28 0 0 1-1.64 3.24A1 1 0 0 0 16 16a1 1 0 0 0 .64-.24A6.2 6.2 0 0 0 19 11a6.2 6.2 0 0 0-2.36-4.76zM8.76 6.36a1 1 0 0 0-1.4-.12A6.2 6.2 0 0 0 5 11a6.2 6.2 0 0 0 2.36 4.76 1 1 0 0 0 1.4-.12 1 1 0 0 0-.12-1.4A4.28 4.28 0 0 1 7 11a4.28 4.28 0 0 1 1.64-3.24 1 1 0 0 0 .12-1.4z"/><path d="M19.14 4.23a1 1 0 1 0-1.28 1.54A6.87 6.87 0 0 1 20.5 11a6.87 6.87 0 0 1-2.64 5.23 1 1 0 0 0 1.28 1.54A8.84 8.84 0 0 0 22.5 11a8.84 8.84 0 0 0-3.36-6.77z"/></symbol><symbol viewBox="0 0 24 24" fill="currentColor" id="kp_icon_refresh"><path d="M20.3 13.43a1 1 0 0 0-1.25.65A7.14 7.14 0 0 1 12.18 19 7.1 7.1 0 0 1 5 12a7.1 7.1 0 0 1 7.18-7 7.26 7.26 0 0 1 4.65 1.67l-2.17-.36a1 1 0 0 0-1.15.83 1 1 0 0 0 .83 1.15l4.24.7h.17a1 1 0 0 0 .34-.06.33.33 0 0 0 .1-.06.78.78 0 0 0 .2-.11l.09-.11c0-.05.09-.09.13-.15s0-.1.05-.14a1.34 1.34 0 0 0 .07-.18l.75-4a1 1 0 0 0-2-.38l-.27 1.45A9.21 9.21 0 0 0 12.18 3 9.1 9.1 0 0 0 3 12a9.1 9.1 0 0 0 9.18 9A9.12 9.12 0 0 0 21 14.68a1 1 0 0 0-.7-1.25z"/></symbol><symbol viewBox="0 0 24 24" fill="currentColor" id="kp_icon_repeat"><path d="M17.91 5h-12l1.3-1.29a1 1 0 0 0-1.42-1.42l-3 3a1 1 0 0 0 0 1.42l3 3a1 1 0 0 0 1.42 0 1 1 0 0 0 0-1.42L5.91 7h12a1.56 1.56 0 0 1 1.59 1.53V11a1 1 0 0 0 2 0V8.53A3.56 3.56 0 0 0 17.91 5zM18.21 14.29a1 1 0 0 0-1.42 1.42l1.3 1.29h-12a1.56 1.56 0 0 1-1.59-1.53V13a1 1 0 0 0-2 0v2.47A3.56 3.56 0 0 0 6.09 19h12l-1.3 1.29a1 1 0 0 0 0 1.42 1 1 0 0 0 1.42 0l3-3a1 1 0 0 0 0-1.42z"/></symbol><symbol viewBox="0 0 24 24" fill="currentColor" id="kp_icon_reply"><path d="M20.22 21a1 1 0 0 1-1-.76 8.91 8.91 0 0 0-7.8-6.69v1.12a1.78 1.78 0 0 1-1.09 1.64A2 2 0 0 1 8.18 16l-5.06-4.41a1.76 1.76 0 0 1 0-2.68l5.06-4.42a2 2 0 0 1 2.18-.3 1.78 1.78 0 0 1 1.09 1.64V7A10.89 10.89 0 0 1 21.5 17.75a10.29 10.29 0 0 1-.31 2.49 1 1 0 0 1-1 .76z"/></symbol><symbol viewBox="0 0 24 24" fill="currentColor" id="kp_icon_rewind"><path d="M18.45 6.2a2.1 2.1 0 0 0-2.21.26l-4.74 3.92V7.79a1.76 1.76 0 0 0-1.05-1.59 2.1 2.1 0 0 0-2.21.26l-5.1 4.21a1.7 1.7 0 0 0 0 2.66l5.1 4.21a2.06 2.06 0 0 0 1.3.46 2.23 2.23 0 0 0 .91-.2 1.76 1.76 0 0 0 1.05-1.59v-2.59l4.74 3.92a2.06 2.06 0 0 0 1.3.46 2.23 2.23 0 0 0 .91-.2 1.76 1.76 0 0 0 1.05-1.59V7.79a1.76 1.76 0 0 0-1.05-1.59z"/></symbol><symbol viewBox="0 0 24 24" fill="currentColor" id="kp_icon_save"><path d="M10 17h4v4h-4z"/><path d="M20.12 8.71l-4.83-4.83A3 3 0 0 0 13.17 3H10v6h5a1 1 0 0 1 0 2H9a1 1 0 0 1-1-1V3H6a3 3 0 0 0-3 3v12a3 3 0 0 0 3 3h2v-4a2 2 0 0 1 2-2h4a2 2 0 0 1 2 2v4h2a3 3 0 0 0 3-3v-7.17a3 3 0 0 0-.88-2.12z"/></symbol><symbol viewBox="0 0 24 24" fill="currentColor" id="kp_icon_scissors"><path d="M20.21 5.71a1 1 0 1 0-1.42-1.42l-6.28 6.31-3.3-3.31A3 3 0 0 0 9.5 6a3 3 0 1 0-3 3 3 3 0 0 0 1.29-.3L11.1 12l-3.29 3.3A3 3 0 0 0 6.5 15a3 3 0 1 0 3 3 3 3 0 0 0-.29-1.26zM6.5 7a1 1 0 1 1 1-1 1 1 0 0 1-1 1zm0 12a1 1 0 1 1 1-1 1 1 0 0 1-1 1z"/><path d="M15.21 13.29a1 1 0 0 0-1.42 1.42l5 5a1 1 0 0 0 1.42 0 1 1 0 0 0 0-1.42z"/></symbol><symbol viewBox="0 0 24 24" fill="currentColor" id="kp_icon_search"><path d="M20.71 19.29l-3.4-3.39A7.92 7.92 0 0 0 19 11a8 8 0 1 0-8 8 7.92 7.92 0 0 0 4.9-1.69l3.39 3.4a1 1 0 0 0 1.42 0 1 1 0 0 0 0-1.42zM5 11a6 6 0 1 1 6 6 6 6 0 0 1-6-6z"/></symbol><symbol viewBox="0 0 24 24" fill="currentColor" id="kp_icon_send"><path d="M21 4a1.31 1.31 0 0 0-.06-.27v-.09a1 1 0 0 0-.2-.3 1 1 0 0 0-.29-.19h-.09a.86.86 0 0 0-.31-.15H20a1 1 0 0 0-.3 0l-18 6a1 1 0 0 0 0 1.9l8.53 2.84 2.84 8.53a1 1 0 0 0 1.9 0l6-18A1 1 0 0 0 21 4zm-4.7 2.29l-5.57 5.57L5.16 10zM14 18.84l-1.86-5.57 5.57-5.57z"/></symbol><symbol viewBox="0 0 24 24" fill="currentColor" id="kp_icon_settings"><circle cx="12" cy="12" r="1.5"/><path d="M21.89 10.32L21.1 7.8a2.26 2.26 0 0 0-2.88-1.51l-.34.11a1.74 1.74 0 0 1-1.59-.26l-.11-.08a1.76 1.76 0 0 1-.69-1.43v-.28a2.37 2.37 0 0 0-.68-1.68 2.26 2.26 0 0 0-1.6-.67h-2.55a2.32 2.32 0 0 0-2.29 2.33v.24a1.94 1.94 0 0 1-.73 1.51l-.13.1a1.93 1.93 0 0 1-1.78.29 2.14 2.14 0 0 0-1.68.12 2.18 2.18 0 0 0-1.12 1.33l-.82 2.6a2.34 2.34 0 0 0 1.48 2.94h.16a1.83 1.83 0 0 1 1.12 1.22l.06.16a2.06 2.06 0 0 1-.23 1.86 2.37 2.37 0 0 0 .49 3.3l2.07 1.57a2.25 2.25 0 0 0 1.35.43A2 2 0 0 0 9 22a2.25 2.25 0 0 0 1.47-1l.23-.33a1.8 1.8 0 0 1 1.43-.77 1.75 1.75 0 0 1 1.5.78l.12.17a2.24 2.24 0 0 0 3.22.53L19 19.86a2.38 2.38 0 0 0 .5-3.23l-.26-.38A2 2 0 0 1 19 14.6a1.89 1.89 0 0 1 1.21-1.28l.2-.07a2.36 2.36 0 0 0 1.48-2.93zM12 15.5a3.5 3.5 0 1 1 3.5-3.5 3.5 3.5 0 0 1-3.5 3.5z"/></symbol><symbol viewBox="0 0 24 24" fill="currentColor" id="kp_icon_share"><path d="M18 15a3 3 0 0 0-2.1.86L8 12.34v-.67l7.9-3.53A3 3 0 1 0 15 6v.34L7.1 9.86a3 3 0 1 0 0 4.28l7.9 3.53V18a3 3 0 1 0 3-3z"/></symbol><symbol viewBox="0 0 24 24" fill="currentColor" id="kp_icon_shield"><path d="M12 21.85a2 2 0 0 1-1-.25l-.3-.17A15.17 15.17 0 0 1 3 8.23v-.14a2 2 0 0 1 1-1.75l7-3.94a2 2 0 0 1 2 0l7 3.94a2 2 0 0 1 1 1.75v.14a15.17 15.17 0 0 1-7.72 13.2l-.3.17a2 2 0 0 1-.98.25z"/></symbol><symbol viewBox="0 0 24 24" fill="currentColor" id="kp_icon_shopping_bag"><path d="M20.12 6.71l-2.83-2.83A3 3 0 0 0 15.17 3H8.83a3 3 0 0 0-2.12.88L3.88 6.71A3 3 0 0 0 3 8.83V18a3 3 0 0 0 3 3h12a3 3 0 0 0 3-3V8.83a3 3 0 0 0-.88-2.12zM12 16a4 4 0 0 1-4-4 1 1 0 0 1 2 0 2 2 0 0 0 4 0 1 1 0 0 1 2 0 4 4 0 0 1-4 4zM6.41 7l1.71-1.71A1.05 1.05 0 0 1 8.83 5h6.34a1.05 1.05 0 0 1 .71.29L17.59 7z"/></symbol><symbol viewBox="0 0 24 24" fill="currentColor" id="kp_icon_shopping_cart"><path d="M21.08 7a2 2 0 0 0-1.7-1H6.58L6 3.74A1 1 0 0 0 5 3H3a1 1 0 0 0 0 2h1.24L7 15.26A1 1 0 0 0 8 16h9a1 1 0 0 0 .89-.55l3.28-6.56A2 2 0 0 0 21.08 7z"/><circle cx="7.5" cy="19.5" r="1.5"/><circle cx="17.5" cy="19.5" r="1.5"/></symbol><symbol viewBox="0 0 24 24" fill="currentColor" id="kp_icon_shuffle"><path d="M18.71 14.29a1 1 0 0 0-1.42 1.42l.29.29H16a4 4 0 0 1 0-8h1.59l-.3.29a1 1 0 0 0 0 1.42A1 1 0 0 0 18 10a1 1 0 0 0 .71-.29l2-2A1 1 0 0 0 21 7a1 1 0 0 0-.29-.71l-2-2a1 1 0 0 0-1.42 1.42l.29.29H16a6 6 0 0 0-5 2.69A6 6 0 0 0 6 6H4a1 1 0 0 0 0 2h2a4 4 0 0 1 0 8H4a1 1 0 0 0 0 2h2a6 6 0 0 0 5-2.69A6 6 0 0 0 16 18h1.59l-.3.29a1 1 0 0 0 0 1.42A1 1 0 0 0 18 20a1 1 0 0 0 .71-.29l2-2A1 1 0 0 0 21 17a1 1 0 0 0-.29-.71z"/></symbol><symbol viewBox="0 0 24 24" fill="currentColor" id="kp_icon_skip_back"><path d="M16.45 6.2a2.1 2.1 0 0 0-2.21.26l-5.1 4.21-.14.15V7a1 1 0 0 0-2 0v10a1 1 0 0 0 2 0v-3.82l.14.15 5.1 4.21a2.06 2.06 0 0 0 1.3.46 2.23 2.23 0 0 0 .91-.2 1.76 1.76 0 0 0 1.05-1.59V7.79a1.76 1.76 0 0 0-1.05-1.59z"/></symbol><symbol viewBox="0 0 24 24" fill="currentColor" id="kp_icon_skip_forward"><path d="M16 6a1 1 0 0 0-1 1v3.82l-.14-.15-5.1-4.21a2.1 2.1 0 0 0-2.21-.26 1.76 1.76 0 0 0-1 1.59v8.42a1.76 1.76 0 0 0 1 1.59 2.23 2.23 0 0 0 .91.2 2.06 2.06 0 0 0 1.3-.46l5.1-4.21.14-.15V17a1 1 0 0 0 2 0V7a1 1 0 0 0-1-1z"/></symbol><symbol viewBox="0 0 24 24" fill="currentColor" id="kp_icon_slash"><path d="M12 2a10 10 0 1 0 10 10A10 10 0 0 0 12 2zm8 10a7.92 7.92 0 0 1-1.69 4.9L7.1 5.69A7.92 7.92 0 0 1 12 4a8 8 0 0 1 8 8zM4 12a7.92 7.92 0 0 1 1.69-4.9L16.9 18.31A7.92 7.92 0 0 1 12 20a8 8 0 0 1-8-8z"/></symbol><symbol viewBox="0 0 24 24" fill="currentColor" id="kp_icon_sliders"><path d="M19 9a3 3 0 0 0-2.82 2H3a1 1 0 0 0 0 2h13.18A3 3 0 1 0 19 9zM3 7h1.18a3 3 0 0 0 5.64 0H21a1 1 0 0 0 0-2H9.82a3 3 0 0 0-5.64 0H3a1 1 0 0 0 0 2zM21 17h-7.18a3 3 0 0 0-5.64 0H3a1 1 0 0 0 0 2h5.18a3 3 0 0 0 5.64 0H21a1 1 0 0 0 0-2z"/></symbol><symbol viewBox="0 0 24 24" fill="currentColor" id="kp_icon_smartphone"><path d="M17 2H7a3 3 0 0 0-3 3v14a3 3 0 0 0 3 3h10a3 3 0 0 0 3-3V5a3 3 0 0 0-3-3zm-5 16a1.5 1.5 0 1 1 1.5-1.5A1.5 1.5 0 0 1 12 18zm2.5-10h-5a1 1 0 0 1 0-2h5a1 1 0 0 1 0 2z"/></symbol><symbol viewBox="0 0 24 24" fill="currentColor" id="kp_icon_speaker"><circle cx="12" cy="15.5" r="1.5"/><circle cx="12" cy="8" r="1"/><path d="M17 2H7a3 3 0 0 0-3 3v14a3 3 0 0 0 3 3h10a3 3 0 0 0 3-3V5a3 3 0 0 0-3-3zm-5 3a3 3 0 1 1-3 3 3 3 0 0 1 3-3zm0 14a3.5 3.5 0 1 1 3.5-3.5A3.5 3.5 0 0 1 12 19z"/></symbol><symbol viewBox="0 0 24 24" fill="currentColor" id="kp_icon_square"><path d="M18 21H6a3 3 0 0 1-3-3V6a3 3 0 0 1 3-3h12a3 3 0 0 1 3 3v12a3 3 0 0 1-3 3zM6 5a1 1 0 0 0-1 1v12a1 1 0 0 0 1 1h12a1 1 0 0 0 1-1V6a1 1 0 0 0-1-1z"/></symbol><symbol viewBox="0 0 24 24" fill="currentColor" id="kp_icon_star"><path d="M17.56 21a1 1 0 0 1-.46-.11L12 18.22l-5.1 2.67a1 1 0 0 1-1.45-1.06l1-5.63-4.12-4a1 1 0 0 1-.25-1 1 1 0 0 1 .81-.68l5.7-.83 2.51-5.13a1 1 0 0 1 1.8 0l2.54 5.12 5.7.83a1 1 0 0 1 .81.68 1 1 0 0 1-.25 1l-4.12 4 1 5.63a1 1 0 0 1-.4 1 1 1 0 0 1-.62.18z"/></symbol><symbol viewBox="0 0 24 24" fill="currentColor" id="kp_icon_sun"><path d="M12 6a1 1 0 0 0 1-1V3a1 1 0 0 0-2 0v2a1 1 0 0 0 1 1zM21 11h-2a1 1 0 0 0 0 2h2a1 1 0 0 0 0-2zM6 12a1 1 0 0 0-1-1H3a1 1 0 0 0 0 2h2a1 1 0 0 0 1-1zM6.22 5a1 1 0 0 0-1.39 1.47l1.44 1.39a1 1 0 0 0 .73.28 1 1 0 0 0 .72-.31 1 1 0 0 0 0-1.41zM17 8.14a1 1 0 0 0 .69-.28l1.44-1.39A1 1 0 0 0 17.78 5l-1.44 1.42a1 1 0 0 0 0 1.41 1 1 0 0 0 .66.31zM12 18a1 1 0 0 0-1 1v2a1 1 0 0 0 2 0v-2a1 1 0 0 0-1-1zM17.73 16.14a1 1 0 0 0-1.39 1.44L17.78 19a1 1 0 0 0 .69.28 1 1 0 0 0 .72-.3 1 1 0 0 0 0-1.42zM6.27 16.14l-1.44 1.39a1 1 0 0 0 0 1.42 1 1 0 0 0 .72.3 1 1 0 0 0 .67-.25l1.44-1.39a1 1 0 0 0-1.39-1.44zM12 8a4 4 0 1 0 4 4 4 4 0 0 0-4-4z"/></symbol><symbol viewBox="0 0 24 24" fill="currentColor" id="kp_icon_sync"><path d="M21.66 10.37a.62.62 0 0 0 .07-.19l.75-4a1 1 0 0 0-2-.36l-.37 2a9.22 9.22 0 0 0-16.58.84 1 1 0 0 0 .55 1.3 1 1 0 0 0 1.31-.55A7.08 7.08 0 0 1 12.07 5a7.17 7.17 0 0 1 6.24 3.58l-1.65-.27a1 1 0 1 0-.32 2l4.25.71h.16a.93.93 0 0 0 .34-.06.33.33 0 0 0 .1-.06.78.78 0 0 0 .2-.11l.08-.1a1.07 1.07 0 0 0 .14-.16.58.58 0 0 0 .05-.16zM19.88 14.07a1 1 0 0 0-1.31.56A7.08 7.08 0 0 1 11.93 19a7.17 7.17 0 0 1-6.24-3.58l1.65.27h.16a1 1 0 0 0 .16-2L3.41 13a.91.91 0 0 0-.33 0H3a1.15 1.15 0 0 0-.32.14 1 1 0 0 0-.18.18l-.09.1a.84.84 0 0 0-.07.19.44.44 0 0 0-.07.17l-.75 4a1 1 0 0 0 .8 1.22h.18a1 1 0 0 0 1-.82l.37-2a9.22 9.22 0 0 0 16.58-.83 1 1 0 0 0-.57-1.28z"/></symbol><symbol viewBox="0 0 24 24" fill="currentColor" id="kp_icon_tag"><path d="M21.47 11.58l-6.42-6.41a1 1 0 0 0-.61-.29L5.09 4a1 1 0 0 0-.8.29 1 1 0 0 0-.29.8l.88 9.35a1 1 0 0 0 .29.61l6.41 6.42a1.84 1.84 0 0 0 1.29.53 1.82 1.82 0 0 0 1.28-.53l7.32-7.32a1.82 1.82 0 0 0 0-2.57zm-9.91 0a1.5 1.5 0 1 1 0-2.12 1.49 1.49 0 0 1 0 2.1z"/></symbol><symbol viewBox="0 0 24 24" fill="currentColor" id="kp_icon_toggle_left"><path d="M15 5H9a7 7 0 0 0 0 14h6a7 7 0 0 0 0-14zM9 15a3 3 0 1 1 3-3 3 3 0 0 1-3 3z"/><path d="M9 11a1 1 0 1 0 0 2 1 1 0 0 0 0-2z"/></symbol><symbol viewBox="0 0 24 24" fill="currentColor" id="kp_icon_toggle_right"><circle cx="15" cy="12" r="1"/><path d="M15 5H9a7 7 0 0 0 0 14h6a7 7 0 0 0 0-14zm0 10a3 3 0 1 1 3-3 3 3 0 0 1-3 3z"/></symbol><symbol viewBox="0 0 24 24" fill="currentColor" id="kp_icon_trash"><path d="M21 6h-5V4.33A2.42 2.42 0 0 0 13.5 2h-3A2.42 2.42 0 0 0 8 4.33V6H3a1 1 0 0 0 0 2h1v11a3 3 0 0 0 3 3h10a3 3 0 0 0 3-3V8h1a1 1 0 0 0 0-2zM10 16a1 1 0 0 1-2 0v-4a1 1 0 0 1 2 0zm0-11.67c0-.16.21-.33.5-.33h3c.29 0 .5.17.5.33V6h-4zM16 16a1 1 0 0 1-2 0v-4a1 1 0 0 1 2 0z"/></symbol><symbol viewBox="0 0 24 24" fill="currentColor" id="kp_icon_trending_down"><path d="M21 12a1 1 0 0 0-2 0v2.3l-4.24-5a1 1 0 0 0-1.27-.21L9.22 11.7 4.77 6.36a1 1 0 1 0-1.54 1.28l5 6a1 1 0 0 0 1.28.22l4.28-2.57 4 4.71H15a1 1 0 0 0 0 2h5a1.1 1.1 0 0 0 .36-.07l.14-.08a1.19 1.19 0 0 0 .15-.09.75.75 0 0 0 .14-.17 1.1 1.1 0 0 0 .09-.14.64.64 0 0 0 .05-.17A.78.78 0 0 0 21 17z"/></symbol><symbol viewBox="0 0 24 24" fill="currentColor" id="kp_icon_trending_up"><path d="M21 7a.78.78 0 0 0 0-.21.64.64 0 0 0-.05-.17 1.1 1.1 0 0 0-.09-.14.75.75 0 0 0-.14-.17l-.12-.07a.69.69 0 0 0-.19-.1h-.2A.7.7 0 0 0 20 6h-5a1 1 0 0 0 0 2h2.83l-4 4.71-4.32-2.57a1 1 0 0 0-1.28.22l-5 6a1 1 0 0 0 .13 1.41A1 1 0 0 0 4 18a1 1 0 0 0 .77-.36l4.45-5.34 4.27 2.56a1 1 0 0 0 1.27-.21L19 9.7V12a1 1 0 0 0 2 0V7z"/></symbol><symbol viewBox="0 0 24 24" fill="currentColor" id="kp_icon_truck"><path d="M21.6 11.22L17 7.52V5a1.91 1.91 0 0 0-1.81-2H3.79A1.91 1.91 0 0 0 2 5v10a2 2 0 0 0 1.2 1.88 3 3 0 1 0 5.6.12h6.36a3 3 0 1 0 5.64 0h.2a1 1 0 0 0 1-1v-4a1 1 0 0 0-.4-.78zM20 12.48V15h-3v-4.92zM7 18a1 1 0 1 1-1-1 1 1 0 0 1 1 1zm12 0a1 1 0 1 1-1-1 1 1 0 0 1 1 1z"/></symbol><symbol viewBox="0 0 24 24" fill="currentColor" id="kp_icon_tv"><path d="M18 6h-3.59l2.3-2.29a1 1 0 1 0-1.42-1.42L12 5.59l-3.29-3.3a1 1 0 1 0-1.42 1.42L9.59 6H6a3 3 0 0 0-3 3v10a3 3 0 0 0 3 3h12a3 3 0 0 0 3-3V9a3 3 0 0 0-3-3zm1 13a1 1 0 0 1-1 1H6a1 1 0 0 1-1-1v-7a1 1 0 0 1 1-1h12a1 1 0 0 1 1 1z"/></symbol><symbol viewBox="0 0 24 24" fill="currentColor" id="kp_icon_twitter"><path d="M8.08 20A11.07 11.07 0 0 0 19.52 9 8.09 8.09 0 0 0 21 6.16a.44.44 0 0 0-.62-.51 1.88 1.88 0 0 1-2.16-.38 3.89 3.89 0 0 0-5.58-.17A4.13 4.13 0 0 0 11.49 9C8.14 9.2 5.84 7.61 4 5.43a.43.43 0 0 0-.75.24 9.68 9.68 0 0 0 4.6 10.05A6.73 6.73 0 0 1 3.38 18a.45.45 0 0 0-.14.84A11 11 0 0 0 8.08 20"/></symbol><symbol viewBox="0 0 24 24" fill="currentColor" id="kp_icon_unlock"><circle cx="12" cy="15" r="1"/><path d="M17 8h-7V6a2 2 0 0 1 4 0 1 1 0 0 0 2 0 4 4 0 0 0-8 0v2H7a3 3 0 0 0-3 3v8a3 3 0 0 0 3 3h10a3 3 0 0 0 3-3v-8a3 3 0 0 0-3-3zm-5 10a3 3 0 1 1 3-3 3 3 0 0 1-3 3z"/></symbol><symbol viewBox="0 0 24 24" fill="currentColor" id="kp_icon_upload_cloud"><path d="M21.9 12c0-.11-.06-.22-.09-.33a4.17 4.17 0 0 0-.18-.57l-.18-.37c-.06-.13-.15-.3-.24-.44S21 10.08 21 10s-.2-.25-.31-.37-.21-.2-.32-.3L20 9l-.36-.24a3.68 3.68 0 0 0-.44-.23l-.39-.18a4.13 4.13 0 0 0-.5-.15 3 3 0 0 0-.41-.09L17.67 8A6 6 0 0 0 6.33 8l-.18.05a3 3 0 0 0-.41.09 4.13 4.13 0 0 0-.5.15l-.39.18a3.68 3.68 0 0 0-.44.23l-.36.3-.37.31c-.11.1-.22.19-.32.3l-.31.37c-.1.12-.18.23-.26.36l-.24.44-.18.37a4.17 4.17 0 0 0-.18.57c0 .11-.07.22-.09.33A5.23 5.23 0 0 0 2 13a5.5 5.5 0 0 0 .09.91c0 .1.05.19.07.29a5.58 5.58 0 0 0 .18.58l.12.29a5 5 0 0 0 .3.56l.14.22a.56.56 0 0 0 .05.08L3 16a5 5 0 0 0 4 2h3v-1.37a2 2 0 0 1-1 .27 2.05 2.05 0 0 1-1.44-.61 2 2 0 0 1 .05-2.83l3-2.9A2 2 0 0 1 12 10a2 2 0 0 1 1.41.59l3 3a2 2 0 0 1 0 2.82A2 2 0 0 1 15 17a1.92 1.92 0 0 1-1-.27V18h3a5 5 0 0 0 4-2l.05-.05a.56.56 0 0 0 .05-.08l.14-.22a5 5 0 0 0 .3-.56l.12-.29a5.58 5.58 0 0 0 .18-.58c0-.1.05-.19.07-.29A5.5 5.5 0 0 0 22 13a5.23 5.23 0 0 0-.1-1z"/><path d="M12.71 11.29a1 1 0 0 0-1.4 0l-3 2.9a1 1 0 1 0 1.38 1.44L11 14.36V20a1 1 0 0 0 2 0v-5.59l1.29 1.3a1 1 0 0 0 1.42 0 1 1 0 0 0 0-1.42z"/></symbol><symbol viewBox="0 0 24 24" fill="currentColor" id="kp_icon_upload"><rect x="4" y="4" width="16" height="2" rx="1" ry="1" transform="rotate(180 12 5)"/><rect x="17" y="5" width="4" height="2" rx="1" ry="1" transform="rotate(90 19 6)"/><rect x="3" y="5" width="4" height="2" rx="1" ry="1" transform="rotate(90 5 6)"/><path d="M8 14a1 1 0 0 1-.8-.4 1 1 0 0 1 .2-1.4l4-3a1 1 0 0 1 1.18 0l4 2.82a1 1 0 0 1 .24 1.39 1 1 0 0 1-1.4.24L12 11.24 8.6 13.8a1 1 0 0 1-.6.2z"/><path d="M12 21a1 1 0 0 1-1-1v-8a1 1 0 0 1 2 0v8a1 1 0 0 1-1 1z"/></symbol><symbol viewBox="0 0 24 24" fill="currentColor" id="kp_icon_user_check"><path d="M21.66 4.25a1 1 0 0 0-1.41.09l-1.87 2.15-.63-.71a1 1 0 0 0-1.5 1.33l1.39 1.56a1 1 0 0 0 .75.33 1 1 0 0 0 .74-.34l2.61-3a1 1 0 0 0-.08-1.41zM10 11a4 4 0 1 0-4-4 4 4 0 0 0 4 4zM16 21a1 1 0 0 0 1-1 7 7 0 0 0-14 0 1 1 0 0 0 1 1"/></symbol><symbol viewBox="0 0 24 24" fill="currentColor" id="kp_icon_user_plus"><path d="M21 6h-1V5a1 1 0 0 0-2 0v1h-1a1 1 0 0 0 0 2h1v1a1 1 0 0 0 2 0V8h1a1 1 0 0 0 0-2zM10 11a4 4 0 1 0-4-4 4 4 0 0 0 4 4zM16 21a1 1 0 0 0 1-1 7 7 0 0 0-14 0 1 1 0 0 0 1 1"/></symbol><symbol viewBox="0 0 24 24" fill="currentColor" id="kp_icon_user"><path d="M12 11a4 4 0 1 0-4-4 4 4 0 0 0 4 4zM18 21a1 1 0 0 0 1-1 7 7 0 0 0-14 0 1 1 0 0 0 1 1z"/></symbol><symbol viewBox="0 0 24 24" fill="currentColor" id="kp_icon_users"><path d="M9 11a4 4 0 1 0-4-4 4 4 0 0 0 4 4zM17 13a3 3 0 1 0-3-3 3 3 0 0 0 3 3zM21 20a1 1 0 0 0 1-1 5 5 0 0 0-8.06-3.95A7 7 0 0 0 2 20a1 1 0 0 0 1 1h12a1 1 0 0 0 1-1"/></symbol><symbol viewBox="0 0 24 24" fill="currentColor" id="kp_icon_video_off"><path d="M14.22 17.05L4.88 7.71 3.12 6 3 5.8A3 3 0 0 0 2 8v8a3 3 0 0 0 3 3h9a2.94 2.94 0 0 0 1.66-.51zM21 7.15a1.7 1.7 0 0 0-1.85.3l-2.15 2V8a3 3 0 0 0-3-3H7.83l1.29 1.29 6.59 6.59 2 2 2 2a1.73 1.73 0 0 0 .6.11 1.68 1.68 0 0 0 .69-.15 1.6 1.6 0 0 0 1-1.48V8.63a1.6 1.6 0 0 0-1-1.48zM17 15.59l-2-2L8.41 7l-2-2-1.7-1.71a1 1 0 0 0-1.42 1.42l.54.53L5.59 7l9.34 9.34 1.46 1.46 2.9 2.91a1 1 0 0 0 1.42 0 1 1 0 0 0 0-1.42z"/></symbol><symbol viewBox="0 0 24 24" fill="currentColor" id="kp_icon_video"><path d="M21 7.15a1.7 1.7 0 0 0-1.85.3l-2.15 2V8a3 3 0 0 0-3-3H5a3 3 0 0 0-3 3v8a3 3 0 0 0 3 3h9a3 3 0 0 0 3-3v-1.45l2.16 2a1.74 1.74 0 0 0 1.16.45 1.68 1.68 0 0 0 .69-.15 1.6 1.6 0 0 0 1-1.48V8.63A1.6 1.6 0 0 0 21 7.15z"/></symbol><symbol viewBox="0 0 24 24" fill="currentColor" id="kp_icon_voicemail"><path d="M18 8a4 4 0 0 0-4 4 3.91 3.91 0 0 0 .56 2H9.44a3.91 3.91 0 0 0 .56-2 4 4 0 1 0-4 4h12a4 4 0 0 0 0-8z"/></symbol><symbol viewBox="0 0 24 24" fill="currentColor" id="kp_icon_volume_down"><path d="M20.78 8.37a1 1 0 1 0-1.56 1.26 4 4 0 0 1 0 4.74A1 1 0 0 0 20 16a1 1 0 0 0 .78-.37 6 6 0 0 0 0-7.26zM16.47 3.12a1 1 0 0 0-1 0L9 7.57H4a1 1 0 0 0-1 1v6.86a1 1 0 0 0 1 1h5l6.41 4.4A1.06 1.06 0 0 0 16 21a1 1 0 0 0 1-1V4a1 1 0 0 0-.53-.88z"/></symbol><symbol viewBox="0 0 24 24" fill="currentColor" id="kp_icon_volume_mute"><path d="M16.91 14.08l1.44 1.44a6 6 0 0 0-.07-7.15 1 1 0 1 0-1.56 1.26 4 4 0 0 1 .19 4.45z"/><path d="M21 12a6.51 6.51 0 0 1-1.78 4.39l1.42 1.42A8.53 8.53 0 0 0 23 12a8.75 8.75 0 0 0-3.36-6.77 1 1 0 1 0-1.28 1.54A6.8 6.8 0 0 1 21 12zM15 12.17V4a1 1 0 0 0-1.57-.83L9 6.2zM4.74 7.57H2a1 1 0 0 0-1 1v6.86a1 1 0 0 0 1 1h5l6.41 4.4A1.06 1.06 0 0 0 14 21a1 1 0 0 0 1-1v-2.17zM4.71 3.29a1 1 0 0 0-1.42 1.42l16 16a1 1 0 0 0 1.42 0 1 1 0 0 0 0-1.42z"/></symbol><symbol viewBox="0 0 24 24" fill="currentColor" id="kp_icon_volume_up"><path d="M18.28 8.37a1 1 0 1 0-1.56 1.26 4 4 0 0 1 0 4.74A1 1 0 0 0 17.5 16a1 1 0 0 0 .78-.37 6 6 0 0 0 0-7.26z"/><path d="M19.64 5.23a1 1 0 1 0-1.28 1.54A6.8 6.8 0 0 1 21 12a6.8 6.8 0 0 1-2.64 5.23 1 1 0 0 0-.13 1.41A1 1 0 0 0 19 19a1 1 0 0 0 .64-.23A8.75 8.75 0 0 0 23 12a8.75 8.75 0 0 0-3.36-6.77zM14.47 3.12a1 1 0 0 0-1 0L7 7.57H2a1 1 0 0 0-1 1v6.86a1 1 0 0 0 1 1h5l6.41 4.4A1.06 1.06 0 0 0 14 21a1 1 0 0 0 1-1V4a1 1 0 0 0-.53-.88z"/></symbol><symbol viewBox="0 0 24 24" fill="currentColor" id="kp_icon_volume"><path d="M17 21a1.06 1.06 0 0 1-.57-.17L10 16.43H5a1 1 0 0 1-1-1V8.57a1 1 0 0 1 1-1h5l6.41-4.4A1 1 0 0 1 18 4v16a1 1 0 0 1-1 1z"/></symbol><symbol viewBox="0 0 24 24" fill="currentColor" id="kp_icon_wifi_off"><circle cx="12" cy="19" r="1"/><path d="M12.44 11l-1.9-1.89-2.46-2.44-1.55-1.55-1.82-1.83a1 1 0 0 0-1.42 1.42l1.38 1.37 1.46 1.46 2.23 2.24 1.55 1.54 2.74 2.74 2.79 2.8 3.85 3.85a1 1 0 0 0 1.42 0 1 1 0 0 0 0-1.42zM21.72 7.93A13.93 13.93 0 0 0 12 4a14.1 14.1 0 0 0-4.44.73l1.62 1.62a11.89 11.89 0 0 1 11.16 3 1 1 0 0 0 .69.28 1 1 0 0 0 .72-.31 1 1 0 0 0-.03-1.39zM3.82 6.65a14.32 14.32 0 0 0-1.54 1.28 1 1 0 0 0 1.38 1.44 13.09 13.09 0 0 1 1.6-1.29zM17 13.14a1 1 0 0 0 .71.3 1 1 0 0 0 .72-1.69A9 9 0 0 0 12 9h-.16l2.35 2.35A7 7 0 0 1 17 13.14zM7.43 10.26a8.8 8.8 0 0 0-1.9 1.49A1 1 0 0 0 7 13.14a7.3 7.3 0 0 1 2-1.41zM8.53 15.4a1 1 0 1 0 1.39 1.44 3.06 3.06 0 0 1 3.84-.25l-2.52-2.52a5 5 0 0 0-2.71 1.33z"/></symbol><symbol viewBox="0 0 24 24" fill="currentColor" id="kp_icon_wifi"><circle cx="12" cy="19" r="1"/><path d="M12 14a5 5 0 0 0-3.47 1.4 1 1 0 1 0 1.39 1.44 3.08 3.08 0 0 1 4.16 0 1 1 0 1 0 1.39-1.44A5 5 0 0 0 12 14zM12 9a9 9 0 0 0-6.47 2.75A1 1 0 0 0 7 13.14a7 7 0 0 1 10.08 0 1 1 0 0 0 .71.3 1 1 0 0 0 .72-1.69A9 9 0 0 0 12 9z"/><path d="M21.72 7.93a14 14 0 0 0-19.44 0 1 1 0 0 0 1.38 1.44 12 12 0 0 1 16.68 0 1 1 0 0 0 .69.28 1 1 0 0 0 .72-.31 1 1 0 0 0-.03-1.41z"/></symbol><symbol viewBox="0 0 24 24" fill="currentColor" id="kp_icon_zap_off"><path d="M17.33 14.5l2.5-3.74A1 1 0 0 0 19 9.2h-5.89l.77-7.09a1 1 0 0 0-.65-1 1 1 0 0 0-1.17.38L8.94 6.11zM6.67 9.5l-2.5 3.74A1 1 0 0 0 5 14.8h5.89l-.77 7.09a1 1 0 0 0 .65 1.05 1 1 0 0 0 .34.06 1 1 0 0 0 .83-.44l3.12-4.67zM20.71 19.29l-16-16a1 1 0 0 0-1.42 1.42l16 16a1 1 0 0 0 1.42 0 1 1 0 0 0 0-1.42z"/></symbol><symbol viewBox="0 0 24 24" fill="currentColor" id="kp_icon_zap"><path d="M11.11 23a1 1 0 0 1-.34-.06 1 1 0 0 1-.65-1.05l.77-7.09H5a1 1 0 0 1-.83-1.56l7.89-11.8a1 1 0 0 1 1.17-.38 1 1 0 0 1 .65 1l-.77 7.14H19a1 1 0 0 1 .83 1.56l-7.89 11.8a1 1 0 0 1-.83.44z"/></symbol><symbol viewBox="0 0 24 24" fill="currentColor" id="kp_icon_message_cirlce"><path d="M19.07 4.93a10 10 0 0 0-16.28 11 1.06 1.06 0 0 1 .09.64L2 20.8a1 1 0 0 0 .27.91A1 1 0 0 0 3 22h.2l4.28-.86a1.26 1.26 0 0 1 .64.09 10 10 0 0 0 11-16.28zM8 13a1 1 0 1 1 1-1 1 1 0 0 1-1 1zm4 0a1 1 0 1 1 1-1 1 1 0 0 1-1 1zm4 0a1 1 0 1 1 1-1 1 1 0 0 1-1 1z"/></symbol><symbol viewBox="0 0 24 24" fill="currentColor" id="kp_icon_image_gallery"><path d="M19.3 2H8.7C7.2 2 6 3.2 6 4.7v10.7C6 16.8 7.2 18 8.7 18h10.7c1.5 0 2.7-1.2 2.7-2.7V4.7C22 3.2 20.8 2 19.3 2zm-8.9 3.1c.7 0 1.3.6 1.3 1.3s-.6 1.3-1.3 1.3-1.3-.5-1.3-1.2.6-1.4 1.3-1.4zm9.8 10.1c0 .5-.4 1-.9 1H8.7l6.7-6.1c.2-.2.6-.2.8 0l4 4v1.1z"/><path d="M19 21H8c-2.8 0-5-2.2-5-5V5c0-.6.4-1 1-1s1 .4 1 1v11c0 1.7 1.3 3 3 3h11c.6 0 1 .4 1 1s-.4 1-1 1z"/></symbol><symbol viewBox="0 0 24 24" fill="currentColor" id="kp_icon_whatsapp"><path d="M19.1 4.9C15.2 1 8.8 1 4.9 4.9a9.83 9.83 0 0 0-2.1 11c.1.2.1.4.1.6L2 20.8c-.1.3 0 .7.3.9.2.2.4.3.7.3h.2l4.3-.9c.2 0 .4 0 .6.1 5.1 2.2 11-.2 13.1-5.2 1.7-3.8.8-8.2-2.1-11.1zm-2.9 10c-.1.5-1 .9-1.4 1-.7.1-1.2.1-2.6-.5-2.2-.9-3.6-3.1-3.7-3.2-.1-.1-.9-1.2-.9-2.2s.6-1.6.8-1.8c.2-.2.5-.2.6-.2h.4c.1 0 .3-.1.5.3.1.5.6 1.5.5 1.6 0 .1.1.3 0 .4-.4.8-.8.8-.6 1.2.8 1.4 1.6 1.9 2.9 2.5.2.1.4 0 .5-.1.1-.1.6-.6.7-.8.2-.2.3-.2.5-.1l1.5.7.4.2c.1.1.1.5-.1 1z"/></symbol><symbol viewBox="0 0 24 24" fill="currentColor" id="kp_icon_youtube"><path d="M21.7 7.9c-.3-1.7-1.8-3.3-3.5-3.5 0 0-1.6-.4-6.2-.4s-6.2.4-6.2.3a4.5 4.5 0 0 0-3.5 3.5S2 9.3 2 12s.3 4.2.5 4.3c.2 1.7 1.8 3.2 3.5 3.4 0 0 2.5.4 6.1.4 3.6 0 6.1-.4 6.1-.4 1.7-.2 3.2-1.7 3.5-3.4 0 0 .4-1.7.4-4.2s-.4-4.2-.4-4.2zm-6.4 4.6l-4.8 2.9c-.5.3-.8.1-.8-.5V9.1c0-.5.4-.7.8-.5l4.8 2.9c.5.3.5.7 0 1z"/></symbol><symbol viewBox="0 0 24 24" fill="currentColor" id="kp_icon_instagram"><path d="M15 3H9C5.7 3 3 5.7 3 9v6c0 3.3 2.7 6 6 6h6c3.3 0 6-2.7 6-6V9c0-3.3-2.7-6-6-6zm-3 14c-2.8 0-5-2.2-5-5s2.2-5 5-5 5 2.2 5 5-2.2 5-5 5zm5-9.4c-.6 0-1.1-.5-1.1-1.1 0-.6.5-1.1 1.1-1.1.6 0 1.1.5 1.1 1.1 0 .6-.5 1.1-1.1 1.1z"/><circle cx="12" cy="12" r="3.2"/></symbol></svg>