<!--Generated by kepler builder - Eva icons--><svg xmlns="http://www.w3.org/2000/svg"><symbol viewBox="0 0 24 24" stroke-linejoin="round" stroke-linecap="round" stroke-width="2" fill="none" stroke="currentColor" id="kp_icon_alert_circle"><circle cx="12" cy="12" r="10"/><path d="M12 8v4M12 16"/></symbol><symbol viewBox="0 0 24 24" stroke-linejoin="round" stroke-linecap="round" stroke-width="2" fill="none" stroke="currentColor" id="kp_icon_alert_triangle"><path d="M10.29 3.86L1.82 18a2 2 0 0 0 1.71 3h16.94a2 2 0 0 0 1.71-3L13.71 3.86a2 2 0 0 0-3.42 0zM12 9v4M12 17"/></symbol><symbol viewBox="0 0 24 24" stroke-linejoin="round" stroke-linecap="round" stroke-width="2" fill="none" stroke="currentColor" id="kp_icon_archive"><path d="M21 8v13H3V8M1 3h22v5H1zM10 12h4"/></symbol><symbol viewBox="0 0 24 24" stroke-linejoin="round" stroke-linecap="round" stroke-width="2" fill="none" stroke="currentColor" id="kp_icon_arrow_down_circle"><circle cx="12" cy="12" r="10"/><path d="M8 12l4 4 4-4M12 8v8"/></symbol><symbol viewBox="0 0 24 24" stroke-linejoin="round" stroke-linecap="round" stroke-width="2" fill="none" stroke="currentColor" id="kp_icon_arrow_down_left"><path d="M17 7L7 17M17 17H7V7"/></symbol><symbol viewBox="0 0 24 24" stroke-linejoin="round" stroke-linecap="round" stroke-width="2" fill="none" stroke="currentColor" id="kp_icon_arrow_down_right"><path d="M7 7l10 10M17 7v10H7"/></symbol><symbol viewBox="0 0 24 24" stroke-linejoin="round" stroke-linecap="round" stroke-width="2" fill="none" stroke="currentColor" id="kp_icon_arrow_down"><path d="M12 5v14M19 12l-7 7-7-7"/></symbol><symbol viewBox="0 0 24 24" stroke-linejoin="round" stroke-linecap="round" stroke-width="2" fill="none" stroke="currentColor" id="kp_icon_arrow_left_circle"><circle cx="12" cy="12" r="10"/><path d="M12 8l-4 4 4 4M16 12H8"/></symbol><symbol viewBox="0 0 24 24" stroke-linejoin="round" stroke-linecap="round" stroke-width="2" fill="none" stroke="currentColor" id="kp_icon_arrow_left"><path d="M19 12H5M12 19l-7-7 7-7"/></symbol><symbol viewBox="0 0 24 24" stroke-linejoin="round" stroke-linecap="round" stroke-width="2" fill="none" stroke="currentColor" id="kp_icon_arrow_right_circle"><circle cx="12" cy="12" r="10"/><path d="M12 16l4-4-4-4M8 12h8"/></symbol><symbol viewBox="0 0 24 24" stroke-linejoin="round" stroke-linecap="round" stroke-width="2" fill="none" stroke="currentColor" id="kp_icon_arrow_right"><path d="M5 12h14M12 5l7 7-7 7"/></symbol><symbol viewBox="0 0 24 24" stroke-linejoin="round" stroke-linecap="round" stroke-width="2" fill="none" stroke="currentColor" id="kp_icon_arrow_up_circle"><circle cx="12" cy="12" r="10"/><path d="M16 12l-4-4-4 4M12 16V8"/></symbol><symbol viewBox="0 0 24 24" stroke-linejoin="round" stroke-linecap="round" stroke-width="2" fill="none" stroke="currentColor" id="kp_icon_arrow_up_left"><path d="M17 17L7 7M7 17V7h10"/></symbol><symbol viewBox="0 0 24 24" stroke-linejoin="round" stroke-linecap="round" stroke-width="2" fill="none" stroke="currentColor" id="kp_icon_arrow_up_right"><path d="M7 17L17 7M7 7h10v10"/></symbol><symbol viewBox="0 0 24 24" stroke-linejoin="round" stroke-linecap="round" stroke-width="2" fill="none" stroke="currentColor" id="kp_icon_arrow_up"><path d="M12 19V5M5 12l7-7 7 7"/></symbol><symbol viewBox="0 0 24 24" stroke-linejoin="round" stroke-linecap="round" stroke-width="2" fill="none" stroke="currentColor" id="kp_icon_at_sign"><circle cx="12" cy="12" r="4"/><path d="M16 8v5a3 3 0 0 0 6 0v-1a10 10 0 1 0-3.92 7.94"/></symbol><symbol viewBox="0 0 24 24" stroke-linejoin="round" stroke-linecap="round" stroke-width="2" fill="none" stroke="currentColor" id="kp_icon_bar_chart"><path d="M18 20V10M12 20V4M6 20v-6"/></symbol><symbol viewBox="0 0 24 24" stroke-linejoin="round" stroke-linecap="round" stroke-width="2" fill="none" stroke="currentColor" id="kp_icon_battery_charging"><path d="M5 18H3a2 2 0 0 1-2-2V8a2 2 0 0 1 2-2h3.19M15 6h2a2 2 0 0 1 2 2v8a2 2 0 0 1-2 2h-3.19M23 13v-2M11 6l-4 6h6l-4 6"/></symbol><symbol viewBox="0 0 24 24" stroke-linejoin="round" stroke-linecap="round" stroke-width="2" fill="none" stroke="currentColor" id="kp_icon_battery"><rect x="1" y="6" width="18" height="12" rx="2" ry="2"/><path d="M23 13v-2"/></symbol><symbol viewBox="0 0 24 24" stroke-linejoin="round" stroke-linecap="round" stroke-width="2" fill="none" stroke="currentColor" id="kp_icon_bell_off"><path d="M13.73 21a2 2 0 0 1-3.46 0M18.63 13A17.89 17.89 0 0 1 18 8M6.26 6.26A5.86 5.86 0 0 0 6 8c0 7-3 9-3 9h14M18 8a6 6 0 0 0-9.33-5M1 1l22 22"/></symbol><symbol viewBox="0 0 24 24" stroke-linejoin="round" stroke-linecap="round" stroke-width="2" fill="none" stroke="currentColor" id="kp_icon_bell"><path d="M18 8A6 6 0 0 0 6 8c0 7-3 9-3 9h18s-3-2-3-9M13.73 21a2 2 0 0 1-3.46 0"/></symbol><symbol viewBox="0 0 24 24" stroke-linejoin="round" stroke-linecap="round" stroke-width="2" fill="none" stroke="currentColor" id="kp_icon_bluetooth"><path d="M6.5 6.5l11 11L12 23V1l5.5 5.5-11 11"/></symbol><symbol viewBox="0 0 24 24" stroke-linejoin="round" stroke-linecap="round" stroke-width="2" fill="none" stroke="currentColor" id="kp_icon_book_open"><path d="M2 3h6a4 4 0 0 1 4 4v14a3 3 0 0 0-3-3H2zM22 3h-6a4 4 0 0 0-4 4v14a3 3 0 0 1 3-3h7z"/></symbol><symbol viewBox="0 0 24 24" stroke-linejoin="round" stroke-linecap="round" stroke-width="2" fill="none" stroke="currentColor" id="kp_icon_book"><path d="M4 19.5A2.5 2.5 0 0 1 6.5 17H20"/><path d="M6.5 2H20v20H6.5A2.5 2.5 0 0 1 4 19.5v-15A2.5 2.5 0 0 1 6.5 2z"/></symbol><symbol viewBox="0 0 24 24" stroke-linejoin="round" stroke-linecap="round" stroke-width="2" fill="none" stroke="currentColor" id="kp_icon_bookmark"><path d="M19 21l-7-5-7 5V5a2 2 0 0 1 2-2h10a2 2 0 0 1 2 2z"/></symbol><symbol viewBox="0 0 24 24" stroke-linejoin="round" stroke-linecap="round" stroke-width="2" fill="none" stroke="currentColor" id="kp_icon_briefcase"><rect x="2" y="7" width="20" height="14" rx="2" ry="2"/><path d="M16 21V5a2 2 0 0 0-2-2h-4a2 2 0 0 0-2 2v16"/></symbol><symbol viewBox="0 0 24 24" stroke-linejoin="round" stroke-linecap="round" stroke-width="2" fill="none" stroke="currentColor" id="kp_icon_brush"><path d="M20.24 12.24a6 6 0 0 0-8.49-8.49L5 10.5V19h8.5zM16 8L2 22M17.5 15H9"/></symbol><symbol viewBox="0 0 24 24" stroke-linejoin="round" stroke-linecap="round" stroke-width="2" fill="none" stroke="currentColor" id="kp_icon_calendar"><rect x="3" y="4" width="18" height="18" rx="2" ry="2"/><path d="M16 2v4M8 2v4M3 10h18"/></symbol><symbol viewBox="0 0 24 24" stroke-linejoin="round" stroke-linecap="round" stroke-width="2" fill="none" stroke="currentColor" id="kp_icon_camera"><path d="M23 19a2 2 0 0 1-2 2H3a2 2 0 0 1-2-2V8a2 2 0 0 1 2-2h4l2-3h6l2 3h4a2 2 0 0 1 2 2z"/><circle cx="12" cy="13" r="4"/></symbol><symbol viewBox="0 0 24 24" stroke-linejoin="round" stroke-linecap="round" stroke-width="2" fill="none" stroke="currentColor" id="kp_icon_cast"><path d="M2 16.1A5 5 0 0 1 5.9 20M2 12.05A9 9 0 0 1 9.95 20M2 8V6a2 2 0 0 1 2-2h16a2 2 0 0 1 2 2v12a2 2 0 0 1-2 2h-6M2 20"/></symbol><symbol viewBox="0 0 24 24" stroke-linejoin="round" stroke-linecap="round" stroke-width="2" fill="none" stroke="currentColor" id="kp_icon_check_circle"><path d="M22 11.08V12a10 10 0 1 1-5.93-9.14"/><path d="M22 4L12 14.01l-3-3"/></symbol><symbol viewBox="0 0 24 24" stroke-linejoin="round" stroke-linecap="round" stroke-width="2" fill="none" stroke="currentColor" id="kp_icon_check_square"><path d="M9 11l3 3L22 4"/><path d="M21 12v7a2 2 0 0 1-2 2H5a2 2 0 0 1-2-2V5a2 2 0 0 1 2-2h11"/></symbol><symbol viewBox="0 0 24 24" stroke-linejoin="round" stroke-linecap="round" stroke-width="2" fill="none" stroke="currentColor" id="kp_icon_check"><path d="M20 6L9 17l-5-5"/></symbol><symbol viewBox="0 0 24 24" stroke-linejoin="round" stroke-linecap="round" stroke-width="2" fill="none" stroke="currentColor" id="kp_icon_chevron_down"><path d="M6 9l6 6 6-6"/></symbol><symbol viewBox="0 0 24 24" fill="currentColor" id="kp_icon_chevron_left"><path d="M15 19a.9.9 0 0 1-.7-.3l-6-6c-.4-.4-.4-1 0-1.4l6-6c.4-.4 1-.4 1.4 0s.4 1 0 1.4L10.4 12l5.3 5.3c.4.4.4 1 0 1.4-.2.2-.4.3-.7.3z"/></symbol><symbol viewBox="0 0 24 24" fill="currentColor" id="kp_icon_chevron_right"><path d="M9 19a.9.9 0 0 1-.7-.3c-.4-.4-.4-1 0-1.4l5.3-5.3-5.3-5.3c-.4-.4-.4-1 0-1.4s1-.4 1.4 0l6 6c.4.4.4 1 0 1.4l-6 6c-.2.2-.4.3-.7.3z"/></symbol><symbol viewBox="0 0 24 24" stroke-linejoin="round" stroke-linecap="round" stroke-width="2" fill="none" stroke="currentColor" id="kp_icon_chevron_up"><path d="M18 15l-6-6-6 6"/></symbol><symbol viewBox="0 0 24 24" stroke-linejoin="round" stroke-linecap="round" stroke-width="2" fill="none" stroke="currentColor" id="kp_icon_circle"><circle cx="12" cy="12" r="10"/></symbol><symbol viewBox="0 0 24 24" stroke-linejoin="round" stroke-linecap="round" stroke-width="2" fill="none" stroke="currentColor" id="kp_icon_clipboard"><path d="M16 4h2a2 2 0 0 1 2 2v14a2 2 0 0 1-2 2H6a2 2 0 0 1-2-2V6a2 2 0 0 1 2-2h2"/><rect x="8" y="2" width="8" height="4" rx="1" ry="1"/></symbol><symbol viewBox="0 0 24 24" stroke-linejoin="round" stroke-linecap="round" stroke-width="2" fill="none" stroke="currentColor" id="kp_icon_clock"><circle cx="12" cy="12" r="10"/><path d="M12 6v6l4 2"/></symbol><symbol viewBox="0 0 24 24" stroke-linejoin="round" stroke-linecap="round" stroke-width="2" fill="none" stroke="currentColor" id="kp_icon_close_circle"><circle cx="12" cy="12" r="10"/><path d="M15 9l-6 6M9 9l6 6"/></symbol><symbol viewBox="0 0 24 24" stroke-linejoin="round" stroke-linecap="round" stroke-width="2" fill="none" stroke="currentColor" id="kp_icon_close_square"><rect x="3" y="3" width="18" height="18" rx="2" ry="2"/><path d="M9 9l6 6M15 9l-6 6"/></symbol><symbol viewBox="0 0 24 24" stroke-linejoin="round" stroke-linecap="round" stroke-width="2" fill="none" stroke="currentColor" id="kp_icon_close"><path d="M18 6L6 18M6 6l12 12"/></symbol><symbol viewBox="0 0 24 24" stroke-linejoin="round" stroke-linecap="round" stroke-width="2" fill="none" stroke="currentColor" id="kp_icon_code"><path d="M16 18l6-6-6-6M8 6l-6 6 6 6"/></symbol><symbol viewBox="0 0 24 24" stroke-linejoin="round" stroke-linecap="round" stroke-width="2" fill="none" stroke="currentColor" id="kp_icon_compass"><circle cx="12" cy="12" r="10"/><path d="M16.24 7.76l-2.12 6.36-6.36 2.12 2.12-6.36 6.36-2.12z"/></symbol><symbol viewBox="0 0 24 24" stroke-linejoin="round" stroke-linecap="round" stroke-width="2" fill="none" stroke="currentColor" id="kp_icon_copy"><rect x="9" y="9" width="13" height="13" rx="2" ry="2"/><path d="M5 15H4a2 2 0 0 1-2-2V4a2 2 0 0 1 2-2h9a2 2 0 0 1 2 2v1"/></symbol><symbol viewBox="0 0 24 24" stroke-linejoin="round" stroke-linecap="round" stroke-width="2" fill="none" stroke="currentColor" id="kp_icon_corner_down_left"><path d="M9 10l-5 5 5 5"/><path d="M20 4v7a4 4 0 0 1-4 4H4"/></symbol><symbol viewBox="0 0 24 24" stroke-linejoin="round" stroke-linecap="round" stroke-width="2" fill="none" stroke="currentColor" id="kp_icon_corner_down_right"><path d="M15 10l5 5-5 5"/><path d="M4 4v7a4 4 0 0 0 4 4h12"/></symbol><symbol viewBox="0 0 24 24" stroke-linejoin="round" stroke-linecap="round" stroke-width="2" fill="none" stroke="currentColor" id="kp_icon_credit_card"><rect x="1" y="4" width="22" height="16" rx="2" ry="2"/><path d="M1 10h22"/></symbol><symbol viewBox="0 0 24 24" stroke-linejoin="round" stroke-linecap="round" stroke-width="2" fill="none" stroke="currentColor" id="kp_icon_crop"><path d="M6.13 1L6 16a2 2 0 0 0 2 2h15"/><path d="M1 6.13L16 6a2 2 0 0 1 2 2v15"/></symbol><symbol viewBox="0 0 24 24" stroke-linejoin="round" stroke-linecap="round" stroke-width="2" fill="none" stroke="currentColor" id="kp_icon_cube"><path d="M21 16V8a2 2 0 0 0-1-1.73l-7-4a2 2 0 0 0-2 0l-7 4A2 2 0 0 0 3 8v8a2 2 0 0 0 1 1.73l7 4a2 2 0 0 0 2 0l7-4A2 2 0 0 0 21 16z"/><path d="M3.27 6.96L12 12.01l8.73-5.05M12 22.08V12"/></symbol><symbol viewBox="0 0 24 24" stroke-linejoin="round" stroke-linecap="round" stroke-width="2" fill="none" stroke="currentColor" id="kp_icon_delete"><path d="M21 4H8l-7 8 7 8h13a2 2 0 0 0 2-2V6a2 2 0 0 0-2-2zM18 9l-6 6M12 9l6 6"/></symbol><symbol viewBox="0 0 24 24" stroke-linejoin="round" stroke-linecap="round" stroke-width="2" fill="none" stroke="currentColor" id="kp_icon_download_cloud"><path d="M8 17l4 4 4-4M12 12v9"/><path d="M20.88 18.09A5 5 0 0 0 18 9h-1.26A8 8 0 1 0 3 16.29"/></symbol><symbol viewBox="0 0 24 24" stroke-linejoin="round" stroke-linecap="round" stroke-width="2" fill="none" stroke="currentColor" id="kp_icon_download"><path d="M21 15v4a2 2 0 0 1-2 2H5a2 2 0 0 1-2-2v-4M7 10l5 5 5-5M12 15V3"/></symbol><symbol viewBox="0 0 24 24" stroke-linejoin="round" stroke-linecap="round" stroke-width="2" fill="none" stroke="currentColor" id="kp_icon_droplet"><path d="M12 2.69l5.66 5.66a8 8 0 1 1-11.31 0z"/></symbol><symbol viewBox="0 0 24 24" stroke-linejoin="round" stroke-linecap="round" stroke-width="2" fill="none" stroke="currentColor" id="kp_icon_edit_2"><path d="M11 4H4a2 2 0 0 0-2 2v14a2 2 0 0 0 2 2h14a2 2 0 0 0 2-2v-7"/><path d="M18.5 2.5a2.12 2.12 0 0 1 3 3L12 15l-4 1 1-4 9.5-9.5z"/></symbol><symbol viewBox="0 0 24 24" stroke-linejoin="round" stroke-linecap="round" stroke-width="2" fill="none" stroke="currentColor" id="kp_icon_edit"><path d="M17 3a2.83 2.83 0 1 1 4 4L7.5 20.5 2 22l1.5-5.5L17 3z"/></symbol><symbol viewBox="0 0 24 24" stroke-linejoin="round" stroke-linecap="round" stroke-width="2" fill="none" stroke="currentColor" id="kp_icon_external_link"><path d="M18 13v6a2 2 0 0 1-2 2H5a2 2 0 0 1-2-2V8a2 2 0 0 1 2-2h6M15 3h6v6M10 14L21 3"/></symbol><symbol viewBox="0 0 24 24" stroke-linejoin="round" stroke-linecap="round" stroke-width="2" fill="none" stroke="currentColor" id="kp_icon_eye_off"><path d="M17.94 17.94A10.07 10.07 0 0 1 12 20c-7 0-11-8-11-8a18.45 18.45 0 0 1 5.06-5.94M9.9 4.24A9.12 9.12 0 0 1 12 4c7 0 11 8 11 8a18.5 18.5 0 0 1-2.16 3.19m-6.72-1.07a3 3 0 1 1-4.24-4.24M1 1l22 22"/></symbol><symbol viewBox="0 0 24 24" stroke-linejoin="round" stroke-linecap="round" stroke-width="2" fill="none" stroke="currentColor" id="kp_icon_eye"><path d="M1 12s4-8 11-8 11 8 11 8-4 8-11 8-11-8-11-8z"/><circle cx="12" cy="12" r="3"/></symbol><symbol viewBox="0 0 24 24" stroke-linejoin="round" stroke-linecap="round" stroke-width="2" fill="none" stroke="currentColor" id="kp_icon_facebook"><path d="M18 2h-3a5 5 0 0 0-5 5v3H7v4h3v8h4v-8h3l1-4h-4V7a1 1 0 0 1 1-1h3z"/></symbol><symbol viewBox="0 0 24 24" stroke-linejoin="round" stroke-linecap="round" stroke-width="2" fill="none" stroke="currentColor" id="kp_icon_fast_forward"><path d="M13 19l9-7-9-7v14zM2 19l9-7-9-7v14z"/></symbol><symbol viewBox="0 0 24 24" stroke-linejoin="round" stroke-linecap="round" stroke-width="2" fill="none" stroke="currentColor" id="kp_icon_file_text"><path d="M14 2H6a2 2 0 0 0-2 2v16a2 2 0 0 0 2 2h12a2 2 0 0 0 2-2V8z"/><path d="M14 2v6h6M16 13H8M16 17H8M10 9H8"/></symbol><symbol viewBox="0 0 24 24" stroke-linejoin="round" stroke-linecap="round" stroke-width="2" fill="none" stroke="currentColor" id="kp_icon_file"><path d="M13 2H6a2 2 0 0 0-2 2v16a2 2 0 0 0 2 2h12a2 2 0 0 0 2-2V9z"/><path d="M13 2v7h7"/></symbol><symbol viewBox="0 0 24 24" stroke-linejoin="round" stroke-linecap="round" stroke-width="2" fill="none" stroke="currentColor" id="kp_icon_film"><rect x="2" y="2" width="20" height="20" rx="2.18" ry="2.18"/><path d="M7 2v20M17 2v20M2 12h20M2 7h5M2 17h5M17 17h5M17 7h5"/></symbol><symbol viewBox="0 0 24 24" stroke-linejoin="round" stroke-linecap="round" stroke-width="2" fill="none" stroke="currentColor" id="kp_icon_filter"><path d="M22 3H2l8 9.46V19l4 2v-8.54L22 3z"/></symbol><symbol viewBox="0 0 24 24" stroke-linejoin="round" stroke-linecap="round" stroke-width="2" fill="none" stroke="currentColor" id="kp_icon_flag"><path d="M4 15s1-1 4-1 5 2 8 2 4-1 4-1V3s-1 1-4 1-5-2-8-2-4 1-4 1zM4 22v-7"/></symbol><symbol viewBox="0 0 24 24" stroke-linejoin="round" stroke-linecap="round" stroke-width="2" fill="none" stroke="currentColor" id="kp_icon_folder_plus"><path d="M22 19a2 2 0 0 1-2 2H4a2 2 0 0 1-2-2V5a2 2 0 0 1 2-2h5l2 3h9a2 2 0 0 1 2 2zM12 11v6M9 14h6"/></symbol><symbol viewBox="0 0 24 24" stroke-linejoin="round" stroke-linecap="round" stroke-width="2" fill="none" stroke="currentColor" id="kp_icon_folder"><path d="M22 19a2 2 0 0 1-2 2H4a2 2 0 0 1-2-2V5a2 2 0 0 1 2-2h5l2 3h9a2 2 0 0 1 2 2z"/></symbol><symbol viewBox="0 0 24 24" stroke-linejoin="round" stroke-linecap="round" stroke-width="2" fill="none" stroke="currentColor" id="kp_icon_gift"><path d="M20 12v10H4V12M2 7h20v5H2zM12 22V7M12 7H7.5a2.5 2.5 0 0 1 0-5C11 2 12 7 12 7zM12 7h4.5a2.5 2.5 0 0 0 0-5C13 2 12 7 12 7z"/></symbol><symbol viewBox="0 0 24 24" stroke-linejoin="round" stroke-linecap="round" stroke-width="2" fill="none" stroke="currentColor" id="kp_icon_github"><path d="M9 19c-5 1.5-5-2.5-7-3m14 6v-3.87a3.37 3.37 0 0 0-.94-2.61c3.14-.35 6.44-1.54 6.44-7A5.44 5.44 0 0 0 20 4.77 5.07 5.07 0 0 0 19.91 1S18.73.65 16 2.48a13.38 13.38 0 0 0-7 0C6.27.65 5.09 1 5.09 1A5.07 5.07 0 0 0 5 4.77a5.44 5.44 0 0 0-1.5 3.78c0 5.42 3.3 6.61 6.44 7A3.37 3.37 0 0 0 9 18.13V22"/></symbol><symbol viewBox="0 0 24 24" stroke-linejoin="round" stroke-linecap="round" stroke-width="2" fill="none" stroke="currentColor" id="kp_icon_globe"><circle cx="12" cy="12" r="10"/><path d="M2 12h20M12 2a15.3 15.3 0 0 1 4 10 15.3 15.3 0 0 1-4 10 15.3 15.3 0 0 1-4-10 15.3 15.3 0 0 1 4-10z"/></symbol><symbol viewBox="0 0 24 24" stroke-linejoin="round" stroke-linecap="round" stroke-width="2" fill="none" stroke="currentColor" id="kp_icon_grid"><path d="M3 3h7v7H3zM14 3h7v7h-7zM14 14h7v7h-7zM3 14h7v7H3z"/></symbol><symbol viewBox="0 0 24 24" stroke-linejoin="round" stroke-linecap="round" stroke-width="2" fill="none" stroke="currentColor" id="kp_icon_hard_drive"><path d="M22 12H2M5.45 5.11L2 12v6a2 2 0 0 0 2 2h16a2 2 0 0 0 2-2v-6l-3.45-6.89A2 2 0 0 0 16.76 4H7.24a2 2 0 0 0-1.79 1.11zM10 16"/></symbol><symbol viewBox="0 0 24 24" stroke-linejoin="round" stroke-linecap="round" stroke-width="2" fill="none" stroke="currentColor" id="kp_icon_headphones"><path d="M3 18v-6a9 9 0 0 1 18 0v6"/><path d="M21 19a2 2 0 0 1-2 2h-1a2 2 0 0 1-2-2v-3a2 2 0 0 1 2-2h3zM3 19a2 2 0 0 0 2 2h1a2 2 0 0 0 2-2v-3a2 2 0 0 0-2-2H3z"/></symbol><symbol viewBox="0 0 24 24" stroke-linejoin="round" stroke-linecap="round" stroke-width="2" fill="none" stroke="currentColor" id="kp_icon_heart"><path d="M20.84 4.61a5.5 5.5 0 0 0-7.78 0L12 5.67l-1.06-1.06a5.5 5.5 0 0 0-7.78 7.78l1.06 1.06L12 21.23l7.78-7.78 1.06-1.06a5.5 5.5 0 0 0 0-7.78z"/></symbol><symbol viewBox="0 0 24 24" stroke-linejoin="round" stroke-linecap="round" stroke-width="2" fill="none" stroke="currentColor" id="kp_icon_home"><path d="M3 9l9-7 9 7v11a2 2 0 0 1-2 2H5a2 2 0 0 1-2-2z"/><path d="M9 22V12h6v10"/></symbol><symbol viewBox="0 0 24 24" stroke-linejoin="round" stroke-linecap="round" stroke-width="2" fill="none" stroke="currentColor" id="kp_icon_image"><rect x="3" y="3" width="18" height="18" rx="2" ry="2"/><circle cx="8.5" cy="8.5" r="1.5"/><path d="M21 15l-5-5L5 21"/></symbol><symbol viewBox="0 0 24 24" stroke-linejoin="round" stroke-linecap="round" stroke-width="2" fill="none" stroke="currentColor" id="kp_icon_inbox"><path d="M22 12h-6l-2 3h-4l-2-3H2"/><path d="M5.45 5.11L2 12v6a2 2 0 0 0 2 2h16a2 2 0 0 0 2-2v-6l-3.45-6.89A2 2 0 0 0 16.76 4H7.24a2 2 0 0 0-1.79 1.11z"/></symbol><symbol viewBox="0 0 24 24" stroke-linejoin="round" stroke-linecap="round" stroke-width="2" fill="none" stroke="currentColor" id="kp_icon_info"><circle cx="12" cy="12" r="10"/><path d="M12 16v-4M12 8"/></symbol><symbol viewBox="0 0 24 24" stroke-linejoin="round" stroke-linecap="round" stroke-width="2" fill="none" stroke="currentColor" id="kp_icon_layers"><path d="M12 2L2 7l10 5 10-5-10-5zM2 17l10 5 10-5M2 12l10 5 10-5"/></symbol><symbol viewBox="0 0 24 24" stroke-linejoin="round" stroke-linecap="round" stroke-width="2" fill="none" stroke="currentColor" id="kp_icon_layout"><rect x="3" y="3" width="18" height="18" rx="2" ry="2"/><path d="M3 9h18M9 21V9"/></symbol><symbol viewBox="0 0 24 24" stroke-linejoin="round" stroke-linecap="round" stroke-width="2" fill="none" stroke="currentColor" id="kp_icon_link"><path d="M10 13a5 5 0 0 0 7.54.54l3-3a5 5 0 0 0-7.07-7.07l-1.72 1.71"/><path d="M14 11a5 5 0 0 0-7.54-.54l-3 3a5 5 0 0 0 7.07 7.07l1.71-1.71"/></symbol><symbol viewBox="0 0 24 24" stroke-linejoin="round" stroke-linecap="round" stroke-width="2" fill="none" stroke="currentColor" id="kp_icon_linkedin"><path d="M16 8a6 6 0 0 1 6 6v7h-4v-7a2 2 0 0 0-2-2 2 2 0 0 0-2 2v7h-4v-7a6 6 0 0 1 6-6zM2 9h4v12H2z"/><circle cx="4" cy="4" r="2"/></symbol><symbol viewBox="0 0 24 24" stroke-linejoin="round" stroke-linecap="round" stroke-width="2" fill="none" stroke="currentColor" id="kp_icon_list"><path d="M8 6h13M8 12h13M8 18h13M3 18"/></symbol><symbol viewBox="0 0 24 24" stroke-linejoin="round" stroke-linecap="round" stroke-width="2" fill="none" stroke="currentColor" id="kp_icon_lock"><rect x="3" y="11" width="18" height="11" rx="2" ry="2"/><path d="M7 11V7a5 5 0 0 1 10 0v4"/></symbol><symbol viewBox="0 0 24 24" stroke-linejoin="round" stroke-linecap="round" stroke-width="2" fill="none" stroke="currentColor" id="kp_icon_log_in"><path d="M15 3h4a2 2 0 0 1 2 2v14a2 2 0 0 1-2 2h-4M10 17l5-5-5-5M15 12H3"/></symbol><symbol viewBox="0 0 24 24" stroke-linejoin="round" stroke-linecap="round" stroke-width="2" fill="none" stroke="currentColor" id="kp_icon_log_out"><path d="M9 21H5a2 2 0 0 1-2-2V5a2 2 0 0 1 2-2h4M16 17l5-5-5-5M21 12H9"/></symbol><symbol viewBox="0 0 24 24" stroke-linejoin="round" stroke-linecap="round" stroke-width="2" fill="none" stroke="currentColor" id="kp_icon_mail"><path d="M4 4h16a2 2 0 0 1 2 2v12a2 2 0 0 1-2 2H4a2 2 0 0 1-2-2V6c0-1.1.9-2 2-2z"/><path d="M22 6l-10 7L2 6"/></symbol><symbol viewBox="0 0 24 24" stroke-linejoin="round" stroke-linecap="round" stroke-width="2" fill="none" stroke="currentColor" id="kp_icon_map_pin"><path d="M21 10c0 7-9 13-9 13s-9-6-9-13a9 9 0 0 1 18 0z"/><circle cx="12" cy="10" r="3"/></symbol><symbol viewBox="0 0 24 24" stroke-linejoin="round" stroke-linecap="round" stroke-width="2" fill="none" stroke="currentColor" id="kp_icon_map"><path d="M1 6v16l7-4 8 4 7-4V2l-7 4-8-4-7 4zM8 2v16M16 6v16"/></symbol><symbol viewBox="0 0 24 24" stroke-linejoin="round" stroke-linecap="round" stroke-width="2" fill="none" stroke="currentColor" id="kp_icon_maximize"><path d="M8 3H5a2 2 0 0 0-2 2v3m18 0V5a2 2 0 0 0-2-2h-3m0 18h3a2 2 0 0 0 2-2v-3M3 16v3a2 2 0 0 0 2 2h3"/></symbol><symbol viewBox="0 0 24 24" stroke-linejoin="round" stroke-linecap="round" stroke-width="2" fill="none" stroke="currentColor" id="kp_icon_menu"><path d="M3 12h18M3 6h18M3 18h18"/></symbol><symbol viewBox="0 0 24 24" stroke-linejoin="round" stroke-linecap="round" stroke-width="2" fill="none" stroke="currentColor" id="kp_icon_message_square"><path d="M21 15a2 2 0 0 1-2 2H7l-4 4V5a2 2 0 0 1 2-2h14a2 2 0 0 1 2 2z"/></symbol><symbol viewBox="0 0 24 24" stroke-linejoin="round" stroke-linecap="round" stroke-width="2" fill="none" stroke="currentColor" id="kp_icon_mic_off"><path d="M1 1l22 22M9 9v3a3 3 0 0 0 5.12 2.12M15 9.34V4a3 3 0 0 0-5.94-.6"/><path d="M17 16.95A7 7 0 0 1 5 12v-2m14 0v2a7 7 0 0 1-.11 1.23M12 19v4M8 23h8"/></symbol><symbol viewBox="0 0 24 24" stroke-linejoin="round" stroke-linecap="round" stroke-width="2" fill="none" stroke="currentColor" id="kp_icon_mic"><path d="M12 1a3 3 0 0 0-3 3v8a3 3 0 0 0 6 0V4a3 3 0 0 0-3-3z"/><path d="M19 10v2a7 7 0 0 1-14 0v-2M12 19v4M8 23h8"/></symbol><symbol viewBox="0 0 24 24" stroke-linejoin="round" stroke-linecap="round" stroke-width="2" fill="none" stroke="currentColor" id="kp_icon_minimize"><path d="M8 3v3a2 2 0 0 1-2 2H3m18 0h-3a2 2 0 0 1-2-2V3m0 18v-3a2 2 0 0 1 2-2h3M3 16h3a2 2 0 0 1 2 2v3"/></symbol><symbol viewBox="0 0 24 24" stroke-linejoin="round" stroke-linecap="round" stroke-width="2" fill="none" stroke="currentColor" id="kp_icon_minus_circle"><circle cx="12" cy="12" r="10"/><path d="M8 12h8"/></symbol><symbol viewBox="0 0 24 24" stroke-linejoin="round" stroke-linecap="round" stroke-width="2" fill="none" stroke="currentColor" id="kp_icon_minus_square"><rect x="3" y="3" width="18" height="18" rx="2" ry="2"/><path d="M8 12h8"/></symbol><symbol viewBox="0 0 24 24" stroke-linejoin="round" stroke-linecap="round" stroke-width="2" fill="none" stroke="currentColor" id="kp_icon_minus"><path d="M5 12h14"/></symbol><symbol viewBox="0 0 24 24" stroke-linejoin="round" stroke-linecap="round" stroke-width="2" fill="none" stroke="currentColor" id="kp_icon_monitor"><rect x="2" y="3" width="20" height="14" rx="2" ry="2"/><path d="M8 21h8M12 17v4"/></symbol><symbol viewBox="0 0 24 24" stroke-linejoin="round" stroke-linecap="round" stroke-width="2" fill="none" stroke="currentColor" id="kp_icon_moon"><path d="M21 12.79A9 9 0 1 1 11.21 3 7 7 0 0 0 21 12.79z"/></symbol><symbol viewBox="0 0 24 24" stroke-linejoin="round" stroke-linecap="round" stroke-width="2" fill="none" stroke="currentColor" id="kp_icon_more_horizontal"><circle cx="12" cy="12" r="1"/><circle cx="19" cy="12" r="1"/><circle cx="5" cy="12" r="1"/></symbol><symbol viewBox="0 0 24 24" stroke-linejoin="round" stroke-linecap="round" stroke-width="2" fill="none" stroke="currentColor" id="kp_icon_more_vertical"><circle cx="12" cy="12" r="1"/><circle cx="12" cy="5" r="1"/><circle cx="12" cy="19" r="1"/></symbol><symbol viewBox="0 0 24 24" stroke-linejoin="round" stroke-linecap="round" stroke-width="2" fill="none" stroke="currentColor" id="kp_icon_move"><path d="M5 9l-3 3 3 3M9 5l3-3 3 3M15 19l-3 3-3-3M19 9l3 3-3 3M2 12h20M12 2v20"/></symbol><symbol viewBox="0 0 24 24" stroke-linejoin="round" stroke-linecap="round" stroke-width="2" fill="none" stroke="currentColor" id="kp_icon_music"><path d="M9 18V5l12-2v13"/><circle cx="6" cy="18" r="3"/><circle cx="18" cy="16" r="3"/></symbol><symbol viewBox="0 0 24 24" stroke-linejoin="round" stroke-linecap="round" stroke-width="2" fill="none" stroke="currentColor" id="kp_icon_navigation"><path d="M12 2l7 19-7-4-7 4 7-19z"/></symbol><symbol viewBox="0 0 24 24" stroke-linejoin="round" stroke-linecap="round" stroke-width="2" fill="none" stroke="currentColor" id="kp_icon_paperclip"><path d="M21.44 11.05l-9.19 9.19a6 6 0 0 1-8.49-8.49l9.19-9.19a4 4 0 0 1 5.66 5.66l-9.2 9.19a2 2 0 0 1-2.83-2.83l8.49-8.48"/></symbol><symbol viewBox="0 0 24 24" stroke-linejoin="round" stroke-linecap="round" stroke-width="2" fill="none" stroke="currentColor" id="kp_icon_pause_circle"><circle cx="12" cy="12" r="10"/><path d="M10 15V9M14 15V9"/></symbol><symbol viewBox="0 0 24 24" stroke-linejoin="round" stroke-linecap="round" stroke-width="2" fill="none" stroke="currentColor" id="kp_icon_phone_call"><path d="M15.05 5A5 5 0 0 1 19 8.95M15.05 1A9 9 0 0 1 23 8.94m-1 7.98v3a2 2 0 0 1-2.18 2 19.79 19.79 0 0 1-8.63-3.07 19.5 19.5 0 0 1-6-6 19.79 19.79 0 0 1-3.07-8.67A2 2 0 0 1 4.11 2h3a2 2 0 0 1 2 1.72 12.84 12.84 0 0 0 .7 2.81 2 2 0 0 1-.45 2.11L8.09 9.91a16 16 0 0 0 6 6l1.27-1.27a2 2 0 0 1 2.11-.45 12.84 12.84 0 0 0 2.81.7A2 2 0 0 1 22 16.92z"/></symbol><symbol viewBox="0 0 24 24" stroke-linejoin="round" stroke-linecap="round" stroke-width="2" fill="none" stroke="currentColor" id="kp_icon_phone_missed"><path d="M23 1l-6 6M17 1l6 6M22 16.92v3a2 2 0 0 1-2.18 2 19.79 19.79 0 0 1-8.63-3.07 19.5 19.5 0 0 1-6-6 19.79 19.79 0 0 1-3.07-8.67A2 2 0 0 1 4.11 2h3a2 2 0 0 1 2 1.72 12.84 12.84 0 0 0 .7 2.81 2 2 0 0 1-.45 2.11L8.09 9.91a16 16 0 0 0 6 6l1.27-1.27a2 2 0 0 1 2.11-.45 12.84 12.84 0 0 0 2.81.7A2 2 0 0 1 22 16.92z"/></symbol><symbol viewBox="0 0 24 24" stroke-linejoin="round" stroke-linecap="round" stroke-width="2" fill="none" stroke="currentColor" id="kp_icon_phone"><path d="M22 16.92v3a2 2 0 0 1-2.18 2 19.79 19.79 0 0 1-8.63-3.07 19.5 19.5 0 0 1-6-6 19.79 19.79 0 0 1-3.07-8.67A2 2 0 0 1 4.11 2h3a2 2 0 0 1 2 1.72 12.84 12.84 0 0 0 .7 2.81 2 2 0 0 1-.45 2.11L8.09 9.91a16 16 0 0 0 6 6l1.27-1.27a2 2 0 0 1 2.11-.45 12.84 12.84 0 0 0 2.81.7A2 2 0 0 1 22 16.92z"/></symbol><symbol viewBox="0 0 24 24" stroke-linejoin="round" stroke-linecap="round" stroke-width="2" fill="none" stroke="currentColor" id="kp_icon_pie_chart"><path d="M21.21 15.89A10 10 0 1 1 8 2.83M22 12A10 10 0 0 0 12 2v10z"/></symbol><symbol viewBox="0 0 24 24" stroke-linejoin="round" stroke-linecap="round" stroke-width="2" fill="none" stroke="currentColor" id="kp_icon_play_circle"><circle cx="12" cy="12" r="10"/><path d="M10 8l6 4-6 4V8z"/></symbol><symbol viewBox="0 0 24 24" stroke-linejoin="round" stroke-linecap="round" stroke-width="2" fill="none" stroke="currentColor" id="kp_icon_plus_circle"><circle cx="12" cy="12" r="10"/><path d="M12 8v8M8 12h8"/></symbol><symbol viewBox="0 0 24 24" stroke-linejoin="round" stroke-linecap="round" stroke-width="2" fill="none" stroke="currentColor" id="kp_icon_plus_square"><rect x="3" y="3" width="18" height="18" rx="2" ry="2"/><path d="M12 8v8M8 12h8"/></symbol><symbol viewBox="0 0 24 24" stroke-linejoin="round" stroke-linecap="round" stroke-width="2" fill="none" stroke="currentColor" id="kp_icon_plus"><path d="M12 5v14M5 12h14"/></symbol><symbol viewBox="0 0 24 24" stroke-linejoin="round" stroke-linecap="round" stroke-width="2" fill="none" stroke="currentColor" id="kp_icon_power"><path d="M18.36 6.64a9 9 0 1 1-12.73 0M12 2v10"/></symbol><symbol viewBox="0 0 24 24" stroke-linejoin="round" stroke-linecap="round" stroke-width="2" fill="none" stroke="currentColor" id="kp_icon_printer"><path d="M6 9V2h12v7M6 18H4a2 2 0 0 1-2-2v-5a2 2 0 0 1 2-2h16a2 2 0 0 1 2 2v5a2 2 0 0 1-2 2h-2"/><path d="M6 14h12v8H6z"/></symbol><symbol viewBox="0 0 24 24" stroke-linejoin="round" stroke-linecap="round" stroke-width="2" fill="none" stroke="currentColor" id="kp_icon_radio"><circle cx="12" cy="12" r="2"/><path d="M16.24 7.76a6 6 0 0 1 0 8.49m-8.48-.01a6 6 0 0 1 0-8.49m11.31-2.82a10 10 0 0 1 0 14.14m-14.14 0a10 10 0 0 1 0-14.14"/></symbol><symbol viewBox="0 0 24 24" stroke-linejoin="round" stroke-linecap="round" stroke-width="2" fill="none" stroke="currentColor" id="kp_icon_refresh"><path d="M23 4v6h-6"/><path d="M20.49 15a9 9 0 1 1-2.12-9.36L23 10"/></symbol><symbol viewBox="0 0 24 24" stroke-linejoin="round" stroke-linecap="round" stroke-width="2" fill="none" stroke="currentColor" id="kp_icon_repeat"><path d="M17 1l4 4-4 4"/><path d="M3 11V9a4 4 0 0 1 4-4h14M7 23l-4-4 4-4"/><path d="M21 13v2a4 4 0 0 1-4 4H3"/></symbol><symbol viewBox="0 0 24 24" stroke-linejoin="round" stroke-linecap="round" stroke-width="2" fill="none" stroke="currentColor" id="kp_icon_reply"><path d="M11 8V3l-8.2 8.2 8.2 8.2V15c6-2 9.6 6.2 9.6 6.2.6-6.1-1.3-9.5-3.6-11.2-2.7-2.1-6-2-6-2z" stroke="#000" stroke-miterlimit="10"/></symbol><symbol viewBox="0 0 24 24" stroke-linejoin="round" stroke-linecap="round" stroke-width="2" fill="none" stroke="currentColor" id="kp_icon_rewind"><path d="M11 19l-9-7 9-7v14zM22 19l-9-7 9-7v14z"/></symbol><symbol viewBox="0 0 24 24" stroke-linejoin="round" stroke-linecap="round" stroke-width="2" fill="none" stroke="currentColor" id="kp_icon_save"><path d="M19 21H5a2 2 0 0 1-2-2V5a2 2 0 0 1 2-2h11l5 5v11a2 2 0 0 1-2 2z"/><path d="M17 21v-8H7v8M7 3v5h8"/></symbol><symbol viewBox="0 0 24 24" stroke-linejoin="round" stroke-linecap="round" stroke-width="2" fill="none" stroke="currentColor" id="kp_icon_scissors"><circle cx="6" cy="6" r="3"/><circle cx="6" cy="18" r="3"/><path d="M20 4L8.12 15.88M14.47 14.48L20 20M8.12 8.12L12 12"/></symbol><symbol viewBox="0 0 24 24" stroke-linejoin="round" stroke-linecap="round" stroke-width="2" fill="none" stroke="currentColor" id="kp_icon_search"><circle cx="11" cy="11" r="8"/><path d="M21 21l-4.35-4.35"/></symbol><symbol viewBox="0 0 24 24" stroke-linejoin="round" stroke-linecap="round" stroke-width="2" fill="none" stroke="currentColor" id="kp_icon_send"><path d="M22 2L11 13M22 2l-7 20-4-9-9-4 20-7z"/></symbol><symbol viewBox="0 0 24 24" stroke-linejoin="round" stroke-linecap="round" stroke-width="2" fill="none" stroke="currentColor" id="kp_icon_settings"><circle cx="12" cy="12" r="3"/><path d="M19.4 15a1.65 1.65 0 0 0 .33 1.82l.06.06a2 2 0 0 1 0 2.83 2 2 0 0 1-2.83 0l-.06-.06a1.65 1.65 0 0 0-1.82-.33 1.65 1.65 0 0 0-1 1.51V21a2 2 0 0 1-2 2 2 2 0 0 1-2-2v-.09A1.65 1.65 0 0 0 9 19.4a1.65 1.65 0 0 0-1.82.33l-.06.06a2 2 0 0 1-2.83 0 2 2 0 0 1 0-2.83l.06-.06a1.65 1.65 0 0 0 .33-1.82 1.65 1.65 0 0 0-1.51-1H3a2 2 0 0 1-2-2 2 2 0 0 1 2-2h.09A1.65 1.65 0 0 0 4.6 9a1.65 1.65 0 0 0-.33-1.82l-.06-.06a2 2 0 0 1 0-2.83 2 2 0 0 1 2.83 0l.06.06a1.65 1.65 0 0 0 1.82.33H9a1.65 1.65 0 0 0 1-1.51V3a2 2 0 0 1 2-2 2 2 0 0 1 2 2v.09a1.65 1.65 0 0 0 1 1.51 1.65 1.65 0 0 0 1.82-.33l.06-.06a2 2 0 0 1 2.83 0 2 2 0 0 1 0 2.83l-.06.06a1.65 1.65 0 0 0-.33 1.82V9a1.65 1.65 0 0 0 1.51 1H21a2 2 0 0 1 2 2 2 2 0 0 1-2 2h-.09a1.65 1.65 0 0 0-1.51 1z"/></symbol><symbol viewBox="0 0 24 24" stroke-linejoin="round" stroke-linecap="round" stroke-width="2" fill="none" stroke="currentColor" id="kp_icon_share"><path d="M4 12v8a2 2 0 0 0 2 2h12a2 2 0 0 0 2-2v-8M16 6l-4-4-4 4M12 2v13"/></symbol><symbol viewBox="0 0 24 24" stroke-linejoin="round" stroke-linecap="round" stroke-width="2" fill="none" stroke="currentColor" id="kp_icon_shield"><path d="M12 22s8-4 8-10V5l-8-3-8 3v7c0 6 8 10 8 10z"/></symbol><symbol viewBox="0 0 24 24" stroke-linejoin="round" stroke-linecap="round" stroke-width="2" fill="none" stroke="currentColor" id="kp_icon_shopping_bag"><path d="M6 2L3 6v14a2 2 0 0 0 2 2h14a2 2 0 0 0 2-2V6l-3-4zM3 6h18M16 10a4 4 0 0 1-8 0"/></symbol><symbol viewBox="0 0 24 24" stroke-linejoin="round" stroke-linecap="round" stroke-width="2" fill="none" stroke="currentColor" id="kp_icon_shopping_cart"><circle cx="9" cy="21" r="1"/><circle cx="20" cy="21" r="1"/><path d="M1 1h4l2.68 13.39a2 2 0 0 0 2 1.61h9.72a2 2 0 0 0 2-1.61L23 6H6"/></symbol><symbol viewBox="0 0 24 24" stroke-linejoin="round" stroke-linecap="round" stroke-width="2" fill="none" stroke="currentColor" id="kp_icon_shuffle"><path d="M16 3h5v5M4 20L21 3M21 16v5h-5M15 15l6 6M4 4l5 5"/></symbol><symbol viewBox="0 0 24 24" stroke-linejoin="round" stroke-linecap="round" stroke-width="2" fill="none" stroke="currentColor" id="kp_icon_skip_back"><path d="M19 20L9 12l10-8v16zM5 19V5"/></symbol><symbol viewBox="0 0 24 24" stroke-linejoin="round" stroke-linecap="round" stroke-width="2" fill="none" stroke="currentColor" id="kp_icon_skip_forward"><path d="M5 4l10 8-10 8V4zM19 5v14"/></symbol><symbol viewBox="0 0 24 24" stroke-linejoin="round" stroke-linecap="round" stroke-width="2" fill="none" stroke="currentColor" id="kp_icon_slash"><circle cx="12" cy="12" r="10"/><path d="M4.93 4.93l14.14 14.14"/></symbol><symbol viewBox="0 0 24 24" stroke-linejoin="round" stroke-linecap="round" stroke-width="2" fill="none" stroke="currentColor" id="kp_icon_sliders"><path d="M4 21v-7M4 10V3M12 21v-9M12 8V3M20 21v-5M20 12V3M1 14h6M9 8h6M17 16h6"/></symbol><symbol viewBox="0 0 24 24" stroke-linejoin="round" stroke-linecap="round" stroke-width="2" fill="none" stroke="currentColor" id="kp_icon_smartphone"><rect x="5" y="2" width="14" height="20" rx="2" ry="2"/><path d="M12 18"/></symbol><symbol viewBox="0 0 24 24" stroke-linejoin="round" stroke-linecap="round" stroke-width="2" fill="none" stroke="currentColor" id="kp_icon_speaker"><rect x="4" y="2" width="16" height="20" rx="2" ry="2"/><circle cx="12" cy="14" r="4"/><path d="M12 6"/></symbol><symbol viewBox="0 0 24 24" stroke-linejoin="round" stroke-linecap="round" stroke-width="2" fill="none" stroke="currentColor" id="kp_icon_square"><rect x="3" y="3" width="18" height="18" rx="2" ry="2"/></symbol><symbol viewBox="0 0 24 24" stroke-linejoin="round" stroke-linecap="round" stroke-width="2" fill="none" stroke="currentColor" id="kp_icon_star"><path d="M12 2l3.09 6.26L22 9.27l-5 4.87 1.18 6.88L12 17.77l-6.18 3.25L7 14.14 2 9.27l6.91-1.01L12 2z"/></symbol><symbol viewBox="0 0 24 24" stroke-linejoin="round" stroke-linecap="round" stroke-width="2" fill="none" stroke="currentColor" id="kp_icon_sun"><circle cx="12" cy="12" r="5"/><path d="M12 1v2M12 21v2M4.22 4.22l1.42 1.42M18.36 18.36l1.42 1.42M1 12h2M21 12h2M4.22 19.78l1.42-1.42M18.36 5.64l1.42-1.42"/></symbol><symbol viewBox="0 0 24 24" stroke-linejoin="round" stroke-linecap="round" stroke-width="2" fill="none" stroke="currentColor" id="kp_icon_sync"><path d="M23 4v6h-6M1 20v-6h6"/><path d="M3.51 9a9 9 0 0 1 14.85-3.36L23 10M1 14l4.64 4.36A9 9 0 0 0 20.49 15"/></symbol><symbol viewBox="0 0 24 24" stroke-linejoin="round" stroke-linecap="round" stroke-width="2" fill="none" stroke="currentColor" id="kp_icon_tag"><path d="M20.59 13.41l-7.17 7.17a2 2 0 0 1-2.83 0L2 12V2h10l8.59 8.59a2 2 0 0 1 0 2.82zM7 7"/></symbol><symbol viewBox="0 0 24 24" stroke-linejoin="round" stroke-linecap="round" stroke-width="2" fill="none" stroke="currentColor" id="kp_icon_toggle_right"><rect x="1" y="5" width="22" height="14" rx="7" ry="7"/><circle cx="16" cy="12" r="3"/></symbol><symbol viewBox="0 0 24 24" stroke-linejoin="round" stroke-linecap="round" stroke-width="2" fill="none" stroke="currentColor" id="kp_icon_trash"><path d="M3 6h18M19 6v14a2 2 0 0 1-2 2H7a2 2 0 0 1-2-2V6m3 0V4a2 2 0 0 1 2-2h4a2 2 0 0 1 2 2v2M10 11v6M14 11v6"/></symbol><symbol viewBox="0 0 24 24" stroke-linejoin="round" stroke-linecap="round" stroke-width="2" fill="none" stroke="currentColor" id="kp_icon_trending_down"><path d="M23 18l-9.5-9.5-5 5L1 6"/><path d="M17 18h6v-6"/></symbol><symbol viewBox="0 0 24 24" stroke-linejoin="round" stroke-linecap="round" stroke-width="2" fill="none" stroke="currentColor" id="kp_icon_trending_up"><path d="M23 6l-9.5 9.5-5-5L1 18"/><path d="M17 6h6v6"/></symbol><symbol viewBox="0 0 24 24" stroke-linejoin="round" stroke-linecap="round" stroke-width="2" fill="none" stroke="currentColor" id="kp_icon_truck"><path d="M1 3h15v13H1zM16 8h4l3 3v5h-7V8z"/><circle cx="5.5" cy="18.5" r="2.5"/><circle cx="18.5" cy="18.5" r="2.5"/></symbol><symbol viewBox="0 0 24 24" stroke-linejoin="round" stroke-linecap="round" stroke-width="2" fill="none" stroke="currentColor" id="kp_icon_tv"><rect x="2" y="7" width="20" height="15" rx="2" ry="2"/><path d="M17 2l-5 5-5-5"/></symbol><symbol viewBox="0 0 24 24" stroke-linejoin="round" stroke-linecap="round" stroke-width="2" fill="none" stroke="currentColor" id="kp_icon_twitter"><path d="M23 3a10.9 10.9 0 0 1-3.14 1.53 4.48 4.48 0 0 0-7.86 3v1A10.66 10.66 0 0 1 3 4s-4 9 5 13a11.64 11.64 0 0 1-7 2c9 5 20 0 20-11.5a4.5 4.5 0 0 0-.08-.83A7.72 7.72 0 0 0 23 3z"/></symbol><symbol viewBox="0 0 24 24" stroke-linejoin="round" stroke-linecap="round" stroke-width="2" fill="none" stroke="currentColor" id="kp_icon_unlock"><rect x="3" y="11" width="18" height="11" rx="2" ry="2"/><path d="M7 11V7a5 5 0 0 1 9.9-1"/></symbol><symbol viewBox="0 0 24 24" stroke-linejoin="round" stroke-linecap="round" stroke-width="2" fill="none" stroke="currentColor" id="kp_icon_upload_cloud"><path d="M16 16l-4-4-4 4M12 12v9"/><path d="M20.39 18.39A5 5 0 0 0 18 9h-1.26A8 8 0 1 0 3 16.3"/><path d="M16 16l-4-4-4 4"/></symbol><symbol viewBox="0 0 24 24" stroke-linejoin="round" stroke-linecap="round" stroke-width="2" fill="none" stroke="currentColor" id="kp_icon_upload"><path d="M21 15v4a2 2 0 0 1-2 2H5a2 2 0 0 1-2-2v-4M17 8l-5-5-5 5M12 3v12"/></symbol><symbol viewBox="0 0 24 24" stroke-linejoin="round" stroke-linecap="round" stroke-width="2" fill="none" stroke="currentColor" id="kp_icon_user_check"><path d="M16 21v-2a4 4 0 0 0-4-4H5a4 4 0 0 0-4 4v2"/><circle cx="8.5" cy="7" r="4"/><path d="M17 11l2 2 4-4"/></symbol><symbol viewBox="0 0 24 24" stroke-linejoin="round" stroke-linecap="round" stroke-width="2" fill="none" stroke="currentColor" id="kp_icon_user_plus"><path d="M16 21v-2a4 4 0 0 0-4-4H5a4 4 0 0 0-4 4v2"/><circle cx="8.5" cy="7" r="4"/><path d="M20 8v6M23 11h-6"/></symbol><symbol viewBox="0 0 24 24" stroke-linejoin="round" stroke-linecap="round" stroke-width="2" fill="none" stroke="currentColor" id="kp_icon_user"><path d="M20 21v-2a4 4 0 0 0-4-4H8a4 4 0 0 0-4 4v2"/><circle cx="12" cy="7" r="4"/></symbol><symbol viewBox="0 0 24 24" stroke-linejoin="round" stroke-linecap="round" stroke-width="2" fill="none" stroke="currentColor" id="kp_icon_users"><path d="M17 21v-2a4 4 0 0 0-4-4H5a4 4 0 0 0-4 4v2"/><circle cx="9" cy="7" r="4"/><path d="M23 21v-2a4 4 0 0 0-3-3.87M16 3.13a4 4 0 0 1 0 7.75"/></symbol><symbol viewBox="0 0 24 24" stroke-linejoin="round" stroke-linecap="round" stroke-width="2" fill="none" stroke="currentColor" id="kp_icon_video_off"><path d="M16 16v1a2 2 0 0 1-2 2H3a2 2 0 0 1-2-2V7a2 2 0 0 1 2-2h2m5.66 0H14a2 2 0 0 1 2 2v3.34l1 1L23 7v10M1 1l22 22"/></symbol><symbol viewBox="0 0 24 24" stroke-linejoin="round" stroke-linecap="round" stroke-width="2" fill="none" stroke="currentColor" id="kp_icon_video"><path d="M23 7l-7 5 7 5V7z"/><rect x="1" y="5" width="15" height="14" rx="2" ry="2"/></symbol><symbol viewBox="0 0 24 24" stroke-linejoin="round" stroke-linecap="round" stroke-width="2" fill="none" stroke="currentColor" id="kp_icon_voicemail"><circle cx="5.5" cy="11.5" r="4.5"/><circle cx="18.5" cy="11.5" r="4.5"/><path d="M5.5 16h13"/></symbol><symbol viewBox="0 0 24 24" stroke-linejoin="round" stroke-linecap="round" stroke-width="2" fill="none" stroke="currentColor" id="kp_icon_volume_down"><path d="M11 5L6 9H2v6h4l5 4V5zM15.54 8.46a5 5 0 0 1 0 7.07"/></symbol><symbol viewBox="0 0 24 24" stroke-linejoin="round" stroke-linecap="round" stroke-width="2" fill="none" stroke="currentColor" id="kp_icon_volume_mute"><path d="M11 5L6 9H2v6h4l5 4V5zM23 9l-6 6M17 9l6 6"/></symbol><symbol viewBox="0 0 24 24" stroke-linejoin="round" stroke-linecap="round" stroke-width="2" fill="none" stroke="currentColor" id="kp_icon_volume_up"><path d="M11 5L6 9H2v6h4l5 4V5zM19.07 4.93a10 10 0 0 1 0 14.14M15.54 8.46a5 5 0 0 1 0 7.07"/></symbol><symbol viewBox="0 0 24 24" stroke-linejoin="round" stroke-linecap="round" stroke-width="2" fill="none" stroke="currentColor" id="kp_icon_volume"><path d="M11 5L6 9H2v6h4l5 4V5z"/></symbol><symbol viewBox="0 0 24 24" stroke-linejoin="round" stroke-linecap="round" stroke-width="2" fill="none" stroke="currentColor" id="kp_icon_wifi_off"><path d="M1 1l22 22M16.72 11.06A10.94 10.94 0 0 1 19 12.55M5 12.55a10.94 10.94 0 0 1 5.17-2.39M10.71 5.05A16 16 0 0 1 22.58 9M1.42 9a15.91 15.91 0 0 1 4.7-2.88M8.53 16.11a6 6 0 0 1 6.95 0M12 20"/></symbol><symbol viewBox="0 0 24 24" stroke-linejoin="round" stroke-linecap="round" stroke-width="2" fill="none" stroke="currentColor" id="kp_icon_wifi"><path d="M5 12.55a11 11 0 0 1 14.08 0M1.42 9a16 16 0 0 1 21.16 0M8.53 16.11a6 6 0 0 1 6.95 0M12 20"/></symbol><symbol viewBox="0 0 24 24" stroke-linejoin="round" stroke-linecap="round" stroke-width="2" fill="none" stroke="currentColor" id="kp_icon_zap_off"><path d="M12.41 6.75L13 2l-2.43 2.92M18.57 12.91L21 10h-5.34M8 8l-5 6h9l-1 8 5-6M1 1l22 22"/></symbol><symbol viewBox="0 0 24 24" stroke-linejoin="round" stroke-linecap="round" stroke-width="2" fill="none" stroke="currentColor" id="kp_icon_zap"><path d="M13 2L3 14h9l-1 8 10-12h-9l1-8z"/></symbol><symbol viewBox="0 0 24 24" stroke-linejoin="round" stroke-linecap="round" stroke-width="2" fill="none" stroke="currentColor" id="kp_icon_reply"><path d="M11 8V3l-8.2 8.2 8.2 8.2V15c6-2 9.6 6.2 9.6 6.2.6-6.1-1.3-9.5-3.6-11.2-2.7-2.1-6-2-6-2z"/></symbol><symbol viewBox="0 0 24 24" stroke-linejoin="round" stroke-linecap="round" stroke-width="2" fill="none" stroke="currentColor" id="kp_icon_message_cirlce"><path d="M21 11.5a8.38 8.38 0 0 1-.9 3.8 8.5 8.5 0 0 1-7.6 4.7 8.38 8.38 0 0 1-3.8-.9L3 21l1.9-5.7a8.38 8.38 0 0 1-.9-3.8 8.5 8.5 0 0 1 4.7-7.6 8.38 8.38 0 0 1 3.8-.9h.5a8.48 8.48 0 0 1 8 8v.5z"/></symbol><symbol viewBox="0 0 24 24" stroke-linejoin="round" stroke-linecap="round" stroke-width="2" fill="none" stroke="currentColor" id="kp_icon_image_gallery"><path d="M4.7 6h11.7c.9 0 1.6.7 1.6 1.7v11.7c0 .9-.7 1.7-1.7 1.7H4.7c-1-.1-1.7-.8-1.7-1.8V7.7C3 6.7 3.7 6 4.7 6z"/><circle cx="7.1" cy="10" r="1"/><path d="M18 16l-4.2-4.2L4.7 21M8 3h11a2 2 0 0 1 2 2v11"/></symbol><symbol viewBox="0 0 24 24" stroke-linejoin="round" stroke-linecap="round" stroke-width="2" fill="none" stroke="currentColor" id="kp_icon_whatsapp"><path d="M21 11.5a8.49 8.49 0 0 1-12.3 7.6L3 21l1.9-5.7A8.49 8.49 0 0 1 12.5 3h.5c4.3.2 7.8 3.7 8 8v.5z"/><path d="M17.1 13.6l-1.6-.8c-.2-.1-.4-.1-.5.1-.2.2-.6.8-.8.9-.2.2-.3.2-.6.1-1.4-.7-2.3-1.3-3.3-2.8-.2-.4.2-.4.7-1.3.1-.2 0-.3 0-.4 0-.2-.5-1.4-.7-1.8-.2-.5-.4-.4-.5-.4h-.5c-.2 0-.4 0-.6.2-.2.2-.8.8-.8 2s.9 2.3 1 2.5a10 10 0 0 0 4.1 3.6c1.5.7 2.1.7 2.9.6.5-.1 1.4-.6 1.6-1.1s.2-1 .1-1.1c-.1-.2-.3-.2-.5-.3z"/></symbol><symbol viewBox="0 0 24 24" stroke-linejoin="round" stroke-linecap="round" stroke-width="2" fill="none" stroke="currentColor" id="kp_icon_youtube"><path d="M23 12.1v1c0 .8-.1 1.6-.1 2.3-.1 1-.2 1.7-.3 2.3-.2.7-.7 1.2-1.4 1.4-.6.2-2.2.3-4.3.4-1.1 0-2.2.1-3.4.1h-3c-1.1 0-2.3 0-3.4-.1-2.1-.2-3.6-.3-4.2-.5-.7-.2-1.2-.7-1.4-1.4-.1-.5-.2-1.3-.3-2.3-.1-.7-.2-1.5-.2-2.3v-2.1c0-.8.1-1.6.1-2.3.1-1 .2-1.7.3-2.3.2-.6.8-1.1 1.5-1.3.6-.2 2.1-.3 4.2-.4 1.1 0 2.2-.1 3.4-.1h3c1.1 0 2.3 0 3.4.1 2.1.1 3.6.2 4.2.4.7.2 1.2.7 1.4 1.4.1.5.2 1.3.3 2.3.1.7.2 1.5.2 2.3v1.1z"/><path d="M10.2 15.2l5.6-3.2-5.6-3.2z"/></symbol><symbol viewBox="0 0 24 24" stroke-linejoin="round" stroke-linecap="round" stroke-width="2" fill="none" stroke="currentColor" id="kp_icon_instagram"><path d="M20.9 8.3c0-.7-.2-1.5-.4-2.2-.2-.6-.6-1.1-1-1.6s-1-.8-1.6-1c-.7-.3-1.4-.4-2.2-.4C14.8 3 14.4 3 12 3s-2.8 0-3.7.1c-.7 0-1.5.2-2.2.4-.6.2-1.1.6-1.6 1s-.8 1-1 1.6c-.3.7-.4 1.4-.4 2.2C3 9.2 3 9.6 3 12s0 2.8.1 3.7c0 .7.2 1.5.4 2.2.2.6.6 1.1 1 1.6s1 .8 1.6 1c.7.3 1.4.4 2.2.4.9.1 1.3.1 3.7.1s2.8 0 3.7-.1c.7 0 1.5-.2 2.2-.4.6-.2 1.1-.6 1.6-1s.8-1 1-1.6c.3-.7.4-1.4.4-2.2 0-1 .1-1.3.1-3.7s0-2.8-.1-3.7z"/><path d="M12 8c-2.2 0-4 1.8-4 4s1.8 4 4 4 4-1.8 4-4-1.8-4-4-4zM17.3 5.7c-.6 0-1 .4-1 1s.4 1 1 1 1-.4 1-1-.4-1-1-1z"/></symbol></svg>