<!--Generated by kepler builder - Material twotone--><svg xmlns="http://www.w3.org/2000/svg"><symbol viewBox="0 0 24 24" fill="currentColor" id="kp_icon_alert_circle"><path opacity=".3" d="M12 4a8 8 0 1 0 0 16 8 8 0 0 0 0-16zm1 13h-2v-2h2v2zm0-4h-2V7h2v6z"/><path d="M11.99 2A10 10 0 1 0 12 21.99 10 10 0 0 0 11.99 2zM12 20a8 8 0 1 1 0-16 8 8 0 0 1 0 16zm-1-5h2v2h-2zm0-8h2v6h-2z"/></symbol><symbol viewBox="0 0 24 24" fill="currentColor" id="kp_icon_alert_triangle"><path d="M4.47 19h15.06L12 5.99zM13 18h-2v-2h2zm0-4h-2v-4h2z" opacity=".3"/><path d="M1 21h22L12 2zm3.47-2L12 5.99 19.53 19zM11 16h2v2h-2zm0-6h2v4h-2z"/></symbol><symbol viewBox="0 0 24 24" fill="currentColor" id="kp_icon_archive"><path d="M5 19h14V8H5zm5.55-6v-3h2.91v3H16l-4 4-4-4z" opacity=".3"/><path d="M16 13h-2.55v-3h-2.9v3H8l4 4zm4.54-7.77l-1.39-1.68A1.45 1.45 0 0 0 18 3H6c-.47 0-.88.21-1.16.55L3.46 5.23C3.17 5.57 3 6.02 3 6.5V19c0 1.1.9 2 2 2h14a2 2 0 0 0 2-2V6.5c0-.48-.17-.93-.46-1.27zM6.24 5h11.52l.81.97H5.44zM19 19H5V8h14z"/></symbol><symbol viewBox="0 0 24 24" fill="currentColor" id="kp_icon_arrow_down_circle"><path d="M12 4a8.01 8.01 0 0 0 0 16 8.01 8.01 0 0 0 0-16zm0 11l-4-4h8z" opacity=".3"/><path d="M12 2a10 10 0 1 0 0 20 10 10 0 0 0 0-20zm0 18a8.01 8.01 0 0 1 0-16 8.01 8.01 0 0 1 0 16zm0-5l4-4H8z"/></symbol><symbol viewBox="0 0 24 24" fill="currentColor" id="kp_icon_arrow_down_left"><path d="M17.7 17.7v-2H9.8l8.6-8.6-1.5-1.5-8.6 8.6.1-7.9H6.3v11.4z"/></symbol><symbol viewBox="0 0 24 24" fill="currentColor" id="kp_icon_arrow_down_right"><path d="M17.7 6.3h-2v7.9L7.1 5.6 5.6 7.1l8.6 8.6-7.9-.1v2.1h11.4z"/></symbol><symbol viewBox="0 0 24 24" fill="currentColor" id="kp_icon_arrow_down"><path d="M20 12l-1.41-1.41L13 16.17V4h-2v12.17l-5.58-5.59L4 12l8 8z"/></symbol><symbol viewBox="0 0 24 24" fill="currentColor" id="kp_icon_arrow_left_circle"><path d="M20 12c0-4.4-3.6-8-8-8s-8 3.6-8 8 3.6 8 8 8 8-3.6 8-8zM9 12l4-4v8z" opacity=".3"/><path d="M22 12c0-5.5-4.5-10-10-10S2 6.5 2 12s4.5 10 10 10 10-4.5 10-10zM4 12c0-4.4 3.6-8 8-8s8 3.6 8 8-3.6 8-8 8-8-3.6-8-8zm5 0l4 4V8z"/></symbol><symbol viewBox="0 0 24 24" fill="currentColor" id="kp_icon_arrow_left"><path d="M20 11H7.83l5.59-5.59L12 4l-8 8 8 8 1.41-1.41L7.83 13H20z"/></symbol><symbol viewBox="0 0 24 24" fill="currentColor" id="kp_icon_arrow_right_circle"><path d="M4 12c0 4.4 3.6 8 8 8s8-3.6 8-8-3.6-8-8-8-8 3.6-8 8zm11 0l-4 4V8z" opacity=".3"/><path d="M2 12c0 5.5 4.5 10 10 10s10-4.5 10-10S17.5 2 12 2 2 6.5 2 12zm18 0c0 4.4-3.6 8-8 8s-8-3.6-8-8 3.6-8 8-8 8 3.6 8 8zm-5 0l-4-4v8z"/></symbol><symbol viewBox="0 0 24 24" fill="currentColor" id="kp_icon_arrow_right"><path d="M12 4l-1.41 1.41L16.17 11H4v2h12.17l-5.58 5.59L12 20l8-8z"/></symbol><symbol viewBox="0 0 24 24" fill="currentColor" id="kp_icon_arrow_up_circle"><path d="M12 20c4.4 0 8-3.6 8-8s-3.6-8-8-8-8 3.6-8 8 3.6 8 8 8zm0-11l4 4H8z" opacity=".3"/><path d="M12 22c5.5 0 10-4.5 10-10S17.5 2 12 2 2 6.5 2 12s4.5 10 10 10zm0-18c4.4 0 8 3.6 8 8s-3.6 8-8 8-8-3.6-8-8 3.6-8 8-8zm0 5l-4 4h8z"/></symbol><symbol viewBox="0 0 24 24" fill="currentColor" id="kp_icon_arrow_up_left"><path d="M6.3 17.7h2V9.8l8.6 8.6 1.5-1.5-8.6-8.6 7.9.1V6.3H6.3z"/></symbol><symbol viewBox="0 0 24 24" fill="currentColor" id="kp_icon_arrow_up_right"><path d="M6.3 6.3v2h7.9l-8.6 8.6 1.5 1.5 8.6-8.6-.1 7.9h2.1V6.3z"/></symbol><symbol viewBox="0 0 24 24" fill="currentColor" id="kp_icon_arrow_up"><path d="M4 12l1.41 1.41L11 7.83V20h2V7.83l5.58 5.59L20 12l-8-8z"/></symbol><symbol viewBox="0 0 24 24" fill="currentColor" id="kp_icon_at_sign"><path d="M12 21.95h5v-2h-5c-4.34 0-8-3.66-8-8s3.66-8 8-8 8 3.66 8 8v1.43c0 .79-.71 1.57-1.5 1.57s-1.5-.78-1.5-1.57v-1.43a5 5 0 1 0-1.46 3.53 3.7 3.7 0 0 0 2.96 1.47c1.97 0 3.5-1.6 3.5-3.57v-1.43a10 10 0 1 0-10 10zm0-7a3 3 0 1 1 0-6 3 3 0 0 1 0 6z"/></symbol><symbol viewBox="0 0 24 24" fill="currentColor" id="kp_icon_bar_chart"><path d="M5 9.2h3V19H5zM16.2 13H19v6h-2.8zm-5.6-8h2.8v14h-2.8z"/></symbol><symbol viewBox="0 0 24 24" fill="currentColor" id="kp_icon_battery_charging"><path d="M15.67 4H14V2h-4v2H8.33C7.6 4 7 4.6 7 5.33v15.33C7 21.4 7.6 22 8.33 22h7.33c.74 0 1.34-.6 1.34-1.33V5.33C17 4.6 16.4 4 15.67 4zM11 20v-5.5H9L13 7v5.5h2z"/></symbol><symbol viewBox="0 0 24 24" fill="currentColor" id="kp_icon_battery"><path d="M15.67 4H14V2h-4v2H8.33C7.6 4 7 4.6 7 5.33v15.33C7 21.4 7.6 22 8.33 22h7.33c.74 0 1.34-.6 1.34-1.33V5.33C17 4.6 16.4 4 15.67 4z"/></symbol><symbol viewBox="0 0 24 24" fill="currentColor" id="kp_icon_bell_off"><path d="M8 17h8v-.24L8.34 9.1A5.34 5.34 0 0 0 8 11zm4-10.5c-.19 0-.37.03-.55.06L16 11.1V11c0-2.48-1.51-4.5-4-4.5z" opacity=".3"/><path d="M12 22a2 2 0 0 0 2-2h-4c0 1.1.9 2 2 2zm0-15.5c2.49 0 4 2.02 4 4.5v.1l2 2V11c0-3.07-1.63-5.64-4.5-6.32V4a1.5 1.5 0 1 0-3 0v.68c-.24.06-.47.15-.69.23l1.64 1.64c.18-.02.36-.05.55-.05zM5.41 3.35L4 4.76l2.81 2.81C6.29 8.57 6 9.74 6 11v5l-2 2v1h14.24l1.74 1.74 1.41-1.41zM16 17H8v-6c0-.68.12-1.32.34-1.9L16 16.76z"/></symbol><symbol viewBox="0 0 24 24" fill="currentColor" id="kp_icon_bell"><path d="M12 6.5c-2.49 0-4 2.02-4 4.5v6h8v-6c0-2.48-1.51-4.5-4-4.5z" opacity=".3"/><path d="M12 22a2 2 0 0 0 2-2h-4c0 1.1.9 2 2 2zm6-11c0-3.07-1.63-5.64-4.5-6.32V4a1.5 1.5 0 1 0-3 0v.68C7.64 5.36 6 7.92 6 11v5l-2 2v1h16v-1l-2-2zm-2 6H8v-6c0-2.48 1.51-4.5 4-4.5s4 2.02 4 4.5zM7.58 4.08L6.15 2.65a10.43 10.43 0 0 0-4.12 7.85h2a8.45 8.45 0 0 1 3.55-6.42zm12.39 6.42h2a10.49 10.49 0 0 0-4.12-7.85l-1.42 1.43a8.5 8.5 0 0 1 3.54 6.42z"/></symbol><symbol viewBox="0 0 24 24" fill="currentColor" id="kp_icon_bluetooth"><path d="M17.71 7.71L12 2h-1v7.59L6.41 5 5 6.41 10.59 12 5 17.59 6.41 19 11 14.41V22h1l5.71-5.71-4.3-4.29zM13 5.83l1.88 1.88L13 9.59zm1.88 10.46L13 18.17v-3.76z"/></symbol><symbol viewBox="0 0 24 24" fill="currentColor" id="kp_icon_book_open"><path d="M21 5a11.8 11.8 0 0 0-3.5-.5c-1.95 0-4.05.4-5.5 1.5-1.45-1.1-3.55-1.5-5.5-1.5S2.45 4.9 1 6v14.65c0 .25.25.5.5.5.1 0 .15-.05.25-.05A12.2 12.2 0 0 1 6.5 20c1.95 0 4.05.4 5.5 1.5 1.35-.85 3.8-1.5 5.5-1.5 1.65 0 3.35.3 4.75 1.05.1.05.15.05.25.05.25 0 .5-.25.5-.5V6a6.82 6.82 0 0 0-2-1zM3 18.5V7c1.1-.35 2.3-.5 3.5-.5 1.34 0 3.13.41 4.5.99v11.5A12.73 12.73 0 0 0 6.5 18c-1.2 0-2.4.15-3.5.5zm18 0c-1.1-.35-2.3-.5-3.5-.5-1.34 0-3.13.41-4.5.99V7.49c1.37-.59 3.16-.99 4.5-.99 1.2 0 2.4.15 3.5.5z"/><path d="M11 7.49a12.73 12.73 0 0 0-4.5-.99c-1.2 0-2.4.15-3.5.5v11.5c1.1-.35 2.3-.5 3.5-.5 1.34 0 3.13.41 4.5.99z" opacity=".3"/></symbol><symbol viewBox="0 0 24 24" fill="currentColor" id="kp_icon_book"><path d="M13 13l-3-2.25L7 13V4H6v16h12V4h-5z" opacity=".3"/><path d="M18 2H6a2 2 0 0 0-2 2v16c0 1.1.9 2 2 2h12a2 2 0 0 0 2-2V4a2 2 0 0 0-2-2zM9 4h2v5l-1-.75L9 9zm9 16H6V4h1v9l3-2.25L13 13V4h5z"/></symbol><symbol viewBox="0 0 24 24" fill="currentColor" id="kp_icon_bookmark"><path d="M7 17.97l5-2.15 5 2.15V5H7z" opacity=".3"/><path d="M17 3H7a2 2 0 0 0-2 2v16l7-3 7 3V5a2 2 0 0 0-2-2zm0 14.97l-5-2.14-5 2.14V5h10z"/></symbol><symbol viewBox="0 0 24 24" fill="currentColor" id="kp_icon_briefcase"><path d="M15 17H9v-1H5v3h14v-3h-4zM4 14h5v-3h6v3h5V9H4z" opacity=".3"/><path d="M20 7h-4V5l-2-2h-4L8 5v2H4a2 2 0 0 0-2 2v5c0 .75.4 1.38 1 1.73V19a2 2 0 0 0 2 2h14a2 2 0 0 0 2-2v-3.28c.59-.35 1-.99 1-1.72V9a2 2 0 0 0-2-2zM10 5h4v2h-4zm9 14H5v-3h4v1h6v-1h4zm-8-4v-2h2v2zm9-1h-5v-3H9v3H4V9h16z"/></symbol><symbol viewBox="0 0 24 24" fill="currentColor" id="kp_icon_brush"><path d="M8 17c0-.55-.45-1-1-1s-1 .45-1 1c0 .74-.19 1.4-.5 1.95.17.03.33.05.5.05a2 2 0 0 0 2-2z" opacity=".3"/><path d="M11.75 15l8.96-8.96a1 1 0 0 0 0-1.41l-1.34-1.34c-.2-.2-.45-.29-.7-.29s-.51.1-.71.29L9 12.25zM6 21a4 4 0 0 0 4-4 3 3 0 1 0-6 0c0 1.31-1.16 2-2 2 .92 1.22 2.49 2 4 2zm0-4c0-.55.45-1 1-1s1 .45 1 1a2 2 0 0 1-2 2c-.17 0-.33-.02-.5-.05.31-.55.5-1.21.5-1.95z"/></symbol><symbol viewBox="0 0 24 24" fill="currentColor" id="kp_icon_calendar"><path d="M19 3h-1V1h-2v2H8V1H6v2H5a2 2 0 0 0-1.99 2L3 19a2 2 0 0 0 2 2h14a2 2 0 0 0 2-2V5a2 2 0 0 0-2-2zm0 16H5V9h14zm0-12H5V5h14zm-7 4H7v5h5z"/><path d="M5 5h14v2H5z" opacity=".3"/></symbol><symbol viewBox="0 0 24 24" fill="currentColor" id="kp_icon_camera"><path opacity=".3" d="M20 6h-4.05l-1.83-2H9.88L8.05 6H4v12h16V6zm-8 11a5 5 0 1 1 0-10 5 5 0 0 1 0 10z"/><path d="M4 20h16a2 2 0 0 0 2-2V6a2 2 0 0 0-2-2h-3.17L15 2H9L7.17 4H4a2 2 0 0 0-2 2v12c0 1.1.9 2 2 2zM4 6h4.05l1.83-2h4.24l1.83 2H20v12H4V6zm8 1a5 5 0 1 0 0 10 5 5 0 0 0 0-10zm0 8c-1.65 0-3-1.35-3-3s1.35-3 3-3 3 1.35 3 3-1.35 3-3 3z"/></symbol><symbol viewBox="0 0 24 24" fill="currentColor" id="kp_icon_cast"><path d="M21 3H3a2 2 0 0 0-2 2v3h2V5h18v14h-7v2h7a2 2 0 0 0 2-2V5a2 2 0 0 0-2-2zM1 18v3h3a3 3 0 0 0-3-3zm0-4v2a5 5 0 0 1 5 5h2a7 7 0 0 0-7-7zm0-4v2a9 9 0 0 1 9 9h2A11 11 0 0 0 1 10z"/></symbol><symbol viewBox="0 0 24 24" fill="currentColor" id="kp_icon_check_circle"><path d="M12 4a8.01 8.01 0 0 0 0 16 8.01 8.01 0 0 0 0-16zm-2 13l-4-4 1.41-1.41L10 14.17l6.59-6.59L18 9z" opacity=".3"/><path d="M12 2a10 10 0 1 0 0 20 10 10 0 0 0 0-20zm0 18a8.01 8.01 0 0 1 0-16 8.01 8.01 0 0 1 0 16zm4.59-12.42L10 14.17l-2.59-2.58L6 13l4 4 8-8z"/></symbol><symbol viewBox="0 0 24 24" fill="currentColor" id="kp_icon_check_square"><path d="M5 19h14V5H5zm2.41-7.4l2.58 2.58 6.59-6.59L17.99 9l-8 8L6 13.01z" opacity=".3"/><path d="M19 3H5a2 2 0 0 0-2 2v14c0 1.1.9 2 2 2h14a2 2 0 0 0 2-2V5a2 2 0 0 0-2-2zm0 16H5V5h14zM17.99 9l-1.41-1.42-6.59 6.59-2.58-2.57-1.42 1.41 4 3.99z"/></symbol><symbol viewBox="0 0 24 24" fill="currentColor" id="kp_icon_check"><path d="M9 16.17L4.83 12l-1.42 1.41L9 19 21 7l-1.41-1.41z"/></symbol><symbol viewBox="0 0 24 24" fill="currentColor" id="kp_icon_chevron_down"><path d="M7.41 8.59L12 13.17l4.59-4.58L18 10l-6 6-6-6z"/></symbol><symbol viewBox="0 0 24 24" fill="currentColor" id="kp_icon_chevron_left"><path d="M15.41 16.59L10.83 12l4.58-4.59L14 6l-6 6 6 6z"/></symbol><symbol viewBox="0 0 24 24" fill="currentColor" id="kp_icon_chevron_right"><path d="M8.59 16.59L13.17 12 8.59 7.41 10 6l6 6-6 6z"/></symbol><symbol viewBox="0 0 24 24" fill="currentColor" id="kp_icon_chevron_up"><path d="M7.41 15.41L12 10.83l4.59 4.58L18 14l-6-6-6 6z"/></symbol><symbol viewBox="0 0 24 24" fill="currentColor" id="kp_icon_circle"><path d="M12 2a10 10 0 1 0 0 20 10 10 0 0 0 0-20zm0 18a8 8 0 1 1 0-16 8 8 0 0 1 0 16z"/></symbol><symbol viewBox="0 0 24 24" fill="currentColor" id="kp_icon_clipboard"><path d="M5 5v14h14V5zm9 12H7v-2h7zm3-4H7v-2h10zm0-4H7V7h10z" opacity=".3"/><path d="M7 15h7v2H7zm0-4h10v2H7zm0-4h10v2H7zm12-4h-4.18C14.4 1.84 13.3 1 12 1s-2.4.84-2.82 2H5a2 2 0 0 0-2 2v14c0 .27.06.54.16.78s.25.45.43.64a2 2 0 0 0 1.01.55c.13.02.26.03.4.03h14a2 2 0 0 0 2-2V5a2 2 0 0 0-2-2zm-7-.25c.41 0 .75.34.75.75s-.34.75-.75.75-.75-.34-.75-.75.34-.75.75-.75zM19 19H5V5h14z"/></symbol><symbol viewBox="0 0 24 24" fill="currentColor" id="kp_icon_clock"><path d="M12 4a8 8 0 1 0 0 16 8 8 0 0 0 0-16zm4.25 12.15L11 13V7h1.5v5.25l4.5 2.67z" opacity=".3"/><path d="M11.99 2A10 10 0 1 0 12 21.99 10 10 0 0 0 11.99 2zM12 20a8 8 0 1 1 0-16 8 8 0 0 1 0 16zm.5-13H11v6l5.25 3.15.75-1.23-4.5-2.67z"/></symbol><symbol viewBox="0 0 24 24" fill="currentColor" id="kp_icon_close_circle"><path d="M12 4a8.01 8.01 0 0 0 0 16 8.01 8.01 0 0 0 0-16zm5 11.59L15.59 17 12 13.41 8.41 17 7 15.59 10.59 12 7 8.41 8.41 7 12 10.59 15.59 7 17 8.41 13.41 12z" opacity=".3"/><path d="M12 2a10 10 0 1 0 0 20 10 10 0 1 0 0-20zm0 18a8.01 8.01 0 0 1 0-16 8.01 8.01 0 0 1 0 16zm3.59-13L12 10.59 8.41 7 7 8.41 10.59 12 7 15.59 8.41 17 12 13.41 15.59 17 17 15.59 13.41 12 17 8.41z"/></symbol><symbol viewBox="0 0 24 24" fill="currentColor" id="kp_icon_close_square"><path d="M7.06 5L2.4 12l4.67 7H22V5H7.06c.01 0 .01 0 0 0zM9 8.41L10.41 7 14 10.59 17.59 7 19 8.41 15.41 12 19 15.59 17.59 17 14 13.41 10.41 17 9 15.59 12.59 12z" opacity=".3"/><path d="M22 3H7c-.69 0-1.23.35-1.59.88L0 12l5.41 8.11c.36.53.9.89 1.59.89h15a2 2 0 0 0 2-2V5a2 2 0 0 0-2-2zm0 16H7.07L2.4 12l4.66-7H22zm-11.59-2L14 13.41 17.59 17 19 15.59 15.41 12 19 8.41 17.59 7 14 10.59 10.41 7 9 8.41 12.59 12 9 15.59z"/></symbol><symbol viewBox="0 0 24 24" fill="currentColor" id="kp_icon_close"><path d="M19 6.41L17.59 5 12 10.59 6.41 5 5 6.41 10.59 12 5 17.59 6.41 19 12 13.41 17.59 19 19 17.59 13.41 12z"/></symbol><symbol viewBox="0 0 24 24" fill="currentColor" id="kp_icon_code"><path d="M9.4 16.6L4.8 12l4.6-4.6L8 6l-6 6 6 6zm5.2 0l4.6-4.6-4.6-4.6L16 6l6 6-6 6z"/></symbol><symbol viewBox="0 0 24 24" fill="currentColor" id="kp_icon_compass"><path d="M12 4a8.01 8.01 0 0 0 0 16 8.01 8.01 0 0 0 0-16zm2.01 10.01L6.5 17.5l3.49-7.51L17.5 6.5z" opacity=".3"/><path d="M12 2a10 10 0 1 0 0 20 10 10 0 0 0 0-20zm0 18a8.01 8.01 0 0 1 0-16 8.01 8.01 0 0 1 0 16zm-5.5-2.5l7.51-3.49L17.5 6.5 9.99 9.99zm5.5-6.6c.61 0 1.1.49 1.1 1.1s-.49 1.1-1.1 1.1-1.1-.49-1.1-1.1.49-1.1 1.1-1.1z"/></symbol><symbol viewBox="0 0 24 24" fill="currentColor" id="kp_icon_copy"><path d="M14 7H8v14h11v-9h-5z" opacity=".3"/><path d="M16 1H4a2 2 0 0 0-2 2v14h2V3h12zm-1 4H8a2 2 0 0 0-1.99 2L6 21a2 2 0 0 0 1.99 2H19a2 2 0 0 0 2-2V11zm4 16H8V7h6v5h5z"/></symbol><symbol viewBox="0 0 24 24" fill="currentColor" id="kp_icon_corner_down_left"><path d="M11 9l1.42 1.42L8.83 14H18V4h2v12H8.83l3.59 3.58L11 21l-6-6z"/></symbol><symbol viewBox="0 0 24 24" fill="currentColor" id="kp_icon_corner_down_right"><path d="M19 15l-6 6-1.42-1.42L15.17 16H4V4h2v10h9.17l-3.59-3.58L13 9z"/></symbol><symbol viewBox="0 0 24 24" fill="currentColor" id="kp_icon_credit_card"><path d="M4 12h16v6H4zm0-6h16v2H4z" opacity=".3"/><path d="M20 4H4c-1.11 0-1.99.89-1.99 2L2 18a2 2 0 0 0 2 2h16a2 2 0 0 0 2-2V6a2 2 0 0 0-2-2zm0 14H4v-6h16zm0-10H4V6h16z"/></symbol><symbol viewBox="0 0 24 24" fill="currentColor" id="kp_icon_crop"><path d="M5 17c0 1.1.9 2 2 2h10v4h2v-4h4v-2H7V1H5v4H1v2h4zm14-2V7a2 2 0 0 0-2-2H9v2h8v8z"/></symbol><symbol viewBox="0 0 24 24" fill="currentColor" id="kp_icon_cube"><path d="M21 16.5a1 1 0 0 1-.53.88l-7.9 4.44c-.16.12-.36.18-.57.18s-.41-.06-.57-.18l-7.9-4.44A1 1 0 0 1 3 16.5v-9a1 1 0 0 1 .53-.88l7.9-4.44c.16-.12.36-.18.57-.18s.41.06.57.18l7.9 4.44a1 1 0 0 1 .53.88zM12 4.15L6.04 7.5 12 10.85l5.96-3.35zM5 15.91l6 3.38v-6.71L5 9.21zm14 0v-6.7l-6 3.37v6.71z"/></symbol><symbol viewBox="0 0 24 24" fill="currentColor" id="kp_icon_delete"><path opacity=".3" d="M7.06 5L2.4 12l4.67 7H22V5H7.06c.01 0 .01 0 0 0zM9 8.41L10.41 7 14 10.59 17.59 7 19 8.41 15.41 12 19 15.59 17.59 17 14 13.41 10.41 17 9 15.59 12.59 12 9 8.41z"/><path d="M22 3H7c-.69 0-1.23.35-1.59.88L0 12l5.41 8.11c.36.53.9.89 1.59.89h15a2 2 0 0 0 2-2V5a2 2 0 0 0-2-2zm0 16H7.07L2.4 12l4.66-7H22v14zm-11.59-2L14 13.41 17.59 17 19 15.59 15.41 12 19 8.41 17.59 7 14 10.59 10.41 7 9 8.41 12.59 12 9 15.59z"/></symbol><symbol viewBox="0 0 24 24" fill="currentColor" id="kp_icon_download_cloud"><path d="M19.21 12.04l-1.53-.11-.3-1.5A5.48 5.48 0 0 0 7.12 8.96l-.5.95-1.07.11A4 4 0 0 0 6 18h13a2.98 2.98 0 1 0 .21-5.96zM12 17l-4-4h2.55v-3h2.91v3H16z" opacity=".3"/><path d="M19.35 10.04a7.49 7.49 0 0 0-14-2A6 6 0 0 0 6 20h13a4.98 4.98 0 1 0 .35-9.96zM19 18H6a4 4 0 0 1-.44-7.97l1.07-.11.5-.95a5.5 5.5 0 0 1 10.26 1.46l.3 1.5 1.53.11A2.98 2.98 0 0 1 19 18zm-5.55-8h-2.9v3H8l4 4 4-4h-2.55z"/></symbol><symbol viewBox="0 0 24 24" fill="currentColor" id="kp_icon_download"><path d="M14.17 11H13V5h-2v6H9.83L12 13.17z" opacity=".3"/><path d="M19 9h-4V3H9v6H5l7 7zm-8 2V5h2v6h1.17L12 13.17 9.83 11zm-6 7h14v2H5z"/></symbol><symbol viewBox="0 0 24 24" fill="currentColor" id="kp_icon_droplet"><path d="M16.24 9.65L12 5.27 7.76 9.6A5.7 5.7 0 0 0 6 14h12c-.01-2-.62-3.23-1.76-4.35z" opacity=".3"/><path d="M17.66 8L12 2.35 6.34 8A8.02 8.02 0 0 0 12 21.66 7.99 7.99 0 0 0 17.66 8zM6 14a5.7 5.7 0 0 1 1.76-4.4L12 5.27l4.24 4.38A5.57 5.57 0 0 1 18 14z"/></symbol><symbol viewBox="0 0 24 24" fill="currentColor" id="kp_icon_edit_2"><path d="M14 6.08l-8 8V15h.92l8-8z"/><path d="M14 3.25l-10 10V17h3.75l10-10zM6.92 15H6v-.92l8-8 .92.92zM20.71 4.04a1 1 0 0 0 0-1.41L18.37.29a1 1 0 0 0-1.41 0L15 2.25 18.75 6zM0 20h24v4H0z"/></symbol><symbol viewBox="0 0 24 24" fill="currentColor" id="kp_icon_edit"><path d="M5 18.08V19h.92l9.06-9.06-.92-.92z" opacity=".3"/><path d="M20.71 7.04a1 1 0 0 0 0-1.41l-2.34-2.34c-.2-.2-.45-.29-.71-.29s-.51.1-.7.29l-1.83 1.83 3.75 3.75zM3 17.25V21h3.75L17.81 9.94l-3.75-3.75zM5.92 19H5v-.92l9.06-9.06.92.92z"/></symbol><symbol viewBox="0 0 24 24" fill="currentColor" id="kp_icon_external_link"><path d="M19 19H5V5h7V3H5a2 2 0 0 0-2 2v14a2 2 0 0 0 2 2h14a2 2 0 0 0 2-2v-7h-2zM14 3v2h3.59l-9.83 9.83 1.41 1.41L19 6.41V10h2V3z"/></symbol><symbol viewBox="0 0 24 24" fill="currentColor" id="kp_icon_eye_off"><path opacity=".3" d="M12 14l.12-.01-2.61-2.61-.01.12A2.5 2.5 0 0 0 12 14zm1.01-4.79l1.28 1.28a2.54 2.54 0 0 0-1.28-1.28zm7.81 2.29a9.77 9.77 0 0 0-10.81-5.28l.92.92a4.5 4.5 0 0 1 5.43 5.43l2.05 2.05c.98-.86 1.81-1.91 2.41-3.12zM12 17c.95 0 1.87-.13 2.75-.39l-.98-.98a4.5 4.5 0 0 1-5.91-5.9L6.11 7.97a9.77 9.77 0 0 0-2.93 3.52A9.78 9.78 0 0 0 12 17z"/><path d="M12 6a9.77 9.77 0 0 1 8.82 5.5 9.65 9.65 0 0 1-2.41 3.12l1.41 1.41A11.8 11.8 0 0 0 23 11.5 11.83 11.83 0 0 0 8.36 4.57l1.65 1.65A10.1 10.1 0 0 1 12 6zm2.28 4.49l2.07 2.07a4.48 4.48 0 0 0-5.42-5.42L13 9.21c.58.25 1.03.71 1.28 1.28zM2.01 3.87l2.68 2.68A11.74 11.74 0 0 0 1 11.5a11.83 11.83 0 0 0 15.32 6.68l3.42 3.42 1.41-1.41L3.42 2.45 2.01 3.87zm7.5 7.5l2.61 2.61L12 14a2.5 2.5 0 0 1-2.5-2.5l.01-.13zm-3.4-3.4l1.75 1.75a4.5 4.5 0 0 0 5.91 5.92l.98.98A9.77 9.77 0 0 1 3.18 11.5a9.9 9.9 0 0 1 2.93-3.53z"/></symbol><symbol viewBox="0 0 24 24" fill="currentColor" id="kp_icon_eye"><path d="M12 6a9.77 9.77 0 0 0-8.82 5.5C4.83 14.87 8.21 17 12 17s7.17-2.13 8.82-5.5A9.77 9.77 0 0 0 12 6zm0 10a4.5 4.5 0 1 1 .01-9.01A4.5 4.5 0 0 1 12 16z" opacity=".3"/><path d="M12 4C7 4 2.73 7.11 1 11.5a11.83 11.83 0 0 0 22 0C21.27 7.11 17 4 12 4zm0 13a9.77 9.77 0 0 1-8.82-5.5C4.83 8.13 8.21 6 12 6s7.17 2.13 8.82 5.5A9.77 9.77 0 0 1 12 17zm0-10a4.5 4.5 0 1 0 .01 9.01A4.5 4.5 0 0 0 12 7zm0 7a2.5 2.5 0 1 1 0-5 2.5 2.5 0 0 1 0 5z"/></symbol><symbol viewBox="0 0 24 24" fill="currentColor" id="kp_icon_fast_forward"><path d="M15 9.86v4.28L18.03 12zm-9 0v4.28L9.03 12z" opacity=".3"/><path d="M4 18l8.5-6L4 6zm2-8.14L9.03 12 6 14.14zM21.5 12L13 6v12zM15 9.86L18.03 12 15 14.14z"/></symbol><symbol viewBox="0 0 24 24" fill="currentColor" id="kp_icon_file_text"><path d="M13 4H6v16h12V9h-5zm3 14H8v-2h8zm0-6v2H8v-2z" opacity=".3"/><path d="M8 16h8v2H8zm0-4h8v2H8zm6-10H6a2 2 0 0 0-2 2v16a2 2 0 0 0 1.99 2H18a2 2 0 0 0 2-2V8zm4 18H6V4h7v5h5z"/></symbol><symbol viewBox="0 0 24 24" fill="currentColor" id="kp_icon_file"><path d="M13 4H6v16h12V9h-5z" opacity=".3"/><path d="M20 8l-6-6H6a2 2 0 0 0-1.99 2L4 20a2 2 0 0 0 1.99 2H18a2 2 0 0 0 2-2zm-2 12H6V4h7v5h5z"/></symbol><symbol viewBox="0 0 24 24" fill="currentColor" id="kp_icon_film"><path d="M10 5h4v14h-4z" opacity=".3"/><path d="M20 21V3h-2v2h-2V3H8v2H6V3H4v18h2v-2h2v2h8v-2h2v2zM8 17H6v-2h2zm0-4H6v-2h2zm0-4H6V7h2zm6 10h-4V5h4zm2-12h2v2h-2zm0 4h2v2h-2zm0 6v-2h2v2z"/></symbol><symbol viewBox="0 0 24 24" fill="currentColor" id="kp_icon_filter"><path d="M10 18h4v-2h-4v2zM3 6v2h18V6H3zm3 7h12v-2H6v2z"/></symbol><symbol viewBox="0 0 24 24" fill="currentColor" id="kp_icon_flag"><path opacity=".3" d="M12.36 6H7v6h7.24l.4 2H18V8h-5.24z"/><path d="M14.4 6L14 4H5v17h2v-7h5.6l.4 2h7V6h-5.6zm3.6 8h-3.36l-.4-2H7V6h5.36l.4 2H18v6z"/></symbol><symbol viewBox="0 0 24 24" fill="currentColor" id="kp_icon_folder_plus"><path d="M11.17 8l-.59-.59L9.17 6H4v12h16V8zM14 10h2v2h2v2h-2v2h-2v-2h-2v-2h2z" opacity=".3"/><path d="M20 6h-8l-2-2H4c-1.11 0-1.99.89-1.99 2L2 18a2 2 0 0 0 2 2h16a2 2 0 0 0 2-2V8a2 2 0 0 0-2-2zm0 12H4V6h5.17l1.41 1.41.59.59H20zm-8-4h2v2h2v-2h2v-2h-2v-2h-2v2h-2z"/></symbol><symbol viewBox="0 0 24 24" fill="currentColor" id="kp_icon_folder"><path d="M11.17 8l-.58-.59L9.17 6H4v12h16V8h-8z" opacity=".3"/><path d="M20 6h-8l-2-2H4a2 2 0 0 0-1.99 2L2 18c0 1.1.9 2 2 2h16a2 2 0 0 0 2-2V8a2 2 0 0 0-2-2zm0 12H4V6h5.17l1.41 1.41.59.59H20z"/></symbol><symbol viewBox="0 0 24 24" fill="currentColor" id="kp_icon_gift"><path d="M4 17h16v2H4zm13-6.17L15.38 12 13 8.76 12 7.4l-1 1.36L8.62 12 7 10.83 9.08 8H4v6h16V8h-5.08z" opacity=".3"/><path d="M20 6h-2.18a3 3 0 0 0-5.32-2.65l-.5.67-.5-.68A3 3 0 0 0 6.18 6H4c-1.11 0-1.99.89-1.99 2L2 19a2 2 0 0 0 2 2h16a2 2 0 0 0 2-2V8a2 2 0 0 0-2-2zm-5-2c.55 0 1 .45 1 1s-.45 1-1 1-1-.45-1-1 .45-1 1-1zM9 4c.55 0 1 .45 1 1s-.45 1-1 1-1-.45-1-1 .45-1 1-1zm11 15H4v-2h16zm0-5H4V8h5.08L7 10.83 8.62 12 11 8.76l1-1.36 1 1.36L15.38 12 17 10.83 14.92 8H20z"/></symbol><symbol viewBox="0 0 24 24" fill="currentColor" id="kp_icon_globe"><path d="M14.99 4.59V5a2 2 0 0 1-2 2h-2v2a1 1 0 0 1-1 1h-2v2h6a1 1 0 0 1 1 1v3h1a2 2 0 0 1 1.9 1.4 8 8 0 0 0-2.9-12.81zM8.99 16v-1l-4.78-4.78a8.01 8.01 0 0 0 6.78 9.71V18a2 2 0 0 1-2-2z" opacity=".3"/><path d="M12 2a10 10 0 1 0 0 20 10 10 0 0 0 0-20zm-1.01 17.93a8.01 8.01 0 0 1-6.78-9.71L8.99 15v1c0 1.1.9 2 2 2zm6.9-2.53a2 2 0 0 0-1.9-1.4h-1v-3a1 1 0 0 0-1-1h-6v-2h2a1 1 0 0 0 1-1V7h2a2 2 0 0 0 2-2v-.41a8 8 0 0 1 2.9 12.81z"/></symbol><symbol viewBox="0 0 24 24" fill="currentColor" id="kp_icon_grid"><path d="M10 10h4v4h-4zm0 6h4v4h-4zM4 4h4v4H4zm0 6h4v4H4zm0 6h4v4H4zM16 4h4v4h-4zm0 6h4v4h-4zm0 6h4v4h-4zM10 4h4v4h-4z" opacity=".3"/><path d="M20 2H4a2 2 0 0 0-2 2v16c0 1.1.9 2 2 2h16a2 2 0 0 0 2-2V4a2 2 0 0 0-2-2zM8 20H4v-4h4zm0-6H4v-4h4zm0-6H4V4h4zm6 12h-4v-4h4zm0-6h-4v-4h4zm0-6h-4V4h4zm6 12h-4v-4h4zm0-6h-4v-4h4zm0-6h-4V4h4z"/></symbol><symbol viewBox="0 0 24 24" fill="currentColor" id="kp_icon_hard_drive"><path d="M5 9h14V5H5zm2-3.5a1.5 1.5 0 1 1 0 3 1.5 1.5 0 0 1 0-3zM5 19h14v-4H5zm2-3.5a1.5 1.5 0 1 1 0 3 1.5 1.5 0 0 1 0-3z" opacity=".3"/><path d="M20 13H4a1 1 0 0 0-1 1v6a1 1 0 0 0 1 1h16a1 1 0 0 0 1-1v-6a1 1 0 0 0-1-1zm-1 6H5v-4h14zm-12-.5a1.5 1.5 0 1 0 0-3 1.5 1.5 0 0 0 0 3zM20 3H4a1 1 0 0 0-1 1v6a1 1 0 0 0 1 1h16a1 1 0 0 0 1-1V4a1 1 0 0 0-1-1zm-1 6H5V5h14zM7 8.5a1.5 1.5 0 1 0 0-3 1.5 1.5 0 0 0 0 3z"/></symbol><symbol viewBox="0 0 24 24" fill="currentColor" id="kp_icon_headphones"><path d="M5 17a1 1 0 0 0 1 1h1v-4H5zm12-3h2v4h-2z" opacity=".3"/><path d="M12 1a9 9 0 0 0-9 9v7a3 3 0 0 0 3 3h3v-8H5v-2a7 7 0 1 1 14 0v2h-4v8h4v1h-7v2h6a3 3 0 0 0 3-3V10a9 9 0 0 0-9-9zM7 14v4H6a1 1 0 0 1-1-1v-3zm12 4h-2v-4h2z"/></symbol><symbol viewBox="0 0 24 24" fill="currentColor" id="kp_icon_heart"><path d="M16.5 5c-1.54 0-3.04.99-3.56 2.36h-1.87A3.9 3.9 0 0 0 7.5 5C5.5 5 4 6.5 4 8.5c0 2.89 3.14 5.74 7.9 10.05l.1.1.1-.1C16.86 14.24 20 11.39 20 8.5c0-2-1.5-3.5-3.5-3.5z" opacity=".3"/><path d="M16.5 3c-1.74 0-3.41.81-4.5 2.09A5.99 5.99 0 0 0 7.5 3 5.45 5.45 0 0 0 2 8.5c0 3.78 3.4 6.86 8.55 11.54L12 21.35l1.45-1.32C18.6 15.36 22 12.28 22 8.5 22 5.42 19.58 3 16.5 3zm-4.4 15.55l-.1.1-.1-.1C7.14 14.24 4 11.39 4 8.5 4 6.5 5.5 5 7.5 5a3.9 3.9 0 0 1 3.57 2.36h1.87A3.88 3.88 0 0 1 16.5 5c2 0 3.5 1.5 3.5 3.5 0 2.89-3.14 5.74-7.9 10.05z"/></symbol><symbol viewBox="0 0 24 24" fill="currentColor" id="kp_icon_home"><path d="M12 3L2 12h3v8h6v-6h2v6h6v-8h3zm5 15h-2v-6H9v6H7v-7.81l5-4.5 5 4.5z"/><path d="M7 10.19V18h2v-6h6v6h2v-7.81l-5-4.5z" opacity=".3"/></symbol><symbol viewBox="0 0 24 24" fill="currentColor" id="kp_icon_image"><path opacity=".3" d="M5 19h14V5H5v14zm4-5.86l2.14 2.58 3-3.87L18 17H6l3-3.86z"/><path d="M19 3H5a2 2 0 0 0-2 2v14c0 1.1.9 2 2 2h14a2 2 0 0 0 2-2V5a2 2 0 0 0-2-2zm0 16H5V5h14v14zm-4.86-7.14l-3 3.86L9 13.14 6 17h12z"/></symbol><symbol viewBox="0 0 24 24" fill="currentColor" id="kp_icon_inbox"><path d="M12.01 18a4 4 0 0 1-3.45-2H5v3h14v-3h-3.55a3.98 3.98 0 0 1-3.44 2z" opacity=".3"/><path d="M19 3H5a2 2 0 0 0-2 2v14a2 2 0 0 0 2 2h14a2 2 0 0 0 2-2V5a2 2 0 0 0-2-2zm0 16H5v-3h3.56a3.98 3.98 0 0 0 6.9 0H19zm0-5h-5c0 1.1-.9 2-2 2s-2-.9-2-2H5V5h14z"/></symbol><symbol viewBox="0 0 24 24" fill="currentColor" id="kp_icon_info"><path d="M12 4a8.01 8.01 0 0 0 0 16 8.01 8.01 0 0 0 0-16zm1 13h-2v-6h2zm0-8h-2V7h2z" opacity=".3"/><path d="M11 7h2v2h-2zm0 4h2v6h-2zm1-9a10 10 0 1 0 0 20 10 10 0 0 0 0-20zm0 18a8.01 8.01 0 0 1 0-16 8.01 8.01 0 0 1 0 16z"/></symbol><symbol viewBox="0 0 24 24" fill="currentColor" id="kp_icon_layers"><path d="M6.26 9L12 13.47 17.74 9 12 4.53z" opacity=".3"/><path d="M19.37 12.8l-7.38 5.74-7.37-5.73L3 14.07l9 7 9-7zM12 2L3 9l1.63 1.27L12 16l7.36-5.73L21 9zm0 11.47L6.26 9 12 4.53 17.74 9z"/></symbol><symbol viewBox="0 0 24 24" fill="currentColor" id="kp_icon_layout"><path d="M5 5h4v6H5zm10 8h4v6h-4zM5 17h4v2H5zM15 5h4v2h-4z" opacity=".3"/><path d="M3 13h8V3H3zm2-8h4v6H5zm8 16h8V11h-8zm2-8h4v6h-4zM13 3v6h8V3zm6 4h-4V5h4zM3 21h8v-6H3zm2-4h4v2H5z"/></symbol><symbol viewBox="0 0 24 24" fill="currentColor" id="kp_icon_link"><path d="M17 7h-4v2h4c1.65 0 3 1.35 3 3s-1.35 3-3 3h-4v2h4a5 5 0 0 0 0-10zm-6 8H7c-1.65 0-3-1.35-3-3s1.35-3 3-3h4V7H7a5 5 0 0 0 0 10h4zm-3-4h8v2H8z"/></symbol><symbol viewBox="0 0 24 24" fill="currentColor" id="kp_icon_list"><path d="M3 13h2v-2H3zm0 4h2v-2H3zm0-8h2V7H3zm4 4h14v-2H7zm0 4h14v-2H7zM7 7v2h14V7z"/></symbol><symbol viewBox="0 0 24 24" fill="currentColor" id="kp_icon_lock"><path d="M6 20h12V10H6zm6-7c1.1 0 2 .9 2 2s-.9 2-2 2-2-.9-2-2 .9-2 2-2z" opacity=".3"/><path d="M18 8h-1V6A5 5 0 0 0 7 6v2H6a2 2 0 0 0-2 2v10c0 1.1.9 2 2 2h12a2 2 0 0 0 2-2V10a2 2 0 0 0-2-2zM9 6a3 3 0 1 1 6 0v2H9zm9 14H6V10h12zm-6-3c1.1 0 2-.9 2-2s-.9-2-2-2-2 .9-2 2 .9 2 2 2z"/></symbol><symbol viewBox="0 0 24 24" fill="currentColor" id="kp_icon_log_in"><path d="M10.09 15.59L11.5 17l5-5-5-5-1.41 1.41L12.67 11H3v2h9.67l-2.58 2.59zM19 3H5a2 2 0 0 0-2 2v4h2V5h14v14H5v-4H3v4a2 2 0 0 0 2 2h14a2 2 0 0 0 2-2V5a2 2 0 0 0-2-2z"/></symbol><symbol viewBox="0 0 24 24" fill="currentColor" id="kp_icon_log_out"><path d="M14.5 15.6l1.4 1.4 5-5-5-5-1.4 1.4 2.6 2.6H7.4v2h9.7l-2.6 2.6zM5 21h14a2 2 0 0 0 2-2v-3h-2v3H5V5h14v3h2V5a2 2 0 0 0-2-2H5a2 2 0 0 0-2 2v14c0 1.1.9 2 2 2z"/></symbol><symbol viewBox="0 0 24 24" fill="currentColor" id="kp_icon_mail"><path d="M20 6H4l8 4.99zM4 8v10h16V8l-8 5z" opacity=".3"/><path d="M20 4H4a2 2 0 0 0-2 2v12c0 1.1.9 2 2 2h16a2 2 0 0 0 2-2V6a2 2 0 0 0-2-2zm0 2l-8 4.99L4 6zm0 12H4V8l8 5 8-5z"/></symbol><symbol viewBox="0 0 24 24" fill="currentColor" id="kp_icon_map_pin"><path d="M12 4a5 5 0 0 0-5 5c0 2.85 2.92 7.21 5 9.88 2.11-2.69 5-7 5-9.88a5 5 0 0 0-5-5zm0 7.5a2.5 2.5 0 1 1 0-5 2.5 2.5 0 0 1 0 5z" opacity=".3"/><path d="M12 2a7 7 0 0 1 7 7c0 5.25-7 13-7 13S5 14.25 5 9a7 7 0 0 1 7-7zM7 9c0 2.85 2.92 7.21 5 9.88 2.12-2.69 5-7 5-9.88A5 5 0 0 0 7 9zm5 2.5a2.5 2.5 0 1 1 0-5 2.5 2.5 0 0 1 0 5z"/></symbol><symbol viewBox="0 0 24 24" fill="currentColor" id="kp_icon_map"><path d="M5 18.31l3-1.16V5.45L5 6.46zm11 .24l3-1.01V5.69l-3 1.17z" opacity=".3"/><path d="M20.5 3l-.16.03L15 5.1 9 3 3.36 4.9a.5.5 0 0 0-.36.48V20.5c0 .28.22.5.5.5l.16-.03L9 18.9l6 2.1 5.64-1.9a.5.5 0 0 0 .36-.48V3.5a.5.5 0 0 0-.5-.5zM8 17.15l-3 1.16V6.46l3-1.01zm6 1.38l-4-1.4V5.47l4 1.4zm5-.99l-3 1.01V6.86l3-1.16z"/></symbol><symbol viewBox="0 0 24 24" fill="currentColor" id="kp_icon_maximize"><path d="M3 3h18v2H3z"/></symbol><symbol viewBox="0 0 24 24" fill="currentColor" id="kp_icon_menu"><path d="M3 18h18v-2H3zm0-5h18v-2H3zm0-7v2h18V6z"/></symbol><symbol viewBox="0 0 24 24" fill="currentColor" id="kp_icon_message_square"><path d="M4 18l2-2h14V4H4zm11-9h2v2h-2zm-4 0h2v2h-2zM7 9h2v2H7z" opacity=".3"/><path d="M20 2H4a2 2 0 0 0-2 2v18l4-4h14a2 2 0 0 0 2-2V4a2 2 0 0 0-2-2zm0 14H6l-2 2V4h16zM7 9h2v2H7zm4 0h2v2h-2zm4 0h2v2h-2z"/></symbol><symbol viewBox="0 0 24 24" fill="currentColor" id="kp_icon_mic_off"><path d="M12 3.7c-.66 0-1.2.54-1.2 1.2v1.51l2.39 2.39.01-3.9c0-.66-.54-1.2-1.2-1.2z" opacity=".3"/><path d="M19 11h-1.7c0 .58-.1 1.13-.27 1.64l1.27 1.27c.44-.88.7-1.87.7-2.91zM4.41 2.86L3 4.27l6 6V11a3 3 0 0 0 3.65 2.92l1.66 1.66a5.5 5.5 0 0 1-2.31.52c-2.76 0-5.3-2.1-5.3-5.1H5c0 3.41 2.72 6.23 6 6.72V21h2v-3.28a7.13 7.13 0 0 0 2.55-.9l4.2 4.2 1.41-1.41zM10.8 4.9c0-.66.54-1.2 1.2-1.2s1.2.54 1.2 1.2l-.01 3.91L15 10.6V5a3 3 0 0 0-5.96-.35l1.76 1.76z"/></symbol><symbol viewBox="0 0 24 24" fill="currentColor" id="kp_icon_mic"><path d="M12 12a1 1 0 0 0 1-1V5c0-.55-.45-1-1-1s-1 .45-1 1v6a1 1 0 0 0 1 1z" opacity=".3"/><path d="M12 14a3 3 0 0 0 3-3V5a3 3 0 1 0-6 0v6a3 3 0 0 0 3 3zm-1-9c0-.55.45-1 1-1s1 .45 1 1v6c0 .55-.45 1-1 1s-1-.45-1-1zm6 6a5 5 0 0 1-10 0H5a7 7 0 0 0 6 6.92V21h2v-3.08A7 7 0 0 0 19 11z"/></symbol><symbol viewBox="0 0 24 24" fill="currentColor" id="kp_icon_minimize"><path d="M6 19h12v2H6z"/></symbol><symbol viewBox="0 0 24 24" fill="currentColor" id="kp_icon_minus_circle"><path opacity=".3" d="M12 4a8.01 8.01 0 0 0 0 16 8.01 8.01 0 0 0 0-16zm5 9H7v-2h10v2z"/><path d="M7 11h10v2H7zm5-9a10 10 0 1 0 0 20 10 10 0 0 0 0-20zm0 18a8.01 8.01 0 0 1 0-16 8.01 8.01 0 0 1 0 16z"/></symbol><symbol viewBox="0 0 24 24" fill="currentColor" id="kp_icon_minus_square"><path opacity=".3" d="M5 19h14V5H5v14zm2-8h10v2H7v-2z"/><path d="M19 3H5a2 2 0 0 0-2 2v14c0 1.1.9 2 2 2h14a2 2 0 0 0 2-2V5a2 2 0 0 0-2-2zm0 16H5V5h14v14zM7 11h10v2H7z"/></symbol><symbol viewBox="0 0 24 24" fill="currentColor" id="kp_icon_minus"><path d="M19 13H5v-2h14z"/></symbol><symbol viewBox="0 0 24 24" fill="currentColor" id="kp_icon_monitor"><path d="M3 4h18v10H3z" opacity=".3"/><path d="M21 2H3a2 2 0 0 0-2 2v12c0 1.1.9 2 2 2h7l-2 3v1h8v-1l-2-3h7a2 2 0 0 0 2-2V4a2 2 0 0 0-2-2zm0 12H3V4h18z"/></symbol><symbol viewBox="0 0 24 24" fill="currentColor" id="kp_icon_moon"><path d="M18 12a8.01 8.01 0 0 0-9.01-7.93 12 12 0 0 1 0 15.86A8.01 8.01 0 0 0 18 12z" opacity=".3"/><path d="M5 20.65A9.97 9.97 0 0 0 20 12 10 10 0 0 0 5 3.35a9.98 9.98 0 0 1 0 17.3zM12 12a12 12 0 0 0-3.01-7.93A8.01 8.01 0 1 1 10 20c-.34 0-.68-.02-1.01-.07A12 12 0 0 0 12 12z"/></symbol><symbol viewBox="0 0 24 24" fill="currentColor" id="kp_icon_more_horizontal"><path d="M6 10c-1.1 0-2 .9-2 2s.9 2 2 2 2-.9 2-2-.9-2-2-2zm12 0c-1.1 0-2 .9-2 2s.9 2 2 2 2-.9 2-2-.9-2-2-2zm-6 0c-1.1 0-2 .9-2 2s.9 2 2 2 2-.9 2-2-.9-2-2-2z"/></symbol><symbol viewBox="0 0 24 24" fill="currentColor" id="kp_icon_more_vertical"><path d="M12 8c1.1 0 2-.9 2-2s-.9-2-2-2-2 .9-2 2 .9 2 2 2zm0 2c-1.1 0-2 .9-2 2s.9 2 2 2 2-.9 2-2-.9-2-2-2zm0 6c-1.1 0-2 .9-2 2s.9 2 2 2 2-.9 2-2-.9-2-2-2z"/></symbol><symbol viewBox="0 0 24 24" fill="currentColor" id="kp_icon_move"><path d="M10 9h4V6h3l-5-5-5 5h3zm-1 1H6V7l-5 5 5 5v-3h3zm14 2l-5-5v3h-3v4h3v3zm-9 3h-4v3H7l5 5 5-5h-3z"/></symbol><symbol viewBox="0 0 24 24" fill="currentColor" id="kp_icon_music"><circle cx="10.01" cy="17" opacity=".3" r="2"/><path d="M12 3l.01 10.55a4 4 0 1 0-2 7.45A3.98 3.98 0 0 0 14 17V7h4V3zm-1.99 16c-1.1 0-2-.9-2-2s.9-2 2-2 2 .9 2 2-.9 2-2 2z"/></symbol><symbol viewBox="0 0 24 24" fill="currentColor" id="kp_icon_navigation"><path d="M7.72 17.7l3.47-1.53.81-.36.81.36 3.47 1.53L12 7.27z" opacity=".3"/><path d="M4.5 20.29l.71.71L12 18l6.79 3 .71-.71L12 2zm8.31-4.12l-.81-.36-.81.36-3.47 1.53L12 7.27l4.28 10.43z"/></symbol><symbol viewBox="0 0 24 24" fill="currentColor" id="kp_icon_paperclip"><path d="M12.5 23a5.5 5.5 0 0 0 5.5-5.5V6h-1.5v11.5a4 4 0 1 1-8 0V5a2.5 2.5 0 0 1 5 0v10.5c0 .55-.45 1-1 1s-1-.45-1-1V6H10v9.5a2.5 2.5 0 0 0 5 0V5a4 4 0 1 0-8 0v12.5a5.5 5.5 0 0 0 5.5 5.5z"/></symbol><symbol viewBox="0 0 24 24" fill="currentColor" id="kp_icon_pause_circle"><path d="M12 4a8.01 8.01 0 0 0 0 16 8.01 8.01 0 0 0 0-16zm-1 12H9V8h2zm4 0h-2V8h2z" opacity=".3"/><path d="M13 8h2v8h-2zM9 8h2v8H9zm3-6a10 10 0 1 0 0 20 10 10 0 0 0 0-20zm0 18a8.01 8.01 0 0 1 0-16 8.01 8.01 0 0 1 0 16z"/></symbol><symbol viewBox="0 0 24 24" fill="currentColor" id="kp_icon_phone_call"><path d="M18.6 17.22c.66.37 1.28.79 1.87 1.27l1.07-1.07c-.91-.75-1.9-1.38-2.94-1.9zM3.53 18.5c.58-.47 1.21-.89 1.87-1.27v-1.71a15.13 15.13 0 0 0-2.95 1.9z" opacity=".3"/><path d="M12 12C7.46 12 3.34 13.78.29 16.67c-.18.18-.29.43-.29.71s.11.53.29.71l2.48 2.48a1 1 0 0 0 .71.29c.27 0 .52-.11.7-.28.79-.74 1.69-1.36 2.66-1.85a1 1 0 0 0 .56-.9v-3.1a14.91 14.91 0 0 1 9.2-.01v3.1a1 1 0 0 0 .56.9c.98.49 1.87 1.12 2.66 1.85.18.18.43.28.7.28a1 1 0 0 0 .71-.29l2.48-2.48a1 1 0 0 0 0-1.41A16.97 16.97 0 0 0 12 12zm-6.6 5.23c-.66.37-1.29.8-1.87 1.27l-1.07-1.07c.91-.75 1.9-1.39 2.95-1.9v1.7zm15.07 1.26a13.1 13.1 0 0 0-1.87-1.27v-1.7c1.04.51 2.03 1.15 2.94 1.9zM16.19 8.4l1.41 1.41s3.45-3.52 3.56-3.55l-1.41-1.41zM11 2h2v5h-2zM6.4 9.81L7.81 8.4 4.26 4.84 2.84 6.26c.11.03 3.56 3.55 3.56 3.55z"/></symbol><symbol viewBox="0 0 24 24" fill="currentColor" id="kp_icon_phone_missed"><path d="M18.6 17.22c.66.37 1.28.79 1.88 1.27l1.07-1.07c-.91-.75-1.9-1.39-2.95-1.9zM3.53 18.5c.58-.47 1.21-.89 1.87-1.27v-1.71a15.13 15.13 0 0 0-2.95 1.9z" opacity=".3"/><path d="M23.71 16.67a16.97 16.97 0 0 0-23.42 0c-.18.18-.29.43-.29.71s.11.53.29.71l2.48 2.48a1 1 0 0 0 .71.29c.27 0 .52-.11.7-.28.79-.74 1.69-1.36 2.66-1.85a1 1 0 0 0 .56-.9v-3.1a14.91 14.91 0 0 1 9.2-.01v3.1a1 1 0 0 0 .56.9c.98.49 1.87 1.12 2.67 1.85.18.18.43.28.7.28a1 1 0 0 0 .71-.29l2.48-2.48a1 1 0 0 0-.01-1.41zm-18.31.56c-.66.37-1.29.8-1.87 1.27l-1.07-1.07c.91-.75 1.9-1.39 2.95-1.9v1.7zm15.08 1.26c-.6-.48-1.22-.9-1.88-1.27v-1.7c1.05.51 2.03 1.15 2.95 1.9zM7 6.43l4.94 4.94 7.07-7.07-1.41-1.42-5.66 5.66L8.4 5H11V3H5v6h2z"/></symbol><symbol viewBox="0 0 24 24" fill="currentColor" id="kp_icon_phone"><path d="M19 17.47c-.88-.07-1.75-.22-2.6-.45l-1.19 1.19c1.2.41 2.48.67 3.8.75v-1.49zM5.03 5c.09 1.32.35 2.59.75 3.8l1.2-1.2A13.2 13.2 0 0 1 6.54 5z" opacity=".3"/><path d="M9.07 7.57A11.36 11.36 0 0 1 8.5 4a1 1 0 0 0-1-1H4a1 1 0 0 0-1 1 17 17 0 0 0 17 17 1 1 0 0 0 1-1v-3.49a1 1 0 0 0-1-1c-1.24 0-2.45-.2-3.57-.57a1.02 1.02 0 0 0-1.02.24l-2.2 2.2a15.15 15.15 0 0 1-6.59-6.59l2.2-2.2a1 1 0 0 0 .25-1.02zm7.33 9.45c.85.24 1.72.39 2.6.45v1.49a15.43 15.43 0 0 1-3.8-.75zM5.79 8.8A14.99 14.99 0 0 1 5.03 5h1.5a13 13 0 0 0 .46 2.59z"/></symbol><symbol viewBox="0 0 24 24" fill="currentColor" id="kp_icon_pie_chart"><path d="M4 12a8 8 0 0 0 7 7.93V4.07A8 8 0 0 0 4 12zm9 7.93A8 8 0 0 0 19.93 13H13zm0-15.86V11h6.93A8 8 0 0 0 13 4.07z" opacity=".3"/><path d="M12 2a10 10 0 1 0 0 20 10 10 0 0 0 0-20zm-1 17.93a8 8 0 0 1 0-15.86zm2 0V13h6.93A8 8 0 0 1 13 19.93zM13 11V4.07A8 8 0 0 1 19.93 11z"/></symbol><symbol viewBox="0 0 24 24" fill="currentColor" id="kp_icon_play_circle"><path d="M12 20a8.01 8.01 0 0 0 0-16 8.01 8.01 0 0 0 0 16zM10 7.5l6 4.5-6 4.5z" opacity=".3"/><path d="M12 22a10 10 0 1 0 0-20 10 10 0 0 0 0 20zm0-18a8.01 8.01 0 0 1 0 16 8.01 8.01 0 0 1 0-16zm-2 3.5v9l6-4.5z"/></symbol><symbol viewBox="0 0 24 24" fill="currentColor" id="kp_icon_plus_circle"><path opacity=".3" d="M12 4a8.01 8.01 0 0 0 0 16 8.01 8.01 0 0 0 0-16zm5 9h-4v4h-2v-4H7v-2h4V7h2v4h4v2z"/><path d="M13 7h-2v4H7v2h4v4h2v-4h4v-2h-4zm-1-5a10 10 0 1 0 0 20 10 10 0 0 0 0-20zm0 18a8.01 8.01 0 0 1 0-16 8.01 8.01 0 0 1 0 16z"/></symbol><symbol viewBox="0 0 24 24" fill="currentColor" id="kp_icon_plus_square"><path opacity=".3" d="M5 19h14V5H5v14zm2-8h4V7h2v4h4v2h-4v4h-2v-4H7v-2z"/><path d="M19 3H5a2 2 0 0 0-2 2v14a2 2 0 0 0 2 2h14a2 2 0 0 0 2-2V5a2 2 0 0 0-2-2zm0 16H5V5h14v14zm-8-2h2v-4h4v-2h-4V7h-2v4H7v2h4z"/></symbol><symbol viewBox="0 0 24 24" fill="currentColor" id="kp_icon_plus"><path d="M19 13h-6v6h-2v-6H5v-2h6V5h2v6h6z"/></symbol><symbol viewBox="0 0 24 24" fill="currentColor" id="kp_icon_power"><path d="M8 13.65l3.5 3.52V19h1v-1.83l3.5-3.51V9H8z" opacity=".3"/><path d="M16 7V3h-2v4h-4V3H8v4h-.01C6.89 7 6 7.89 6 8.98v5.52L9.5 18v3h5v-3l3.5-3.5V9a2 2 0 0 0-2-2zm0 6.66l-3.5 3.51V19h-1v-1.83L8 13.65V9h8z"/></symbol><symbol viewBox="0 0 24 24" fill="currentColor" id="kp_icon_printer"><path d="M8 5h8v3H8zm-2 8v2H4v-4a1 1 0 0 1 1-1h14a1 1 0 0 1 1 1v4h-2v-2zm12-2.5c-.55 0-1 .45-1 1s.45 1 1 1 1-.45 1-1-.45-1-1-1z" opacity=".3"/><path d="M18 12.5a1 1 0 1 1 0-2 1 1 0 0 1 0 2zM19 8a3 3 0 0 1 3 3v6h-4v4H6v-4H2v-6a3 3 0 0 1 3-3h1V3h12v5zM8 5v3h8V5zm8 14v-4H8v4zm4-4v-4a1 1 0 0 0-1-1H5a1 1 0 0 0-1 1v4h2v-2h12v2z"/></symbol><symbol viewBox="0 0 24 24" fill="currentColor" id="kp_icon_radio"><path d="M20 13H4v7h16zM8 18.98a2.5 2.5 0 1 1 0-5 2.5 2.5 0 0 1 0 5z" opacity=".3"/><path d="M2 20V8c0-.83.51-1.57 1.24-1.85L15.88 1l.68 1.66L8.3 6H20a2 2 0 0 1 2 2v12a2 2 0 0 1-2 2H4a2 2 0 0 1-2-2zM4 8v3h12V9h2v2h2V8zm0 5v7h16v-7zm4 5.98a2.5 2.5 0 1 1 0-5 2.5 2.5 0 0 1 0 5z"/></symbol><symbol viewBox="0 0 24 24" fill="currentColor" id="kp_icon_refresh"><path d="M17.65 6.35A7.99 7.99 0 1 0 19.73 14h-2.08a6 6 0 1 1-1.43-6.22L13 11h7V4z"/></symbol><symbol viewBox="0 0 24 24" fill="currentColor" id="kp_icon_repeat"><path d="M7 22v-3h12v-6h-2v4H7v-3l-4 4zM21 6l-4-4v3H5v6h2V7h10v3z"/></symbol><symbol viewBox="0 0 24 24" fill="currentColor" id="kp_icon_rewind"><path d="M9 14.14V9.86L5.97 12zm9 0V9.86L14.97 12z" opacity=".3"/><path d="M11 6l-8.5 6 8.5 6zm-2 8.14L5.97 12 9 9.86zM20 6l-8.5 6 8.5 6zm-2 8.14L14.97 12 18 9.86z"/></symbol><symbol viewBox="0 0 24 24" fill="currentColor" id="kp_icon_save"><path d="M5 5v14h14V7.83L16.17 5zm7 13a3 3 0 1 1 0-6 3 3 0 0 1 0 6zm3-8H6V6h9z" opacity=".3"/><path d="M17 3H5a2 2 0 0 0-2 2v14a2 2 0 0 0 2 2h14a2 2 0 0 0 2-2V7zm2 16H5V5h11.17L19 7.83zm-7-7a3 3 0 1 0 0 6 3 3 0 0 0 0-6zM6 6h9v4H6z"/></symbol><symbol viewBox="0 0 24 24" fill="currentColor" id="kp_icon_scissors"><path d="M19 3l-6 6 2 2 7-7V3m-10 9.5a.5.5 0 0 1-.5-.5.5.5 0 0 1 .5-.5.5.5 0 0 1 .5.5.5.5 0 0 1-.5.5M6 20a2 2 0 0 1-2-2 2 2 0 0 1 2-2 2 2 0 0 1 2 2 2 2 0 0 1-2 2M6 8a2 2 0 0 1-2-2 2 2 0 0 1 2-2 2 2 0 0 1 2 2 2 2 0 0 1-2 2m3.64-.36c.23-.5.36-1.05.36-1.64a4 4 0 0 0-4-4 4 4 0 0 0-4 4 4 4 0 0 0 4 4 3.9 3.9 0 0 0 1.64-.36L10 12l-2.36 2.36A3.9 3.9 0 0 0 6 14a4 4 0 0 0-4 4 4 4 0 0 0 4 4 4 4 0 0 0 4-4 3.9 3.9 0 0 0-.36-1.64L12 14l7 7h3v-1z"/></symbol><symbol viewBox="0 0 24 24" fill="currentColor" id="kp_icon_search"><path d="M15.5 14h-.79l-.28-.27a6.5 6.5 0 1 0-.7.7l.27.28v.79l5 4.99L20.49 19zm-6 0a4.5 4.5 0 1 1-.01-8.99A4.5 4.5 0 0 1 9.5 14z"/></symbol><symbol viewBox="0 0 24 24" fill="currentColor" id="kp_icon_send"><path d="M4 8.25l7.51 1-7.5-3.22zm.01 9.72l7.5-3.22-7.51 1z" opacity=".3"/><path d="M2.01 3L2 10l15 2-15 2 .01 7L23 12zM4 8.25V6.03l7.51 3.22zm.01 9.72v-2.22l7.51-1z"/></symbol><symbol viewBox="0 0 24 24" fill="currentColor" id="kp_icon_settings"><path d="M19.28 8.6l-.7-1.21-1.27.51-1.06.43-.91-.7a5.1 5.1 0 0 0-1.23-.71l-1.06-.43-.16-1.13L12.7 4h-1.4l-.19 1.35-.16 1.13-1.06.44c-.41.17-.82.41-1.25.73l-.9.68-1.05-.42-1.27-.52-.7 1.21 1.08.84.89.7-.14 1.13c-.03.3-.05.53-.05.73s.02.43.05.73l.14 1.13-.89.7-1.08.84.7 1.21 1.27-.51 1.06-.43.91.7c.39.3.8.54 1.23.71l1.06.43.16 1.13.19 1.36h1.39l.19-1.35.16-1.13 1.06-.43c.41-.17.82-.41 1.25-.73l.9-.68 1.04.42 1.27.51.7-1.21-1.08-.84-.89-.7.14-1.13a5.34 5.34 0 0 0 0-1.46l-.14-1.13.89-.7zM12 16a4 4 0 1 1 0-8 4 4 0 0 1 0 8z" opacity=".3"/><path d="M19.43 12.98a7.8 7.8 0 0 0 0-1.96l2.11-1.65a.5.5 0 0 0 .12-.64l-2-3.46a.5.5 0 0 0-.61-.22l-2.49 1a7.3 7.3 0 0 0-1.69-.98l-.38-2.65A.49.49 0 0 0 14 2h-4a.49.49 0 0 0-.49.42l-.38 2.65c-.61.25-1.17.59-1.69.98l-2.49-1a.57.57 0 0 0-.18-.03.5.5 0 0 0-.43.25l-2 3.46a.5.5 0 0 0 .12.64l2.11 1.65a7.93 7.93 0 0 0 0 1.96l-2.11 1.65a.5.5 0 0 0-.12.64l2 3.46a.5.5 0 0 0 .61.22l2.49-1c.52.4 1.08.73 1.69.98l.38 2.65c.03.24.24.42.49.42h4c.25 0 .46-.18.49-.42l.38-2.65a7.68 7.68 0 0 0 1.69-.98l2.49 1 .18.03a.5.5 0 0 0 .43-.25l2-3.46a.5.5 0 0 0-.12-.64zm-1.98-1.71a5.34 5.34 0 0 1 0 1.46l-.14 1.13.89.7 1.08.84-.7 1.21-1.27-.51-1.04-.42-.9.68c-.43.32-.84.56-1.25.73l-1.06.43-.16 1.13-.2 1.35h-1.4l-.19-1.35-.16-1.13-1.06-.43a5.67 5.67 0 0 1-1.23-.71l-.91-.7-1.06.43-1.27.51-.7-1.21 1.08-.84.89-.7-.14-1.13c-.03-.31-.05-.54-.05-.74s.02-.43.05-.73l.14-1.13-.89-.7-1.08-.84.7-1.21 1.27.51 1.04.42.9-.68c.43-.32.84-.56 1.25-.73l1.06-.43.16-1.13.2-1.35h1.39l.19 1.35.16 1.13 1.06.43c.43.18.83.41 1.23.71l.91.7 1.06-.43 1.27-.51.7 1.21-1.07.85-.89.7zM12 8a4 4 0 1 0 0 8 4 4 0 0 0 0-8zm0 6c-1.1 0-2-.9-2-2s.9-2 2-2 2 .9 2 2-.9 2-2 2z"/></symbol><symbol viewBox="0 0 24 24" fill="currentColor" id="kp_icon_share"><path d="M18 6a1 1 0 1 1 0-2 1 1 0 0 1 0 2zM6 13a1 1 0 1 1 0-2 1 1 0 0 1 0 2zm12 7.02a1 1 0 1 1 0-2 1 1 0 0 1 0 2z" opacity=".3"/><path d="M18 16.08c-.76 0-1.44.3-1.96.77L8.91 12.7c.05-.23.09-.46.09-.7s-.04-.47-.09-.7l7.05-4.11A2.99 2.99 0 0 0 21 5a3 3 0 1 0-5.91.7L8.04 9.81A2.99 2.99 0 0 0 3 12a3 3 0 0 0 5.04 2.19l7.12 4.16A2.92 2.92 0 1 0 18 16.08zM18 4c.55 0 1 .45 1 1s-.45 1-1 1-1-.45-1-1 .45-1 1-1zM6 13c-.55 0-1-.45-1-1s.45-1 1-1 1 .45 1 1-.45 1-1 1zm12 7.02c-.55 0-1-.45-1-1s.45-1 1-1 1 .45 1 1-.45 1-1 1z"/></symbol><symbol viewBox="0 0 24 24" fill="currentColor" id="kp_icon_shield"><path d="M12 3.19L5 6.3V12h7v8.93c3.72-1.15 6.47-4.82 7-8.94h-7z" opacity=".3"/><path d="M12 1L3 5v6c0 5.55 3.84 10.74 9 12 5.16-1.26 9-6.45 9-12V5zm0 19.93V12H5V6.3l7-3.11v8.8h7c-.53 4.12-3.28 7.79-7 8.94z"/></symbol><symbol viewBox="0 0 24 24" fill="currentColor" id="kp_icon_shopping_bag"><path d="M5 8v12h14V8zm7 6a5 5 0 0 1-5-5h2a3 3 0 1 0 6 0h2a5 5 0 0 1-5 5z" opacity=".3"/><path d="M17 6A5 5 0 0 0 7 6H5a2 2 0 0 0-2 2v12c0 1.1.9 2 2 2h14a2 2 0 0 0 2-2V8a2 2 0 0 0-2-2zm-5-3a3 3 0 0 1 3 3H9a3 3 0 0 1 3-3zm7 17H5V8h14zm-7-8a3 3 0 0 1-3-3H7a5 5 0 0 0 10 0h-2a3 3 0 0 1-3 3z"/></symbol><symbol viewBox="0 0 24 24" fill="currentColor" id="kp_icon_shopping_cart"><path d="M15.55 11l2.76-5H6.16l2.37 5z" opacity=".3"/><path d="M15.55 13a2 2 0 0 0 1.75-1.03l3.58-6.49A1 1 0 0 0 20.01 4H5.21l-.94-2H1v2h2l3.6 7.59-1.35 2.44A2 2 0 0 0 7 17h12v-2H7l1.1-2zM6.16 6h12.15l-2.76 5H8.53zM7 18a2 2 0 1 0 .01 4A2 2 0 0 0 7 18zm10 0a2 2 0 1 0 .01 4 2 2 0 0 0-.01-4z"/></symbol><symbol viewBox="0 0 24 24" fill="currentColor" id="kp_icon_shuffle"><path d="M20 4h-5.5l2.04 2.04L4 18.59 5.41 20 17.96 7.46 20 9.5zM5.41 4L4 5.41l5.17 5.17 1.42-1.41zM20 20v-5.5l-2.04 2.04-3.13-3.13-1.41 1.41 3.13 3.13L14.5 20z"/></symbol><symbol viewBox="0 0 24 24" fill="currentColor" id="kp_icon_skip_back"><path d="M16 14.14V9.86L12.97 12z" opacity=".3"/><path d="M6 6h2v12H6zm12 12V6l-8.5 6zm-2-3.86L12.97 12 16 9.86z"/></symbol><symbol viewBox="0 0 24 24" fill="currentColor" id="kp_icon_skip_forward"><path d="M8 9.86v4.28L11.03 12z" opacity=".3"/><path d="M14.5 12L6 6v12zM8 9.86L11.03 12 8 14.14zM16 6h2v12h-2z"/></symbol><symbol viewBox="0 0 24 24" fill="currentColor" id="kp_icon_slash"><path d="M12 2a10 10 0 1 0 0 20 10 10 0 0 0 0-20zM4 12a8 8 0 0 1 12.9-6.31L5.69 16.9A7.9 7.9 0 0 1 4 12zm8 8a7.9 7.9 0 0 1-4.9-1.69L18.31 7.1A8 8 0 0 1 12 20z"/></symbol><symbol viewBox="0 0 24 24" fill="currentColor" id="kp_icon_sliders"><path d="M3 5h10v2H3zm4 6H3v2h4v2h2V9H7zm6 4h-2v6h2v-2h8v-2h-8zM3 17h6v2H3zm8-6h10v2H11zm6-8h-2v6h2V7h4V5h-4z"/></symbol><symbol viewBox="0 0 24 24" fill="currentColor" id="kp_icon_smartphone"><path opacity=".3" d="M7 4h9v14H7z"/><path d="M15.5 1h-8A2.5 2.5 0 0 0 5 3.5v17A2.5 2.5 0 0 0 7.5 23h8a2.5 2.5 0 0 0 2.5-2.5v-17A2.5 2.5 0 0 0 15.5 1zm-4 21a1.5 1.5 0 1 1 0-3 1.5 1.5 0 0 1 0 3zm4.5-4H7V4h9v14z"/></symbol><symbol viewBox="0 0 24 24" fill="currentColor" id="kp_icon_speaker"><path d="M7 4v16h10V4zm5 1c1.1 0 2 .9 2 2s-.9 2-2 2a2 2 0 1 1 0-4zm0 14a4 4 0 1 1 0-8 4 4 0 0 1 0 8z" opacity=".3"/><path d="M17 2H7a2 2 0 0 0-2 2v16a2 2 0 0 0 2 1.99L17 22a2 2 0 0 0 2-2V4a2 2 0 0 0-2-2zM7 20V4h10v16zm5-11c1.1 0 2-.9 2-2s-.9-2-2-2a2 2 0 1 0 0 4zm0 2a4 4 0 1 0 0 8 4 4 0 0 0 0-8zm0 6c-1.1 0-2-.9-2-2s.9-2 2-2 2 .9 2 2-.9 2-2 2z"/></symbol><symbol viewBox="0 0 24 24" fill="currentColor" id="kp_icon_square"><path d="M18 4H6a2 2 0 0 0-2 2v12c0 1.1.9 2 2 2h12a2 2 0 0 0 2-2V6a2 2 0 0 0-2-2zm0 14H6V6h12z"/></symbol><symbol viewBox="0 0 24 24" fill="currentColor" id="kp_icon_star"><path d="M12 15.4l-3.76 2.27 1-4.28-3.32-2.88 4.38-.38L12 6.1l1.71 4.04 4.38.38-3.32 2.88 1 4.28z" opacity=".3"/><path d="M22 9.24l-7.19-.62L12 2 9.19 8.63 2 9.24l5.46 4.73L5.82 21 12 17.27 18.18 21l-1.63-7.03zM12 15.4l-3.76 2.27 1-4.28-3.32-2.88 4.38-.38L12 6.1l1.71 4.04 4.38.38-3.32 2.88 1 4.28z"/></symbol><symbol viewBox="0 0 24 24" fill="currentColor" id="kp_icon_sun"><path d="M12 7.5a4 4 0 1 0 0 8 4 4 0 0 0 0-8z" opacity=".3"/><path d="M5.34 6.25l1.42-1.41-1.8-1.79-1.41 1.41zM1 10.5h3v2H1zM11 .55h2V3.5h-2zm7.66 5.7l-1.41-1.4 1.79-1.8 1.4 1.42zm-1.42 11.91l1.79 1.8 1.41-1.41-1.8-1.79zM20 10.5h3v2h-3zm-8-5a6 6 0 1 0 .01 12.01A6 6 0 0 0 12 5.5zm0 10a4 4 0 1 1 0-8 4 4 0 0 1 0 8zm-1 4h2v2.95h-2zm-7.45-.96l1.41 1.41 1.79-1.8-1.41-1.41z"/></symbol><symbol viewBox="0 0 24 24" fill="currentColor" id="kp_icon_sync"><path d="M11.53 4V1L7.69 5l3.84 4V6a5.89 5.89 0 0 1 5.76 6c0 1.01-.24 1.97-.67 2.8l1.4 1.46A8.17 8.17 0 0 0 19.2 12c0-4.42-3.44-8-7.68-8zm0 14a5.89 5.89 0 0 1-5.76-6c0-1.01.24-1.97.67-2.8l-1.4-1.46A8.17 8.17 0 0 0 3.85 12c0 4.42 3.44 8 7.68 8v3l3.84-4-3.84-4z"/></symbol><symbol viewBox="0 0 24 24" fill="currentColor" id="kp_icon_tag"><path opacity=".3" d="M11 4H4v7l9 9.01L20 13l-9-9zM6.5 8a1.5 1.5 0 1 1 0-3 1.5 1.5 0 0 1 0 3z"/><path d="M12.41 2.58A1.99 1.99 0 0 0 11 2H4a2 2 0 0 0-2 2v7a2 2 0 0 0 .59 1.42l9 9a1.99 1.99 0 0 0 2.82-.01l7-7c.37-.36.59-.86.59-1.41s-.23-1.06-.59-1.42l-9-9zM13 20.01L4 11V4h7v-.01l9 9-7 7.02z"/><circle cx="6.5" cy="6.5" r="1.5"/></symbol><symbol viewBox="0 0 24 24" fill="currentColor" id="kp_icon_toggle_left"><path d="M17 8H7a4 4 0 1 0 0 8h10a4 4 0 1 0 0-8zM7 15a3 3 0 1 1 0-6 3 3 0 0 1 0 6z" opacity=".3"/><path d="M17 6H7a6 6 0 0 0 0 12h10a6 6 0 0 0 0-12zm0 10H7a4 4 0 1 1 0-8h10a4 4 0 1 1 0 8zM7 9a3 3 0 1 0 0 6 3 3 0 0 0 0-6z"/></symbol><symbol viewBox="0 0 24 24" fill="currentColor" id="kp_icon_toggle_right"><path d="M17 8H7a4 4 0 1 0 0 8h10a4 4 0 1 0 0-8zm0 7a3 3 0 1 1 0-6 3 3 0 0 1 0 6z" opacity=".3"/><path d="M17 6H7a6 6 0 0 0 0 12h10a6 6 0 0 0 0-12zm0 10H7a4 4 0 1 1 0-8h10a4 4 0 1 1 0 8zm0-7a3 3 0 1 0 0 6 3 3 0 0 0 0-6z"/></symbol><symbol viewBox="0 0 24 24" fill="currentColor" id="kp_icon_trash"><path d="M8 9h8v10H8z" opacity=".3"/><path d="M15.5 4l-1-1h-5l-1 1H5v2h14V4zM6 19c0 1.1.9 2 2 2h8a2 2 0 0 0 2-2V7H6zM8 9h8v10H8z"/></symbol><symbol viewBox="0 0 24 24" fill="currentColor" id="kp_icon_trending_down"><path d="M16 18l2.29-2.29-4.88-4.88-4 4L2 7.41 3.41 6l6 6 4-4 6.3 6.29L22 12v6z"/></symbol><symbol viewBox="0 0 24 24" fill="currentColor" id="kp_icon_trending_up"><path d="M16 6l2.29 2.29-4.88 4.88-4-4L2 16.59 3.41 18l6-6 4 4 6.3-6.29L22 12V6z"/></symbol><symbol viewBox="0 0 24 24" fill="currentColor" id="kp_icon_truck"><path d="M3 15h.78a2.99 2.99 0 0 1 4.44 0H15V6H3z" opacity=".3"/><path d="M17 8V4H3a2 2 0 0 0-2 2v11h2a3 3 0 1 0 6 0h6a3 3 0 1 0 6 0h2v-5l-3-4zM6 18c-.55 0-1-.45-1-1s.45-1 1-1 1 .45 1 1-.45 1-1 1zm9-3H8.22a2.97 2.97 0 0 0-4.44 0H3V6h12zm3 3c-.55 0-1-.45-1-1s.45-1 1-1 1 .45 1 1-.45 1-1 1zm-1-6V9.5h2.5l1.96 2.5z"/></symbol><symbol viewBox="0 0 24 24" fill="currentColor" id="kp_icon_tv"><path d="M3 5h18v12H3z" opacity=".3"/><path d="M21 3H3a2 2 0 0 0-2 2v12c0 1.1.9 2 2 2h5v2h8v-2h5a2 2 0 0 0 1.99-2L23 5a2 2 0 0 0-2-2zm0 14H3V5h18z"/></symbol><symbol viewBox="0 0 24 24" fill="currentColor" id="kp_icon_unlock"><path d="M6 20h12V10H6zm6-7c1.1 0 2 .9 2 2s-.9 2-2 2-2-.9-2-2 .9-2 2-2z" opacity=".3"/><path d="M18 8h-1V6A5 5 0 0 0 7 6h2a3 3 0 1 1 6 0v2H6a2 2 0 0 0-2 2v10c0 1.1.9 2 2 2h12a2 2 0 0 0 2-2V10a2 2 0 0 0-2-2zm0 12H6V10h12zm-6-3c1.1 0 2-.9 2-2s-.9-2-2-2-2 .9-2 2 .9 2 2 2z"/></symbol><symbol viewBox="0 0 24 24" fill="currentColor" id="kp_icon_upload_cloud"><path d="M19.21 12.04l-1.53-.11-.3-1.5A5.48 5.48 0 0 0 7.12 8.96l-.5.95-1.07.11A4 4 0 0 0 6 18h13a2.98 2.98 0 1 0 .21-5.96zm-5.76.96v3h-2.91v-3H8l4-4 4 4z" opacity=".3"/><path d="M19.35 10.04a7.49 7.49 0 0 0-14-2A6 6 0 0 0 6 20h13a4.98 4.98 0 1 0 .35-9.96zM19 18H6a4 4 0 0 1-.44-7.97l1.07-.11.5-.95a5.5 5.5 0 0 1 10.26 1.46l.3 1.5 1.53.11A2.98 2.98 0 0 1 19 18zM8 13h2.55v3h2.9v-3H16l-4-4z"/></symbol><symbol viewBox="0 0 24 24" fill="currentColor" id="kp_icon_upload"><path d="M9.83 12H11v6h2v-6h1.17L12 9.83z" opacity=".3"/><path d="M5 4h14v2H5zm7 3l-7 7h4v6h6v-6h4zm1 5v6h-2v-6H9.83L12 9.83 14.17 12z"/></symbol><symbol viewBox="0 0 24 24" fill="currentColor" id="kp_icon_user_check"><path d="M11 10a2 2 0 1 1 0-4 2 2 0 0 1 0 4zm-6 8c.2-.63 2.55-1.67 4.93-1.94L9 17l.99 1z" opacity=".3"/><path d="M11 12a4 4 0 1 0 0-8 4 4 0 0 0 0 8zm0-6c1.1 0 2 .9 2 2s-.9 2-2 2-2-.9-2-2 .9-2 2-2zm-1 12H5c.2-.63 2.55-1.67 4.93-1.94h.03l.46-.45L12 14.06a9.34 9.34 0 0 0-1-.06c-2.67 0-8 1.34-8 4v2h9zm10.6-5.5l-5.13 5.17-2.07-2.08L12 17l3.47 3.5L22 13.91z"/></symbol><symbol viewBox="0 0 24 24" fill="currentColor" id="kp_icon_user_plus"><path opacity=".3" d="M15 16c-2.69 0-5.77 1.28-6 2h12c-.2-.71-3.3-2-6-2z"/><circle opacity=".3" cx="15" cy="8" r="2"/><path d="M15 12a4 4 0 1 0 0-8 4 4 0 0 0 0 8zm0-6c1.1 0 2 .9 2 2s-.9 2-2 2-2-.9-2-2 .9-2 2-2zm0 8c-2.67 0-8 1.34-8 4v2h16v-2c0-2.66-5.33-4-8-4zm-6 4c.22-.72 3.31-2 6-2 2.7 0 5.8 1.29 6 2H9zm-3-3v-3h3v-2H6V7H4v3H1v2h3v3z"/></symbol><symbol viewBox="0 0 24 24" fill="currentColor" id="kp_icon_user"><path d="M12 16c2.7 0 5.8 1.29 6 2H6c.23-.72 3.31-2 6-2zm0-6a2 2 0 1 1 0-4 2 2 0 0 1 0 4z" opacity=".3"/><path d="M12 14c-2.67 0-8 1.34-8 4v2h16v-2c0-2.66-5.33-4-8-4zm-6 4c.22-.72 3.31-2 6-2 2.7 0 5.8 1.29 6 2zm6-6a4 4 0 1 0 0-8 4 4 0 0 0 0 8zm0-6c1.1 0 2 .9 2 2s-.9 2-2 2-2-.9-2-2 .9-2 2-2z"/></symbol><symbol viewBox="0 0 24 24" fill="currentColor" id="kp_icon_users"><circle opacity=".3" cx="9" cy="8.5" r="1.5"/><path opacity=".3" d="M4.77 17h4.28c.01-.06.12-.58.29-.99L9 16c-1.53 0-3.25.5-4.23 1z"/><path d="M9 12a3.5 3.5 0 1 0 0-7 3.5 3.5 0 0 0 0 7zm0-5a1.5 1.5 0 1 1 0 3 1.5 1.5 0 0 1 0-3zm.05 10H4.77c.99-.5 2.7-1 4.23-1l.34.01c.34-.73.93-1.33 1.64-1.81-.73-.13-1.42-.2-1.98-.2-2.34 0-7 1.17-7 3.5V19h7v-1.5c0-.17.02-.34.05-.5zm7.45-2.5c-1.84 0-5.5 1.01-5.5 3V19h11v-1.5c0-1.99-3.66-3-5.5-3zm1.21-1.82a2.5 2.5 0 1 0-1.21.32c.44 0 .85-.12 1.21-.32z"/></symbol><symbol viewBox="0 0 24 24" fill="currentColor" id="kp_icon_video_off"><path opacity=".3" d="M12.39 8L15 10.61V8zM5 8v8h9.73l-8-8z"/><path d="M3.41 1.86L2 3.27 4.73 6H4a1 1 0 0 0-1 1v10a1 1 0 0 0 1 1h12c.21 0 .39-.08.55-.18L19.73 21l1.41-1.41L3.41 1.86zM5 16V8h1.73l8 8H5zm10-8v2.61l6 6V6.5l-4 4V7a1 1 0 0 0-1-1h-5.61l2 2H15z"/></symbol><symbol viewBox="0 0 24 24" fill="currentColor" id="kp_icon_video"><path opacity=".3" d="M5 8h10v8H5z"/><path d="M17 7a1 1 0 0 0-1-1H4a1 1 0 0 0-1 1v10a1 1 0 0 0 1 1h12a1 1 0 0 0 1-1v-3.5l4 4v-11l-4 4V7zm-2 9H5V8h10v8z"/></symbol><symbol viewBox="0 0 24 24" fill="currentColor" id="kp_icon_voicemail"><path d="M18.5 6a5.5 5.5 0 0 0-4.24 9H9.74a5.5 5.5 0 1 0-4.24 2h13a5.5 5.5 0 1 0 0-11zm-13 9a3.5 3.5 0 1 1 0-7 3.5 3.5 0 0 1 0 7zm13 0a3.5 3.5 0 1 1 0-7 3.5 3.5 0 0 1 0 7z"/></symbol><symbol viewBox="0 0 24 24" fill="currentColor" id="kp_icon_volume_down"><path opacity=".3" d="M7 13h2.83L12 15.17V8.83L9.83 11H7z"/><path d="M16 7.97v8.05a4.47 4.47 0 0 0 0-8.05zM5 9v6h4l5 5V4L9 9H5zm7-.17v6.34L9.83 13H7v-2h2.83L12 8.83z"/></symbol><symbol viewBox="0 0 24 24" fill="currentColor" id="kp_icon_volume_mute"><path opacity=".3" d="M7.83 11H5v2h2.83L10 15.17v-3.76l-1.29-1.29z"/><path d="M4.34 2.93L2.93 4.34 7.29 8.7 7 9H3v6h4l5 5v-6.59l4.18 4.18c-.65.49-1.38.88-2.18 1.11v2.06a8.94 8.94 0 0 0 3.61-1.75l2.05 2.05 1.41-1.41L4.34 2.93zM10 15.17L7.83 13H5v-2h2.83l.88-.88L10 11.41v3.76zM19 12c0 .82-.15 1.61-.41 2.34l1.53 1.53A9 9 0 0 0 14 3.23v2.06A7 7 0 0 1 19 12zm-7-8l-1.88 1.88L12 7.76zm4.5 8A4.5 4.5 0 0 0 14 7.97v1.79l2.48 2.48.02-.24z"/></symbol><symbol viewBox="0 0 24 24" fill="currentColor" id="kp_icon_volume_up"><path d="M5 13h2.83L10 15.17V8.83L7.83 11H5z" opacity=".3"/><path d="M3 9v6h4l5 5V4L7 9zm7-.17v6.34L7.83 13H5v-2h2.83zm4-.86v8.05a4.47 4.47 0 0 0 0-8.05zm0-4.74v2.06a7 7 0 0 1 0 13.42v2.06a9 9 0 0 0 0-17.54z"/></symbol><symbol viewBox="0 0 24 24" fill="currentColor" id="kp_icon_volume"><path opacity=".3" d="M9 13h2.83L14 15.17V8.83L11.83 11H9z"/><path d="M7 9v6h4l5 5V4l-5 5H7zm7-.17v6.34L11.83 13H9v-2h2.83L14 8.83z"/></symbol><symbol viewBox="0 0 24 24" fill="currentColor" id="kp_icon_wifi_off"><path d="M21 11l2-2A15.54 15.54 0 0 0 9.3 4.69l2.58 2.58c3.3-.02 6.61 1.22 9.12 3.73zm-2 2a9.9 9.9 0 0 0-3.72-2.33l3.02 3.02zM9 17l3 3 3-3a4.24 4.24 0 0 0-6 0zM3.41 1.64L2 3.05 5.05 6.1A15.7 15.7 0 0 0 1 9l2 2a12.65 12.65 0 0 1 4.17-2.78l2.24 2.24A9.82 9.82 0 0 0 5 13l2 2a7 7 0 0 1 4.89-2.06l7.08 7.08 1.41-1.41z"/></symbol><symbol viewBox="0 0 24 24" fill="currentColor" id="kp_icon_wifi"><path d="M1 9l2 2a12.73 12.73 0 0 1 18 0l2-2A15.57 15.57 0 0 0 1 9zm8 8l3 3 3-3a4.24 4.24 0 0 0-6 0zm-4-4l2 2a7.07 7.07 0 0 1 10 0l2-2a9.91 9.91 0 0 0-14 0z"/></symbol><symbol viewBox="0 0 24 24" fill="currentColor" id="kp_icon_zap_off"><path d="M17 10h-3.61l2.28 2.28zm0-8H7v1.61l6.13 6.13zm-13.59.86L2 4.27l5 5V13h3v9l3.58-6.15L17.73 20l1.41-1.41z"/></symbol><symbol viewBox="0 0 24 24" fill="currentColor" id="kp_icon_zap"><path d="M17 10h-4l3-8H7v11h3v9z"/></symbol><symbol viewBox="0 0 24 24" fill="currentColor" id="kp_icon_reply"><path d="M10 9V5l-7 7 7 7v-4.1c5 0 8.5 1.6 11 5.1-1-5-4-10-11-11z"/></symbol><symbol viewBox="0 0 24 24" fill="currentColor" id="kp_icon_message_cirlce"><path opacity=".3" d="M11.5 3C7.4 3 4 6.4 4 10.5S7.4 18 11.5 18H13v2.3c3.6-2.3 6-6.1 6-9.8C19 6.4 15.6 3 11.5 3z"/><path d="M11.5 1C6.3 1 2 5.3 2 10.5c0 5.1 4 9.2 9 9.5v3.6l1.4-.7c5.1-2.5 8.6-7.4 8.6-12.4C21 5.3 16.7 1 11.5 1zM13 20.3V18h-1.5C7.4 18 4 14.6 4 10.5S7.4 3 11.5 3 19 6.4 19 10.5c0 3.7-2.4 7.5-6 9.8z"/></symbol><symbol viewBox="0 0 24 24" fill="currentColor" id="kp_icon_image_gallery"><path opacity=".3" d="M11 17h10V7H11v10zm3-3.53l1.43 1.72 2-2.58L20 15.99h-8l2-2.52z"/><path d="M1 5h2v14H1zm4 0h2v14H5zm17 0H10a1 1 0 0 0-1 1v12a1 1 0 0 0 1 1h12a1 1 0 0 0 1-1V6a1 1 0 0 0-1-1zm-1 12H11V7h10v10zm-3.57-4.38l-2 2.57L14 13.47l-2 2.52h8z"/></symbol><symbol viewBox="0 0 24 24" fill="currentColor" id="kp_icon_facebook"><path d="M15 22H9v-7H6V9h3V7.7C9 4.3 11.3 2 14.6 2c1 0 2.1 0 2.8.1H19v5.4h-3c-1 0-1 0-1 1V9h3.8l-1.5 6H15v7zm-4-2h2v-7h2.7l.5-2H13V8.5c0-1 0-3 3-3h1V4.1c-.7-.1-1.6-.1-2.4-.1C12.3 4 11 5.4 11 7.7V11H8v2h3v7z"/><path d="M11 20h2v-7h2.7l.5-2H13V8.5c0-1 0-3 3-3h1V4.1c-.7-.1-1.6-.1-2.4-.1C12.3 4 11 5.4 11 7.7V11H8v2h3v7z" opacity=".3"/></symbol><symbol viewBox="0 0 24 24" fill="currentColor" id="kp_icon_twitter"><path d="M15.3 5.6c-1.6 0-2.9 1.3-2.9 2.8V10c0 .3-.3.6-.6.6h-.1l-1.6-.2c-2.1-.3-4-1.2-5.9-2.8-.6 3.3.6 5.6 3.4 7.4l1.8 1c.3.2.4.5.2.8 0 .1-.1.1-.2.2l-1.6 1.2c.9.1 1.8 0 2.6-.1 4.7-.9 7.9-4.5 7.9-10.3-.1-.6-1.1-2.2-3-2.2zm-4.9 2.8c0-2.7 2.3-4.9 5-4.8 1.3 0 2.5.5 3.4 1.5.7 0 1.3.2 2.7-.6-.4 1.5-.5 2.2-1.3 3.2 0 7.6-4.7 11.4-9.5 12.3-3.3.7-8-.4-9.4-1.8.7-.1 3.5-.4 5.1-1.5C5 15.8-.5 12.6 3.1 3.9c1.7 2 3.4 3.3 5.2 4 1.3.4 1.6.4 2.1.5z"/><path d="M15.3 5.6c-1.6 0-2.9 1.3-2.9 2.8V10c0 .3-.3.6-.6.6h-.1l-1.6-.2c-2.1-.3-4-1.2-5.9-2.8-.6 3.3.6 5.6 3.4 7.4l1.8 1c.3.2.4.5.2.8 0 .1-.1.1-.2.2l-1.6 1.2c.9.1 1.8 0 2.6-.1 4.7-.9 7.9-4.5 7.9-10.3-.1-.6-1.1-2.2-3-2.2z" opacity=".3"/></symbol><symbol viewBox="0 0 24 24" fill="currentColor" id="kp_icon_whatsapp"><path d="M18.1 5.7c-2.9-2.9-7.7-2.9-10.6 0s-2.9 7.7 0 10.6l1.1 1.1L6.9 19c4.2.9 8.6-.1 11.2-2.7 2.9-2.9 2.9-7.7 0-10.6z" opacity=".3"/><path d="M19.5 4.3a9.48 9.48 0 0 0-13.4 0 9.59 9.59 0 0 0-.4 13.1l-2.5 2.5 1.5.5c5.4 1.8 11.3.8 14.8-2.7 3.7-3.6 3.7-9.7 0-13.4zM6.9 19l1.6-1.6-1.1-1.1c-2.9-2.9-2.9-7.7 0-10.6s7.7-2.9 10.6 0 2.9 7.7 0 10.6c-2.5 2.6-6.9 3.6-11.1 2.7z"/><path d="M17.1 12.6l-1.6-.8c-.2-.1-.4-.1-.5.1-.2.2-.6.8-.8.9-.1.2-.3.2-.5.1-1.4-.7-2.3-1.3-3.3-2.8-.2-.4.2-.4.7-1.3.1-.2 0-.3 0-.4-.1-.1-.5-1.3-.7-1.8-.2-.5-.4-.4-.5-.4h-.5c-.2 0-.5 0-.7.3-.2.2-.8.8-.8 2s.9 2.3 1 2.5a10 10 0 0 0 4.1 3.6c1.5.7 2.1.7 2.9.6.5-.1 1.4-.6 1.6-1.1.2-.6.2-1 .1-1.1-.1-.2-.3-.3-.5-.4z"/></symbol><symbol viewBox="0 0 24 24" fill="currentColor" id="kp_icon_youtube"><path d="M19.6 7c-.1-.3-.3-.5-.5-.6-.5-.1-2.6-.4-7.1-.4s-6.6.3-7.1.4c-.2.1-.4.3-.5.6-.1.4-.4 2.2-.4 5s.3 4.6.4 5c.1.3.3.5.5.6.5.1 2.6.4 7.1.4s6.6-.3 7.1-.4c.2-.1.5-.3.5-.6.1-.4.4-2.2.4-5s-.3-4.6-.4-5zM10 15.5v-7l6 3.5-6 3.5z" opacity=".3"/><path d="M19.6 7c-.1-.3-.3-.5-.5-.6-.5-.1-2.6-.4-7.1-.4s-6.6.3-7.1.4c-.2.1-.4.3-.5.6-.1.4-.4 2.2-.4 5s.3 4.6.4 5c.1.3.3.5.5.6.5.1 2.6.4 7.1.4s6.6-.3 7.1-.4c.2-.1.5-.3.5-.6.1-.4.4-2.2.4-5s-.3-4.6-.4-5zm1.9-.5c.5 1.8.5 5.5.5 5.5s0 3.7-.5 5.5c-.3 1-1 1.8-1.9 2-1.7.5-7.6.5-7.6.5s-5.9 0-7.6-.5c-.9-.3-1.7-1-1.9-2C2 15.7 2 12 2 12s0-3.7.5-5.5c.3-1 1-1.8 1.9-2C6.1 4 12 4 12 4s5.9 0 7.6.5c.9.2 1.7 1 1.9 2zm-11.5 9v-7l6 3.5-6 3.5z"/></symbol><symbol viewBox="0 0 24 24" fill="currentColor" id="kp_icon_instagram"><path d="M20 7.9c0-.8-.1-1.3-.3-1.8-.1-.4-.4-.8-.7-1.1s-.7-.6-1.1-.7c-.5-.2-1-.3-1.8-.3-1.1-.1-1.5-.1-4.1-.1-2.5 0-2.9 0-4.1.1-.8 0-1.3.1-1.8.3-.4.2-.8.4-1.1.7s-.6.7-.7 1.1c-.2.5-.3 1-.3 1.8-.1 1.1-.1 1.5-.1 4.1 0 2.5 0 2.9.1 4.1 0 .8.1 1.3.3 1.8.2.4.4.8.7 1.1s.7.5 1.1.7c.5.2 1 .3 1.8.3 1.1.1 1.5.1 4.1.1 2.5 0 2.9 0 4.1-.1.8 0 1.3-.1 1.8-.3.4-.2.8-.4 1.1-.7s.5-.7.7-1.1c.2-.5.3-1 .3-1.8.1-1.1.1-1.5.1-4.1 0-2.5 0-2.9-.1-4.1zM12 17c-2.8 0-5-2.2-5-5s2.2-5 5-5 5 2.2 5 5-2.2 5-5 5zm5.3-9c-.6 0-1.3-.5-1.3-1.2s.6-1.2 1.2-1.2 1.3.5 1.3 1.2S17.9 8 17.3 8z" opacity=".3"/><path d="M21.5 5.6a5.67 5.67 0 0 0-5.4-3.5C15.1 2 14.7 2 12 2H8c-1 .1-1.8.3-2.4.5-.7.3-1.3.7-1.8 1.2-.6.5-.9 1.1-1.2 1.8-.3.6-.4 1.4-.5 2.4C2 8.9 2 9.3 2 12v4c.1 1 .3 1.8.5 2.4.3.7.7 1.3 1.2 1.8.5.6 1.1.9 1.8 1.2.6.3 1.3.5 2.4.5 1 .1 1.4.1 4.1.1h4c1-.1 1.8-.3 2.4-.5.7-.3 1.3-.7 1.8-1.2.6-.5.9-1.1 1.2-1.8.3-.6.5-1.3.5-2.4.1-1 .1-1.4.1-4.1V8c-.1-1-.3-1.8-.5-2.4zM20 16.1c0 .8-.1 1.3-.3 1.8-.2.4-.4.8-.7 1.1s-.7.5-1.1.7c-.5.2-1 .3-1.8.3-1.2.1-1.6.1-4.1.1-2.6 0-3 0-4.1-.1-.8 0-1.3-.1-1.8-.3-.4-.2-.8-.4-1.1-.7s-.5-.7-.7-1.1c-.2-.5-.3-1-.3-1.8-.1-1.2-.1-1.6-.1-4.1 0-2.6 0-3 .1-4.1 0-.8.1-1.3.3-1.8.1-.4.4-.8.7-1.1s.7-.5 1.1-.7c.5-.2 1-.3 1.8-.3 1.2-.1 1.6-.1 4.1-.1 2.6 0 3 0 4.1.1.8 0 1.3.1 1.8.3.4.1.8.4 1.1.7s.6.7.7 1.1c.2.5.3 1 .3 1.8.1 1.2.1 1.6.1 4.1 0 2.6 0 3-.1 4.1z"/><path d="M12 7c-2.8 0-5 2.2-5 5s2.2 5 5 5 5-2.2 5-5-2.2-5-5-5zm0 8c-1.7 0-3-1.3-3-3s1.3-3 3-3 3 1.3 3 3-1.3 3-3 3zm5.2-9.4c-.6 0-1.2.5-1.2 1.2S16.7 8 17.3 8c.6 0 1.2-.5 1.2-1.2s-.7-1.2-1.3-1.2z"/></symbol></svg>